%TF.GenerationSoftware,KiCad,Pcbnew,9.0.3*%
%TF.CreationDate,2026-04-10T16:49:53-05:00*%
%TF.ProjectId,esp32xlegend,65737033-3278-46c6-9567-656e642e6b69,rev?*%
%TF.SameCoordinates,Original*%
%TF.FileFunction,Paste,Top*%
%TF.FilePolarity,Positive*%
%FSLAX46Y46*%
G04 Gerber Fmt 4.6, Leading zero omitted, Abs format (unit mm)*
G04 Created by KiCad (PCBNEW 9.0.3) date 2026-04-10 16:49:53*
%MOMM*%
%LPD*%
G01*
G04 APERTURE LIST*
G04 Aperture macros list*
%AMRoundRect*
0 Rectangle with rounded corners*
0 $1 Rounding radius*
0 $2 $3 $4 $5 $6 $7 $8 $9 X,Y pos of 4 corners*
0 Add a 4 corners polygon primitive as box body*
4,1,4,$2,$3,$4,$5,$6,$7,$8,$9,$2,$3,0*
0 Add four circle primitives for the rounded corners*
1,1,$1+$1,$2,$3*
1,1,$1+$1,$4,$5*
1,1,$1+$1,$6,$7*
1,1,$1+$1,$8,$9*
0 Add four rect primitives between the rounded corners*
20,1,$1+$1,$2,$3,$4,$5,0*
20,1,$1+$1,$4,$5,$6,$7,0*
20,1,$1+$1,$6,$7,$8,$9,0*
20,1,$1+$1,$8,$9,$2,$3,0*%
G04 Aperture macros list end*
%ADD10RoundRect,0.218750X-0.218750X-0.256250X0.218750X-0.256250X0.218750X0.256250X-0.218750X0.256250X0*%
%ADD11RoundRect,0.135000X-0.185000X0.135000X-0.185000X-0.135000X0.185000X-0.135000X0.185000X0.135000X0*%
%ADD12RoundRect,0.135000X0.185000X-0.135000X0.185000X0.135000X-0.185000X0.135000X-0.185000X-0.135000X0*%
%ADD13R,1.000000X0.550000*%
%ADD14R,0.600000X1.200000*%
%ADD15RoundRect,0.225000X-0.225000X-0.250000X0.225000X-0.250000X0.225000X0.250000X-0.225000X0.250000X0*%
%ADD16RoundRect,0.140000X-0.140000X-0.170000X0.140000X-0.170000X0.140000X0.170000X-0.140000X0.170000X0*%
%ADD17R,0.600000X0.250000*%
%ADD18R,0.250000X0.600000*%
%ADD19R,4.100000X2.100000*%
%ADD20RoundRect,0.140000X0.140000X0.170000X-0.140000X0.170000X-0.140000X-0.170000X0.140000X-0.170000X0*%
%ADD21RoundRect,0.140000X0.170000X-0.140000X0.170000X0.140000X-0.170000X0.140000X-0.170000X-0.140000X0*%
%ADD22RoundRect,0.140000X-0.170000X0.140000X-0.170000X-0.140000X0.170000X-0.140000X0.170000X0.140000X0*%
%ADD23RoundRect,0.200000X-0.200000X-0.275000X0.200000X-0.275000X0.200000X0.275000X-0.200000X0.275000X0*%
%ADD24RoundRect,0.235000X0.235000X0.235000X-0.235000X0.235000X-0.235000X-0.235000X0.235000X-0.235000X0*%
%ADD25RoundRect,0.062500X0.337500X0.062500X-0.337500X0.062500X-0.337500X-0.062500X0.337500X-0.062500X0*%
%ADD26RoundRect,0.062500X0.062500X0.337500X-0.062500X0.337500X-0.062500X-0.337500X0.062500X-0.337500X0*%
%ADD27RoundRect,0.162500X0.617500X0.162500X-0.617500X0.162500X-0.617500X-0.162500X0.617500X-0.162500X0*%
%ADD28R,1.700000X0.800000*%
%ADD29RoundRect,0.135000X0.135000X0.185000X-0.135000X0.185000X-0.135000X-0.185000X0.135000X-0.185000X0*%
%ADD30RoundRect,0.135000X-0.135000X-0.185000X0.135000X-0.185000X0.135000X0.185000X-0.135000X0.185000X0*%
%ADD31RoundRect,0.200000X0.275000X-0.200000X0.275000X0.200000X-0.275000X0.200000X-0.275000X-0.200000X0*%
%ADD32RoundRect,0.200000X0.200000X0.275000X-0.200000X0.275000X-0.200000X-0.275000X0.200000X-0.275000X0*%
%ADD33RoundRect,0.250000X-0.375000X-0.850000X0.375000X-0.850000X0.375000X0.850000X-0.375000X0.850000X0*%
%ADD34R,1.400000X0.600000*%
%ADD35R,1.800000X1.250000*%
%ADD36RoundRect,0.225000X0.225000X0.250000X-0.225000X0.250000X-0.225000X-0.250000X0.225000X-0.250000X0*%
%ADD37R,0.900000X1.500000*%
%ADD38R,1.500000X0.900000*%
%ADD39R,0.900000X0.900000*%
G04 APERTURE END LIST*
D10*
%TO.C,RAND15*%
X166370000Y-77290000D03*
X167945000Y-77290000D03*
%TD*%
%TO.C,RAND14*%
X162212500Y-77320000D03*
X163787500Y-77320000D03*
%TD*%
%TO.C,RAND13*%
X157992500Y-77260000D03*
X159567500Y-77260000D03*
%TD*%
%TO.C,RAND12*%
X153802500Y-77260000D03*
X155377500Y-77260000D03*
%TD*%
%TO.C,RAND11*%
X149662500Y-77290000D03*
X151237500Y-77290000D03*
%TD*%
%TO.C,RAND10*%
X145502500Y-77300001D03*
X147077500Y-77300001D03*
%TD*%
D11*
%TO.C,R7*%
X152490000Y-77590000D03*
X152490000Y-76570002D03*
%TD*%
%TO.C,R25*%
X148360000Y-76610002D03*
X148360000Y-77630000D03*
%TD*%
D12*
%TO.C,R21*%
X167300000Y-79709999D03*
X167300000Y-78690001D03*
%TD*%
D11*
%TO.C,R20*%
X165020000Y-76610001D03*
X165020000Y-77629999D03*
%TD*%
%TO.C,R19*%
X160830000Y-76540002D03*
X160830000Y-77560000D03*
%TD*%
%TO.C,R14*%
X156640000Y-76570002D03*
X156640000Y-77590000D03*
%TD*%
D13*
%TO.C,Q6*%
X165729998Y-80230000D03*
X165729998Y-78930000D03*
X163829999Y-79580000D03*
%TD*%
%TO.C,Q5*%
X162225998Y-80230000D03*
X162225998Y-78930000D03*
X160325999Y-79580000D03*
%TD*%
%TO.C,Q4*%
X158721999Y-80230000D03*
X158721999Y-78930000D03*
X156822000Y-79580000D03*
%TD*%
%TO.C,Q3*%
X148210000Y-80230000D03*
X148210000Y-78930000D03*
X146310001Y-79580000D03*
%TD*%
%TO.C,Q2*%
X155217999Y-80230000D03*
X155217999Y-78930000D03*
X153318000Y-79580000D03*
%TD*%
%TO.C,Q1*%
X151714000Y-80230000D03*
X151714000Y-78930000D03*
X149814001Y-79580000D03*
%TD*%
D14*
%TO.C,IC4*%
X158482501Y-135450000D03*
X159432501Y-135449999D03*
X160382501Y-135450000D03*
X160382501Y-132950000D03*
X159432501Y-132950001D03*
X158482501Y-132950000D03*
%TD*%
D15*
%TO.C,C18*%
X167165000Y-86930000D03*
X165615000Y-86930000D03*
%TD*%
D11*
%TO.C,R30*%
X168470000Y-81272501D03*
X168470000Y-82292499D03*
%TD*%
%TO.C,R5*%
X168460000Y-84190000D03*
X168460000Y-85209998D03*
%TD*%
D12*
%TO.C,R4*%
X168480000Y-88590000D03*
X168480000Y-87570002D03*
%TD*%
D11*
%TO.C,R3*%
X168500000Y-90282500D03*
X168500000Y-91302500D03*
%TD*%
D16*
%TO.C,C10*%
X151480000Y-105510000D03*
X152440000Y-105510000D03*
%TD*%
%TO.C,C9*%
X154060000Y-105500000D03*
X155020000Y-105500000D03*
%TD*%
D17*
%TO.C,IC2*%
X160560000Y-99900000D03*
D18*
X160160000Y-99000000D03*
X159660000Y-99000000D03*
X159160000Y-99000000D03*
X158660000Y-99000000D03*
X158160000Y-99000000D03*
X157660000Y-99000000D03*
X157160000Y-99000000D03*
X156660000Y-99000000D03*
X156160000Y-99000000D03*
X155660000Y-99000000D03*
D17*
X155260000Y-99900000D03*
X155260000Y-101400000D03*
D18*
X155660000Y-102300000D03*
X156160000Y-102300000D03*
X156660000Y-102300000D03*
X157160000Y-102300000D03*
X157660000Y-102300000D03*
X158160000Y-102300000D03*
X158660000Y-102300000D03*
X159160000Y-102300000D03*
X159660000Y-102300000D03*
X160160000Y-102300000D03*
D17*
X160560000Y-101400000D03*
D19*
X157910000Y-100650000D03*
%TD*%
D16*
%TO.C,C15*%
X162460000Y-98800000D03*
X163420000Y-98800000D03*
%TD*%
%TO.C,C14*%
X162460000Y-99860000D03*
X163420000Y-99860000D03*
%TD*%
%TO.C,C11*%
X162450000Y-101230000D03*
X163410000Y-101230000D03*
%TD*%
%TO.C,C7*%
X162450000Y-102290000D03*
X163410000Y-102290000D03*
%TD*%
D20*
%TO.C,C6*%
X165400000Y-98840000D03*
X164440000Y-98840000D03*
%TD*%
%TO.C,C61*%
X165420003Y-102440001D03*
X164460003Y-102440001D03*
%TD*%
D21*
%TO.C,C39*%
X153320000Y-97540000D03*
X153320000Y-96580000D03*
%TD*%
D22*
%TO.C,C38*%
X153330000Y-98500000D03*
X153330000Y-99460000D03*
%TD*%
%TO.C,C37*%
X153320000Y-102350000D03*
X153320000Y-103310000D03*
%TD*%
D21*
%TO.C,C36*%
X153310000Y-101370000D03*
X153310000Y-100410000D03*
%TD*%
D20*
%TO.C,C35*%
X165400000Y-99880000D03*
X164440000Y-99880000D03*
%TD*%
%TO.C,C34*%
X165420000Y-101380000D03*
X164460000Y-101380000D03*
%TD*%
D23*
%TO.C,R9*%
X172125001Y-139780000D03*
X170475001Y-139780000D03*
%TD*%
D24*
%TO.C,U2*%
X160260000Y-89520000D03*
X160260000Y-88350000D03*
X160260000Y-87180000D03*
X159090000Y-89520000D03*
X159090000Y-88350000D03*
X159090000Y-87180000D03*
X157920000Y-89520000D03*
X157920000Y-88350000D03*
X157920000Y-87180000D03*
D25*
X162540000Y-91100000D03*
X162540000Y-90600000D03*
X162540000Y-90099999D03*
X162540000Y-89600000D03*
X162539999Y-89100000D03*
X162540000Y-88600000D03*
X162540000Y-88100000D03*
X162539999Y-87600000D03*
X162540000Y-87100000D03*
X162540000Y-86600001D03*
X162540000Y-86100000D03*
X162540000Y-85600000D03*
D26*
X161840000Y-84900000D03*
X161340000Y-84900000D03*
X160839999Y-84900000D03*
X160340000Y-84900000D03*
X159840000Y-84900001D03*
X159340000Y-84900000D03*
X158840000Y-84900000D03*
X158340000Y-84900001D03*
X157840000Y-84900000D03*
X157340001Y-84900000D03*
X156840000Y-84900000D03*
X156340000Y-84900000D03*
D25*
X155640000Y-85600000D03*
X155640000Y-86100000D03*
X155640000Y-86600001D03*
X155640000Y-87100000D03*
X155640001Y-87600000D03*
X155640000Y-88100000D03*
X155640000Y-88600000D03*
X155640001Y-89100000D03*
X155640000Y-89600000D03*
X155640000Y-90099999D03*
X155640000Y-90600000D03*
X155640000Y-91100000D03*
D26*
X156340000Y-91800000D03*
X156840000Y-91800000D03*
X157340001Y-91800000D03*
X157840000Y-91800000D03*
X158340000Y-91799999D03*
X158840000Y-91800000D03*
X159340000Y-91800000D03*
X159840000Y-91799999D03*
X160340000Y-91800000D03*
X160839999Y-91800000D03*
X161340000Y-91800000D03*
X161840000Y-91800000D03*
%TD*%
D27*
%TO.C,U1*%
X168450001Y-134745000D03*
X168450001Y-133795000D03*
X168450001Y-132845000D03*
X165750001Y-132845000D03*
X165750001Y-134745000D03*
%TD*%
D28*
%TO.C,RST_ESP1*%
X154540000Y-132679999D03*
X154540000Y-136080001D03*
%TD*%
D29*
%TO.C,R24*%
X172620000Y-142425000D03*
X171600002Y-142425000D03*
%TD*%
D30*
%TO.C,R15*%
X149650000Y-135920000D03*
X150670000Y-135920000D03*
%TD*%
D12*
%TO.C,R12*%
X156657501Y-107209999D03*
X156657501Y-106190001D03*
%TD*%
D11*
%TO.C,R11*%
X168920000Y-108300001D03*
X168920000Y-109319999D03*
%TD*%
D31*
%TO.C,R10*%
X168760001Y-139155000D03*
X168760001Y-137505000D03*
%TD*%
D32*
%TO.C,R8*%
X172135000Y-138229999D03*
X170485000Y-138229999D03*
%TD*%
D11*
%TO.C,R2*%
X153470000Y-138370002D03*
X153470000Y-139390000D03*
%TD*%
%TO.C,R1*%
X165810001Y-138335002D03*
X165810001Y-139355000D03*
%TD*%
D33*
%TO.C,L1*%
X170565001Y-134440000D03*
X172715001Y-134440000D03*
%TD*%
D17*
%TO.C,IC11*%
X167370000Y-101160000D03*
D18*
X167770000Y-102060000D03*
X168270000Y-102060000D03*
X168770000Y-102060000D03*
X169270000Y-102060000D03*
X169770000Y-102060000D03*
X170270000Y-102060000D03*
X170770000Y-102060000D03*
X171270000Y-102060000D03*
X171770000Y-102060000D03*
X172270000Y-102060000D03*
D17*
X172670000Y-101160000D03*
X172670000Y-99660000D03*
D18*
X172270000Y-98760000D03*
X171770000Y-98760000D03*
X171270000Y-98760000D03*
X170770000Y-98760000D03*
X170270000Y-98760000D03*
X169770000Y-98760000D03*
X169270000Y-98760000D03*
X168770000Y-98760000D03*
X168270000Y-98760000D03*
X167770000Y-98760000D03*
D17*
X167370000Y-99660000D03*
D19*
X170020000Y-100410000D03*
%TD*%
D34*
%TO.C,IC6*%
X152010000Y-106955000D03*
X152010000Y-107905000D03*
X152010000Y-108855000D03*
X154510000Y-108855000D03*
X154510000Y-106955000D03*
%TD*%
D17*
%TO.C,IC3*%
X151380000Y-100000000D03*
D18*
X150980000Y-99100000D03*
X150480000Y-99100000D03*
X149980000Y-99100000D03*
X149480000Y-99100000D03*
X148980000Y-99100000D03*
X148480000Y-99100000D03*
X147980000Y-99100000D03*
X147480000Y-99100000D03*
X146980000Y-99100000D03*
X146480000Y-99100000D03*
D17*
X146080000Y-100000000D03*
X146080000Y-101500000D03*
D18*
X146480000Y-102400000D03*
X146980000Y-102400000D03*
X147480000Y-102400000D03*
X147980000Y-102400000D03*
X148480000Y-102400000D03*
X148980000Y-102400000D03*
X149480000Y-102400000D03*
X149980000Y-102400000D03*
X150480000Y-102400000D03*
X150980000Y-102400000D03*
D17*
X151380000Y-101500000D03*
D19*
X148730000Y-100750000D03*
%TD*%
D35*
%TO.C,FB2*%
X163300000Y-133350000D03*
X163300000Y-136250000D03*
%TD*%
D10*
%TO.C,DEBUG3*%
X158010000Y-106950000D03*
X159585002Y-106950000D03*
%TD*%
D15*
%TO.C,C17*%
X165615000Y-85390000D03*
X167165000Y-85390000D03*
%TD*%
D36*
%TO.C,C16*%
X151610000Y-88720000D03*
X150060000Y-88720000D03*
%TD*%
%TO.C,C13*%
X151610000Y-90300000D03*
X150060000Y-90300000D03*
%TD*%
%TO.C,C12*%
X151590000Y-91880000D03*
X150040000Y-91880000D03*
%TD*%
%TO.C,C8*%
X151145000Y-134400000D03*
X149595000Y-134400000D03*
%TD*%
%TO.C,C5*%
X151185000Y-132690000D03*
X149635000Y-132690000D03*
%TD*%
D20*
%TO.C,C4*%
X169050001Y-136265000D03*
X168090001Y-136265000D03*
%TD*%
D15*
%TO.C,C3*%
X165295001Y-136650000D03*
X166845001Y-136650000D03*
%TD*%
D36*
%TO.C,C2*%
X171925001Y-132150000D03*
X170375001Y-132150000D03*
%TD*%
%TO.C,C1*%
X172085001Y-136680000D03*
X170535001Y-136680000D03*
%TD*%
D28*
%TO.C,BOOT_ESP1*%
X171770000Y-108360000D03*
X171770000Y-104959998D03*
%TD*%
D10*
%TO.C,3V3_1*%
X168822500Y-142465000D03*
X170397502Y-142465000D03*
%TD*%
D15*
%TO.C,C19*%
X165635000Y-88480000D03*
X167185000Y-88480000D03*
%TD*%
D37*
%TO.C,IC1*%
X153910000Y-129170000D03*
X155180000Y-129170000D03*
X156450000Y-129170000D03*
X157720000Y-129170000D03*
X158990000Y-129170000D03*
X160260000Y-129170000D03*
X161530000Y-129170000D03*
X162800000Y-129170000D03*
X164070000Y-129170000D03*
X165340000Y-129170000D03*
X166610000Y-129170000D03*
X167880000Y-129170000D03*
X169150000Y-129170000D03*
X170420000Y-129170000D03*
D38*
X171670000Y-127405000D03*
X171670000Y-126135000D03*
X171670000Y-124865000D03*
X171670000Y-123595000D03*
X171670000Y-122325000D03*
X171670000Y-121055000D03*
X171670000Y-119785000D03*
X171670000Y-118515000D03*
X171670000Y-117245000D03*
X171670000Y-115975000D03*
X171670000Y-114705000D03*
X171670000Y-113435000D03*
D37*
X170420000Y-111670000D03*
X169150000Y-111670000D03*
X167880000Y-111670000D03*
X166610000Y-111670000D03*
X165340000Y-111670000D03*
X164070000Y-111670000D03*
X162800000Y-111670000D03*
X161530000Y-111670000D03*
X160260000Y-111670000D03*
X158990000Y-111670000D03*
X157720000Y-111670000D03*
X156450000Y-111670000D03*
X155180000Y-111670000D03*
X153910000Y-111670000D03*
D39*
X161630000Y-121920000D03*
X160230000Y-121920000D03*
X160230000Y-123320000D03*
X161630000Y-123320000D03*
X163030000Y-123320000D03*
X163030000Y-121920000D03*
X163030000Y-120520000D03*
X161630000Y-120520000D03*
X160230000Y-120520000D03*
%TD*%
M02*
