%TF.GenerationSoftware,KiCad,Pcbnew,9.0.3*%
%TF.CreationDate,2026-04-10T16:49:53-05:00*%
%TF.ProjectId,esp32xlegend,65737033-3278-46c6-9567-656e642e6b69,rev?*%
%TF.SameCoordinates,Original*%
%TF.FileFunction,Legend,Bot*%
%TF.FilePolarity,Positive*%
%FSLAX46Y46*%
G04 Gerber Fmt 4.6, Leading zero omitted, Abs format (unit mm)*
G04 Created by KiCad (PCBNEW 9.0.3) date 2026-04-10 16:49:53*
%MOMM*%
%LPD*%
G01*
G04 APERTURE LIST*
%ADD10C,0.100000*%
%ADD11C,0.000000*%
G04 APERTURE END LIST*
D10*
G36*
X149102660Y-122105204D02*
G01*
X149190871Y-122102077D01*
X149237787Y-122094945D01*
X149252668Y-122086488D01*
X149257510Y-122071071D01*
X149251709Y-121919396D01*
X149245908Y-121767782D01*
X149247984Y-121625022D01*
X149250000Y-121482262D01*
X149245725Y-121469439D01*
X149232903Y-121465165D01*
X149008077Y-121470233D01*
X148782580Y-121475362D01*
X148545115Y-121468218D01*
X148307588Y-121461074D01*
X148296484Y-121465169D01*
X148292568Y-121478171D01*
X148294644Y-121515724D01*
X148296659Y-121554009D01*
X148294644Y-121592233D01*
X148292568Y-121630518D01*
X148296057Y-121643099D01*
X148305512Y-121646882D01*
X148523377Y-121641386D01*
X148741913Y-121635952D01*
X148849808Y-121635952D01*
X148957702Y-121635219D01*
X149068593Y-121638082D01*
X149103746Y-121643279D01*
X149109316Y-121647554D01*
X149105996Y-121883972D01*
X149097958Y-122028023D01*
X149093562Y-122059469D01*
X149089776Y-122090854D01*
X149093112Y-122101742D01*
X149102660Y-122105204D01*
G37*
G36*
X149110964Y-122831887D02*
G01*
X149142777Y-122826392D01*
X149174590Y-122818881D01*
X149247252Y-122809356D01*
X149256397Y-122803354D01*
X149259586Y-122791587D01*
X149256838Y-122765636D01*
X149248121Y-122670018D01*
X149244443Y-122505396D01*
X149247252Y-122355064D01*
X149250000Y-122204794D01*
X149244840Y-122187657D01*
X149230216Y-122182262D01*
X149000566Y-122190750D01*
X148770917Y-122199298D01*
X148480940Y-122191116D01*
X148317847Y-122183606D01*
X148308260Y-122182934D01*
X148296703Y-122186806D01*
X148292568Y-122200703D01*
X148295254Y-122344134D01*
X148297941Y-122487566D01*
X148295254Y-122624525D01*
X148292568Y-122761545D01*
X148298192Y-122787562D01*
X148311985Y-122796350D01*
X148421772Y-122810699D01*
X148433343Y-122806914D01*
X148437159Y-122795678D01*
X148431297Y-122619762D01*
X148425436Y-122442503D01*
X148430270Y-122392333D01*
X148440518Y-122371795D01*
X148461719Y-122361901D01*
X148515195Y-122357140D01*
X148617349Y-122357140D01*
X148666015Y-122359216D01*
X148681494Y-122370400D01*
X148687264Y-122394692D01*
X148686592Y-122417957D01*
X148686592Y-122441160D01*
X148682074Y-122681617D01*
X148675540Y-122779986D01*
X148677975Y-122790827D01*
X148687691Y-122794335D01*
X148753881Y-122789206D01*
X148820682Y-122784077D01*
X148829354Y-122779779D01*
X148832955Y-122763621D01*
X148828131Y-122702805D01*
X148824040Y-122530675D01*
X148826788Y-122387854D01*
X148831055Y-122371955D01*
X148840295Y-122361901D01*
X148855547Y-122356468D01*
X148908304Y-122357140D01*
X149009726Y-122357140D01*
X149057432Y-122360503D01*
X149084705Y-122368492D01*
X149098813Y-122379000D01*
X149108478Y-122402863D01*
X149113224Y-122464363D01*
X149112491Y-122539528D01*
X149094417Y-122807951D01*
X149093684Y-122818210D01*
X149096864Y-122828101D01*
X149110964Y-122831887D01*
G37*
G36*
X148360956Y-123485420D02*
G01*
X148427390Y-123447868D01*
X148485886Y-123421184D01*
X148491870Y-123410254D01*
X148468422Y-123344309D01*
X148450094Y-123280064D01*
X148444975Y-123234705D01*
X148450268Y-123185970D01*
X148464258Y-123151996D01*
X148485691Y-123128782D01*
X148515569Y-123114306D01*
X148556899Y-123108981D01*
X148584441Y-123113644D01*
X148610986Y-123128137D01*
X148637549Y-123154669D01*
X148664488Y-123197091D01*
X148753637Y-123361100D01*
X148792052Y-123399679D01*
X148835797Y-123426830D01*
X148885943Y-123443429D01*
X148944146Y-123449211D01*
X149004279Y-123444146D01*
X149057448Y-123429534D01*
X149104922Y-123405719D01*
X149147637Y-123372330D01*
X149186130Y-123328311D01*
X149220173Y-123272371D01*
X149244924Y-123209974D01*
X149260286Y-123140021D01*
X149265631Y-123061170D01*
X149262622Y-123010616D01*
X149256299Y-122988856D01*
X149249145Y-122981974D01*
X149172880Y-122969640D01*
X149111086Y-122952604D01*
X149099363Y-122950528D01*
X149092226Y-122953036D01*
X149089776Y-122960786D01*
X149093684Y-123010978D01*
X149097592Y-123061903D01*
X149092296Y-123136821D01*
X149078423Y-123190443D01*
X149058155Y-123227909D01*
X149032324Y-123253112D01*
X149000256Y-123268293D01*
X148959900Y-123273661D01*
X148929350Y-123268955D01*
X148900326Y-123254533D01*
X148871814Y-123228686D01*
X148843396Y-123188237D01*
X148750889Y-123029113D01*
X148712909Y-122991428D01*
X148669735Y-122964891D01*
X148620323Y-122948667D01*
X148563066Y-122943018D01*
X148500556Y-122948584D01*
X148446676Y-122964500D01*
X148399794Y-122990278D01*
X148358757Y-123026366D01*
X148327002Y-123068954D01*
X148304029Y-123117426D01*
X148289750Y-123172887D01*
X148284752Y-123236781D01*
X148288955Y-123293089D01*
X148302948Y-123362444D01*
X148326948Y-123433890D01*
X148351857Y-123478581D01*
X148360956Y-123485420D01*
G37*
G36*
X149091058Y-124344300D02*
G01*
X149099650Y-124341775D01*
X149114384Y-124331294D01*
X149171380Y-124274137D01*
X149214414Y-124213335D01*
X149244827Y-124148290D01*
X149263245Y-124078053D01*
X149269539Y-124001383D01*
X149263214Y-123920621D01*
X149244956Y-123848795D01*
X149215270Y-123784378D01*
X149173882Y-123726192D01*
X149119757Y-123673487D01*
X149062426Y-123632931D01*
X148999712Y-123601174D01*
X148930884Y-123578037D01*
X148855019Y-123563711D01*
X148771039Y-123558754D01*
X148687203Y-123563776D01*
X148611251Y-123578309D01*
X148542123Y-123601825D01*
X148478916Y-123634169D01*
X148420917Y-123675563D01*
X148365904Y-123728911D01*
X148323938Y-123787514D01*
X148293913Y-123852095D01*
X148275491Y-123923802D01*
X148269120Y-124004131D01*
X148275233Y-124086597D01*
X148292683Y-124158300D01*
X148320681Y-124221006D01*
X148359195Y-124276104D01*
X148408949Y-124324516D01*
X148423063Y-124333156D01*
X148432824Y-124335446D01*
X148448948Y-124329854D01*
X148501395Y-124299237D01*
X148550753Y-124264797D01*
X148558304Y-124255518D01*
X148553092Y-124244827D01*
X148524720Y-124213874D01*
X148487287Y-124173065D01*
X148462927Y-124138037D01*
X148444354Y-124097742D01*
X148433154Y-124054704D01*
X148429344Y-124008222D01*
X148436129Y-123942809D01*
X148455542Y-123887182D01*
X148487282Y-123839270D01*
X148532536Y-123797807D01*
X148579969Y-123769361D01*
X148633766Y-123748506D01*
X148695006Y-123735456D01*
X148764994Y-123730884D01*
X148834960Y-123735388D01*
X148896581Y-123748279D01*
X148951079Y-123768927D01*
X148999467Y-123797135D01*
X149046118Y-123838773D01*
X149078670Y-123886656D01*
X149098496Y-123942006D01*
X149105408Y-124006878D01*
X149101738Y-124050679D01*
X149090698Y-124093527D01*
X149071946Y-124135961D01*
X149046454Y-124176078D01*
X149009909Y-124219309D01*
X148976448Y-124258265D01*
X148982759Y-124265312D01*
X149031036Y-124303328D01*
X149080895Y-124339084D01*
X149091058Y-124344300D01*
G37*
G36*
X148850424Y-124396289D02*
G01*
X148924809Y-124412061D01*
X148993831Y-124437891D01*
X149058304Y-124473914D01*
X149118841Y-124520704D01*
X149173808Y-124578093D01*
X149215578Y-124639593D01*
X149245274Y-124705846D01*
X149263344Y-124777825D01*
X149269539Y-124856782D01*
X149263337Y-124935398D01*
X149245227Y-125007221D01*
X149215428Y-125073487D01*
X149173461Y-125135157D01*
X149118169Y-125192861D01*
X149057332Y-125239726D01*
X148992757Y-125275761D01*
X148923848Y-125301564D01*
X148849812Y-125317296D01*
X148769696Y-125322676D01*
X148689609Y-125317272D01*
X148615591Y-125301468D01*
X148546684Y-125275541D01*
X148482094Y-125239319D01*
X148421222Y-125192189D01*
X148365599Y-125134434D01*
X148323422Y-125072799D01*
X148293505Y-125006662D01*
X148275338Y-124935067D01*
X148269120Y-124856782D01*
X148269227Y-124855439D01*
X148429344Y-124855439D01*
X148435988Y-124918878D01*
X148455402Y-124975632D01*
X148487787Y-125027249D01*
X148534612Y-125074708D01*
X148586374Y-125111207D01*
X148641877Y-125137037D01*
X148701938Y-125152699D01*
X148767620Y-125158056D01*
X148834040Y-125152726D01*
X148894691Y-125137160D01*
X148950637Y-125111527D01*
X149002704Y-125075380D01*
X149050153Y-125027844D01*
X149082942Y-124976097D01*
X149102591Y-124919154D01*
X149109316Y-124855439D01*
X149102621Y-124792789D01*
X149083028Y-124736629D01*
X149050253Y-124685415D01*
X149002704Y-124638185D01*
X148950651Y-124602292D01*
X148895028Y-124576891D01*
X148835049Y-124561500D01*
X148769696Y-124556242D01*
X148703954Y-124561511D01*
X148643731Y-124576919D01*
X148587998Y-124602324D01*
X148535956Y-124638185D01*
X148488406Y-124685415D01*
X148455631Y-124736629D01*
X148436038Y-124792789D01*
X148429344Y-124855439D01*
X148269227Y-124855439D01*
X148275329Y-124778794D01*
X148293479Y-124707407D01*
X148323384Y-124641397D01*
X148365565Y-124579816D01*
X148421222Y-124522048D01*
X148482414Y-124474606D01*
X148547175Y-124438188D01*
X148616093Y-124412153D01*
X148689952Y-124396303D01*
X148769696Y-124390889D01*
X148850424Y-124396289D01*
G37*
G36*
X148321755Y-125433989D02*
G01*
X148562379Y-125445900D01*
X148779038Y-125449682D01*
X149004291Y-125443210D01*
X149228811Y-125436737D01*
X149245069Y-125441317D01*
X149250000Y-125453834D01*
X149247923Y-125489310D01*
X149245847Y-125525519D01*
X149248961Y-125568872D01*
X149252076Y-125612287D01*
X149249044Y-125622151D01*
X149240352Y-125625293D01*
X149131114Y-125620835D01*
X149021877Y-125616378D01*
X149005236Y-125619220D01*
X148996688Y-125626358D01*
X148993728Y-125638237D01*
X148996842Y-125756756D01*
X148999895Y-125874603D01*
X148993155Y-125952718D01*
X148974072Y-126018671D01*
X148943508Y-126074743D01*
X148901160Y-126122571D01*
X148850973Y-126159472D01*
X148792669Y-126186436D01*
X148724713Y-126203364D01*
X148645132Y-126209338D01*
X148571255Y-126203095D01*
X148505824Y-126185066D01*
X148447299Y-126155656D01*
X148394539Y-126114389D01*
X148349960Y-126062670D01*
X148318382Y-126004993D01*
X148299075Y-125940150D01*
X148292384Y-125866421D01*
X148293612Y-125823374D01*
X148429344Y-125823374D01*
X148433684Y-125873144D01*
X148445990Y-125915261D01*
X148465736Y-125951166D01*
X148493152Y-125981887D01*
X148536834Y-126011847D01*
X148590234Y-126030541D01*
X148656001Y-126037208D01*
X148717962Y-126031138D01*
X148767756Y-126014220D01*
X148807981Y-125987322D01*
X148840106Y-125948261D01*
X148859944Y-125899580D01*
X148867027Y-125838394D01*
X148864451Y-125683604D01*
X148859577Y-125630055D01*
X148854813Y-125617820D01*
X148850052Y-125615034D01*
X148764567Y-125613325D01*
X148679082Y-125611615D01*
X148475207Y-125613731D01*
X148445647Y-125616378D01*
X148441937Y-125628675D01*
X148434778Y-125711327D01*
X148429344Y-125823374D01*
X148293612Y-125823374D01*
X148295132Y-125770068D01*
X148297819Y-125673775D01*
X148297147Y-125562095D01*
X148296475Y-125451086D01*
X148300491Y-125437127D01*
X148311496Y-125433318D01*
X148321755Y-125433989D01*
G37*
G36*
X149110964Y-126955683D02*
G01*
X149142777Y-126950188D01*
X149174590Y-126942677D01*
X149247252Y-126933152D01*
X149256397Y-126927150D01*
X149259586Y-126915383D01*
X149256838Y-126889433D01*
X149248121Y-126793815D01*
X149244443Y-126629192D01*
X149247252Y-126478860D01*
X149250000Y-126328590D01*
X149244840Y-126311453D01*
X149230216Y-126306058D01*
X149000566Y-126314546D01*
X148770917Y-126323094D01*
X148480940Y-126314912D01*
X148317847Y-126307402D01*
X148308260Y-126306730D01*
X148296703Y-126310602D01*
X148292568Y-126324499D01*
X148295254Y-126467930D01*
X148297941Y-126611362D01*
X148295254Y-126748321D01*
X148292568Y-126885341D01*
X148298192Y-126911358D01*
X148311985Y-126920146D01*
X148421772Y-126934495D01*
X148433343Y-126930710D01*
X148437159Y-126919474D01*
X148431297Y-126743558D01*
X148425436Y-126566299D01*
X148430270Y-126516129D01*
X148440518Y-126495591D01*
X148461719Y-126485697D01*
X148515195Y-126480936D01*
X148617349Y-126480936D01*
X148666015Y-126483012D01*
X148681494Y-126494196D01*
X148687264Y-126518489D01*
X148686592Y-126541753D01*
X148686592Y-126564956D01*
X148682074Y-126805413D01*
X148675540Y-126903782D01*
X148677975Y-126914624D01*
X148687691Y-126918131D01*
X148753881Y-126913002D01*
X148820682Y-126907873D01*
X148829354Y-126903576D01*
X148832955Y-126887418D01*
X148828131Y-126826601D01*
X148824040Y-126654471D01*
X148826788Y-126511650D01*
X148831055Y-126495752D01*
X148840295Y-126485697D01*
X148855547Y-126480265D01*
X148908304Y-126480936D01*
X149009726Y-126480936D01*
X149057432Y-126484299D01*
X149084705Y-126492288D01*
X149098813Y-126502796D01*
X149108478Y-126526659D01*
X149113224Y-126588159D01*
X149112491Y-126663325D01*
X149094417Y-126931748D01*
X149093684Y-126942006D01*
X149096864Y-126951897D01*
X149110964Y-126955683D01*
G37*
G36*
X152607320Y-121399191D02*
G01*
X152610000Y-121409783D01*
X152610000Y-121563534D01*
X152604979Y-121570775D01*
X152579104Y-121583756D01*
X152506807Y-121606215D01*
X152437088Y-121629389D01*
X152409427Y-121646185D01*
X152402882Y-121658483D01*
X152401477Y-121786894D01*
X152401477Y-121894788D01*
X152402882Y-122026680D01*
X152409840Y-122042479D01*
X152438055Y-122062107D01*
X152506502Y-122087130D01*
X152577769Y-122111339D01*
X152604417Y-122126528D01*
X152610000Y-122135978D01*
X152607984Y-122174935D01*
X152605908Y-122213831D01*
X152607984Y-122251749D01*
X152610000Y-122289668D01*
X152607469Y-122302808D01*
X152601817Y-122306032D01*
X152071505Y-122100441D01*
X151659406Y-121938569D01*
X151637409Y-121927093D01*
X151633333Y-121921472D01*
X151637119Y-121884897D01*
X151640844Y-121847711D01*
X151640353Y-121842215D01*
X151845764Y-121842215D01*
X152049340Y-121926235D01*
X152192570Y-121979031D01*
X152226660Y-121987723D01*
X152238996Y-121981370D01*
X152249347Y-121955553D01*
X152254382Y-121890026D01*
X152254382Y-121819684D01*
X152253710Y-121752700D01*
X152247724Y-121719490D01*
X152238795Y-121704917D01*
X152227821Y-121700799D01*
X152176660Y-121716876D01*
X151845764Y-121842215D01*
X151640353Y-121842215D01*
X151637424Y-121809426D01*
X151634005Y-121771202D01*
X151638659Y-121763325D01*
X151659895Y-121753433D01*
X151791908Y-121701531D01*
X152111378Y-121573060D01*
X152569699Y-121405692D01*
X152600413Y-121396167D01*
X152607320Y-121399191D01*
G37*
G36*
X152596322Y-122983745D02*
G01*
X152607708Y-122980230D01*
X152611343Y-122970129D01*
X152610671Y-122902840D01*
X152610000Y-122835490D01*
X152605795Y-122826782D01*
X152590216Y-122823217D01*
X152488489Y-122825232D01*
X152386029Y-122827308D01*
X152304391Y-122826636D01*
X152222814Y-122825964D01*
X152170821Y-122822782D01*
X152135669Y-122814699D01*
X152112843Y-122803372D01*
X152092875Y-122782075D01*
X152079675Y-122749824D01*
X152074619Y-122702316D01*
X152082410Y-122666127D01*
X152113026Y-122607367D01*
X152143267Y-122566942D01*
X152166417Y-122548238D01*
X152184834Y-122543131D01*
X152594307Y-122543131D01*
X152607452Y-122539586D01*
X152611343Y-122530125D01*
X152610671Y-122464607D01*
X152610000Y-122399028D01*
X152606181Y-122388377D01*
X152594246Y-122384678D01*
X152432130Y-122386388D01*
X152269342Y-122388098D01*
X152172496Y-122384521D01*
X152083079Y-122374137D01*
X152000430Y-122357384D01*
X151991577Y-122355308D01*
X151985978Y-122357327D01*
X151981990Y-122364162D01*
X151969351Y-122442381D01*
X151957383Y-122519256D01*
X151959370Y-122522225D01*
X151968496Y-122524691D01*
X152011333Y-122530274D01*
X152055080Y-122540383D01*
X151985471Y-122633989D01*
X151960387Y-122683217D01*
X151946269Y-122729135D01*
X151941751Y-122772658D01*
X151947315Y-122836853D01*
X151962335Y-122885323D01*
X151985291Y-122921640D01*
X152016123Y-122948269D01*
X152054506Y-122965861D01*
X152111388Y-122978256D01*
X152192955Y-122983073D01*
X152257801Y-122982035D01*
X152323319Y-122981058D01*
X152459851Y-122982402D01*
X152596322Y-122983745D01*
G37*
G36*
X152482016Y-123494213D02*
G01*
X152524209Y-123491465D01*
X152567135Y-123487374D01*
X152582644Y-123485359D01*
X152591926Y-123472353D01*
X152604938Y-123433735D01*
X152614211Y-123376858D01*
X152617815Y-123296071D01*
X152613005Y-123243197D01*
X152600080Y-123203890D01*
X152580339Y-123174938D01*
X152553674Y-123154223D01*
X152518597Y-123141038D01*
X152472491Y-123136214D01*
X152297369Y-123138961D01*
X152122247Y-123141709D01*
X152106099Y-123138442D01*
X152096534Y-123129557D01*
X152092083Y-123113682D01*
X152091411Y-123063857D01*
X152080507Y-123054539D01*
X152035785Y-123049508D01*
X151994446Y-123052255D01*
X151981714Y-123058397D01*
X151974785Y-123074115D01*
X151974113Y-123107576D01*
X151970016Y-123125867D01*
X151961036Y-123135550D01*
X151946331Y-123138961D01*
X151863654Y-123137252D01*
X151780245Y-123135542D01*
X151748086Y-123138722D01*
X151734469Y-123145589D01*
X151730725Y-123154654D01*
X151750265Y-123283126D01*
X151755297Y-123295138D01*
X151765286Y-123298818D01*
X151855350Y-123294361D01*
X151945415Y-123289965D01*
X151960366Y-123294682D01*
X151965198Y-123308405D01*
X151965198Y-123472292D01*
X151967488Y-123481367D01*
X151973381Y-123483954D01*
X151999576Y-123481512D01*
X152026442Y-123479131D01*
X152057766Y-123479802D01*
X152089030Y-123480535D01*
X152098309Y-123476338D01*
X152101974Y-123461362D01*
X152098066Y-123378747D01*
X152094159Y-123296071D01*
X152099288Y-123292483D01*
X152133176Y-123287889D01*
X152269281Y-123284469D01*
X152371191Y-123284469D01*
X152425493Y-123287828D01*
X152453257Y-123295399D01*
X152472437Y-123309524D01*
X152484384Y-123331113D01*
X152488855Y-123363054D01*
X152479085Y-123425214D01*
X152469316Y-123486031D01*
X152472051Y-123491863D01*
X152482016Y-123494213D01*
G37*
G36*
X152586125Y-124187801D02*
G01*
X152606143Y-124183525D01*
X152611343Y-124173452D01*
X152610671Y-124109216D01*
X152610000Y-124044980D01*
X152604871Y-124032603D01*
X152587468Y-124027944D01*
X152488428Y-124030326D01*
X152388715Y-124032707D01*
X152293522Y-124030326D01*
X152197534Y-124027944D01*
X152150461Y-124022601D01*
X152117345Y-124008382D01*
X152094436Y-123986348D01*
X152079978Y-123955244D01*
X152074619Y-123911807D01*
X152082461Y-123872628D01*
X152112172Y-123813438D01*
X152142399Y-123772858D01*
X152166270Y-123753821D01*
X152185933Y-123748531D01*
X152591559Y-123748531D01*
X152606904Y-123744556D01*
X152611343Y-123734181D01*
X152610671Y-123670617D01*
X152610000Y-123607114D01*
X152605630Y-123595555D01*
X152591559Y-123591421D01*
X152261465Y-123591421D01*
X151918426Y-123582568D01*
X151677847Y-123570905D01*
X151666917Y-123569562D01*
X151657222Y-123571788D01*
X151652568Y-123577744D01*
X151649709Y-123595734D01*
X151648110Y-123654924D01*
X151642554Y-123697972D01*
X151636936Y-123739677D01*
X151639800Y-123746026D01*
X151650003Y-123748531D01*
X151844542Y-123743401D01*
X152039021Y-123738272D01*
X152052328Y-123740124D01*
X152055568Y-123743768D01*
X151983822Y-123833954D01*
X151960211Y-123879996D01*
X151946360Y-123926862D01*
X151941751Y-123975310D01*
X151947410Y-124039294D01*
X151962752Y-124088008D01*
X151986338Y-124124884D01*
X152018199Y-124152264D01*
X152057410Y-124169956D01*
X152114620Y-124182342D01*
X152195642Y-124187130D01*
X152260854Y-124186092D01*
X152326067Y-124185054D01*
X152456432Y-124186397D01*
X152586125Y-124187801D01*
G37*
G36*
X152348823Y-124282259D02*
G01*
X152411711Y-124299851D01*
X152469096Y-124328821D01*
X152521950Y-124369823D01*
X152567672Y-124421038D01*
X152599661Y-124476947D01*
X152618992Y-124538598D01*
X152625631Y-124607533D01*
X152618969Y-124676072D01*
X152599549Y-124737487D01*
X152567363Y-124793308D01*
X152521278Y-124844570D01*
X152468066Y-124885596D01*
X152410430Y-124914566D01*
X152347411Y-124932145D01*
X152277707Y-124938176D01*
X152208414Y-124932101D01*
X152145904Y-124914402D01*
X152088848Y-124885234D01*
X152036273Y-124843899D01*
X151991131Y-124792753D01*
X151959552Y-124737072D01*
X151940480Y-124675830D01*
X151933935Y-124607533D01*
X152074619Y-124607533D01*
X152081630Y-124659319D01*
X152102080Y-124703770D01*
X152136840Y-124742782D01*
X152178480Y-124771089D01*
X152225391Y-124788133D01*
X152279112Y-124794012D01*
X152331934Y-124788194D01*
X152378872Y-124771201D01*
X152421322Y-124742782D01*
X152456999Y-124703273D01*
X152477842Y-124658802D01*
X152484947Y-124607533D01*
X152477877Y-124556680D01*
X152457062Y-124512188D01*
X152421322Y-124472283D01*
X152378827Y-124443468D01*
X152331893Y-124426266D01*
X152279112Y-124420382D01*
X152225374Y-124426247D01*
X152178226Y-124443281D01*
X152136168Y-124471612D01*
X152101793Y-124510984D01*
X152081554Y-124555673D01*
X152074619Y-124607533D01*
X151933935Y-124607533D01*
X151940482Y-124538883D01*
X151959562Y-124477299D01*
X151991146Y-124421287D01*
X152036273Y-124369823D01*
X152089127Y-124328821D01*
X152146512Y-124299851D01*
X152209400Y-124282259D01*
X152279112Y-124276217D01*
X152348823Y-124282259D01*
G37*
G36*
X152596322Y-125636222D02*
G01*
X152607708Y-125632708D01*
X152611343Y-125622606D01*
X152610671Y-125555317D01*
X152610000Y-125487967D01*
X152605795Y-125479259D01*
X152590216Y-125475694D01*
X152488489Y-125477709D01*
X152386029Y-125479785D01*
X152304391Y-125479113D01*
X152222814Y-125478442D01*
X152170821Y-125475260D01*
X152135669Y-125467176D01*
X152112843Y-125455849D01*
X152092875Y-125434553D01*
X152079675Y-125402301D01*
X152074619Y-125354794D01*
X152082410Y-125318604D01*
X152113026Y-125259844D01*
X152143267Y-125219420D01*
X152166417Y-125200715D01*
X152184834Y-125195608D01*
X152594307Y-125195608D01*
X152607452Y-125192063D01*
X152611343Y-125182602D01*
X152610671Y-125117084D01*
X152610000Y-125051505D01*
X152606181Y-125040854D01*
X152594246Y-125037156D01*
X152432130Y-125038866D01*
X152269342Y-125040575D01*
X152172496Y-125036998D01*
X152083079Y-125026615D01*
X152000430Y-125009862D01*
X151991577Y-125007786D01*
X151985978Y-125009805D01*
X151981990Y-125016639D01*
X151969351Y-125094858D01*
X151957383Y-125171734D01*
X151959370Y-125174702D01*
X151968496Y-125177168D01*
X152011333Y-125182752D01*
X152055080Y-125192861D01*
X151985471Y-125286467D01*
X151960387Y-125335694D01*
X151946269Y-125381613D01*
X151941751Y-125425136D01*
X151947315Y-125489330D01*
X151962335Y-125537800D01*
X151985291Y-125574117D01*
X152016123Y-125600746D01*
X152054506Y-125618338D01*
X152111388Y-125630733D01*
X152192955Y-125635551D01*
X152257801Y-125634513D01*
X152323319Y-125633536D01*
X152459851Y-125634879D01*
X152596322Y-125636222D01*
G37*
G36*
X152134642Y-126341352D02*
G01*
X152240311Y-126338963D01*
X152275570Y-126334513D01*
X152327820Y-126306459D01*
X152543260Y-126165436D01*
X152754866Y-126018235D01*
X152808203Y-125975170D01*
X152819099Y-125953423D01*
X152828521Y-125901616D01*
X152832749Y-125798949D01*
X152829024Y-125776051D01*
X152780237Y-125752848D01*
X152726381Y-125734774D01*
X152716434Y-125741417D01*
X152711605Y-125770983D01*
X152708645Y-125821985D01*
X152700956Y-125858380D01*
X152689928Y-125883640D01*
X152677818Y-125896423D01*
X152643217Y-125920887D01*
X152606419Y-125941385D01*
X152590460Y-125945800D01*
X152561680Y-125932076D01*
X152445380Y-125846760D01*
X152321416Y-125755517D01*
X152275570Y-125729951D01*
X152237789Y-125723606D01*
X152140809Y-125720425D01*
X152062102Y-125721097D01*
X151982662Y-125721769D01*
X151971457Y-125725761D01*
X151967580Y-125738194D01*
X151970327Y-125802735D01*
X151973014Y-125867276D01*
X151976298Y-125875220D01*
X151987424Y-125878206D01*
X152045249Y-125876130D01*
X152102951Y-125874115D01*
X152228126Y-125879549D01*
X152262180Y-125893760D01*
X152358429Y-125953982D01*
X152430787Y-126006241D01*
X152457352Y-126030861D01*
X152462477Y-126040811D01*
X152449390Y-126055573D01*
X152360139Y-126114572D01*
X152265971Y-126167997D01*
X152233621Y-126180823D01*
X152191992Y-126184566D01*
X152107836Y-126186257D01*
X152048729Y-126182166D01*
X151990294Y-126178075D01*
X151976712Y-126181232D01*
X151973014Y-126189005D01*
X151969961Y-126254890D01*
X151966847Y-126320835D01*
X151974189Y-126328521D01*
X152014596Y-126336886D01*
X152134642Y-126341352D01*
G37*
G36*
X151720956Y-127330779D02*
G01*
X151787390Y-127293227D01*
X151845886Y-127266543D01*
X151851870Y-127255614D01*
X151828422Y-127189668D01*
X151810094Y-127125423D01*
X151804975Y-127080064D01*
X151810268Y-127031329D01*
X151824258Y-126997355D01*
X151845691Y-126974141D01*
X151875569Y-126959666D01*
X151916899Y-126954340D01*
X151944441Y-126959003D01*
X151970986Y-126973496D01*
X151997549Y-127000028D01*
X152024488Y-127042451D01*
X152113637Y-127206460D01*
X152152052Y-127245039D01*
X152195797Y-127272189D01*
X152245943Y-127288788D01*
X152304146Y-127294570D01*
X152364279Y-127289506D01*
X152417448Y-127274894D01*
X152464922Y-127251079D01*
X152507637Y-127217690D01*
X152546130Y-127173670D01*
X152580173Y-127117730D01*
X152604924Y-127055333D01*
X152620286Y-126985381D01*
X152625631Y-126906530D01*
X152622622Y-126855975D01*
X152616299Y-126834216D01*
X152609145Y-126827334D01*
X152532880Y-126815000D01*
X152471086Y-126797964D01*
X152459363Y-126795887D01*
X152452226Y-126798395D01*
X152449776Y-126806146D01*
X152453684Y-126856338D01*
X152457592Y-126907262D01*
X152452296Y-126982180D01*
X152438423Y-127035803D01*
X152418155Y-127073268D01*
X152392324Y-127098471D01*
X152360256Y-127113652D01*
X152319900Y-127119021D01*
X152289350Y-127114314D01*
X152260326Y-127099893D01*
X152231814Y-127074045D01*
X152203396Y-127033597D01*
X152110889Y-126874473D01*
X152072909Y-126836787D01*
X152029735Y-126810250D01*
X151980323Y-126794026D01*
X151923066Y-126788377D01*
X151860556Y-126793943D01*
X151806676Y-126809859D01*
X151759794Y-126835637D01*
X151718757Y-126871725D01*
X151687002Y-126914313D01*
X151664029Y-126962786D01*
X151649750Y-127018247D01*
X151644752Y-127082140D01*
X151648955Y-127138448D01*
X151662948Y-127207803D01*
X151686948Y-127279249D01*
X151711857Y-127323941D01*
X151720956Y-127330779D01*
G37*
G36*
X152586125Y-128031207D02*
G01*
X152606143Y-128026931D01*
X152611343Y-128016857D01*
X152610671Y-127952622D01*
X152610000Y-127888386D01*
X152604871Y-127876008D01*
X152587468Y-127871350D01*
X152488428Y-127873731D01*
X152388715Y-127876113D01*
X152293522Y-127873731D01*
X152197534Y-127871350D01*
X152150461Y-127866007D01*
X152117345Y-127851787D01*
X152094436Y-127829753D01*
X152079978Y-127798649D01*
X152074619Y-127755212D01*
X152082461Y-127716033D01*
X152112172Y-127656844D01*
X152142399Y-127616263D01*
X152166270Y-127597226D01*
X152185933Y-127591936D01*
X152591559Y-127591936D01*
X152606904Y-127587961D01*
X152611343Y-127577587D01*
X152610671Y-127514023D01*
X152610000Y-127450519D01*
X152605630Y-127438960D01*
X152591559Y-127434827D01*
X152261465Y-127434827D01*
X151918426Y-127425973D01*
X151677847Y-127414310D01*
X151666917Y-127412967D01*
X151657222Y-127415194D01*
X151652568Y-127421149D01*
X151649709Y-127439139D01*
X151648110Y-127498330D01*
X151642554Y-127541378D01*
X151636936Y-127583082D01*
X151639800Y-127589432D01*
X151650003Y-127591936D01*
X151844542Y-127586807D01*
X152039021Y-127581678D01*
X152052328Y-127583529D01*
X152055568Y-127587173D01*
X151983822Y-127677360D01*
X151960211Y-127723402D01*
X151946360Y-127770267D01*
X151941751Y-127818715D01*
X151947410Y-127882700D01*
X151962752Y-127931414D01*
X151986338Y-127968290D01*
X152018199Y-127995669D01*
X152057410Y-128013362D01*
X152114620Y-128025747D01*
X152195642Y-128030535D01*
X152260854Y-128029497D01*
X152326067Y-128028459D01*
X152456432Y-128029802D01*
X152586125Y-128031207D01*
G37*
G36*
X152357048Y-128126018D02*
G01*
X152423717Y-128144216D01*
X152481287Y-128173444D01*
X152531231Y-128213900D01*
X152571696Y-128263757D01*
X152600964Y-128321404D01*
X152619211Y-128388352D01*
X152625631Y-128466631D01*
X152618693Y-128543414D01*
X152598692Y-128610821D01*
X152566016Y-128670654D01*
X152519935Y-128724185D01*
X152504364Y-128735115D01*
X152455211Y-128711179D01*
X152408133Y-128685594D01*
X152406789Y-128678389D01*
X152424253Y-128656591D01*
X152462675Y-128593730D01*
X152485214Y-128528162D01*
X152492763Y-128458449D01*
X152488320Y-128417868D01*
X152474950Y-128378979D01*
X152451974Y-128340968D01*
X152420313Y-128307219D01*
X152386008Y-128285672D01*
X152348171Y-128274717D01*
X152319085Y-128628928D01*
X152309092Y-128697562D01*
X152294015Y-128721874D01*
X152272311Y-128736150D01*
X152241742Y-128741282D01*
X152177781Y-128735833D01*
X152120255Y-128719996D01*
X152067952Y-128693980D01*
X152019970Y-128657262D01*
X151978586Y-128611123D01*
X151949632Y-128560703D01*
X151932132Y-128505048D01*
X151926120Y-128442756D01*
X151927102Y-128433169D01*
X152058988Y-128433169D01*
X152063621Y-128468845D01*
X152077534Y-128502107D01*
X152101669Y-128533920D01*
X152132323Y-128559287D01*
X152164643Y-128573834D01*
X152199672Y-128578677D01*
X152205024Y-128572940D01*
X152212189Y-128539049D01*
X152226648Y-128402997D01*
X152230935Y-128297248D01*
X152226792Y-128277697D01*
X152217074Y-128272641D01*
X152178637Y-128277889D01*
X152142568Y-128293742D01*
X152107775Y-128321489D01*
X152080198Y-128356392D01*
X152064296Y-128393240D01*
X152058988Y-128433169D01*
X151927102Y-128433169D01*
X151932935Y-128376253D01*
X151952910Y-128316180D01*
X151986279Y-128261027D01*
X152034502Y-128209809D01*
X152089187Y-128170202D01*
X152147596Y-128142273D01*
X152210587Y-128125388D01*
X152279295Y-128119623D01*
X152357048Y-128126018D01*
G37*
G36*
X152596322Y-129438595D02*
G01*
X152607708Y-129435080D01*
X152611343Y-129424979D01*
X152610671Y-129357690D01*
X152610000Y-129290340D01*
X152605795Y-129281632D01*
X152590216Y-129278066D01*
X152488489Y-129280081D01*
X152386029Y-129282158D01*
X152304391Y-129281486D01*
X152222814Y-129280814D01*
X152170821Y-129277632D01*
X152135669Y-129269549D01*
X152112843Y-129258222D01*
X152092875Y-129236925D01*
X152079675Y-129204673D01*
X152074619Y-129157166D01*
X152082410Y-129120977D01*
X152113026Y-129062217D01*
X152143267Y-129021792D01*
X152166417Y-129003088D01*
X152184834Y-128997981D01*
X152594307Y-128997981D01*
X152607452Y-128994435D01*
X152611343Y-128984975D01*
X152610671Y-128919457D01*
X152610000Y-128853878D01*
X152606181Y-128843227D01*
X152594246Y-128839528D01*
X152432130Y-128841238D01*
X152269342Y-128842948D01*
X152172496Y-128839371D01*
X152083079Y-128828987D01*
X152000430Y-128812234D01*
X151991577Y-128810158D01*
X151985978Y-128812177D01*
X151981990Y-128819012D01*
X151969351Y-128897231D01*
X151957383Y-128974106D01*
X151959370Y-128977075D01*
X151968496Y-128979541D01*
X152011333Y-128985124D01*
X152055080Y-128995233D01*
X151985471Y-129088839D01*
X151960387Y-129138067D01*
X151946269Y-129183985D01*
X151941751Y-129227508D01*
X151947315Y-129291703D01*
X151962335Y-129340173D01*
X151985291Y-129376490D01*
X152016123Y-129403119D01*
X152054506Y-129420711D01*
X152111388Y-129433106D01*
X152192955Y-129437923D01*
X152257801Y-129436885D01*
X152323319Y-129435908D01*
X152459851Y-129437252D01*
X152596322Y-129438595D01*
G37*
G36*
X154285736Y-121468030D02*
G01*
X154290000Y-121480858D01*
X154287313Y-121577456D01*
X154284565Y-121674176D01*
X154287313Y-121781032D01*
X154290000Y-121887950D01*
X154283806Y-121960199D01*
X154265745Y-122025648D01*
X154235974Y-122085620D01*
X154193822Y-122141094D01*
X154137836Y-122192643D01*
X154065239Y-122240143D01*
X153986588Y-122274081D01*
X153900717Y-122294815D01*
X153806154Y-122301941D01*
X153733352Y-122297134D01*
X153663054Y-122282816D01*
X153594640Y-122258893D01*
X153525914Y-122223404D01*
X153468818Y-122180431D01*
X153421960Y-122129811D01*
X153385849Y-122070578D01*
X153357865Y-121994616D01*
X153339360Y-121898131D01*
X153332568Y-121776636D01*
X153333100Y-121719239D01*
X153469344Y-121719239D01*
X153470687Y-121816936D01*
X153477112Y-121888577D01*
X153495474Y-121950221D01*
X153525211Y-122003768D01*
X153566857Y-122050554D01*
X153615406Y-122086593D01*
X153670680Y-122112677D01*
X153733938Y-122128895D01*
X153806826Y-122134574D01*
X153881267Y-122128922D01*
X153947630Y-122112603D01*
X154007259Y-122086094D01*
X154061205Y-122049211D01*
X154095010Y-122016400D01*
X154119884Y-121982117D01*
X154136859Y-121946018D01*
X154148608Y-121895418D01*
X154153224Y-121821027D01*
X154153895Y-121721315D01*
X154146651Y-121667034D01*
X154135992Y-121644948D01*
X154123914Y-121639310D01*
X153968454Y-121636929D01*
X153812993Y-121634548D01*
X153655823Y-121636929D01*
X153498653Y-121639310D01*
X153486882Y-121644804D01*
X153476470Y-121666332D01*
X153469344Y-121719239D01*
X153333100Y-121719239D01*
X153333239Y-121704218D01*
X153333911Y-121633143D01*
X153333239Y-121557672D01*
X153332568Y-121482201D01*
X153336411Y-121468569D01*
X153346917Y-121464433D01*
X153585054Y-121469867D01*
X153823251Y-121475362D01*
X154048443Y-121469562D01*
X154272964Y-121463761D01*
X154285736Y-121468030D01*
G37*
G36*
X154029839Y-122376431D02*
G01*
X154090407Y-122392536D01*
X154146756Y-122419201D01*
X154199691Y-122457035D01*
X154246902Y-122506149D01*
X154279501Y-122559025D01*
X154298986Y-122616614D01*
X154305631Y-122680396D01*
X154298884Y-122733579D01*
X154277848Y-122788290D01*
X154257491Y-122823048D01*
X154227168Y-122863456D01*
X154200118Y-122900336D01*
X154206426Y-122904847D01*
X154248967Y-122913281D01*
X154289951Y-122923682D01*
X154297815Y-122933126D01*
X154293358Y-122989485D01*
X154288961Y-123046210D01*
X154284110Y-123060059D01*
X154269239Y-123064284D01*
X154259652Y-123063613D01*
X153953860Y-123046577D01*
X153835957Y-123052659D01*
X153684827Y-123073199D01*
X153672554Y-123075214D01*
X153665179Y-123067343D01*
X153651243Y-123019221D01*
X153641290Y-122950223D01*
X153648210Y-122941532D01*
X153683850Y-122931111D01*
X153721212Y-122922767D01*
X153726348Y-122919509D01*
X153724333Y-122915418D01*
X153683911Y-122879209D01*
X153651194Y-122837990D01*
X153628369Y-122794335D01*
X153614680Y-122747582D01*
X153611840Y-122716605D01*
X153746803Y-122716605D01*
X153754049Y-122768232D01*
X153775224Y-122812439D01*
X153811406Y-122851182D01*
X153853641Y-122878731D01*
X153901005Y-122895343D01*
X153954959Y-122901069D01*
X154007066Y-122895353D01*
X154053787Y-122878603D01*
X154096437Y-122850511D01*
X154132793Y-122810961D01*
X154153888Y-122766919D01*
X154161039Y-122716605D01*
X154153963Y-122664838D01*
X154133218Y-122619896D01*
X154097780Y-122579951D01*
X154055007Y-122550738D01*
X154007870Y-122533327D01*
X153954959Y-122527377D01*
X153901583Y-122533328D01*
X153853976Y-122550744D01*
X153810734Y-122579951D01*
X153774887Y-122619946D01*
X153753941Y-122664885D01*
X153746803Y-122716605D01*
X153611840Y-122716605D01*
X153610027Y-122696821D01*
X153616818Y-122624535D01*
X153636337Y-122561736D01*
X153668200Y-122506552D01*
X153713220Y-122457707D01*
X153764971Y-122420365D01*
X153823160Y-122393427D01*
X153888985Y-122376752D01*
X153963996Y-122370940D01*
X154029839Y-122376431D01*
G37*
G36*
X153838517Y-123776496D02*
G01*
X153925397Y-123774253D01*
X153950563Y-123770329D01*
X153993929Y-123747721D01*
X154129837Y-123659687D01*
X154263760Y-123563180D01*
X154290000Y-123536711D01*
X154292656Y-123522538D01*
X154294091Y-123479314D01*
X154290000Y-123419230D01*
X154265999Y-123393153D01*
X154135943Y-123294239D01*
X154004292Y-123203417D01*
X153960760Y-123178773D01*
X153911837Y-123167211D01*
X153827831Y-123162348D01*
X153744056Y-123163691D01*
X153660219Y-123165095D01*
X153648954Y-123168851D01*
X153645198Y-123180116D01*
X153647274Y-123247405D01*
X153649289Y-123314755D01*
X153652579Y-123323855D01*
X153662906Y-123327028D01*
X153727325Y-123324281D01*
X153791744Y-123321533D01*
X153853105Y-123323326D01*
X153906233Y-123328372D01*
X153939692Y-123341489D01*
X154032934Y-123397676D01*
X154103049Y-123446727D01*
X154128737Y-123469891D01*
X154133684Y-123479314D01*
X154120084Y-123496587D01*
X154034949Y-123553808D01*
X153945748Y-123604104D01*
X153913072Y-123616639D01*
X153872725Y-123620452D01*
X153795530Y-123622135D01*
X153727936Y-123617677D01*
X153660219Y-123613220D01*
X153652526Y-123615785D01*
X153649961Y-123623478D01*
X153647580Y-123689729D01*
X153645198Y-123755308D01*
X153653258Y-123763078D01*
X153699322Y-123771798D01*
X153838517Y-123776496D01*
G37*
G36*
X153471969Y-124071908D02*
G01*
X153509001Y-124065843D01*
X153533679Y-124049390D01*
X153549314Y-124021802D01*
X153555317Y-123978302D01*
X153549276Y-123934060D01*
X153533579Y-123906086D01*
X153508896Y-123889464D01*
X153471969Y-123883353D01*
X153448500Y-123886635D01*
X153428229Y-123896254D01*
X153410298Y-123912723D01*
X153393131Y-123942517D01*
X153387278Y-123978302D01*
X153393290Y-124014136D01*
X153411031Y-124044248D01*
X153438021Y-124064952D01*
X153471969Y-124071908D01*
G37*
G36*
X153658204Y-124067145D02*
G01*
X153817390Y-124060612D01*
X153977185Y-124054139D01*
X154126723Y-124056154D01*
X154275650Y-124058230D01*
X154286594Y-124055003D01*
X154290000Y-124045957D01*
X154290000Y-123912784D01*
X154284415Y-123902798D01*
X154261912Y-123898374D01*
X154119945Y-123900755D01*
X153977185Y-123903197D01*
X153817023Y-123895321D01*
X153656861Y-123887444D01*
X153648316Y-123890791D01*
X153645198Y-123901793D01*
X153648618Y-123939712D01*
X153652037Y-123978302D01*
X153648618Y-124016892D01*
X153645198Y-124055544D01*
X153648329Y-124064135D01*
X153658204Y-124067145D01*
G37*
G36*
X154030632Y-124165868D02*
G01*
X154092591Y-124181790D01*
X154148941Y-124207849D01*
X154200607Y-124244405D01*
X154247000Y-124292444D01*
X154279351Y-124345439D01*
X154298900Y-124404466D01*
X154305631Y-124471184D01*
X154299507Y-124529506D01*
X154281280Y-124584088D01*
X154250348Y-124636107D01*
X154205064Y-124686362D01*
X154196210Y-124696620D01*
X154202119Y-124698734D01*
X154245425Y-124701749D01*
X154286892Y-124706869D01*
X154293907Y-124712984D01*
X154291831Y-124743026D01*
X154289816Y-124773129D01*
X154291831Y-124799752D01*
X154291831Y-124836632D01*
X154287855Y-124852202D01*
X154282978Y-124855073D01*
X154274124Y-124854401D01*
X154118997Y-124846185D01*
X153865994Y-124842800D01*
X153602883Y-124850615D01*
X153339101Y-124858492D01*
X153328093Y-124855386D01*
X153324752Y-124846891D01*
X153328660Y-124772397D01*
X153332568Y-124697292D01*
X153336128Y-124689464D01*
X153348871Y-124686362D01*
X153417625Y-124688377D01*
X153485647Y-124690453D01*
X153706015Y-124690453D01*
X153715540Y-124685019D01*
X153664371Y-124626950D01*
X153636456Y-124581926D01*
X153619684Y-124532286D01*
X153616687Y-124503302D01*
X153746803Y-124503302D01*
X153754130Y-124553477D01*
X153775805Y-124597491D01*
X153813360Y-124637147D01*
X153857219Y-124665237D01*
X153905069Y-124681993D01*
X153958196Y-124687705D01*
X154012710Y-124682061D01*
X154060719Y-124665680D01*
X154103642Y-124638551D01*
X154140225Y-124599319D01*
X154161571Y-124554875D01*
X154168855Y-124503302D01*
X154161701Y-124452040D01*
X154140618Y-124407102D01*
X154104375Y-124366709D01*
X154061125Y-124336644D01*
X154013784Y-124318806D01*
X153960943Y-124312732D01*
X153905162Y-124318689D01*
X153856254Y-124335969D01*
X153812688Y-124364633D01*
X153783471Y-124394287D01*
X153763194Y-124426795D01*
X153750992Y-124462798D01*
X153746803Y-124503302D01*
X153616687Y-124503302D01*
X153613935Y-124476680D01*
X153620686Y-124407313D01*
X153640165Y-124346681D01*
X153672141Y-124292997D01*
X153717616Y-124245076D01*
X153769256Y-124208439D01*
X153826430Y-124182155D01*
X153890180Y-124165987D01*
X153961859Y-124160385D01*
X154030632Y-124165868D01*
G37*
G36*
X153361755Y-125329453D02*
G01*
X153602379Y-125341364D01*
X153819038Y-125345146D01*
X154044291Y-125338674D01*
X154268811Y-125332201D01*
X154285069Y-125336781D01*
X154290000Y-125349298D01*
X154287923Y-125384774D01*
X154285847Y-125420983D01*
X154288961Y-125464337D01*
X154292076Y-125507751D01*
X154289044Y-125517615D01*
X154280352Y-125520757D01*
X154171114Y-125516299D01*
X154061877Y-125511842D01*
X154045236Y-125514684D01*
X154036688Y-125521822D01*
X154033728Y-125533702D01*
X154036842Y-125652220D01*
X154039895Y-125770068D01*
X154033155Y-125848183D01*
X154014072Y-125914135D01*
X153983508Y-125970207D01*
X153941160Y-126018035D01*
X153890973Y-126054936D01*
X153832669Y-126081901D01*
X153764713Y-126098828D01*
X153685132Y-126104802D01*
X153611255Y-126098559D01*
X153545824Y-126080530D01*
X153487299Y-126051120D01*
X153434539Y-126009853D01*
X153389960Y-125958134D01*
X153358382Y-125900457D01*
X153339075Y-125835614D01*
X153332384Y-125761885D01*
X153333612Y-125718838D01*
X153469344Y-125718838D01*
X153473684Y-125768608D01*
X153485990Y-125810725D01*
X153505736Y-125846630D01*
X153533152Y-125877351D01*
X153576834Y-125907311D01*
X153630234Y-125926005D01*
X153696001Y-125932672D01*
X153757962Y-125926602D01*
X153807756Y-125909684D01*
X153847981Y-125882786D01*
X153880106Y-125843725D01*
X153899944Y-125795044D01*
X153907027Y-125733859D01*
X153904451Y-125579068D01*
X153899577Y-125525519D01*
X153894813Y-125513284D01*
X153890052Y-125510498D01*
X153804567Y-125508789D01*
X153719082Y-125507079D01*
X153515207Y-125509195D01*
X153485647Y-125511842D01*
X153481937Y-125524139D01*
X153474778Y-125606791D01*
X153469344Y-125718838D01*
X153333612Y-125718838D01*
X153335132Y-125665532D01*
X153337819Y-125569239D01*
X153337147Y-125457559D01*
X153336475Y-125346550D01*
X153340491Y-125332591D01*
X153351496Y-125328782D01*
X153361755Y-125329453D01*
G37*
G36*
X154266125Y-126799246D02*
G01*
X154286143Y-126794970D01*
X154291343Y-126784897D01*
X154290671Y-126720661D01*
X154290000Y-126656425D01*
X154284871Y-126644047D01*
X154267468Y-126639389D01*
X154168428Y-126641770D01*
X154068715Y-126644152D01*
X153973522Y-126641770D01*
X153877534Y-126639389D01*
X153830461Y-126634046D01*
X153797345Y-126619826D01*
X153774436Y-126597792D01*
X153759978Y-126566688D01*
X153754619Y-126523251D01*
X153762461Y-126484072D01*
X153792172Y-126424883D01*
X153822399Y-126384302D01*
X153846270Y-126365265D01*
X153865933Y-126359975D01*
X154271559Y-126359975D01*
X154286904Y-126356000D01*
X154291343Y-126345626D01*
X154290671Y-126282062D01*
X154290000Y-126218558D01*
X154285630Y-126206999D01*
X154271559Y-126202866D01*
X153941465Y-126202866D01*
X153598426Y-126194012D01*
X153357847Y-126182349D01*
X153346917Y-126181006D01*
X153337222Y-126183233D01*
X153332568Y-126189188D01*
X153329709Y-126207178D01*
X153328110Y-126266369D01*
X153322554Y-126309417D01*
X153316936Y-126351121D01*
X153319800Y-126357471D01*
X153330003Y-126359975D01*
X153524542Y-126354846D01*
X153719021Y-126349717D01*
X153732328Y-126351568D01*
X153735568Y-126355212D01*
X153663822Y-126445399D01*
X153640211Y-126491441D01*
X153626360Y-126538306D01*
X153621751Y-126586755D01*
X153627410Y-126650739D01*
X153642752Y-126699453D01*
X153666338Y-126736329D01*
X153698199Y-126763709D01*
X153737410Y-126781401D01*
X153794620Y-126793787D01*
X153875642Y-126798574D01*
X153940854Y-126797536D01*
X154006067Y-126796498D01*
X154136432Y-126797841D01*
X154266125Y-126799246D01*
G37*
G36*
X153471969Y-127108335D02*
G01*
X153509001Y-127102270D01*
X153533679Y-127085817D01*
X153549314Y-127058230D01*
X153555317Y-127014729D01*
X153549276Y-126970487D01*
X153533579Y-126942513D01*
X153508896Y-126925891D01*
X153471969Y-126919780D01*
X153448500Y-126923062D01*
X153428229Y-126932681D01*
X153410298Y-126949150D01*
X153393131Y-126978944D01*
X153387278Y-127014729D01*
X153393290Y-127050563D01*
X153411031Y-127080675D01*
X153438021Y-127101379D01*
X153471969Y-127108335D01*
G37*
G36*
X153658204Y-127103572D02*
G01*
X153817390Y-127097039D01*
X153977185Y-127090566D01*
X154126723Y-127092581D01*
X154275650Y-127094658D01*
X154286594Y-127091430D01*
X154290000Y-127082384D01*
X154290000Y-126949211D01*
X154284415Y-126939225D01*
X154261912Y-126934801D01*
X154119945Y-126937182D01*
X153977185Y-126939624D01*
X153817023Y-126931748D01*
X153656861Y-126923871D01*
X153648316Y-126927218D01*
X153645198Y-126938220D01*
X153648618Y-126976139D01*
X153652037Y-127014729D01*
X153648618Y-127053319D01*
X153645198Y-127091971D01*
X153648329Y-127100562D01*
X153658204Y-127103572D01*
G37*
G36*
X153343497Y-127411318D02*
G01*
X153352351Y-127410647D01*
X153597219Y-127399033D01*
X153788447Y-127395565D01*
X154031713Y-127398312D01*
X154274307Y-127401060D01*
X154286520Y-127397983D01*
X154290000Y-127390069D01*
X154290000Y-127259644D01*
X154286386Y-127250691D01*
X154274307Y-127247370D01*
X154031713Y-127248714D01*
X153788447Y-127250057D01*
X153566980Y-127242852D01*
X153346245Y-127235708D01*
X153336041Y-127239239D01*
X153332568Y-127250057D01*
X153334644Y-127286938D01*
X153336659Y-127323879D01*
X153334644Y-127362103D01*
X153332568Y-127399717D01*
X153335406Y-127408864D01*
X153343497Y-127411318D01*
G37*
G36*
X153343497Y-127719064D02*
G01*
X153352351Y-127718393D01*
X153597219Y-127706779D01*
X153788447Y-127703311D01*
X154031713Y-127706058D01*
X154274307Y-127708806D01*
X154286520Y-127705729D01*
X154290000Y-127697815D01*
X154290000Y-127567390D01*
X154286386Y-127558437D01*
X154274307Y-127555116D01*
X154031713Y-127556460D01*
X153788447Y-127557803D01*
X153566980Y-127550598D01*
X153346245Y-127543454D01*
X153336041Y-127546985D01*
X153332568Y-127557803D01*
X153334644Y-127594684D01*
X153336659Y-127631625D01*
X153334644Y-127669849D01*
X153332568Y-127707463D01*
X153335406Y-127716610D01*
X153343497Y-127719064D01*
G37*
G36*
X153471969Y-128031573D02*
G01*
X153509001Y-128025508D01*
X153533679Y-128009055D01*
X153549314Y-127981468D01*
X153555317Y-127937967D01*
X153549276Y-127893725D01*
X153533579Y-127865751D01*
X153508896Y-127849129D01*
X153471969Y-127843018D01*
X153448500Y-127846300D01*
X153428229Y-127855919D01*
X153410298Y-127872388D01*
X153393131Y-127902182D01*
X153387278Y-127937967D01*
X153393290Y-127973801D01*
X153411031Y-128003913D01*
X153438021Y-128024617D01*
X153471969Y-128031573D01*
G37*
G36*
X153658204Y-128026810D02*
G01*
X153817390Y-128020277D01*
X153977185Y-128013804D01*
X154126723Y-128015819D01*
X154275650Y-128017896D01*
X154286594Y-128014668D01*
X154290000Y-128005622D01*
X154290000Y-127872449D01*
X154284415Y-127862463D01*
X154261912Y-127858039D01*
X154119945Y-127860420D01*
X153977185Y-127862862D01*
X153817023Y-127854986D01*
X153656861Y-127847109D01*
X153648316Y-127850456D01*
X153645198Y-127861458D01*
X153648618Y-127899377D01*
X153652037Y-127937967D01*
X153648618Y-127976557D01*
X153645198Y-128015209D01*
X153648329Y-128023800D01*
X153658204Y-128026810D01*
G37*
G36*
X153657899Y-128143925D02*
G01*
X153801305Y-128159150D01*
X153959356Y-128164441D01*
X154221917Y-128163037D01*
X154484417Y-128161693D01*
X154496725Y-128165622D01*
X154502185Y-128177447D01*
X154504933Y-128301706D01*
X154500048Y-128313091D01*
X154483135Y-128317459D01*
X154291160Y-128318131D01*
X154214895Y-128318803D01*
X154204026Y-128324298D01*
X154257454Y-128381634D01*
X154286373Y-128426323D01*
X154303642Y-128475290D01*
X154309539Y-128529890D01*
X154302748Y-128595374D01*
X154282884Y-128654180D01*
X154249736Y-128707858D01*
X154201828Y-128757402D01*
X154148328Y-128795728D01*
X154090981Y-128822817D01*
X154028933Y-128839229D01*
X153961065Y-128844841D01*
X153893271Y-128839113D01*
X153831250Y-128822348D01*
X153773861Y-128794631D01*
X153720242Y-128755326D01*
X153672947Y-128705213D01*
X153640218Y-128651210D01*
X153620623Y-128592349D01*
X153613935Y-128527142D01*
X153617221Y-128499176D01*
X153746803Y-128499176D01*
X153754167Y-128549783D01*
X153775917Y-128594032D01*
X153813543Y-128633754D01*
X153857565Y-128662237D01*
X153905533Y-128679204D01*
X153958745Y-128684984D01*
X154010311Y-128679507D01*
X154058126Y-128663263D01*
X154103276Y-128635769D01*
X154134624Y-128606516D01*
X154155926Y-128575337D01*
X154168503Y-128541682D01*
X154172763Y-128504610D01*
X154168557Y-128465609D01*
X154156276Y-128430896D01*
X154135767Y-128399465D01*
X154106024Y-128370704D01*
X154062661Y-128344311D01*
X154014481Y-128328376D01*
X153960150Y-128322894D01*
X153906632Y-128328209D01*
X153858871Y-128343692D01*
X153815619Y-128369361D01*
X153784769Y-128397270D01*
X153763666Y-128427742D01*
X153751098Y-128461366D01*
X153746803Y-128499176D01*
X153617221Y-128499176D01*
X153619345Y-128481105D01*
X153636092Y-128434214D01*
X153665760Y-128385403D01*
X153710900Y-128333824D01*
X153720425Y-128322894D01*
X153709862Y-128318803D01*
X153657533Y-128315383D01*
X153624399Y-128308441D01*
X153617843Y-128300362D01*
X153629994Y-128225197D01*
X153637383Y-128149420D01*
X153640782Y-128144316D01*
X153646969Y-128142581D01*
X153657899Y-128143925D01*
G37*
G36*
X154078302Y-129270800D02*
G01*
X154127357Y-129265582D01*
X154170118Y-129250484D01*
X154207973Y-129225502D01*
X154241762Y-129189528D01*
X154272440Y-129137792D01*
X154291255Y-129078518D01*
X154297815Y-129009827D01*
X154295800Y-128963360D01*
X154286575Y-128955332D01*
X154262766Y-128951758D01*
X154218253Y-128947972D01*
X154174412Y-128944248D01*
X154167461Y-128946992D01*
X154162932Y-128956521D01*
X154162932Y-128981800D01*
X154164947Y-129002316D01*
X154160479Y-129055796D01*
X154149082Y-129091247D01*
X154132680Y-129113813D01*
X154111442Y-129126880D01*
X154083736Y-129131460D01*
X154061498Y-129126247D01*
X154038860Y-129109018D01*
X154014677Y-129074734D01*
X153952456Y-128968855D01*
X153916829Y-128937393D01*
X153875088Y-128918637D01*
X153825266Y-128912130D01*
X153775583Y-128917214D01*
X153733282Y-128931756D01*
X153696817Y-128955509D01*
X153665226Y-128989310D01*
X153637455Y-129038172D01*
X153620088Y-129096201D01*
X153613935Y-129165593D01*
X153616130Y-129173852D01*
X153622789Y-129179576D01*
X153677744Y-129196673D01*
X153733370Y-129209312D01*
X153739083Y-129206601D01*
X153742896Y-129196306D01*
X153754680Y-129108196D01*
X153768643Y-129077578D01*
X153787656Y-129061159D01*
X153812932Y-129055622D01*
X153830939Y-129060328D01*
X153851209Y-129076732D01*
X153875153Y-129110943D01*
X153919156Y-129184826D01*
X153941526Y-129214808D01*
X153980116Y-129245738D01*
X154025060Y-129264335D01*
X154078302Y-129270800D01*
G37*
G36*
X155026245Y-121693960D02*
G01*
X155227257Y-121688831D01*
X155428330Y-121683763D01*
X155525294Y-121684434D01*
X155621526Y-121685106D01*
X155721639Y-121681576D01*
X155801322Y-121672007D01*
X155863876Y-121657751D01*
X155924678Y-121635172D01*
X155977962Y-121605735D01*
X156024614Y-121569436D01*
X156065254Y-121525921D01*
X156075512Y-121507480D01*
X156067880Y-121496550D01*
X156014427Y-121447541D01*
X155968656Y-121400929D01*
X155958276Y-121394762D01*
X155946003Y-121402273D01*
X155886041Y-121465165D01*
X155850611Y-121486963D01*
X155806357Y-121503389D01*
X155727250Y-121514982D01*
X155548131Y-121520486D01*
X155445244Y-121519815D01*
X155238797Y-121511571D01*
X155032351Y-121503389D01*
X155017513Y-121508335D01*
X155012568Y-121523173D01*
X155014644Y-121562130D01*
X155016659Y-121601086D01*
X155014644Y-121639310D01*
X155012568Y-121676863D01*
X155016242Y-121689993D01*
X155026245Y-121693960D01*
G37*
G36*
X155709839Y-121798064D02*
G01*
X155770407Y-121814169D01*
X155826756Y-121840834D01*
X155879691Y-121878668D01*
X155926902Y-121927782D01*
X155959501Y-121980658D01*
X155978986Y-122038247D01*
X155985631Y-122102028D01*
X155978884Y-122155212D01*
X155957848Y-122209923D01*
X155937491Y-122244681D01*
X155907168Y-122285088D01*
X155880118Y-122321969D01*
X155886426Y-122326480D01*
X155928967Y-122334914D01*
X155969951Y-122345315D01*
X155977815Y-122354759D01*
X155973358Y-122411118D01*
X155968961Y-122467843D01*
X155964110Y-122481692D01*
X155949239Y-122485917D01*
X155939652Y-122485245D01*
X155633860Y-122468210D01*
X155515957Y-122474292D01*
X155364827Y-122494832D01*
X155352554Y-122496847D01*
X155345179Y-122488976D01*
X155331243Y-122440854D01*
X155321290Y-122371856D01*
X155328210Y-122363165D01*
X155363850Y-122352744D01*
X155401212Y-122344400D01*
X155406348Y-122341142D01*
X155404333Y-122337051D01*
X155363911Y-122300842D01*
X155331194Y-122259623D01*
X155308369Y-122215968D01*
X155294680Y-122169215D01*
X155291840Y-122138237D01*
X155426803Y-122138237D01*
X155434049Y-122189865D01*
X155455224Y-122234072D01*
X155491406Y-122272815D01*
X155533641Y-122300364D01*
X155581005Y-122316976D01*
X155634959Y-122322702D01*
X155687066Y-122316986D01*
X155733787Y-122300236D01*
X155776437Y-122272144D01*
X155812793Y-122232594D01*
X155833888Y-122188552D01*
X155841039Y-122138237D01*
X155833963Y-122086471D01*
X155813218Y-122041529D01*
X155777780Y-122001584D01*
X155735007Y-121972371D01*
X155687870Y-121954960D01*
X155634959Y-121949010D01*
X155581583Y-121954961D01*
X155533976Y-121972377D01*
X155490734Y-122001584D01*
X155454887Y-122041579D01*
X155433941Y-122086518D01*
X155426803Y-122138237D01*
X155291840Y-122138237D01*
X155290027Y-122118454D01*
X155296818Y-122046167D01*
X155316337Y-121983369D01*
X155348200Y-121928185D01*
X155393220Y-121879340D01*
X155444971Y-121841998D01*
X155503160Y-121815060D01*
X155568985Y-121798385D01*
X155643996Y-121792573D01*
X155709839Y-121798064D01*
G37*
G36*
X155494642Y-123183780D02*
G01*
X155600311Y-123181391D01*
X155635570Y-123176941D01*
X155687820Y-123148887D01*
X155903260Y-123007864D01*
X156114866Y-122860664D01*
X156168203Y-122817599D01*
X156179099Y-122795852D01*
X156188521Y-122744044D01*
X156192749Y-122641378D01*
X156189024Y-122618480D01*
X156140237Y-122595277D01*
X156086381Y-122577203D01*
X156076434Y-122583845D01*
X156071605Y-122613412D01*
X156068645Y-122664414D01*
X156060956Y-122700808D01*
X156049928Y-122726069D01*
X156037818Y-122738851D01*
X156003217Y-122763316D01*
X155966419Y-122783813D01*
X155950460Y-122788229D01*
X155921680Y-122774504D01*
X155805380Y-122689188D01*
X155681416Y-122597946D01*
X155635570Y-122572379D01*
X155597789Y-122566034D01*
X155500809Y-122562854D01*
X155422102Y-122563525D01*
X155342662Y-122564197D01*
X155331457Y-122568189D01*
X155327580Y-122580622D01*
X155330327Y-122645163D01*
X155333014Y-122709705D01*
X155336298Y-122717649D01*
X155347424Y-122720635D01*
X155405249Y-122718558D01*
X155462951Y-122716543D01*
X155588126Y-122721978D01*
X155622180Y-122736188D01*
X155718429Y-122796411D01*
X155790787Y-122848670D01*
X155817352Y-122873290D01*
X155822477Y-122883239D01*
X155809390Y-122898002D01*
X155720139Y-122957001D01*
X155625971Y-123010426D01*
X155593621Y-123023251D01*
X155551992Y-123026994D01*
X155467836Y-123028686D01*
X155408729Y-123024595D01*
X155350294Y-123020504D01*
X155336712Y-123023660D01*
X155333014Y-123031434D01*
X155329961Y-123097318D01*
X155326847Y-123163264D01*
X155334189Y-123170949D01*
X155374596Y-123179314D01*
X155494642Y-123183780D01*
G37*
G36*
X155023742Y-124485350D02*
G01*
X155261512Y-124479855D01*
X155499954Y-124474420D01*
X155723681Y-124475764D01*
X155947407Y-124477168D01*
X155964856Y-124472494D01*
X155970000Y-124460071D01*
X155967984Y-124429296D01*
X155965908Y-124398583D01*
X155967984Y-124365122D01*
X155970000Y-124331660D01*
X155965850Y-124319759D01*
X155949117Y-124302290D01*
X155353531Y-123854898D01*
X155286303Y-123800921D01*
X155290629Y-123796606D01*
X155314391Y-123794082D01*
X155630929Y-123797501D01*
X155947407Y-123800921D01*
X155965238Y-123796918D01*
X155970000Y-123787243D01*
X155967984Y-123751706D01*
X155965908Y-123716229D01*
X155967984Y-123679654D01*
X155970000Y-123643140D01*
X155966325Y-123630010D01*
X155956322Y-123626043D01*
X155729481Y-123633187D01*
X155501908Y-123640331D01*
X155203504Y-123634225D01*
X155035160Y-123627386D01*
X155026245Y-123626714D01*
X155018855Y-123629819D01*
X155015315Y-123643079D01*
X155012568Y-123712749D01*
X155008110Y-123748958D01*
X155004752Y-123784495D01*
X155007812Y-123791056D01*
X155022887Y-123805683D01*
X155666161Y-124286598D01*
X155696936Y-124313220D01*
X155659059Y-124316409D01*
X155565289Y-124317983D01*
X155297965Y-124311510D01*
X155031252Y-124305038D01*
X155013421Y-124309040D01*
X155008660Y-124318715D01*
X155010736Y-124355901D01*
X155012751Y-124393148D01*
X155010736Y-124432044D01*
X155008660Y-124471001D01*
X155012369Y-124481704D01*
X155023742Y-124485350D01*
G37*
G36*
X155709839Y-124594156D02*
G01*
X155770407Y-124610261D01*
X155826756Y-124636926D01*
X155879691Y-124674760D01*
X155926902Y-124723874D01*
X155959501Y-124776750D01*
X155978986Y-124834339D01*
X155985631Y-124898121D01*
X155978884Y-124951305D01*
X155957848Y-125006015D01*
X155937491Y-125040773D01*
X155907168Y-125081181D01*
X155880118Y-125118061D01*
X155886426Y-125122572D01*
X155928967Y-125131006D01*
X155969951Y-125141407D01*
X155977815Y-125150851D01*
X155973358Y-125207210D01*
X155968961Y-125263935D01*
X155964110Y-125277784D01*
X155949239Y-125282009D01*
X155939652Y-125281338D01*
X155633860Y-125264302D01*
X155515957Y-125270385D01*
X155364827Y-125290924D01*
X155352554Y-125292939D01*
X155345179Y-125285068D01*
X155331243Y-125236946D01*
X155321290Y-125167948D01*
X155328210Y-125159257D01*
X155363850Y-125148836D01*
X155401212Y-125140492D01*
X155406348Y-125137234D01*
X155404333Y-125133143D01*
X155363911Y-125096934D01*
X155331194Y-125055715D01*
X155308369Y-125012060D01*
X155294680Y-124965307D01*
X155291840Y-124934330D01*
X155426803Y-124934330D01*
X155434049Y-124985957D01*
X155455224Y-125030164D01*
X155491406Y-125068907D01*
X155533641Y-125096456D01*
X155581005Y-125113068D01*
X155634959Y-125118794D01*
X155687066Y-125113078D01*
X155733787Y-125096329D01*
X155776437Y-125068236D01*
X155812793Y-125028686D01*
X155833888Y-124984644D01*
X155841039Y-124934330D01*
X155833963Y-124882563D01*
X155813218Y-124837621D01*
X155777780Y-124797676D01*
X155735007Y-124768463D01*
X155687870Y-124751052D01*
X155634959Y-124745102D01*
X155581583Y-124751053D01*
X155533976Y-124768469D01*
X155490734Y-124797676D01*
X155454887Y-124837671D01*
X155433941Y-124882610D01*
X155426803Y-124934330D01*
X155291840Y-124934330D01*
X155290027Y-124914546D01*
X155296818Y-124842260D01*
X155316337Y-124779461D01*
X155348200Y-124724277D01*
X155393220Y-124675432D01*
X155444971Y-124638090D01*
X155503160Y-124611152D01*
X155568985Y-124594477D01*
X155643996Y-124588665D01*
X155709839Y-124594156D01*
G37*
G36*
X155842016Y-125785211D02*
G01*
X155884209Y-125782463D01*
X155927135Y-125778372D01*
X155942644Y-125776357D01*
X155951926Y-125763351D01*
X155964938Y-125724733D01*
X155974211Y-125667856D01*
X155977815Y-125587069D01*
X155973005Y-125534195D01*
X155960080Y-125494888D01*
X155940339Y-125465936D01*
X155913674Y-125445221D01*
X155878597Y-125432036D01*
X155832491Y-125427212D01*
X155657369Y-125429959D01*
X155482247Y-125432707D01*
X155466099Y-125429440D01*
X155456534Y-125420555D01*
X155452083Y-125404680D01*
X155451411Y-125354855D01*
X155440507Y-125345537D01*
X155395785Y-125340505D01*
X155354446Y-125343253D01*
X155341714Y-125349395D01*
X155334785Y-125365113D01*
X155334113Y-125398574D01*
X155330016Y-125416864D01*
X155321036Y-125426548D01*
X155306331Y-125429959D01*
X155223654Y-125428250D01*
X155140245Y-125426540D01*
X155108086Y-125429720D01*
X155094469Y-125436587D01*
X155090725Y-125445652D01*
X155110265Y-125574124D01*
X155115297Y-125586136D01*
X155125286Y-125589816D01*
X155215350Y-125585359D01*
X155305415Y-125580963D01*
X155320366Y-125585680D01*
X155325198Y-125599403D01*
X155325198Y-125763290D01*
X155327488Y-125772365D01*
X155333381Y-125774952D01*
X155359576Y-125772510D01*
X155386442Y-125770129D01*
X155417766Y-125770800D01*
X155449030Y-125771533D01*
X155458309Y-125767336D01*
X155461974Y-125752360D01*
X155458066Y-125669745D01*
X155454159Y-125587069D01*
X155459288Y-125583481D01*
X155493176Y-125578886D01*
X155629281Y-125575467D01*
X155731191Y-125575467D01*
X155785493Y-125578826D01*
X155813257Y-125586397D01*
X155832437Y-125600522D01*
X155844384Y-125622111D01*
X155848855Y-125654052D01*
X155839085Y-125716212D01*
X155829316Y-125777028D01*
X155832051Y-125782861D01*
X155842016Y-125785211D01*
G37*
G36*
X155946125Y-126478799D02*
G01*
X155966143Y-126474523D01*
X155971343Y-126464450D01*
X155970671Y-126400214D01*
X155970000Y-126335978D01*
X155964871Y-126323600D01*
X155947468Y-126318942D01*
X155848428Y-126321324D01*
X155748715Y-126323705D01*
X155653522Y-126321324D01*
X155557534Y-126318942D01*
X155510461Y-126313599D01*
X155477345Y-126299380D01*
X155454436Y-126277346D01*
X155439978Y-126246242D01*
X155434619Y-126202805D01*
X155442461Y-126163625D01*
X155472172Y-126104436D01*
X155502399Y-126063855D01*
X155526270Y-126044818D01*
X155545933Y-126039528D01*
X155951559Y-126039528D01*
X155966904Y-126035554D01*
X155971343Y-126025179D01*
X155970671Y-125961615D01*
X155970000Y-125898112D01*
X155965630Y-125886553D01*
X155951559Y-125882419D01*
X155621465Y-125882419D01*
X155278426Y-125873565D01*
X155037847Y-125861903D01*
X155026917Y-125860560D01*
X155017222Y-125862786D01*
X155012568Y-125868742D01*
X155009709Y-125886732D01*
X155008110Y-125945922D01*
X155002554Y-125988970D01*
X154996936Y-126030675D01*
X154999800Y-126037024D01*
X155010003Y-126039528D01*
X155204542Y-126034399D01*
X155399021Y-126029270D01*
X155412328Y-126031122D01*
X155415568Y-126034766D01*
X155343822Y-126124952D01*
X155320211Y-126170994D01*
X155306360Y-126217860D01*
X155301751Y-126266308D01*
X155307410Y-126330292D01*
X155322752Y-126379006D01*
X155346338Y-126415882D01*
X155378199Y-126443262D01*
X155417410Y-126460954D01*
X155474620Y-126473340D01*
X155555642Y-126478128D01*
X155620854Y-126477090D01*
X155686067Y-126476051D01*
X155816432Y-126477395D01*
X155946125Y-126478799D01*
G37*
G36*
X155709839Y-126575454D02*
G01*
X155770407Y-126591559D01*
X155826756Y-126618224D01*
X155879691Y-126656058D01*
X155926902Y-126705172D01*
X155959501Y-126758048D01*
X155978986Y-126815637D01*
X155985631Y-126879419D01*
X155978884Y-126932602D01*
X155957848Y-126987313D01*
X155937491Y-127022071D01*
X155907168Y-127062479D01*
X155880118Y-127099359D01*
X155886426Y-127103870D01*
X155928967Y-127112304D01*
X155969951Y-127122705D01*
X155977815Y-127132149D01*
X155973358Y-127188508D01*
X155968961Y-127245233D01*
X155964110Y-127259082D01*
X155949239Y-127263307D01*
X155939652Y-127262636D01*
X155633860Y-127245600D01*
X155515957Y-127251682D01*
X155364827Y-127272222D01*
X155352554Y-127274237D01*
X155345179Y-127266366D01*
X155331243Y-127218244D01*
X155321290Y-127149246D01*
X155328210Y-127140555D01*
X155363850Y-127130134D01*
X155401212Y-127121790D01*
X155406348Y-127118532D01*
X155404333Y-127114441D01*
X155363911Y-127078232D01*
X155331194Y-127037013D01*
X155308369Y-126993358D01*
X155294680Y-126946605D01*
X155291840Y-126915628D01*
X155426803Y-126915628D01*
X155434049Y-126967255D01*
X155455224Y-127011462D01*
X155491406Y-127050205D01*
X155533641Y-127077754D01*
X155581005Y-127094366D01*
X155634959Y-127100092D01*
X155687066Y-127094376D01*
X155733787Y-127077627D01*
X155776437Y-127049534D01*
X155812793Y-127009984D01*
X155833888Y-126965942D01*
X155841039Y-126915628D01*
X155833963Y-126863861D01*
X155813218Y-126818919D01*
X155777780Y-126778974D01*
X155735007Y-126749761D01*
X155687870Y-126732350D01*
X155634959Y-126726400D01*
X155581583Y-126732351D01*
X155533976Y-126749767D01*
X155490734Y-126778974D01*
X155454887Y-126818969D01*
X155433941Y-126863908D01*
X155426803Y-126915628D01*
X155291840Y-126915628D01*
X155290027Y-126895844D01*
X155296818Y-126823558D01*
X155316337Y-126760759D01*
X155348200Y-126705575D01*
X155393220Y-126656730D01*
X155444971Y-126619388D01*
X155503160Y-126592450D01*
X155568985Y-126575775D01*
X155643996Y-126569963D01*
X155709839Y-126575454D01*
G37*
G36*
X155956322Y-127987793D02*
G01*
X155967708Y-127984278D01*
X155971343Y-127974176D01*
X155970671Y-127906887D01*
X155970000Y-127839537D01*
X155965795Y-127830829D01*
X155950216Y-127827264D01*
X155848489Y-127829279D01*
X155746029Y-127831355D01*
X155664391Y-127830683D01*
X155582814Y-127830012D01*
X155530821Y-127826830D01*
X155495669Y-127818746D01*
X155472843Y-127807419D01*
X155452875Y-127786123D01*
X155439675Y-127753871D01*
X155434619Y-127706364D01*
X155442410Y-127670174D01*
X155473026Y-127611414D01*
X155503267Y-127570990D01*
X155526417Y-127552285D01*
X155544834Y-127547178D01*
X155954307Y-127547178D01*
X155967452Y-127543633D01*
X155971343Y-127534173D01*
X155970671Y-127468654D01*
X155970000Y-127403075D01*
X155966181Y-127392424D01*
X155954246Y-127388726D01*
X155792130Y-127390436D01*
X155629342Y-127392145D01*
X155532496Y-127388569D01*
X155443079Y-127378185D01*
X155360430Y-127361432D01*
X155351577Y-127359356D01*
X155345978Y-127361375D01*
X155341990Y-127368210D01*
X155329351Y-127446428D01*
X155317383Y-127523304D01*
X155319370Y-127526272D01*
X155328496Y-127528738D01*
X155371333Y-127534322D01*
X155415080Y-127544431D01*
X155345471Y-127638037D01*
X155320387Y-127687265D01*
X155306269Y-127733183D01*
X155301751Y-127776706D01*
X155307315Y-127840900D01*
X155322335Y-127889370D01*
X155345291Y-127925687D01*
X155376123Y-127952316D01*
X155414506Y-127969908D01*
X155471388Y-127982303D01*
X155552955Y-127987121D01*
X155617801Y-127986083D01*
X155683319Y-127985106D01*
X155819851Y-127986449D01*
X155956322Y-127987793D01*
G37*
G36*
X157632903Y-122421498D02*
G01*
X157645725Y-122417224D01*
X157650000Y-122404401D01*
X157647984Y-122367154D01*
X157645908Y-122329968D01*
X157647984Y-122292355D01*
X157650000Y-122254802D01*
X157644871Y-122242425D01*
X157627468Y-122237766D01*
X157367655Y-122243201D01*
X157107780Y-122248696D01*
X157097243Y-122246919D01*
X157094836Y-122243201D01*
X157102346Y-122233614D01*
X157206669Y-122188447D01*
X157499424Y-122069056D01*
X157654274Y-122008239D01*
X157658982Y-121998358D01*
X157661723Y-121959085D01*
X157657525Y-121902384D01*
X157650244Y-121888011D01*
X157495699Y-121821760D01*
X157094103Y-121647493D01*
X157084577Y-121638639D01*
X157099598Y-121633204D01*
X157363625Y-121636257D01*
X157627651Y-121639310D01*
X157645054Y-121634652D01*
X157650183Y-121622274D01*
X157648168Y-121586737D01*
X157646092Y-121551200D01*
X157648168Y-121514685D01*
X157650183Y-121478171D01*
X157646645Y-121464968D01*
X157637238Y-121461074D01*
X157410336Y-121468218D01*
X157183496Y-121475362D01*
X156947801Y-121468218D01*
X156712046Y-121461074D01*
X156702057Y-121464755D01*
X156697025Y-121476767D01*
X156687326Y-121564010D01*
X156684752Y-121616779D01*
X156689059Y-121623112D01*
X156711802Y-121635952D01*
X157065861Y-121794056D01*
X157360816Y-121920129D01*
X157419844Y-121947192D01*
X157427739Y-121953590D01*
X157420575Y-121960604D01*
X157373150Y-121982960D01*
X157124697Y-122083490D01*
X156716809Y-122240453D01*
X156693994Y-122252700D01*
X156688660Y-122263046D01*
X156691407Y-122333021D01*
X156694155Y-122403058D01*
X156698305Y-122415942D01*
X156710519Y-122420155D01*
X156946580Y-122415026D01*
X157182641Y-122409897D01*
X157408138Y-122415697D01*
X157632903Y-122421498D01*
G37*
G36*
X156831969Y-122743227D02*
G01*
X156869001Y-122737162D01*
X156893679Y-122720708D01*
X156909314Y-122693121D01*
X156915317Y-122649621D01*
X156909276Y-122605379D01*
X156893579Y-122577405D01*
X156868896Y-122560783D01*
X156831969Y-122554672D01*
X156808500Y-122557954D01*
X156788229Y-122567573D01*
X156770298Y-122584042D01*
X156753131Y-122613836D01*
X156747278Y-122649621D01*
X156753290Y-122685455D01*
X156771031Y-122715566D01*
X156798021Y-122736271D01*
X156831969Y-122743227D01*
G37*
G36*
X157018204Y-122738464D02*
G01*
X157177390Y-122731931D01*
X157337185Y-122725458D01*
X157486723Y-122727473D01*
X157635650Y-122729549D01*
X157646594Y-122726322D01*
X157650000Y-122717276D01*
X157650000Y-122584103D01*
X157644415Y-122574117D01*
X157621912Y-122569692D01*
X157479945Y-122572074D01*
X157337185Y-122574516D01*
X157177023Y-122566639D01*
X157016861Y-122558763D01*
X157008316Y-122562110D01*
X157005198Y-122573112D01*
X157008618Y-122611031D01*
X157012037Y-122649621D01*
X157008618Y-122688211D01*
X157005198Y-122726863D01*
X157008329Y-122735454D01*
X157018204Y-122738464D01*
G37*
G36*
X157028279Y-123350170D02*
G01*
X157094530Y-123334417D01*
X157139260Y-123318240D01*
X157145882Y-123312618D01*
X157119870Y-123250764D01*
X157110142Y-123218607D01*
X157106803Y-123182803D01*
X157113788Y-123129520D01*
X157134170Y-123083446D01*
X157168719Y-123042730D01*
X157212601Y-123011546D01*
X157260851Y-122993045D01*
X157314959Y-122986737D01*
X157368099Y-122993037D01*
X157415431Y-123011522D01*
X157458452Y-123042730D01*
X157493530Y-123084289D01*
X157514060Y-123130405D01*
X157521039Y-123182803D01*
X157515763Y-123227838D01*
X157499546Y-123272990D01*
X157479798Y-123310998D01*
X157478053Y-123311946D01*
X157485917Y-123318793D01*
X157535327Y-123331730D01*
X157606952Y-123341988D01*
X157617578Y-123336918D01*
X157631102Y-123315503D01*
X157648595Y-123262060D01*
X157662155Y-123199138D01*
X157665631Y-123163019D01*
X157658956Y-123094892D01*
X157639443Y-123033463D01*
X157607003Y-122977250D01*
X157560423Y-122925249D01*
X157506410Y-122883514D01*
X157448323Y-122854140D01*
X157385232Y-122836377D01*
X157315875Y-122830300D01*
X157244934Y-122836328D01*
X157181133Y-122853850D01*
X157123128Y-122882628D01*
X157069923Y-122923234D01*
X157024177Y-122974450D01*
X156992148Y-123030462D01*
X156972777Y-123092331D01*
X156966120Y-123161615D01*
X156971536Y-123224017D01*
X156987503Y-123281978D01*
X157014113Y-123336493D01*
X157022666Y-123347615D01*
X157028279Y-123350170D01*
G37*
G36*
X157626125Y-124031486D02*
G01*
X157646143Y-124027210D01*
X157651343Y-124017137D01*
X157650671Y-123952901D01*
X157650000Y-123888665D01*
X157644871Y-123876287D01*
X157627468Y-123871629D01*
X157528428Y-123874010D01*
X157428715Y-123876392D01*
X157333522Y-123874010D01*
X157237534Y-123871629D01*
X157190461Y-123866286D01*
X157157345Y-123852066D01*
X157134436Y-123830032D01*
X157119978Y-123798928D01*
X157114619Y-123755491D01*
X157122461Y-123716312D01*
X157152172Y-123657123D01*
X157182399Y-123616542D01*
X157206270Y-123597505D01*
X157225933Y-123592215D01*
X157631559Y-123592215D01*
X157646904Y-123588241D01*
X157651343Y-123577866D01*
X157650671Y-123514302D01*
X157650000Y-123450799D01*
X157645630Y-123439240D01*
X157631559Y-123435106D01*
X157301465Y-123435106D01*
X156958426Y-123426252D01*
X156717847Y-123414590D01*
X156706917Y-123413246D01*
X156697222Y-123415473D01*
X156692568Y-123421428D01*
X156689709Y-123439418D01*
X156688110Y-123498609D01*
X156682554Y-123541657D01*
X156676936Y-123583361D01*
X156679800Y-123589711D01*
X156690003Y-123592215D01*
X156884542Y-123587086D01*
X157079021Y-123581957D01*
X157092328Y-123583808D01*
X157095568Y-123587452D01*
X157023822Y-123677639D01*
X157000211Y-123723681D01*
X156986360Y-123770546D01*
X156981751Y-123818995D01*
X156987410Y-123882979D01*
X157002752Y-123931693D01*
X157026338Y-123968569D01*
X157058199Y-123995949D01*
X157097410Y-124013641D01*
X157154620Y-124026027D01*
X157235642Y-124030814D01*
X157300854Y-124029776D01*
X157366067Y-124028738D01*
X157496432Y-124030081D01*
X157626125Y-124031486D01*
G37*
G36*
X157389839Y-124128141D02*
G01*
X157450407Y-124144246D01*
X157506756Y-124170910D01*
X157559691Y-124208745D01*
X157606902Y-124257859D01*
X157639501Y-124310735D01*
X157658986Y-124368324D01*
X157665631Y-124432105D01*
X157658884Y-124485289D01*
X157637848Y-124540000D01*
X157617491Y-124574758D01*
X157587168Y-124615165D01*
X157560118Y-124652046D01*
X157566426Y-124656557D01*
X157608967Y-124664991D01*
X157649951Y-124675391D01*
X157657815Y-124684836D01*
X157653358Y-124741195D01*
X157648961Y-124797920D01*
X157644110Y-124811769D01*
X157629239Y-124815994D01*
X157619652Y-124815322D01*
X157313860Y-124798286D01*
X157195957Y-124804369D01*
X157044827Y-124824909D01*
X157032554Y-124826924D01*
X157025179Y-124819053D01*
X157011243Y-124770931D01*
X157001290Y-124701933D01*
X157008210Y-124693242D01*
X157043850Y-124682821D01*
X157081212Y-124674477D01*
X157086348Y-124671219D01*
X157084333Y-124667128D01*
X157043911Y-124630919D01*
X157011194Y-124589700D01*
X156988369Y-124546045D01*
X156974680Y-124499292D01*
X156971840Y-124468314D01*
X157106803Y-124468314D01*
X157114049Y-124519941D01*
X157135224Y-124564149D01*
X157171406Y-124602892D01*
X157213641Y-124630441D01*
X157261005Y-124647053D01*
X157314959Y-124652779D01*
X157367066Y-124647063D01*
X157413787Y-124630313D01*
X157456437Y-124602220D01*
X157492793Y-124562670D01*
X157513888Y-124518629D01*
X157521039Y-124468314D01*
X157513963Y-124416548D01*
X157493218Y-124371606D01*
X157457780Y-124331660D01*
X157415007Y-124302447D01*
X157367870Y-124285036D01*
X157314959Y-124279087D01*
X157261583Y-124285038D01*
X157213976Y-124302454D01*
X157170734Y-124331660D01*
X157134887Y-124371655D01*
X157113941Y-124416595D01*
X157106803Y-124468314D01*
X156971840Y-124468314D01*
X156970027Y-124448531D01*
X156976818Y-124376244D01*
X156996337Y-124313446D01*
X157028200Y-124258262D01*
X157073220Y-124209417D01*
X157124971Y-124172075D01*
X157183160Y-124145137D01*
X157248985Y-124128461D01*
X157323996Y-124122650D01*
X157389839Y-124128141D01*
G37*
G36*
X157397048Y-124902012D02*
G01*
X157463717Y-124920211D01*
X157521287Y-124949438D01*
X157571231Y-124989895D01*
X157611696Y-125039751D01*
X157640964Y-125097398D01*
X157659211Y-125164346D01*
X157665631Y-125242625D01*
X157658693Y-125319409D01*
X157638692Y-125386815D01*
X157606016Y-125446648D01*
X157559935Y-125500179D01*
X157544364Y-125511109D01*
X157495211Y-125487173D01*
X157448133Y-125461589D01*
X157446789Y-125454384D01*
X157464253Y-125432585D01*
X157502675Y-125369724D01*
X157525214Y-125304156D01*
X157532763Y-125234443D01*
X157528320Y-125193863D01*
X157514950Y-125154973D01*
X157491974Y-125116962D01*
X157460313Y-125083214D01*
X157426008Y-125061667D01*
X157388171Y-125050711D01*
X157359085Y-125404923D01*
X157349092Y-125473557D01*
X157334015Y-125497869D01*
X157312311Y-125512145D01*
X157281742Y-125517276D01*
X157217781Y-125511828D01*
X157160255Y-125495990D01*
X157107952Y-125469975D01*
X157059970Y-125433257D01*
X157018586Y-125387118D01*
X156989632Y-125336697D01*
X156972132Y-125281042D01*
X156966120Y-125218750D01*
X156967102Y-125209164D01*
X157098988Y-125209164D01*
X157103621Y-125244840D01*
X157117534Y-125278102D01*
X157141669Y-125309914D01*
X157172323Y-125335282D01*
X157204643Y-125349828D01*
X157239672Y-125354672D01*
X157245024Y-125348935D01*
X157252189Y-125315043D01*
X157266648Y-125178991D01*
X157270935Y-125073243D01*
X157266792Y-125053691D01*
X157257074Y-125048635D01*
X157218637Y-125053884D01*
X157182568Y-125069737D01*
X157147775Y-125097484D01*
X157120198Y-125132387D01*
X157104296Y-125169235D01*
X157098988Y-125209164D01*
X156967102Y-125209164D01*
X156972935Y-125152247D01*
X156992910Y-125092174D01*
X157026279Y-125037022D01*
X157074502Y-124985804D01*
X157129187Y-124946196D01*
X157187596Y-124918267D01*
X157250587Y-124901382D01*
X157319295Y-124895617D01*
X157397048Y-124902012D01*
G37*
G36*
X156703497Y-125785638D02*
G01*
X156712351Y-125784966D01*
X156957219Y-125773352D01*
X157148447Y-125769884D01*
X157391713Y-125772632D01*
X157634307Y-125775380D01*
X157646520Y-125772302D01*
X157650000Y-125764389D01*
X157650000Y-125633963D01*
X157646386Y-125625011D01*
X157634307Y-125621690D01*
X157391713Y-125623033D01*
X157148447Y-125624377D01*
X156926980Y-125617172D01*
X156706245Y-125610027D01*
X156696041Y-125613559D01*
X156692568Y-125624377D01*
X156694644Y-125661257D01*
X156696659Y-125698199D01*
X156694644Y-125736423D01*
X156692568Y-125774036D01*
X156695406Y-125783183D01*
X156703497Y-125785638D01*
G37*
G36*
X157619225Y-127107786D02*
G01*
X157630330Y-127104458D01*
X157634368Y-127090689D01*
X157631109Y-127077417D01*
X157615012Y-127041168D01*
X157587473Y-126990976D01*
X157622743Y-126926646D01*
X157648309Y-126856245D01*
X157664087Y-126778794D01*
X157669539Y-126693122D01*
X157663327Y-126614331D01*
X157645261Y-126543046D01*
X157615659Y-126477942D01*
X157574113Y-126417994D01*
X157519513Y-126362540D01*
X157460673Y-126318526D01*
X157397404Y-126284431D01*
X157329064Y-126259841D01*
X157254817Y-126244750D01*
X157173665Y-126239563D01*
X157090293Y-126244722D01*
X157014521Y-126259681D01*
X156945295Y-126283950D01*
X156881724Y-126317441D01*
X156823115Y-126360464D01*
X156768743Y-126415053D01*
X156727226Y-126474710D01*
X156697523Y-126540150D01*
X156679314Y-126612479D01*
X156673028Y-126693122D01*
X156678467Y-126762114D01*
X156694782Y-126829370D01*
X156722365Y-126895661D01*
X156759751Y-126956837D01*
X156804635Y-127008341D01*
X156857431Y-127051121D01*
X156877154Y-127059975D01*
X156890576Y-127053032D01*
X156940108Y-127011127D01*
X156986385Y-126965734D01*
X156993475Y-126954767D01*
X156988019Y-126946764D01*
X156951892Y-126913124D01*
X156905712Y-126868580D01*
X156874834Y-126829776D01*
X156851367Y-126786878D01*
X156837748Y-126743862D01*
X156833251Y-126699961D01*
X156840044Y-126638101D01*
X156859873Y-126583173D01*
X156893024Y-126533533D01*
X156941207Y-126488203D01*
X156992203Y-126455549D01*
X157047372Y-126432202D01*
X157107506Y-126417938D01*
X157173604Y-126413037D01*
X157237719Y-126417979D01*
X157297011Y-126432476D01*
X157352379Y-126456421D01*
X157404535Y-126490218D01*
X157453253Y-126536283D01*
X157486612Y-126586095D01*
X157506459Y-126640582D01*
X157513224Y-126701304D01*
X157508901Y-126762833D01*
X157496110Y-126821186D01*
X157474851Y-126877007D01*
X157444774Y-126930832D01*
X157314715Y-126919230D01*
X157185389Y-126911048D01*
X157176889Y-126914498D01*
X157173726Y-126926069D01*
X157175436Y-126965026D01*
X157177145Y-127003921D01*
X157175802Y-127043550D01*
X157174398Y-127083178D01*
X157179154Y-127093422D01*
X157196379Y-127097527D01*
X157268920Y-127095818D01*
X157341460Y-127094108D01*
X157449312Y-127096947D01*
X157609638Y-127107114D01*
X157619225Y-127107786D01*
G37*
G36*
X157389839Y-127180200D02*
G01*
X157450407Y-127196305D01*
X157506756Y-127222969D01*
X157559691Y-127260804D01*
X157606902Y-127309917D01*
X157639501Y-127362793D01*
X157658986Y-127420383D01*
X157665631Y-127484164D01*
X157658884Y-127537348D01*
X157637848Y-127592058D01*
X157617491Y-127626817D01*
X157587168Y-127667224D01*
X157560118Y-127704105D01*
X157566426Y-127708616D01*
X157608967Y-127717049D01*
X157649951Y-127727450D01*
X157657815Y-127736894D01*
X157653358Y-127793253D01*
X157648961Y-127849979D01*
X157644110Y-127863827D01*
X157629239Y-127868053D01*
X157619652Y-127867381D01*
X157313860Y-127850345D01*
X157195957Y-127856428D01*
X157044827Y-127876967D01*
X157032554Y-127878982D01*
X157025179Y-127871111D01*
X157011243Y-127822990D01*
X157001290Y-127753991D01*
X157008210Y-127745300D01*
X157043850Y-127734879D01*
X157081212Y-127726535D01*
X157086348Y-127723278D01*
X157084333Y-127719187D01*
X157043911Y-127682978D01*
X157011194Y-127641759D01*
X156988369Y-127598103D01*
X156974680Y-127551350D01*
X156971840Y-127520373D01*
X157106803Y-127520373D01*
X157114049Y-127572000D01*
X157135224Y-127616208D01*
X157171406Y-127654951D01*
X157213641Y-127682500D01*
X157261005Y-127699111D01*
X157314959Y-127704837D01*
X157367066Y-127699122D01*
X157413787Y-127682372D01*
X157456437Y-127654279D01*
X157492793Y-127614729D01*
X157513888Y-127570688D01*
X157521039Y-127520373D01*
X157513963Y-127468606D01*
X157493218Y-127423665D01*
X157457780Y-127383719D01*
X157415007Y-127354506D01*
X157367870Y-127337095D01*
X157314959Y-127331146D01*
X157261583Y-127337097D01*
X157213976Y-127354513D01*
X157170734Y-127383719D01*
X157134887Y-127423714D01*
X157113941Y-127468653D01*
X157106803Y-127520373D01*
X156971840Y-127520373D01*
X156970027Y-127500589D01*
X156976818Y-127428303D01*
X156996337Y-127365504D01*
X157028200Y-127310320D01*
X157073220Y-127261475D01*
X157124971Y-127224134D01*
X157183160Y-127197196D01*
X157248985Y-127180520D01*
X157323996Y-127174708D01*
X157389839Y-127180200D01*
G37*
G36*
X157624781Y-129029061D02*
G01*
X157645793Y-129024436D01*
X157651343Y-129013368D01*
X157649328Y-128982288D01*
X157647252Y-128950537D01*
X157648656Y-128915671D01*
X157650000Y-128880867D01*
X157643940Y-128871088D01*
X157618065Y-128866517D01*
X157524642Y-128868899D01*
X157431219Y-128871280D01*
X157239610Y-128869937D01*
X157193160Y-128863306D01*
X157162443Y-128853337D01*
X157143135Y-128841238D01*
X157128512Y-128821328D01*
X157118503Y-128791015D01*
X157114619Y-128746289D01*
X157118493Y-128718720D01*
X157131259Y-128686839D01*
X157155408Y-128649263D01*
X157186710Y-128615335D01*
X157214329Y-128597405D01*
X157239610Y-128591195D01*
X157433295Y-128588447D01*
X157533190Y-128591195D01*
X157633025Y-128593942D01*
X157647337Y-128590447D01*
X157651343Y-128581608D01*
X157649328Y-128545765D01*
X157647252Y-128509862D01*
X157648656Y-128477744D01*
X157650000Y-128445687D01*
X157645642Y-128435851D01*
X157630277Y-128432009D01*
X157532152Y-128434024D01*
X157433967Y-128436100D01*
X157270202Y-128436100D01*
X157199364Y-128430568D01*
X157160842Y-128417660D01*
X157136166Y-128396450D01*
X157120504Y-128364776D01*
X157114619Y-128318620D01*
X157122518Y-128274717D01*
X157150645Y-128216160D01*
X157180435Y-128176044D01*
X157206400Y-128156356D01*
X157230146Y-128150580D01*
X157428532Y-128150580D01*
X157529771Y-128151252D01*
X157630277Y-128151924D01*
X157645432Y-128147701D01*
X157650000Y-128136231D01*
X157650000Y-128009164D01*
X157645830Y-127999249D01*
X157631559Y-127995486D01*
X157465169Y-127996158D01*
X157298778Y-127996891D01*
X157174147Y-127990262D01*
X157049345Y-127970268D01*
X157034996Y-127968192D01*
X157027710Y-127969900D01*
X157024738Y-127974359D01*
X157013930Y-128048121D01*
X156998115Y-128115776D01*
X156997383Y-128121210D01*
X157004429Y-128127147D01*
X157048429Y-128136536D01*
X157093155Y-128145158D01*
X157099476Y-128149237D01*
X157068824Y-128183370D01*
X157036344Y-128224538D01*
X157012404Y-128263970D01*
X156989182Y-128322924D01*
X156981751Y-128380108D01*
X156987652Y-128441889D01*
X157003927Y-128490450D01*
X157029500Y-128528671D01*
X157064799Y-128558412D01*
X157111688Y-128580265D01*
X157061431Y-128627514D01*
X157020464Y-128685472D01*
X156998444Y-128731269D01*
X156985841Y-128775202D01*
X156981751Y-128817974D01*
X156987211Y-128881056D01*
X157002015Y-128929179D01*
X157024737Y-128965674D01*
X157055329Y-128992852D01*
X157093541Y-129010576D01*
X157149112Y-129022944D01*
X157227643Y-129027718D01*
X157297130Y-129026313D01*
X157366617Y-129024970D01*
X157495699Y-129026985D01*
X157624781Y-129029061D01*
G37*
G36*
X157388823Y-129128037D02*
G01*
X157451711Y-129145629D01*
X157509096Y-129174599D01*
X157561950Y-129215601D01*
X157607672Y-129266816D01*
X157639661Y-129322725D01*
X157658992Y-129384376D01*
X157665631Y-129453311D01*
X157658969Y-129521850D01*
X157639549Y-129583265D01*
X157607363Y-129639086D01*
X157561278Y-129690348D01*
X157508066Y-129731374D01*
X157450430Y-129760344D01*
X157387411Y-129777923D01*
X157317707Y-129783954D01*
X157248414Y-129777879D01*
X157185904Y-129760181D01*
X157128848Y-129731012D01*
X157076273Y-129689677D01*
X157031131Y-129638531D01*
X156999552Y-129582850D01*
X156980480Y-129521608D01*
X156973935Y-129453311D01*
X157114619Y-129453311D01*
X157121630Y-129505097D01*
X157142080Y-129549548D01*
X157176840Y-129588560D01*
X157218480Y-129616867D01*
X157265391Y-129633911D01*
X157319112Y-129639790D01*
X157371934Y-129633972D01*
X157418872Y-129616980D01*
X157461322Y-129588560D01*
X157496999Y-129549051D01*
X157517842Y-129504580D01*
X157524947Y-129453311D01*
X157517877Y-129402458D01*
X157497062Y-129357966D01*
X157461322Y-129318061D01*
X157418827Y-129289246D01*
X157371893Y-129272044D01*
X157319112Y-129266160D01*
X157265374Y-129272025D01*
X157218226Y-129289059D01*
X157176168Y-129317390D01*
X157141793Y-129356762D01*
X157121554Y-129401452D01*
X157114619Y-129453311D01*
X156973935Y-129453311D01*
X156980482Y-129384661D01*
X156999562Y-129323077D01*
X157031146Y-129267066D01*
X157076273Y-129215601D01*
X157129127Y-129174599D01*
X157186512Y-129145629D01*
X157249400Y-129128037D01*
X157319112Y-129121995D01*
X157388823Y-129128037D01*
G37*
G36*
X157522016Y-130260717D02*
G01*
X157564209Y-130257969D01*
X157607135Y-130253878D01*
X157622644Y-130251863D01*
X157631926Y-130238857D01*
X157644938Y-130200239D01*
X157654211Y-130143362D01*
X157657815Y-130062575D01*
X157653005Y-130009701D01*
X157640080Y-129970394D01*
X157620339Y-129941441D01*
X157593674Y-129920727D01*
X157558597Y-129907542D01*
X157512491Y-129902718D01*
X157337369Y-129905465D01*
X157162247Y-129908213D01*
X157146099Y-129904946D01*
X157136534Y-129896060D01*
X157132083Y-129880186D01*
X157131411Y-129830361D01*
X157120507Y-129821043D01*
X157075785Y-129816011D01*
X157034446Y-129818759D01*
X157021714Y-129824901D01*
X157014785Y-129840619D01*
X157014113Y-129874080D01*
X157010016Y-129892370D01*
X157001036Y-129902054D01*
X156986331Y-129905465D01*
X156903654Y-129903756D01*
X156820245Y-129902046D01*
X156788086Y-129905226D01*
X156774469Y-129912093D01*
X156770725Y-129921158D01*
X156790265Y-130049630D01*
X156795297Y-130061642D01*
X156805286Y-130065322D01*
X156895350Y-130060865D01*
X156985415Y-130056468D01*
X157000366Y-130061186D01*
X157005198Y-130074909D01*
X157005198Y-130238796D01*
X157007488Y-130247871D01*
X157013381Y-130250458D01*
X157039576Y-130248016D01*
X157066442Y-130245635D01*
X157097766Y-130246306D01*
X157129030Y-130247039D01*
X157138309Y-130242842D01*
X157141974Y-130227866D01*
X157138066Y-130145251D01*
X157134159Y-130062575D01*
X157139288Y-130058987D01*
X157173176Y-130054392D01*
X157309281Y-130050973D01*
X157411191Y-130050973D01*
X157465493Y-130054332D01*
X157493257Y-130061903D01*
X157512437Y-130076028D01*
X157524384Y-130097617D01*
X157528855Y-130129558D01*
X157519085Y-130191718D01*
X157509316Y-130252534D01*
X157512051Y-130258366D01*
X157522016Y-130260717D01*
G37*
G36*
X157389839Y-130323117D02*
G01*
X157450407Y-130339222D01*
X157506756Y-130365886D01*
X157559691Y-130403721D01*
X157606902Y-130452834D01*
X157639501Y-130505710D01*
X157658986Y-130563300D01*
X157665631Y-130627081D01*
X157658884Y-130680265D01*
X157637848Y-130734975D01*
X157617491Y-130769734D01*
X157587168Y-130810141D01*
X157560118Y-130847021D01*
X157566426Y-130851533D01*
X157608967Y-130859966D01*
X157649951Y-130870367D01*
X157657815Y-130879811D01*
X157653358Y-130936170D01*
X157648961Y-130992896D01*
X157644110Y-131006744D01*
X157629239Y-131010969D01*
X157619652Y-131010298D01*
X157313860Y-130993262D01*
X157195957Y-130999345D01*
X157044827Y-131019884D01*
X157032554Y-131021899D01*
X157025179Y-131014028D01*
X157011243Y-130965907D01*
X157001290Y-130896908D01*
X157008210Y-130888217D01*
X157043850Y-130877796D01*
X157081212Y-130869452D01*
X157086348Y-130866195D01*
X157084333Y-130862103D01*
X157043911Y-130825894D01*
X157011194Y-130784676D01*
X156988369Y-130741020D01*
X156974680Y-130694267D01*
X156971840Y-130663290D01*
X157106803Y-130663290D01*
X157114049Y-130714917D01*
X157135224Y-130759125D01*
X157171406Y-130797868D01*
X157213641Y-130825417D01*
X157261005Y-130842028D01*
X157314959Y-130847754D01*
X157367066Y-130842039D01*
X157413787Y-130825289D01*
X157456437Y-130797196D01*
X157492793Y-130757646D01*
X157513888Y-130713605D01*
X157521039Y-130663290D01*
X157513963Y-130611523D01*
X157493218Y-130566582D01*
X157457780Y-130526636D01*
X157415007Y-130497423D01*
X157367870Y-130480012D01*
X157314959Y-130474063D01*
X157261583Y-130480013D01*
X157213976Y-130497430D01*
X157170734Y-130526636D01*
X157134887Y-130566631D01*
X157113941Y-130611570D01*
X157106803Y-130663290D01*
X156971840Y-130663290D01*
X156970027Y-130643506D01*
X156976818Y-130571220D01*
X156996337Y-130508421D01*
X157028200Y-130453237D01*
X157073220Y-130404392D01*
X157124971Y-130367051D01*
X157183160Y-130340112D01*
X157248985Y-130323437D01*
X157323996Y-130317625D01*
X157389839Y-130323117D01*
G37*
G36*
X158397175Y-121459670D02*
G01*
X158638676Y-121471569D01*
X158858122Y-121475362D01*
X159086184Y-121468218D01*
X159314246Y-121461074D01*
X159325955Y-121465234D01*
X159330000Y-121478171D01*
X159327984Y-121513647D01*
X159325908Y-121549185D01*
X159329023Y-121591195D01*
X159332076Y-121632472D01*
X159328534Y-121642671D01*
X159317665Y-121646149D01*
X159174966Y-121641692D01*
X159031596Y-121637295D01*
X159004324Y-121641847D01*
X158996669Y-121651645D01*
X158993921Y-121763630D01*
X158994593Y-121825790D01*
X159001083Y-121850610D01*
X159011253Y-121866410D01*
X159024818Y-121875676D01*
X159312903Y-121999996D01*
X159325945Y-122010385D01*
X159330000Y-122023932D01*
X159327923Y-122066613D01*
X159325847Y-122109295D01*
X159327923Y-122148923D01*
X159330000Y-122188551D01*
X159328303Y-122197324D01*
X159324504Y-122199481D01*
X159297614Y-122189702D01*
X159141322Y-122117843D01*
X158984955Y-122045706D01*
X158959483Y-122036205D01*
X158951896Y-122038890D01*
X158942386Y-122049211D01*
X158902410Y-122098155D01*
X158863538Y-122132843D01*
X158825394Y-122155762D01*
X158785606Y-122169989D01*
X158733459Y-122179557D01*
X158666025Y-122183117D01*
X158594133Y-122176294D01*
X158533723Y-122156945D01*
X158482502Y-122125745D01*
X158438941Y-122082001D01*
X158408414Y-122034772D01*
X158385827Y-121979527D01*
X158371529Y-121914801D01*
X158366461Y-121838796D01*
X158367973Y-121752028D01*
X158509344Y-121752028D01*
X158513829Y-121844114D01*
X158525003Y-121904206D01*
X158540118Y-121941256D01*
X158564071Y-121970575D01*
X158597714Y-121992490D01*
X158643627Y-122006936D01*
X158705593Y-122012330D01*
X158755324Y-122006844D01*
X158793506Y-121991747D01*
X158822890Y-121967756D01*
X158844927Y-121933778D01*
X158859504Y-121887101D01*
X158864961Y-121823775D01*
X158861542Y-121683763D01*
X158858122Y-121643401D01*
X158855375Y-121634548D01*
X158724766Y-121634548D01*
X158578914Y-121636183D01*
X158527112Y-121639310D01*
X158520016Y-121645741D01*
X158512955Y-121674330D01*
X158509344Y-121752028D01*
X158367973Y-121752028D01*
X158369515Y-121663551D01*
X158372568Y-121487697D01*
X158376896Y-121464159D01*
X158386245Y-121458998D01*
X158397175Y-121459670D01*
G37*
G36*
X159069839Y-122256264D02*
G01*
X159130407Y-122272369D01*
X159186756Y-122299033D01*
X159239691Y-122336868D01*
X159286902Y-122385981D01*
X159319501Y-122438858D01*
X159338986Y-122496447D01*
X159345631Y-122560228D01*
X159338884Y-122613412D01*
X159317848Y-122668122D01*
X159297491Y-122702881D01*
X159267168Y-122743288D01*
X159240118Y-122780169D01*
X159246426Y-122784680D01*
X159288967Y-122793114D01*
X159329951Y-122803514D01*
X159337815Y-122812958D01*
X159333358Y-122869317D01*
X159328961Y-122926043D01*
X159324110Y-122939892D01*
X159309239Y-122944117D01*
X159299652Y-122943445D01*
X158993860Y-122926409D01*
X158875957Y-122932492D01*
X158724827Y-122953032D01*
X158712554Y-122955047D01*
X158705179Y-122947175D01*
X158691243Y-122899054D01*
X158681290Y-122830055D01*
X158688210Y-122821364D01*
X158723850Y-122810943D01*
X158761212Y-122802599D01*
X158766348Y-122799342D01*
X158764333Y-122795251D01*
X158723911Y-122759042D01*
X158691194Y-122717823D01*
X158668369Y-122674168D01*
X158654680Y-122627415D01*
X158651840Y-122596437D01*
X158786803Y-122596437D01*
X158794049Y-122648064D01*
X158815224Y-122692272D01*
X158851406Y-122731015D01*
X158893641Y-122758564D01*
X158941005Y-122775176D01*
X158994959Y-122780901D01*
X159047066Y-122775186D01*
X159093787Y-122758436D01*
X159136437Y-122730343D01*
X159172793Y-122690793D01*
X159193888Y-122646752D01*
X159201039Y-122596437D01*
X159193963Y-122544670D01*
X159173218Y-122499729D01*
X159137780Y-122459783D01*
X159095007Y-122430570D01*
X159047870Y-122413159D01*
X158994959Y-122407210D01*
X158941583Y-122413161D01*
X158893976Y-122430577D01*
X158850734Y-122459783D01*
X158814887Y-122499778D01*
X158793941Y-122544717D01*
X158786803Y-122596437D01*
X158651840Y-122596437D01*
X158650027Y-122576653D01*
X158656818Y-122504367D01*
X158676337Y-122441568D01*
X158708200Y-122386385D01*
X158753220Y-122337540D01*
X158804971Y-122300198D01*
X158863160Y-122273260D01*
X158928985Y-122256584D01*
X159003996Y-122250772D01*
X159069839Y-122256264D01*
G37*
G36*
X159306125Y-123663168D02*
G01*
X159326143Y-123658891D01*
X159331343Y-123648818D01*
X159330671Y-123584583D01*
X159330000Y-123520347D01*
X159324871Y-123507969D01*
X159307468Y-123503311D01*
X159208428Y-123505692D01*
X159108715Y-123508073D01*
X159013522Y-123505692D01*
X158917534Y-123503311D01*
X158870461Y-123497968D01*
X158837345Y-123483748D01*
X158814436Y-123461714D01*
X158799978Y-123430610D01*
X158794619Y-123387173D01*
X158802461Y-123347994D01*
X158832172Y-123288804D01*
X158862399Y-123248224D01*
X158886270Y-123229187D01*
X158905933Y-123223897D01*
X159311559Y-123223897D01*
X159326904Y-123219922D01*
X159331343Y-123209548D01*
X159330671Y-123145983D01*
X159330000Y-123082480D01*
X159325630Y-123070921D01*
X159311559Y-123066788D01*
X158981465Y-123066788D01*
X158638426Y-123057934D01*
X158397847Y-123046271D01*
X158386917Y-123044928D01*
X158377222Y-123047155D01*
X158372568Y-123053110D01*
X158369709Y-123071100D01*
X158368110Y-123130291D01*
X158362554Y-123173339D01*
X158356936Y-123215043D01*
X158359800Y-123221393D01*
X158370003Y-123223897D01*
X158564542Y-123218768D01*
X158759021Y-123213639D01*
X158772328Y-123215490D01*
X158775568Y-123219134D01*
X158703822Y-123309321D01*
X158680211Y-123355363D01*
X158666360Y-123402228D01*
X158661751Y-123450676D01*
X158667410Y-123514661D01*
X158682752Y-123563374D01*
X158706338Y-123600251D01*
X158738199Y-123627630D01*
X158777410Y-123645322D01*
X158834620Y-123657708D01*
X158915642Y-123662496D01*
X158980854Y-123661458D01*
X159046067Y-123660420D01*
X159176432Y-123661763D01*
X159306125Y-123663168D01*
G37*
G36*
X158710478Y-124427220D02*
G01*
X158861359Y-124423129D01*
X159012972Y-124419038D01*
X159162510Y-124422091D01*
X159311987Y-124425144D01*
X159323291Y-124421902D01*
X159329816Y-124412199D01*
X159331160Y-124273531D01*
X159324136Y-124268384D01*
X159279319Y-124263639D01*
X159233910Y-124259567D01*
X159227418Y-124255762D01*
X159233646Y-124245504D01*
X159280072Y-124184735D01*
X159310834Y-124127544D01*
X159328276Y-124073010D01*
X159333907Y-124020068D01*
X159328799Y-123959636D01*
X159314718Y-123911629D01*
X159292782Y-123873509D01*
X159263030Y-123843462D01*
X159224426Y-123820582D01*
X159177206Y-123805940D01*
X159099818Y-123794962D01*
X158980793Y-123790540D01*
X158874626Y-123793699D01*
X158785729Y-123802453D01*
X158711882Y-123815819D01*
X158690870Y-123825429D01*
X158685198Y-123838351D01*
X158685870Y-123897824D01*
X158686542Y-123957236D01*
X158690192Y-123967384D01*
X158701624Y-123970914D01*
X158790467Y-123961999D01*
X158884134Y-123951802D01*
X158974382Y-123949726D01*
X159084181Y-123955147D01*
X159135033Y-123966823D01*
X159166575Y-123985353D01*
X159189095Y-124011884D01*
X159203520Y-124048130D01*
X159208855Y-124097309D01*
X159204944Y-124124881D01*
X159191794Y-124158203D01*
X159166479Y-124199036D01*
X159133725Y-124237140D01*
X159105771Y-124256716D01*
X159080994Y-124263272D01*
X158720064Y-124266692D01*
X158700474Y-124270230D01*
X158690184Y-124279287D01*
X158686542Y-124294719D01*
X158686542Y-124407437D01*
X158692158Y-124421961D01*
X158710478Y-124427220D01*
G37*
G36*
X158383497Y-124739302D02*
G01*
X158392351Y-124738630D01*
X158637219Y-124727016D01*
X158828447Y-124723548D01*
X159071713Y-124726296D01*
X159314307Y-124729043D01*
X159326520Y-124725966D01*
X159330000Y-124718053D01*
X159330000Y-124587627D01*
X159326386Y-124578674D01*
X159314307Y-124575354D01*
X159071713Y-124576697D01*
X158828447Y-124578040D01*
X158606980Y-124570835D01*
X158386245Y-124563691D01*
X158376041Y-124567222D01*
X158372568Y-124578040D01*
X158374644Y-124614921D01*
X158376659Y-124651863D01*
X158374644Y-124690087D01*
X158372568Y-124727700D01*
X158375406Y-124736847D01*
X158383497Y-124739302D01*
G37*
G36*
X159297882Y-125981521D02*
G01*
X159317529Y-125978711D01*
X159326960Y-125972037D01*
X159330000Y-125961737D01*
X159330000Y-125804628D01*
X159323188Y-125793079D01*
X159286669Y-125764057D01*
X159184736Y-125701496D01*
X159069866Y-125638107D01*
X159007355Y-125607890D01*
X158948675Y-125581207D01*
X158921701Y-125557772D01*
X158912527Y-125533396D01*
X158911856Y-125487601D01*
X158915837Y-125429120D01*
X158923861Y-125406781D01*
X158932983Y-125401566D01*
X159120622Y-125405963D01*
X159307468Y-125410420D01*
X159324865Y-125405750D01*
X159330000Y-125393323D01*
X159327984Y-125354427D01*
X159325908Y-125315471D01*
X159327984Y-125278956D01*
X159330000Y-125242442D01*
X159325965Y-125229500D01*
X159314307Y-125225345D01*
X159088810Y-125232489D01*
X158863251Y-125239633D01*
X158625420Y-125232489D01*
X158387588Y-125225345D01*
X158376484Y-125229440D01*
X158372568Y-125242442D01*
X158374644Y-125279994D01*
X158376659Y-125318218D01*
X158374644Y-125355099D01*
X158372568Y-125392041D01*
X158375877Y-125404126D01*
X158384780Y-125407733D01*
X158558803Y-125403948D01*
X158733436Y-125400223D01*
X158766775Y-125403642D01*
X158775457Y-125412333D01*
X158778988Y-125431669D01*
X158772415Y-125519081D01*
X158755177Y-125581710D01*
X158729834Y-125625659D01*
X158697449Y-125656526D01*
X158646240Y-125689731D01*
X158570221Y-125725371D01*
X158388199Y-125793698D01*
X158378846Y-125800945D01*
X158372568Y-125814886D01*
X158369820Y-125887304D01*
X158373666Y-125937720D01*
X158381563Y-125957546D01*
X158390947Y-125962409D01*
X158412581Y-125957892D01*
X158501345Y-125930963D01*
X158576261Y-125903264D01*
X158643252Y-125871330D01*
X158703028Y-125835341D01*
X158760829Y-125791509D01*
X158822280Y-125732210D01*
X158837005Y-125719215D01*
X158848169Y-125715785D01*
X158870497Y-125723310D01*
X158970291Y-125771106D01*
X159060044Y-125819035D01*
X159122821Y-125857873D01*
X159284876Y-125978101D01*
X159297882Y-125981521D01*
G37*
G36*
X158687763Y-126449002D02*
G01*
X158761069Y-126446309D01*
X158824173Y-126438743D01*
X158836313Y-126433996D01*
X158839865Y-126425127D01*
X158836812Y-126381713D01*
X158833698Y-126337688D01*
X158840229Y-126282930D01*
X158856948Y-126248359D01*
X158882302Y-126227718D01*
X158919727Y-126217982D01*
X159004851Y-126213368D01*
X159080139Y-126213368D01*
X159196521Y-126216421D01*
X159312903Y-126219474D01*
X159326974Y-126215341D01*
X159331343Y-126203782D01*
X159330671Y-126139546D01*
X159330000Y-126075310D01*
X159325860Y-126063698D01*
X159312964Y-126059678D01*
X159146573Y-126061327D01*
X158979572Y-126063037D01*
X158866801Y-126058954D01*
X158777909Y-126047933D01*
X158708890Y-126031591D01*
X158700708Y-126030247D01*
X158693841Y-126032367D01*
X158689106Y-126039101D01*
X158680314Y-126110176D01*
X158665659Y-126178503D01*
X158672259Y-126186043D01*
X158706936Y-126192852D01*
X158742038Y-126199089D01*
X158748213Y-126205125D01*
X158746809Y-126208545D01*
X158710111Y-126264537D01*
X158693443Y-126295952D01*
X158681962Y-126327430D01*
X158675827Y-126356012D01*
X158673475Y-126395696D01*
X158676108Y-126431642D01*
X158681480Y-126445630D01*
X158687763Y-126449002D01*
G37*
G36*
X158511969Y-126701915D02*
G01*
X158549001Y-126695850D01*
X158573679Y-126679396D01*
X158589314Y-126651809D01*
X158595317Y-126608309D01*
X158589276Y-126564067D01*
X158573579Y-126536093D01*
X158548896Y-126519471D01*
X158511969Y-126513360D01*
X158488500Y-126516642D01*
X158468229Y-126526261D01*
X158450298Y-126542730D01*
X158433131Y-126572524D01*
X158427278Y-126608309D01*
X158433290Y-126644143D01*
X158451031Y-126674255D01*
X158478021Y-126694959D01*
X158511969Y-126701915D01*
G37*
G36*
X158698204Y-126697152D02*
G01*
X158857390Y-126690619D01*
X159017185Y-126684146D01*
X159166723Y-126686161D01*
X159315650Y-126688237D01*
X159326594Y-126685010D01*
X159330000Y-126675964D01*
X159330000Y-126542791D01*
X159324415Y-126532805D01*
X159301912Y-126528381D01*
X159159945Y-126530762D01*
X159017185Y-126533204D01*
X158857023Y-126525327D01*
X158696861Y-126517451D01*
X158688316Y-126520798D01*
X158685198Y-126531800D01*
X158688618Y-126569719D01*
X158692037Y-126608309D01*
X158688618Y-126646899D01*
X158685198Y-126685551D01*
X158688329Y-126694142D01*
X158698204Y-126697152D01*
G37*
G36*
X159118302Y-127151749D02*
G01*
X159167357Y-127146531D01*
X159210118Y-127131433D01*
X159247973Y-127106451D01*
X159281762Y-127070478D01*
X159312440Y-127018741D01*
X159331255Y-126959467D01*
X159337815Y-126890776D01*
X159335800Y-126844309D01*
X159326575Y-126836281D01*
X159302766Y-126832707D01*
X159258253Y-126828921D01*
X159214412Y-126825197D01*
X159207461Y-126827941D01*
X159202932Y-126837470D01*
X159202932Y-126862749D01*
X159204947Y-126883265D01*
X159200479Y-126936745D01*
X159189082Y-126972196D01*
X159172680Y-126994762D01*
X159151442Y-127007829D01*
X159123736Y-127012409D01*
X159101498Y-127007196D01*
X159078860Y-126989967D01*
X159054677Y-126955683D01*
X158992456Y-126849804D01*
X158956829Y-126818342D01*
X158915088Y-126799586D01*
X158865266Y-126793079D01*
X158815583Y-126798163D01*
X158773282Y-126812705D01*
X158736817Y-126836458D01*
X158705226Y-126870259D01*
X158677455Y-126919121D01*
X158660088Y-126977150D01*
X158653935Y-127046542D01*
X158656130Y-127054801D01*
X158662789Y-127060525D01*
X158717744Y-127077622D01*
X158773370Y-127090261D01*
X158779083Y-127087550D01*
X158782896Y-127077255D01*
X158794680Y-126989145D01*
X158808643Y-126958527D01*
X158827656Y-126942108D01*
X158852932Y-126936571D01*
X158870939Y-126941277D01*
X158891209Y-126957681D01*
X158915153Y-126991892D01*
X158959156Y-127065775D01*
X158981526Y-127095757D01*
X159020116Y-127126687D01*
X159065060Y-127145284D01*
X159118302Y-127151749D01*
G37*
G36*
X159306125Y-127846559D02*
G01*
X159326143Y-127842283D01*
X159331343Y-127832210D01*
X159330671Y-127767974D01*
X159330000Y-127703738D01*
X159324871Y-127691360D01*
X159307468Y-127686702D01*
X159208428Y-127689084D01*
X159108715Y-127691465D01*
X159013522Y-127689084D01*
X158917534Y-127686702D01*
X158870461Y-127681359D01*
X158837345Y-127667140D01*
X158814436Y-127645106D01*
X158799978Y-127614002D01*
X158794619Y-127570565D01*
X158802461Y-127531385D01*
X158832172Y-127472196D01*
X158862399Y-127431615D01*
X158886270Y-127412578D01*
X158905933Y-127407288D01*
X159311559Y-127407288D01*
X159326904Y-127403314D01*
X159331343Y-127392939D01*
X159330671Y-127329375D01*
X159330000Y-127265872D01*
X159325630Y-127254313D01*
X159311559Y-127250179D01*
X158981465Y-127250179D01*
X158638426Y-127241325D01*
X158397847Y-127229663D01*
X158386917Y-127228319D01*
X158377222Y-127230546D01*
X158372568Y-127236502D01*
X158369709Y-127254491D01*
X158368110Y-127313682D01*
X158362554Y-127356730D01*
X158356936Y-127398435D01*
X158359800Y-127404784D01*
X158370003Y-127407288D01*
X158564542Y-127402159D01*
X158759021Y-127397030D01*
X158772328Y-127398881D01*
X158775568Y-127402526D01*
X158703822Y-127492712D01*
X158680211Y-127538754D01*
X158666360Y-127585620D01*
X158661751Y-127634068D01*
X158667410Y-127698052D01*
X158682752Y-127746766D01*
X158706338Y-127783642D01*
X158738199Y-127811022D01*
X158777410Y-127828714D01*
X158834620Y-127841100D01*
X158915642Y-127845887D01*
X158980854Y-127844849D01*
X159046067Y-127843811D01*
X159176432Y-127845155D01*
X159306125Y-127846559D01*
G37*
G36*
X159316322Y-128579837D02*
G01*
X159327708Y-128576323D01*
X159331343Y-128566221D01*
X159330671Y-128498932D01*
X159330000Y-128431582D01*
X159325795Y-128422874D01*
X159310216Y-128419309D01*
X159208489Y-128421324D01*
X159106029Y-128423400D01*
X159024391Y-128422728D01*
X158942814Y-128422056D01*
X158890821Y-128418875D01*
X158855669Y-128410791D01*
X158832843Y-128399464D01*
X158812875Y-128378167D01*
X158799675Y-128345916D01*
X158794619Y-128298408D01*
X158802410Y-128262219D01*
X158833026Y-128203459D01*
X158863267Y-128163034D01*
X158886417Y-128144330D01*
X158904834Y-128139223D01*
X159314307Y-128139223D01*
X159327452Y-128135678D01*
X159331343Y-128126217D01*
X159330671Y-128060699D01*
X159330000Y-127995120D01*
X159326181Y-127984469D01*
X159314246Y-127980771D01*
X159152130Y-127982480D01*
X158989342Y-127984190D01*
X158892496Y-127980613D01*
X158803079Y-127970229D01*
X158720430Y-127953476D01*
X158711577Y-127951400D01*
X158705978Y-127953419D01*
X158701990Y-127960254D01*
X158689351Y-128038473D01*
X158677383Y-128115348D01*
X158679370Y-128118317D01*
X158688496Y-128120783D01*
X158731333Y-128126367D01*
X158775080Y-128136475D01*
X158705471Y-128230081D01*
X158680387Y-128279309D01*
X158666269Y-128325228D01*
X158661751Y-128368750D01*
X158667315Y-128432945D01*
X158682335Y-128481415D01*
X158705291Y-128517732D01*
X158736123Y-128544361D01*
X158774506Y-128561953D01*
X158831388Y-128574348D01*
X158912955Y-128579166D01*
X158977801Y-128578128D01*
X159043319Y-128577151D01*
X159179851Y-128578494D01*
X159316322Y-128579837D01*
G37*
G36*
X159069839Y-128674966D02*
G01*
X159130407Y-128691071D01*
X159186756Y-128717735D01*
X159239691Y-128755570D01*
X159286902Y-128804683D01*
X159319501Y-128857560D01*
X159338986Y-128915149D01*
X159345631Y-128978930D01*
X159338884Y-129032114D01*
X159317848Y-129086824D01*
X159297491Y-129121583D01*
X159267168Y-129161990D01*
X159240118Y-129198871D01*
X159246426Y-129203382D01*
X159288967Y-129211816D01*
X159329951Y-129222216D01*
X159337815Y-129231660D01*
X159333358Y-129288019D01*
X159328961Y-129344745D01*
X159324110Y-129358594D01*
X159309239Y-129362819D01*
X159299652Y-129362147D01*
X158993860Y-129345111D01*
X158875957Y-129351194D01*
X158724827Y-129371734D01*
X158712554Y-129373749D01*
X158705179Y-129365878D01*
X158691243Y-129317756D01*
X158681290Y-129248757D01*
X158688210Y-129240066D01*
X158723850Y-129229645D01*
X158761212Y-129221301D01*
X158766348Y-129218044D01*
X158764333Y-129213953D01*
X158723911Y-129177744D01*
X158691194Y-129136525D01*
X158668369Y-129092870D01*
X158654680Y-129046117D01*
X158651840Y-129015139D01*
X158786803Y-129015139D01*
X158794049Y-129066766D01*
X158815224Y-129110974D01*
X158851406Y-129149717D01*
X158893641Y-129177266D01*
X158941005Y-129193878D01*
X158994959Y-129199603D01*
X159047066Y-129193888D01*
X159093787Y-129177138D01*
X159136437Y-129149045D01*
X159172793Y-129109495D01*
X159193888Y-129065454D01*
X159201039Y-129015139D01*
X159193963Y-128963372D01*
X159173218Y-128918431D01*
X159137780Y-128878485D01*
X159095007Y-128849272D01*
X159047870Y-128831861D01*
X158994959Y-128825912D01*
X158941583Y-128831863D01*
X158893976Y-128849279D01*
X158850734Y-128878485D01*
X158814887Y-128918480D01*
X158793941Y-128963420D01*
X158786803Y-129015139D01*
X158651840Y-129015139D01*
X158650027Y-128995355D01*
X158656818Y-128923069D01*
X158676337Y-128860270D01*
X158708200Y-128805087D01*
X158753220Y-128756242D01*
X158804971Y-128718900D01*
X158863160Y-128691962D01*
X158928985Y-128675286D01*
X159003996Y-128669474D01*
X159069839Y-128674966D01*
G37*
G36*
X159304781Y-130523827D02*
G01*
X159325793Y-130519202D01*
X159331343Y-130508135D01*
X159329328Y-130477055D01*
X159327252Y-130445303D01*
X159328656Y-130410437D01*
X159330000Y-130375633D01*
X159323940Y-130365854D01*
X159298065Y-130361284D01*
X159204642Y-130363665D01*
X159111219Y-130366046D01*
X158919610Y-130364703D01*
X158873160Y-130358073D01*
X158842443Y-130348103D01*
X158823135Y-130336004D01*
X158808512Y-130316095D01*
X158798503Y-130285782D01*
X158794619Y-130241055D01*
X158798493Y-130213486D01*
X158811259Y-130181606D01*
X158835408Y-130144030D01*
X158866710Y-130110101D01*
X158894329Y-130092172D01*
X158919610Y-130085961D01*
X159113295Y-130083213D01*
X159213190Y-130085961D01*
X159313025Y-130088709D01*
X159327337Y-130085213D01*
X159331343Y-130076374D01*
X159329328Y-130040532D01*
X159327252Y-130004628D01*
X159328656Y-129972510D01*
X159330000Y-129940453D01*
X159325642Y-129930617D01*
X159310277Y-129926775D01*
X159212152Y-129928790D01*
X159113967Y-129930867D01*
X158950202Y-129930867D01*
X158879364Y-129925334D01*
X158840842Y-129912426D01*
X158816166Y-129891216D01*
X158800504Y-129859542D01*
X158794619Y-129813386D01*
X158802518Y-129769483D01*
X158830645Y-129710926D01*
X158860435Y-129670810D01*
X158886400Y-129651122D01*
X158910146Y-129645347D01*
X159108532Y-129645347D01*
X159209771Y-129646018D01*
X159310277Y-129646690D01*
X159325432Y-129642467D01*
X159330000Y-129630997D01*
X159330000Y-129503930D01*
X159325830Y-129494015D01*
X159311559Y-129490252D01*
X159145169Y-129490924D01*
X158978778Y-129491657D01*
X158854147Y-129485028D01*
X158729345Y-129465034D01*
X158714996Y-129462958D01*
X158707710Y-129464666D01*
X158704738Y-129469125D01*
X158693930Y-129542887D01*
X158678115Y-129610542D01*
X158677383Y-129615976D01*
X158684429Y-129621913D01*
X158728429Y-129631303D01*
X158773155Y-129639924D01*
X158779476Y-129644003D01*
X158748824Y-129678136D01*
X158716344Y-129719305D01*
X158692404Y-129758736D01*
X158669182Y-129817690D01*
X158661751Y-129874874D01*
X158667652Y-129936655D01*
X158683927Y-129985216D01*
X158709500Y-130023437D01*
X158744799Y-130053178D01*
X158791688Y-130075031D01*
X158741431Y-130122280D01*
X158700464Y-130180239D01*
X158678444Y-130226035D01*
X158665841Y-130269968D01*
X158661751Y-130312740D01*
X158667211Y-130375822D01*
X158682015Y-130423945D01*
X158704737Y-130460441D01*
X158735329Y-130487618D01*
X158773541Y-130505342D01*
X158829112Y-130517711D01*
X158907643Y-130522484D01*
X158977130Y-130521079D01*
X159046617Y-130519736D01*
X159175699Y-130521751D01*
X159304781Y-130523827D01*
G37*
G36*
X159068823Y-130622803D02*
G01*
X159131711Y-130640396D01*
X159189096Y-130669365D01*
X159241950Y-130710368D01*
X159287672Y-130761582D01*
X159319661Y-130817491D01*
X159338992Y-130879143D01*
X159345631Y-130948077D01*
X159338969Y-131016616D01*
X159319549Y-131078031D01*
X159287363Y-131133852D01*
X159241278Y-131185115D01*
X159188066Y-131226140D01*
X159130430Y-131255110D01*
X159067411Y-131272689D01*
X158997707Y-131278721D01*
X158928414Y-131272645D01*
X158865904Y-131254947D01*
X158808848Y-131225779D01*
X158756273Y-131184443D01*
X158711131Y-131133297D01*
X158679552Y-131077616D01*
X158660480Y-131016374D01*
X158653935Y-130948077D01*
X158794619Y-130948077D01*
X158801630Y-130999863D01*
X158822080Y-131044314D01*
X158856840Y-131083326D01*
X158898480Y-131111633D01*
X158945391Y-131128678D01*
X158999112Y-131134556D01*
X159051934Y-131128738D01*
X159098872Y-131111746D01*
X159141322Y-131083326D01*
X159176999Y-131043817D01*
X159197842Y-130999346D01*
X159204947Y-130948077D01*
X159197877Y-130897224D01*
X159177062Y-130852732D01*
X159141322Y-130812827D01*
X159098827Y-130784012D01*
X159051893Y-130766811D01*
X158999112Y-130760926D01*
X158945374Y-130766791D01*
X158898226Y-130783825D01*
X158856168Y-130812156D01*
X158821793Y-130851529D01*
X158801554Y-130896218D01*
X158794619Y-130948077D01*
X158653935Y-130948077D01*
X158660482Y-130879427D01*
X158679562Y-130817843D01*
X158711146Y-130761832D01*
X158756273Y-130710368D01*
X158809127Y-130669365D01*
X158866512Y-130640396D01*
X158929400Y-130622803D01*
X158999112Y-130616762D01*
X159068823Y-130622803D01*
G37*
G36*
X159068823Y-131337946D02*
G01*
X159131711Y-131355539D01*
X159189096Y-131384508D01*
X159241950Y-131425511D01*
X159287672Y-131476726D01*
X159319661Y-131532634D01*
X159338992Y-131594286D01*
X159345631Y-131663220D01*
X159338969Y-131731760D01*
X159319549Y-131793175D01*
X159287363Y-131848995D01*
X159241278Y-131900258D01*
X159188066Y-131941283D01*
X159130430Y-131970253D01*
X159067411Y-131987832D01*
X158997707Y-131993864D01*
X158928414Y-131987788D01*
X158865904Y-131970090D01*
X158808848Y-131940922D01*
X158756273Y-131899586D01*
X158711131Y-131848440D01*
X158679552Y-131792759D01*
X158660480Y-131731518D01*
X158653935Y-131663220D01*
X158794619Y-131663220D01*
X158801630Y-131715006D01*
X158822080Y-131759457D01*
X158856840Y-131798469D01*
X158898480Y-131826776D01*
X158945391Y-131843821D01*
X158999112Y-131849699D01*
X159051934Y-131843881D01*
X159098872Y-131826889D01*
X159141322Y-131798469D01*
X159176999Y-131758960D01*
X159197842Y-131714489D01*
X159204947Y-131663220D01*
X159197877Y-131612368D01*
X159177062Y-131567875D01*
X159141322Y-131527971D01*
X159098827Y-131499155D01*
X159051893Y-131481954D01*
X158999112Y-131476069D01*
X158945374Y-131481934D01*
X158898226Y-131498968D01*
X158856168Y-131527299D01*
X158821793Y-131566672D01*
X158801554Y-131611361D01*
X158794619Y-131663220D01*
X158653935Y-131663220D01*
X158660482Y-131594570D01*
X158679562Y-131532986D01*
X158711146Y-131476975D01*
X158756273Y-131425511D01*
X158809127Y-131384508D01*
X158866512Y-131355539D01*
X158929400Y-131337946D01*
X158999112Y-131331905D01*
X159068823Y-131337946D01*
G37*
G36*
X158687763Y-132480823D02*
G01*
X158761069Y-132478130D01*
X158824173Y-132470565D01*
X158836313Y-132465817D01*
X158839865Y-132456948D01*
X158836812Y-132413534D01*
X158833698Y-132369509D01*
X158840229Y-132314752D01*
X158856948Y-132280180D01*
X158882302Y-132259539D01*
X158919727Y-132249803D01*
X159004851Y-132245190D01*
X159080139Y-132245190D01*
X159196521Y-132248243D01*
X159312903Y-132251296D01*
X159326974Y-132247162D01*
X159331343Y-132235603D01*
X159330671Y-132171367D01*
X159330000Y-132107131D01*
X159325860Y-132095519D01*
X159312964Y-132091500D01*
X159146573Y-132093148D01*
X158979572Y-132094858D01*
X158866801Y-132090776D01*
X158777909Y-132079754D01*
X158708890Y-132063412D01*
X158700708Y-132062069D01*
X158693841Y-132064188D01*
X158689106Y-132070922D01*
X158680314Y-132141997D01*
X158665659Y-132210324D01*
X158672259Y-132217864D01*
X158706936Y-132224673D01*
X158742038Y-132230911D01*
X158748213Y-132236946D01*
X158746809Y-132240366D01*
X158710111Y-132296359D01*
X158693443Y-132327774D01*
X158681962Y-132359251D01*
X158675827Y-132387834D01*
X158673475Y-132427517D01*
X158676108Y-132463463D01*
X158681480Y-132477452D01*
X158687763Y-132480823D01*
G37*
G36*
X159202016Y-132936641D02*
G01*
X159244209Y-132933893D01*
X159287135Y-132929802D01*
X159302644Y-132927787D01*
X159311926Y-132914781D01*
X159324938Y-132876164D01*
X159334211Y-132819287D01*
X159337815Y-132738499D01*
X159333005Y-132685625D01*
X159320080Y-132646319D01*
X159300339Y-132617366D01*
X159273674Y-132596651D01*
X159238597Y-132583467D01*
X159192491Y-132578642D01*
X159017369Y-132581390D01*
X158842247Y-132584138D01*
X158826099Y-132580870D01*
X158816534Y-132571985D01*
X158812083Y-132556111D01*
X158811411Y-132506285D01*
X158800507Y-132496968D01*
X158755785Y-132491936D01*
X158714446Y-132494684D01*
X158701714Y-132500825D01*
X158694785Y-132516543D01*
X158694113Y-132550005D01*
X158690016Y-132568295D01*
X158681036Y-132577979D01*
X158666331Y-132581390D01*
X158583654Y-132579680D01*
X158500245Y-132577971D01*
X158468086Y-132581151D01*
X158454469Y-132588017D01*
X158450725Y-132597083D01*
X158470265Y-132725554D01*
X158475297Y-132737566D01*
X158485286Y-132741247D01*
X158575350Y-132736789D01*
X158665415Y-132732393D01*
X158680366Y-132737110D01*
X158685198Y-132750833D01*
X158685198Y-132914720D01*
X158687488Y-132923796D01*
X158693381Y-132926383D01*
X158719576Y-132923941D01*
X158746442Y-132921559D01*
X158777766Y-132922231D01*
X158809030Y-132922964D01*
X158818309Y-132918766D01*
X158821974Y-132903790D01*
X158818066Y-132821175D01*
X158814159Y-132738499D01*
X158819288Y-132734911D01*
X158853176Y-132730317D01*
X158989281Y-132726898D01*
X159091191Y-132726898D01*
X159145493Y-132730256D01*
X159173257Y-132737827D01*
X159192437Y-132751952D01*
X159204384Y-132773542D01*
X159208855Y-132805483D01*
X159199085Y-132867643D01*
X159189316Y-132928459D01*
X159192051Y-132934291D01*
X159202016Y-132936641D01*
G37*
G36*
X159306125Y-133630230D02*
G01*
X159326143Y-133625954D01*
X159331343Y-133615881D01*
X159330671Y-133551645D01*
X159330000Y-133487409D01*
X159324871Y-133475031D01*
X159307468Y-133470373D01*
X159208428Y-133472754D01*
X159108715Y-133475136D01*
X159013522Y-133472754D01*
X158917534Y-133470373D01*
X158870461Y-133465030D01*
X158837345Y-133450810D01*
X158814436Y-133428776D01*
X158799978Y-133397672D01*
X158794619Y-133354235D01*
X158802461Y-133315056D01*
X158832172Y-133255867D01*
X158862399Y-133215286D01*
X158886270Y-133196249D01*
X158905933Y-133190959D01*
X159311559Y-133190959D01*
X159326904Y-133186984D01*
X159331343Y-133176610D01*
X159330671Y-133113046D01*
X159330000Y-133049542D01*
X159325630Y-133037983D01*
X159311559Y-133033850D01*
X158981465Y-133033850D01*
X158638426Y-133024996D01*
X158397847Y-133013333D01*
X158386917Y-133011990D01*
X158377222Y-133014217D01*
X158372568Y-133020172D01*
X158369709Y-133038162D01*
X158368110Y-133097353D01*
X158362554Y-133140401D01*
X158356936Y-133182105D01*
X158359800Y-133188455D01*
X158370003Y-133190959D01*
X158564542Y-133185830D01*
X158759021Y-133180701D01*
X158772328Y-133182552D01*
X158775568Y-133186196D01*
X158703822Y-133276383D01*
X158680211Y-133322425D01*
X158666360Y-133369290D01*
X158661751Y-133417739D01*
X158667410Y-133481723D01*
X158682752Y-133530437D01*
X158706338Y-133567313D01*
X158738199Y-133594692D01*
X158777410Y-133612385D01*
X158834620Y-133624770D01*
X158915642Y-133629558D01*
X158980854Y-133628520D01*
X159046067Y-133627482D01*
X159176432Y-133628825D01*
X159306125Y-133630230D01*
G37*
G36*
X158854642Y-134336885D02*
G01*
X158960311Y-134334496D01*
X158995570Y-134330047D01*
X159047820Y-134301993D01*
X159263260Y-134160969D01*
X159474866Y-134013769D01*
X159528203Y-133970704D01*
X159539099Y-133948957D01*
X159548521Y-133897150D01*
X159552749Y-133794483D01*
X159549024Y-133771585D01*
X159500237Y-133748382D01*
X159446381Y-133730308D01*
X159436434Y-133736951D01*
X159431605Y-133766517D01*
X159428645Y-133817519D01*
X159420956Y-133853914D01*
X159409928Y-133879174D01*
X159397818Y-133891957D01*
X159363217Y-133916421D01*
X159326419Y-133936919D01*
X159310460Y-133941334D01*
X159281680Y-133927609D01*
X159165380Y-133842294D01*
X159041416Y-133751051D01*
X158995570Y-133725484D01*
X158957789Y-133719139D01*
X158860809Y-133715959D01*
X158782102Y-133716631D01*
X158702662Y-133717302D01*
X158691457Y-133721295D01*
X158687580Y-133733728D01*
X158690327Y-133798269D01*
X158693014Y-133862810D01*
X158696298Y-133870754D01*
X158707424Y-133873740D01*
X158765249Y-133871664D01*
X158822951Y-133869649D01*
X158948126Y-133875083D01*
X158982180Y-133889294D01*
X159078429Y-133949516D01*
X159150787Y-134001775D01*
X159177352Y-134026395D01*
X159182477Y-134036345D01*
X159169390Y-134051107D01*
X159080139Y-134110106D01*
X158985971Y-134163531D01*
X158953621Y-134176357D01*
X158911992Y-134180100D01*
X158827836Y-134181791D01*
X158768729Y-134177700D01*
X158710294Y-134173609D01*
X158696712Y-134176766D01*
X158693014Y-134184539D01*
X158689961Y-134250423D01*
X158686847Y-134316369D01*
X158694189Y-134324054D01*
X158734596Y-134332420D01*
X158854642Y-134336885D01*
G37*
G36*
X160077175Y-121459670D02*
G01*
X160318676Y-121471569D01*
X160538122Y-121475362D01*
X160766184Y-121468218D01*
X160994246Y-121461074D01*
X161005955Y-121465234D01*
X161010000Y-121478171D01*
X161007984Y-121513647D01*
X161005908Y-121549185D01*
X161009023Y-121591195D01*
X161012076Y-121632472D01*
X161008534Y-121642671D01*
X160997665Y-121646149D01*
X160854966Y-121641692D01*
X160711596Y-121637295D01*
X160684324Y-121641847D01*
X160676669Y-121651645D01*
X160673921Y-121763630D01*
X160674593Y-121825790D01*
X160681083Y-121850610D01*
X160691253Y-121866410D01*
X160704818Y-121875676D01*
X160992903Y-121999996D01*
X161005945Y-122010385D01*
X161010000Y-122023932D01*
X161007923Y-122066613D01*
X161005847Y-122109295D01*
X161007923Y-122148923D01*
X161010000Y-122188551D01*
X161008303Y-122197324D01*
X161004504Y-122199481D01*
X160977614Y-122189702D01*
X160821322Y-122117843D01*
X160664955Y-122045706D01*
X160639483Y-122036205D01*
X160631896Y-122038890D01*
X160622386Y-122049211D01*
X160582410Y-122098155D01*
X160543538Y-122132843D01*
X160505394Y-122155762D01*
X160465606Y-122169989D01*
X160413459Y-122179557D01*
X160346025Y-122183117D01*
X160274133Y-122176294D01*
X160213723Y-122156945D01*
X160162502Y-122125745D01*
X160118941Y-122082001D01*
X160088414Y-122034772D01*
X160065827Y-121979527D01*
X160051529Y-121914801D01*
X160046461Y-121838796D01*
X160047973Y-121752028D01*
X160189344Y-121752028D01*
X160193829Y-121844114D01*
X160205003Y-121904206D01*
X160220118Y-121941256D01*
X160244071Y-121970575D01*
X160277714Y-121992490D01*
X160323627Y-122006936D01*
X160385593Y-122012330D01*
X160435324Y-122006844D01*
X160473506Y-121991747D01*
X160502890Y-121967756D01*
X160524927Y-121933778D01*
X160539504Y-121887101D01*
X160544961Y-121823775D01*
X160541542Y-121683763D01*
X160538122Y-121643401D01*
X160535375Y-121634548D01*
X160404766Y-121634548D01*
X160258914Y-121636183D01*
X160207112Y-121639310D01*
X160200016Y-121645741D01*
X160192955Y-121674330D01*
X160189344Y-121752028D01*
X160047973Y-121752028D01*
X160049515Y-121663551D01*
X160052568Y-121487697D01*
X160056896Y-121464159D01*
X160066245Y-121458998D01*
X160077175Y-121459670D01*
G37*
G36*
X160748823Y-122254066D02*
G01*
X160811711Y-122271659D01*
X160869096Y-122300628D01*
X160921950Y-122341631D01*
X160967672Y-122392846D01*
X160999661Y-122448754D01*
X161018992Y-122510406D01*
X161025631Y-122579340D01*
X161018969Y-122647880D01*
X160999549Y-122709295D01*
X160967363Y-122765115D01*
X160921278Y-122816378D01*
X160868066Y-122857403D01*
X160810430Y-122886373D01*
X160747411Y-122903952D01*
X160677707Y-122909984D01*
X160608414Y-122903908D01*
X160545904Y-122886210D01*
X160488848Y-122857042D01*
X160436273Y-122815706D01*
X160391131Y-122764560D01*
X160359552Y-122708879D01*
X160340480Y-122647638D01*
X160333935Y-122579340D01*
X160474619Y-122579340D01*
X160481630Y-122631126D01*
X160502080Y-122675577D01*
X160536840Y-122714590D01*
X160578480Y-122742896D01*
X160625391Y-122759941D01*
X160679112Y-122765819D01*
X160731934Y-122760001D01*
X160778872Y-122743009D01*
X160821322Y-122714590D01*
X160856999Y-122675080D01*
X160877842Y-122630609D01*
X160884947Y-122579340D01*
X160877877Y-122528488D01*
X160857062Y-122483995D01*
X160821322Y-122444091D01*
X160778827Y-122415275D01*
X160731893Y-122398074D01*
X160679112Y-122392189D01*
X160625374Y-122398054D01*
X160578226Y-122415088D01*
X160536168Y-122443419D01*
X160501793Y-122482792D01*
X160481554Y-122527481D01*
X160474619Y-122579340D01*
X160333935Y-122579340D01*
X160340482Y-122510690D01*
X160359562Y-122449106D01*
X160391146Y-122393095D01*
X160436273Y-122341631D01*
X160489127Y-122300628D01*
X160546512Y-122271659D01*
X160609400Y-122254066D01*
X160679112Y-122248025D01*
X160748823Y-122254066D01*
G37*
G36*
X160986125Y-123602595D02*
G01*
X161006143Y-123598319D01*
X161011343Y-123588246D01*
X161010671Y-123524010D01*
X161010000Y-123459774D01*
X161004871Y-123447397D01*
X160987468Y-123442739D01*
X160888428Y-123445120D01*
X160788715Y-123447501D01*
X160693522Y-123445120D01*
X160597534Y-123442739D01*
X160550461Y-123437396D01*
X160517345Y-123423176D01*
X160494436Y-123401142D01*
X160479978Y-123370038D01*
X160474619Y-123326601D01*
X160482461Y-123287422D01*
X160512172Y-123228232D01*
X160542399Y-123187652D01*
X160566270Y-123168615D01*
X160585933Y-123163325D01*
X160991559Y-123163325D01*
X161006904Y-123159350D01*
X161011343Y-123148975D01*
X161010671Y-123085411D01*
X161010000Y-123021908D01*
X161005630Y-123010349D01*
X160991559Y-123006215D01*
X160661465Y-123006215D01*
X160318426Y-122997362D01*
X160077847Y-122985699D01*
X160066917Y-122984356D01*
X160057222Y-122986583D01*
X160052568Y-122992538D01*
X160049709Y-123010528D01*
X160048110Y-123069719D01*
X160042554Y-123112766D01*
X160036936Y-123154471D01*
X160039800Y-123160820D01*
X160050003Y-123163325D01*
X160244542Y-123158196D01*
X160439021Y-123153066D01*
X160452328Y-123154918D01*
X160455568Y-123158562D01*
X160383822Y-123248749D01*
X160360211Y-123294791D01*
X160346360Y-123341656D01*
X160341751Y-123390104D01*
X160347410Y-123454089D01*
X160362752Y-123502802D01*
X160386338Y-123539679D01*
X160418199Y-123567058D01*
X160457410Y-123584750D01*
X160514620Y-123597136D01*
X160595642Y-123601924D01*
X160660854Y-123600886D01*
X160726067Y-123599848D01*
X160856432Y-123601191D01*
X160986125Y-123602595D01*
G37*
G36*
X160749839Y-123699251D02*
G01*
X160810407Y-123715356D01*
X160866756Y-123742020D01*
X160919691Y-123779855D01*
X160966902Y-123828968D01*
X160999501Y-123881844D01*
X161018986Y-123939434D01*
X161025631Y-124003215D01*
X161018884Y-124056399D01*
X160997848Y-124111109D01*
X160977491Y-124145868D01*
X160947168Y-124186275D01*
X160920118Y-124223155D01*
X160926426Y-124227667D01*
X160968967Y-124236100D01*
X161009951Y-124246501D01*
X161017815Y-124255945D01*
X161013358Y-124312304D01*
X161008961Y-124369030D01*
X161004110Y-124382878D01*
X160989239Y-124387103D01*
X160979652Y-124386432D01*
X160673860Y-124369396D01*
X160555957Y-124375479D01*
X160404827Y-124396018D01*
X160392554Y-124398033D01*
X160385179Y-124390162D01*
X160371243Y-124342041D01*
X160361290Y-124273042D01*
X160368210Y-124264351D01*
X160403850Y-124253930D01*
X160441212Y-124245586D01*
X160446348Y-124242329D01*
X160444333Y-124238237D01*
X160403911Y-124202028D01*
X160371194Y-124160810D01*
X160348369Y-124117154D01*
X160334680Y-124070401D01*
X160331840Y-124039424D01*
X160466803Y-124039424D01*
X160474049Y-124091051D01*
X160495224Y-124135259D01*
X160531406Y-124174002D01*
X160573641Y-124201551D01*
X160621005Y-124218162D01*
X160674959Y-124223888D01*
X160727066Y-124218173D01*
X160773787Y-124201423D01*
X160816437Y-124173330D01*
X160852793Y-124133780D01*
X160873888Y-124089739D01*
X160881039Y-124039424D01*
X160873963Y-123987657D01*
X160853218Y-123942716D01*
X160817780Y-123902770D01*
X160775007Y-123873557D01*
X160727870Y-123856146D01*
X160674959Y-123850197D01*
X160621583Y-123856147D01*
X160573976Y-123873564D01*
X160530734Y-123902770D01*
X160494887Y-123942765D01*
X160473941Y-123987704D01*
X160466803Y-124039424D01*
X160331840Y-124039424D01*
X160330027Y-124019640D01*
X160336818Y-123947354D01*
X160356337Y-123884555D01*
X160388200Y-123829371D01*
X160433220Y-123780526D01*
X160484971Y-123743185D01*
X160543160Y-123716246D01*
X160608985Y-123699571D01*
X160683996Y-123693759D01*
X160749839Y-123699251D01*
G37*
G36*
X160996322Y-125111589D02*
G01*
X161007708Y-125108074D01*
X161011343Y-125097972D01*
X161010671Y-125030683D01*
X161010000Y-124963333D01*
X161005795Y-124954625D01*
X160990216Y-124951060D01*
X160888489Y-124953075D01*
X160786029Y-124955151D01*
X160704391Y-124954480D01*
X160622814Y-124953808D01*
X160570821Y-124950626D01*
X160535669Y-124942542D01*
X160512843Y-124931215D01*
X160492875Y-124909919D01*
X160479675Y-124877667D01*
X160474619Y-124830160D01*
X160482410Y-124793970D01*
X160513026Y-124735211D01*
X160543267Y-124694786D01*
X160566417Y-124676082D01*
X160584834Y-124670975D01*
X160994307Y-124670975D01*
X161007452Y-124667429D01*
X161011343Y-124657969D01*
X161010671Y-124592451D01*
X161010000Y-124526871D01*
X161006181Y-124516220D01*
X160994246Y-124512522D01*
X160832130Y-124514232D01*
X160669342Y-124515942D01*
X160572496Y-124512365D01*
X160483079Y-124501981D01*
X160400430Y-124485228D01*
X160391577Y-124483152D01*
X160385978Y-124485171D01*
X160381990Y-124492006D01*
X160369351Y-124570225D01*
X160357383Y-124647100D01*
X160359370Y-124650069D01*
X160368496Y-124652534D01*
X160411333Y-124658118D01*
X160455080Y-124668227D01*
X160385471Y-124761833D01*
X160360387Y-124811061D01*
X160346269Y-124856979D01*
X160341751Y-124900502D01*
X160347315Y-124964697D01*
X160362335Y-125013166D01*
X160385291Y-125049483D01*
X160416123Y-125076113D01*
X160454506Y-125093705D01*
X160511388Y-125106100D01*
X160592955Y-125110917D01*
X160657801Y-125109879D01*
X160723319Y-125108902D01*
X160859851Y-125110245D01*
X160996322Y-125111589D01*
G37*
G36*
X160077175Y-125591282D02*
G01*
X160318676Y-125603181D01*
X160538122Y-125606974D01*
X160766184Y-125599830D01*
X160994246Y-125592686D01*
X161005955Y-125596846D01*
X161010000Y-125609783D01*
X161007984Y-125645259D01*
X161005908Y-125680797D01*
X161009023Y-125722807D01*
X161012076Y-125764084D01*
X161008534Y-125774283D01*
X160997665Y-125777761D01*
X160854966Y-125773304D01*
X160711596Y-125768907D01*
X160684324Y-125773459D01*
X160676669Y-125783257D01*
X160673921Y-125895242D01*
X160674593Y-125957402D01*
X160681083Y-125982222D01*
X160691253Y-125998022D01*
X160704818Y-126007288D01*
X160992903Y-126131608D01*
X161005945Y-126141997D01*
X161010000Y-126155544D01*
X161007923Y-126198225D01*
X161005847Y-126240907D01*
X161007923Y-126280535D01*
X161010000Y-126320163D01*
X161008303Y-126328936D01*
X161004504Y-126331093D01*
X160977614Y-126321314D01*
X160821322Y-126249455D01*
X160664955Y-126177318D01*
X160639483Y-126167817D01*
X160631896Y-126170502D01*
X160622386Y-126180823D01*
X160582410Y-126229767D01*
X160543538Y-126264455D01*
X160505394Y-126287374D01*
X160465606Y-126301601D01*
X160413459Y-126311169D01*
X160346025Y-126314729D01*
X160274133Y-126307906D01*
X160213723Y-126288557D01*
X160162502Y-126257357D01*
X160118941Y-126213613D01*
X160088414Y-126166384D01*
X160065827Y-126111139D01*
X160051529Y-126046413D01*
X160046461Y-125970408D01*
X160047973Y-125883640D01*
X160189344Y-125883640D01*
X160193829Y-125975726D01*
X160205003Y-126035818D01*
X160220118Y-126072868D01*
X160244071Y-126102187D01*
X160277714Y-126124102D01*
X160323627Y-126138548D01*
X160385593Y-126143942D01*
X160435324Y-126138456D01*
X160473506Y-126123359D01*
X160502890Y-126099368D01*
X160524927Y-126065390D01*
X160539504Y-126018713D01*
X160544961Y-125955387D01*
X160541542Y-125815375D01*
X160538122Y-125775013D01*
X160535375Y-125766160D01*
X160404766Y-125766160D01*
X160258914Y-125767795D01*
X160207112Y-125770922D01*
X160200016Y-125777353D01*
X160192955Y-125805942D01*
X160189344Y-125883640D01*
X160047973Y-125883640D01*
X160049515Y-125795163D01*
X160052568Y-125619309D01*
X160056896Y-125595771D01*
X160066245Y-125590610D01*
X160077175Y-125591282D01*
G37*
G36*
X160390478Y-127055273D02*
G01*
X160541359Y-127051182D01*
X160692972Y-127047091D01*
X160842510Y-127050144D01*
X160991987Y-127053197D01*
X161003291Y-127049955D01*
X161009816Y-127040252D01*
X161011160Y-126901584D01*
X161004136Y-126896437D01*
X160959319Y-126891692D01*
X160913910Y-126887620D01*
X160907418Y-126883815D01*
X160913646Y-126873557D01*
X160960072Y-126812788D01*
X160990834Y-126755597D01*
X161008276Y-126701063D01*
X161013907Y-126648121D01*
X161008799Y-126587689D01*
X160994718Y-126539682D01*
X160972782Y-126501562D01*
X160943030Y-126471515D01*
X160904426Y-126448635D01*
X160857206Y-126433993D01*
X160779818Y-126423015D01*
X160660793Y-126418593D01*
X160554626Y-126421752D01*
X160465729Y-126430506D01*
X160391882Y-126443872D01*
X160370870Y-126453483D01*
X160365198Y-126466404D01*
X160365870Y-126525877D01*
X160366542Y-126585289D01*
X160370192Y-126595437D01*
X160381624Y-126598967D01*
X160470467Y-126590052D01*
X160564134Y-126579855D01*
X160654382Y-126577779D01*
X160764181Y-126583200D01*
X160815033Y-126594876D01*
X160846575Y-126613406D01*
X160869095Y-126639937D01*
X160883520Y-126676183D01*
X160888855Y-126725362D01*
X160884944Y-126752934D01*
X160871794Y-126786256D01*
X160846479Y-126827090D01*
X160813725Y-126865193D01*
X160785771Y-126884769D01*
X160760994Y-126891325D01*
X160400064Y-126894745D01*
X160380474Y-126898283D01*
X160370184Y-126907341D01*
X160366542Y-126922772D01*
X160366542Y-127035490D01*
X160372158Y-127050014D01*
X160390478Y-127055273D01*
G37*
G36*
X160716877Y-127156552D02*
G01*
X160772709Y-127171334D01*
X160823017Y-127195468D01*
X160868705Y-127229296D01*
X160908421Y-127272951D01*
X160936348Y-127321379D01*
X160953330Y-127375579D01*
X160959197Y-127437025D01*
X160953260Y-127493207D01*
X160935948Y-127543183D01*
X160907105Y-127588376D01*
X160865408Y-127629672D01*
X160930315Y-127632358D01*
X160971319Y-127626442D01*
X161003992Y-127609578D01*
X161030394Y-127581189D01*
X161046808Y-127550203D01*
X161057134Y-127513306D01*
X161060802Y-127469143D01*
X161054865Y-127401647D01*
X161036732Y-127333402D01*
X161005420Y-127263490D01*
X161002184Y-127254576D01*
X161004678Y-127248767D01*
X161013663Y-127245050D01*
X161113558Y-127224534D01*
X161119726Y-127227330D01*
X161129312Y-127239555D01*
X161152768Y-127287811D01*
X161170471Y-127344685D01*
X161181813Y-127411620D01*
X161185854Y-127490270D01*
X161179817Y-127571143D01*
X161163301Y-127634912D01*
X161137935Y-127684978D01*
X161104216Y-127723949D01*
X161064321Y-127752332D01*
X161013090Y-127774077D01*
X160947883Y-127788377D01*
X160865469Y-127793620D01*
X160620310Y-127794963D01*
X160375090Y-127796306D01*
X160363087Y-127793666D01*
X160357383Y-127786720D01*
X160342362Y-127713630D01*
X160330027Y-127639869D01*
X160335911Y-127634822D01*
X160370572Y-127631687D01*
X160399270Y-127633030D01*
X160427297Y-127634434D01*
X160437137Y-127632687D01*
X160439448Y-127628939D01*
X160425038Y-127613246D01*
X160386633Y-127576910D01*
X160359810Y-127535722D01*
X160343505Y-127488706D01*
X160341610Y-127470486D01*
X160466803Y-127470486D01*
X160473370Y-127517310D01*
X160492442Y-127556759D01*
X160524872Y-127590715D01*
X160562310Y-127613537D01*
X160605142Y-127627497D01*
X160654748Y-127632358D01*
X160702856Y-127627414D01*
X160745267Y-127613065D01*
X160783220Y-127589310D01*
X160816206Y-127554984D01*
X160835409Y-127515955D01*
X160841960Y-127470486D01*
X160835373Y-127424602D01*
X160816142Y-127385597D01*
X160783220Y-127351662D01*
X160745312Y-127328299D01*
X160702897Y-127314162D01*
X160654748Y-127309286D01*
X160605592Y-127314133D01*
X160562970Y-127328079D01*
X160525544Y-127350929D01*
X160492661Y-127384918D01*
X160473410Y-127424156D01*
X160466803Y-127470486D01*
X160341610Y-127470486D01*
X160337843Y-127434277D01*
X160344078Y-127372477D01*
X160362124Y-127318241D01*
X160391898Y-127269963D01*
X160434502Y-127226610D01*
X160481651Y-127194020D01*
X160533382Y-127170690D01*
X160590565Y-127156384D01*
X160654321Y-127151444D01*
X160716877Y-127156552D01*
G37*
G36*
X160986125Y-128518715D02*
G01*
X161006143Y-128514439D01*
X161011343Y-128504366D01*
X161010671Y-128440130D01*
X161010000Y-128375894D01*
X161004871Y-128363517D01*
X160987468Y-128358859D01*
X160888428Y-128361240D01*
X160788715Y-128363621D01*
X160693522Y-128361240D01*
X160597534Y-128358859D01*
X160550461Y-128353516D01*
X160517345Y-128339296D01*
X160494436Y-128317262D01*
X160479978Y-128286158D01*
X160474619Y-128242721D01*
X160482461Y-128203542D01*
X160512172Y-128144352D01*
X160542399Y-128103772D01*
X160566270Y-128084735D01*
X160585933Y-128079445D01*
X160991559Y-128079445D01*
X161006904Y-128075470D01*
X161011343Y-128065095D01*
X161010671Y-128001531D01*
X161010000Y-127938028D01*
X161005630Y-127926469D01*
X160991559Y-127922336D01*
X160661465Y-127922336D01*
X160318426Y-127913482D01*
X160077847Y-127901819D01*
X160066917Y-127900476D01*
X160057222Y-127902703D01*
X160052568Y-127908658D01*
X160049709Y-127926648D01*
X160048110Y-127985839D01*
X160042554Y-128028886D01*
X160036936Y-128070591D01*
X160039800Y-128076940D01*
X160050003Y-128079445D01*
X160244542Y-128074316D01*
X160439021Y-128069187D01*
X160452328Y-128071038D01*
X160455568Y-128074682D01*
X160383822Y-128164869D01*
X160360211Y-128210911D01*
X160346360Y-128257776D01*
X160341751Y-128306224D01*
X160347410Y-128370209D01*
X160362752Y-128418922D01*
X160386338Y-128455799D01*
X160418199Y-128483178D01*
X160457410Y-128500870D01*
X160514620Y-128513256D01*
X160595642Y-128518044D01*
X160660854Y-128517006D01*
X160726067Y-128515968D01*
X160856432Y-128517311D01*
X160986125Y-128518715D01*
G37*
G36*
X160749839Y-128615371D02*
G01*
X160810407Y-128631476D01*
X160866756Y-128658140D01*
X160919691Y-128695975D01*
X160966902Y-128745088D01*
X160999501Y-128797964D01*
X161018986Y-128855554D01*
X161025631Y-128919335D01*
X161018884Y-128972519D01*
X160997848Y-129027229D01*
X160977491Y-129061988D01*
X160947168Y-129102395D01*
X160920118Y-129139275D01*
X160926426Y-129143787D01*
X160968967Y-129152220D01*
X161009951Y-129162621D01*
X161017815Y-129172065D01*
X161013358Y-129228424D01*
X161008961Y-129285150D01*
X161004110Y-129298998D01*
X160989239Y-129303224D01*
X160979652Y-129302552D01*
X160673860Y-129285516D01*
X160555957Y-129291599D01*
X160404827Y-129312138D01*
X160392554Y-129314153D01*
X160385179Y-129306282D01*
X160371243Y-129258161D01*
X160361290Y-129189162D01*
X160368210Y-129180471D01*
X160403850Y-129170050D01*
X160441212Y-129161706D01*
X160446348Y-129158449D01*
X160444333Y-129154357D01*
X160403911Y-129118148D01*
X160371194Y-129076930D01*
X160348369Y-129033274D01*
X160334680Y-128986521D01*
X160331840Y-128955544D01*
X160466803Y-128955544D01*
X160474049Y-129007171D01*
X160495224Y-129051379D01*
X160531406Y-129090122D01*
X160573641Y-129117671D01*
X160621005Y-129134282D01*
X160674959Y-129140008D01*
X160727066Y-129134293D01*
X160773787Y-129117543D01*
X160816437Y-129089450D01*
X160852793Y-129049900D01*
X160873888Y-129005859D01*
X160881039Y-128955544D01*
X160873963Y-128903777D01*
X160853218Y-128858836D01*
X160817780Y-128818890D01*
X160775007Y-128789677D01*
X160727870Y-128772266D01*
X160674959Y-128766317D01*
X160621583Y-128772268D01*
X160573976Y-128789684D01*
X160530734Y-128818890D01*
X160494887Y-128858885D01*
X160473941Y-128903824D01*
X160466803Y-128955544D01*
X160331840Y-128955544D01*
X160330027Y-128935760D01*
X160336818Y-128863474D01*
X160356337Y-128800675D01*
X160388200Y-128745491D01*
X160433220Y-128696646D01*
X160484971Y-128659305D01*
X160543160Y-128632366D01*
X160608985Y-128615691D01*
X160683996Y-128609879D01*
X160749839Y-128615371D01*
G37*
G36*
X160996322Y-130027709D02*
G01*
X161007708Y-130024194D01*
X161011343Y-130014092D01*
X161010671Y-129946803D01*
X161010000Y-129879453D01*
X161005795Y-129870745D01*
X160990216Y-129867180D01*
X160888489Y-129869195D01*
X160786029Y-129871271D01*
X160704391Y-129870600D01*
X160622814Y-129869928D01*
X160570821Y-129866746D01*
X160535669Y-129858663D01*
X160512843Y-129847336D01*
X160492875Y-129826039D01*
X160479675Y-129793787D01*
X160474619Y-129746280D01*
X160482410Y-129710090D01*
X160513026Y-129651331D01*
X160543267Y-129610906D01*
X160566417Y-129592202D01*
X160584834Y-129587095D01*
X160994307Y-129587095D01*
X161007452Y-129583549D01*
X161011343Y-129574089D01*
X161010671Y-129508571D01*
X161010000Y-129442991D01*
X161006181Y-129432340D01*
X160994246Y-129428642D01*
X160832130Y-129430352D01*
X160669342Y-129432062D01*
X160572496Y-129428485D01*
X160483079Y-129418101D01*
X160400430Y-129401348D01*
X160391577Y-129399272D01*
X160385978Y-129401291D01*
X160381990Y-129408126D01*
X160369351Y-129486345D01*
X160357383Y-129563220D01*
X160359370Y-129566189D01*
X160368496Y-129568654D01*
X160411333Y-129574238D01*
X160455080Y-129584347D01*
X160385471Y-129677953D01*
X160360387Y-129727181D01*
X160346269Y-129773099D01*
X160341751Y-129816622D01*
X160347315Y-129880817D01*
X160362335Y-129929286D01*
X160385291Y-129965603D01*
X160416123Y-129992233D01*
X160454506Y-130009825D01*
X160511388Y-130022220D01*
X160592955Y-130027037D01*
X160657801Y-130025999D01*
X160723319Y-130025022D01*
X160859851Y-130026366D01*
X160996322Y-130027709D01*
G37*
G36*
X160191969Y-130335272D02*
G01*
X160229001Y-130329206D01*
X160253679Y-130312753D01*
X160269314Y-130285166D01*
X160275317Y-130241666D01*
X160269276Y-130197424D01*
X160253579Y-130169449D01*
X160228896Y-130152828D01*
X160191969Y-130146716D01*
X160168500Y-130149998D01*
X160148229Y-130159618D01*
X160130298Y-130176086D01*
X160113131Y-130205881D01*
X160107278Y-130241666D01*
X160113290Y-130277499D01*
X160131031Y-130307611D01*
X160158021Y-130328316D01*
X160191969Y-130335272D01*
G37*
G36*
X160378204Y-130330509D02*
G01*
X160537390Y-130323975D01*
X160697185Y-130317503D01*
X160846723Y-130319518D01*
X160995650Y-130321594D01*
X161006594Y-130318366D01*
X161010000Y-130309321D01*
X161010000Y-130176147D01*
X161004415Y-130166162D01*
X160981912Y-130161737D01*
X160839945Y-130164118D01*
X160697185Y-130166561D01*
X160537023Y-130158684D01*
X160376861Y-130150807D01*
X160368316Y-130154155D01*
X160365198Y-130165157D01*
X160368618Y-130203075D01*
X160372037Y-130241666D01*
X160368618Y-130280256D01*
X160365198Y-130318907D01*
X160368329Y-130327499D01*
X160378204Y-130330509D01*
G37*
D11*
G36*
X157068267Y-82024007D02*
G01*
X158051636Y-82116610D01*
X160088045Y-82320340D01*
X164356656Y-82750729D01*
X164656159Y-82780343D01*
X164941606Y-82810370D01*
X165206217Y-82839901D01*
X165443212Y-82868028D01*
X165645811Y-82893837D01*
X165807235Y-82916422D01*
X165920702Y-82934873D01*
X165957334Y-82942264D01*
X165979435Y-82948281D01*
X166074657Y-83049484D01*
X166292745Y-83314729D01*
X167041295Y-84265906D01*
X168112638Y-85658939D01*
X169394324Y-87350951D01*
X172661048Y-91690117D01*
X171228766Y-94893340D01*
X164441323Y-110083951D01*
X161499157Y-116680897D01*
X160334990Y-119277340D01*
X160312514Y-119276141D01*
X160253080Y-119267749D01*
X160039538Y-119232361D01*
X159347212Y-119108006D01*
X159035142Y-119050005D01*
X158959157Y-119036398D01*
X158906526Y-119026973D01*
X158794013Y-119007796D01*
X158695968Y-118992381D01*
X158610761Y-118980634D01*
X158536757Y-118972464D01*
X158503446Y-118969692D01*
X158472324Y-118967778D01*
X158443185Y-118966711D01*
X158415827Y-118966480D01*
X158390046Y-118967074D01*
X158365636Y-118968481D01*
X158342394Y-118970687D01*
X158320116Y-118973684D01*
X158298597Y-118977459D01*
X158277633Y-118981999D01*
X158257023Y-118987294D01*
X158236558Y-118993331D01*
X158195255Y-119007589D01*
X158152091Y-119024679D01*
X158105434Y-119044507D01*
X158073452Y-119058557D01*
X158041065Y-119071585D01*
X158008371Y-119083559D01*
X157975458Y-119094447D01*
X157942421Y-119104220D01*
X157909352Y-119112843D01*
X157876348Y-119120290D01*
X157843497Y-119126527D01*
X157810893Y-119131525D01*
X157778632Y-119135250D01*
X157746805Y-119137675D01*
X157715505Y-119138765D01*
X157684824Y-119138491D01*
X157654857Y-119136821D01*
X157625696Y-119133726D01*
X157597433Y-119129173D01*
X157571077Y-119125618D01*
X157544999Y-119122889D01*
X157519315Y-119120988D01*
X157494136Y-119119914D01*
X157469578Y-119119665D01*
X157445753Y-119120245D01*
X157422776Y-119121649D01*
X157400760Y-119123882D01*
X157379819Y-119126941D01*
X157360067Y-119130827D01*
X157341616Y-119135540D01*
X157324583Y-119141079D01*
X157309078Y-119147446D01*
X157301935Y-119150940D01*
X157295217Y-119154640D01*
X157288938Y-119158546D01*
X157283113Y-119162661D01*
X157277755Y-119166980D01*
X157272879Y-119171507D01*
X157255380Y-119182924D01*
X157226481Y-119193390D01*
X157133201Y-119211635D01*
X156990478Y-119226574D01*
X156795747Y-119238534D01*
X156546446Y-119247851D01*
X156240010Y-119254850D01*
X155445488Y-119263229D01*
X155083588Y-119265130D01*
X154723838Y-119270505D01*
X154375664Y-119278857D01*
X154048489Y-119289687D01*
X153751743Y-119302503D01*
X153494849Y-119316807D01*
X153287234Y-119332103D01*
X153138324Y-119347896D01*
X152898215Y-119384496D01*
X152662074Y-119418451D01*
X152312822Y-119467840D01*
X152051769Y-119503118D01*
X151635489Y-118712896D01*
X150828510Y-117157145D01*
X148904990Y-113400062D01*
X148600389Y-112808498D01*
X148330844Y-112297632D01*
X148218520Y-112089410D01*
X148126123Y-111921703D01*
X148057373Y-111801291D01*
X148015990Y-111734951D01*
X147941134Y-111592117D01*
X147808732Y-111309302D01*
X147448018Y-110499346D01*
X147087302Y-109656318D01*
X146954899Y-109332162D01*
X146880045Y-109131451D01*
X146876485Y-109119658D01*
X146873719Y-109105571D01*
X146871720Y-109089376D01*
X146870454Y-109071258D01*
X146869891Y-109051404D01*
X146870000Y-109030000D01*
X146872108Y-108983284D01*
X146876532Y-108932600D01*
X146883022Y-108879436D01*
X146891332Y-108825278D01*
X146901213Y-108771617D01*
X146938323Y-108643529D01*
X147002305Y-108448055D01*
X147180789Y-107939944D01*
X147280241Y-107669807D01*
X147376470Y-107417282D01*
X147461949Y-107203617D01*
X147529157Y-107050063D01*
X147543296Y-107016604D01*
X147558922Y-106975539D01*
X147575540Y-106928519D01*
X147592655Y-106877201D01*
X147609772Y-106823237D01*
X147626391Y-106768281D01*
X147642016Y-106713986D01*
X147656156Y-106662006D01*
X147689632Y-106549047D01*
X147736110Y-106413505D01*
X147861870Y-106088191D01*
X148021034Y-105713103D01*
X148201198Y-105315277D01*
X148389962Y-104921751D01*
X148574921Y-104559561D01*
X148743676Y-104255745D01*
X148818101Y-104134176D01*
X148883822Y-104037340D01*
X148991433Y-103882159D01*
X149035178Y-103817586D01*
X149072669Y-103760299D01*
X149104249Y-103709254D01*
X149130258Y-103663410D01*
X149141279Y-103642109D01*
X149151037Y-103621718D01*
X149159572Y-103602104D01*
X149166927Y-103583139D01*
X149173146Y-103564688D01*
X149178271Y-103546626D01*
X149182343Y-103528817D01*
X149185407Y-103511135D01*
X149187505Y-103493448D01*
X149188678Y-103475625D01*
X149188971Y-103457536D01*
X149188424Y-103439050D01*
X149187083Y-103420037D01*
X149184989Y-103400367D01*
X149178709Y-103358531D01*
X149169931Y-103312499D01*
X149158991Y-103261228D01*
X149150094Y-103217185D01*
X149143216Y-103171151D01*
X149135316Y-103073746D01*
X149134899Y-102970285D01*
X149141573Y-102862038D01*
X149154943Y-102750279D01*
X149174618Y-102636274D01*
X149200204Y-102521300D01*
X149231309Y-102406625D01*
X149267542Y-102293520D01*
X149308508Y-102183260D01*
X149353814Y-102077110D01*
X149354407Y-102075896D01*
X158888602Y-102075896D01*
X158888684Y-102079203D01*
X158888929Y-102082502D01*
X158889335Y-102085789D01*
X158889898Y-102089056D01*
X158890614Y-102092298D01*
X158891486Y-102095507D01*
X158892506Y-102098677D01*
X158893673Y-102101803D01*
X158894984Y-102104876D01*
X158896440Y-102107892D01*
X158898033Y-102110843D01*
X158899764Y-102113723D01*
X158901629Y-102116526D01*
X158903626Y-102119244D01*
X158905751Y-102121871D01*
X158908005Y-102124402D01*
X158910381Y-102126830D01*
X158912878Y-102129148D01*
X158915496Y-102131350D01*
X158918228Y-102133429D01*
X158921076Y-102135379D01*
X158924034Y-102137192D01*
X158927101Y-102138864D01*
X158930273Y-102140388D01*
X158933549Y-102141756D01*
X158936926Y-102142963D01*
X158940401Y-102144002D01*
X158943971Y-102144867D01*
X158947635Y-102145550D01*
X158951389Y-102146047D01*
X158955230Y-102146349D01*
X158959157Y-102146451D01*
X158962463Y-102146349D01*
X158965763Y-102146047D01*
X158969050Y-102145550D01*
X158972317Y-102144867D01*
X158975558Y-102144002D01*
X158978768Y-102142964D01*
X158981939Y-102141756D01*
X158985064Y-102140388D01*
X158988138Y-102138865D01*
X158991153Y-102137192D01*
X158994104Y-102135378D01*
X158996984Y-102133430D01*
X158999786Y-102131350D01*
X159002505Y-102129148D01*
X159005133Y-102126830D01*
X159007663Y-102124402D01*
X159010091Y-102121871D01*
X159012409Y-102119243D01*
X159014611Y-102116525D01*
X159016690Y-102113723D01*
X159018640Y-102110843D01*
X159020454Y-102107892D01*
X159022126Y-102104876D01*
X159023649Y-102101804D01*
X159025017Y-102098678D01*
X159026224Y-102095508D01*
X159027263Y-102092298D01*
X159028128Y-102089056D01*
X159028811Y-102085789D01*
X159029308Y-102082502D01*
X159029610Y-102079202D01*
X159029712Y-102075896D01*
X159029610Y-102071970D01*
X159029308Y-102068128D01*
X159028811Y-102064373D01*
X159028128Y-102060710D01*
X159027263Y-102057139D01*
X159026224Y-102053664D01*
X159025016Y-102050288D01*
X159023649Y-102047012D01*
X159022126Y-102043839D01*
X159020454Y-102040773D01*
X159018640Y-102037815D01*
X159016689Y-102034968D01*
X159014611Y-102032234D01*
X159012409Y-102029617D01*
X159010091Y-102027119D01*
X159007664Y-102024742D01*
X159005132Y-102022490D01*
X159002505Y-102020365D01*
X158999786Y-102018367D01*
X158996984Y-102016503D01*
X158994104Y-102014771D01*
X158991152Y-102013177D01*
X158988138Y-102011723D01*
X158985064Y-102010411D01*
X158981939Y-102009243D01*
X158978768Y-102008223D01*
X158975559Y-102007353D01*
X158972317Y-102006636D01*
X158969050Y-102006072D01*
X158965763Y-102005668D01*
X158962463Y-102005422D01*
X158959157Y-102005340D01*
X158955230Y-102005422D01*
X158951389Y-102005668D01*
X158947635Y-102006073D01*
X158943971Y-102006635D01*
X158940400Y-102007353D01*
X158936926Y-102008223D01*
X158933549Y-102009243D01*
X158930273Y-102010411D01*
X158927101Y-102011723D01*
X158924034Y-102013177D01*
X158921076Y-102014772D01*
X158918229Y-102016503D01*
X158915496Y-102018367D01*
X158912878Y-102020364D01*
X158910381Y-102022490D01*
X158908005Y-102024743D01*
X158905751Y-102027119D01*
X158903626Y-102029617D01*
X158901629Y-102032234D01*
X158899764Y-102034968D01*
X158898033Y-102037815D01*
X158896440Y-102040773D01*
X158894985Y-102043839D01*
X158893673Y-102047012D01*
X158892506Y-102050288D01*
X158891486Y-102053664D01*
X158890614Y-102057139D01*
X158889897Y-102060710D01*
X158889335Y-102064373D01*
X158888929Y-102068127D01*
X158888684Y-102071969D01*
X158888602Y-102075896D01*
X149354407Y-102075896D01*
X149403069Y-101976346D01*
X149455878Y-101882238D01*
X149511851Y-101796057D01*
X149570593Y-101719075D01*
X149631712Y-101652563D01*
X149711804Y-101569398D01*
X149747612Y-101525795D01*
X149781642Y-101478047D01*
X149814682Y-101424057D01*
X149847513Y-101361727D01*
X149880924Y-101288958D01*
X149915699Y-101203652D01*
X149992483Y-100987038D01*
X150084149Y-100695101D01*
X150196983Y-100311055D01*
X150337267Y-99818117D01*
X150438291Y-99466469D01*
X150534271Y-99144091D01*
X150624134Y-98854455D01*
X150706802Y-98601034D01*
X150781203Y-98387300D01*
X150814966Y-98296401D01*
X150846260Y-98216727D01*
X150874949Y-98148711D01*
X150900899Y-98092788D01*
X150923976Y-98049390D01*
X150944044Y-98018952D01*
X150960637Y-97993716D01*
X150978551Y-97963251D01*
X151017687Y-97888203D01*
X151060131Y-97796950D01*
X151104559Y-97692631D01*
X151149648Y-97578392D01*
X151194077Y-97457373D01*
X151236521Y-97332716D01*
X151275658Y-97207563D01*
X151300251Y-97123492D01*
X151323903Y-97045643D01*
X151346832Y-96973623D01*
X151369254Y-96907039D01*
X151391386Y-96845500D01*
X151413447Y-96788611D01*
X151435652Y-96735981D01*
X151458219Y-96687216D01*
X151481365Y-96641923D01*
X151505306Y-96599709D01*
X151530261Y-96560185D01*
X151556445Y-96522953D01*
X151584076Y-96487623D01*
X151613371Y-96453803D01*
X151644549Y-96421100D01*
X151677823Y-96389118D01*
X151715225Y-96355066D01*
X151748172Y-96324074D01*
X151776841Y-96295729D01*
X151801406Y-96269614D01*
X151812205Y-96257265D01*
X151822043Y-96245319D01*
X151830944Y-96233725D01*
X151838930Y-96222431D01*
X151846021Y-96211383D01*
X151852240Y-96200533D01*
X151857609Y-96189828D01*
X151862150Y-96179215D01*
X151865885Y-96168644D01*
X151868835Y-96158062D01*
X151871024Y-96147419D01*
X151872471Y-96136662D01*
X151873201Y-96125739D01*
X151873235Y-96114599D01*
X151872594Y-96103191D01*
X151871301Y-96091462D01*
X151869377Y-96079363D01*
X151866844Y-96066838D01*
X151860042Y-96040310D01*
X151851069Y-96011468D01*
X151840102Y-95979897D01*
X151819352Y-95925855D01*
X151802096Y-95874657D01*
X151788353Y-95825999D01*
X151778145Y-95779585D01*
X151774373Y-95757126D01*
X151771492Y-95735113D01*
X151769506Y-95713513D01*
X151768416Y-95692286D01*
X151768225Y-95671394D01*
X151768936Y-95650801D01*
X151770551Y-95630469D01*
X151773073Y-95610361D01*
X151776504Y-95590439D01*
X151780849Y-95570666D01*
X151786108Y-95551003D01*
X151792284Y-95531413D01*
X151799379Y-95511860D01*
X151807397Y-95492306D01*
X151816340Y-95472713D01*
X151826211Y-95453044D01*
X151848745Y-95413327D01*
X151875021Y-95372856D01*
X151905059Y-95331330D01*
X151938880Y-95288451D01*
X151957139Y-95265329D01*
X151974819Y-95241047D01*
X151991837Y-95215774D01*
X152008112Y-95189674D01*
X152023560Y-95162913D01*
X152038098Y-95135656D01*
X152051644Y-95108067D01*
X152064115Y-95080313D01*
X152075429Y-95052559D01*
X152085503Y-95024972D01*
X152094253Y-94997713D01*
X152101597Y-94970952D01*
X152107455Y-94944851D01*
X152111741Y-94919579D01*
X152114373Y-94895297D01*
X152115268Y-94872173D01*
X152116164Y-94849402D01*
X152118796Y-94823624D01*
X152123082Y-94795139D01*
X152128939Y-94764244D01*
X152136283Y-94731242D01*
X152145034Y-94696431D01*
X152166421Y-94622582D01*
X152192438Y-94545096D01*
X152222424Y-94466368D01*
X152238699Y-94427290D01*
X152255718Y-94388799D01*
X152273397Y-94351197D01*
X152291656Y-94314785D01*
X152309916Y-94278289D01*
X152327596Y-94240439D01*
X152344615Y-94201536D01*
X152360890Y-94161877D01*
X152376337Y-94121764D01*
X152390875Y-94081496D01*
X152404422Y-94041373D01*
X152416893Y-94001695D01*
X152428207Y-93962759D01*
X152438280Y-93924868D01*
X152447031Y-93888322D01*
X152454375Y-93853417D01*
X152460231Y-93820456D01*
X152464518Y-93789738D01*
X152467150Y-93761563D01*
X152468046Y-93736229D01*
X152472946Y-93679096D01*
X152487076Y-93606914D01*
X152509577Y-93521668D01*
X152539593Y-93425343D01*
X152576265Y-93319924D01*
X152618734Y-93207393D01*
X152717636Y-92968938D01*
X152829436Y-92725851D01*
X152888029Y-92607533D01*
X152947272Y-92494010D01*
X153006309Y-92387267D01*
X153064282Y-92289289D01*
X153120332Y-92202059D01*
X153173601Y-92127563D01*
X153200072Y-92092712D01*
X153223969Y-92059432D01*
X153245364Y-92027475D01*
X153264332Y-91996593D01*
X153280942Y-91966538D01*
X153295269Y-91937062D01*
X153307383Y-91907916D01*
X153317359Y-91878853D01*
X153325267Y-91849626D01*
X153331180Y-91819983D01*
X153335172Y-91789680D01*
X153337313Y-91758467D01*
X153337676Y-91726098D01*
X153336334Y-91692321D01*
X153333359Y-91656893D01*
X153328823Y-91619561D01*
X153325948Y-91581871D01*
X153325337Y-91542611D01*
X153327102Y-91501366D01*
X153331359Y-91457724D01*
X153338220Y-91411271D01*
X153347799Y-91361593D01*
X153360209Y-91308276D01*
X153375567Y-91250909D01*
X153415571Y-91122365D01*
X153468722Y-90972655D01*
X153535927Y-90798471D01*
X153618100Y-90596505D01*
X153686878Y-90427820D01*
X153759542Y-90243177D01*
X153908259Y-89849499D01*
X154047718Y-89462436D01*
X154161379Y-89128951D01*
X154210974Y-88976664D01*
X154268424Y-88814207D01*
X154331662Y-88646623D01*
X154398621Y-88478957D01*
X154467234Y-88316252D01*
X154535433Y-88163551D01*
X154601152Y-88025899D01*
X154662323Y-87908339D01*
X154716687Y-87798992D01*
X154767825Y-87689728D01*
X154814499Y-87583275D01*
X154855469Y-87482361D01*
X154873426Y-87434834D01*
X154889493Y-87389715D01*
X154903511Y-87347346D01*
X154915331Y-87308066D01*
X154924793Y-87272219D01*
X154931743Y-87240143D01*
X154936027Y-87212181D01*
X154937489Y-87188674D01*
X154943495Y-87133409D01*
X154960724Y-87051821D01*
X155024141Y-86822778D01*
X155118316Y-86527752D01*
X155233824Y-86192958D01*
X155361237Y-85844604D01*
X155491131Y-85508899D01*
X155614080Y-85212056D01*
X155720658Y-84980284D01*
X155756445Y-84913270D01*
X155799260Y-84835755D01*
X155899691Y-84660137D01*
X156009383Y-84475260D01*
X156063774Y-84386170D01*
X156115767Y-84302950D01*
X156148606Y-84251495D01*
X156178385Y-84202863D01*
X156205188Y-84156896D01*
X156229097Y-84113441D01*
X156250195Y-84072343D01*
X156268564Y-84033446D01*
X156284287Y-83996596D01*
X156297448Y-83961637D01*
X156308128Y-83928414D01*
X156316410Y-83896773D01*
X156322377Y-83866557D01*
X156326112Y-83837614D01*
X156327697Y-83809786D01*
X156327214Y-83782920D01*
X156324748Y-83756859D01*
X156320380Y-83731450D01*
X156317648Y-83706256D01*
X156317375Y-83675750D01*
X156319542Y-83640077D01*
X156324128Y-83599380D01*
X156340471Y-83503495D01*
X156366240Y-83389255D01*
X156401270Y-83257818D01*
X156445395Y-83110339D01*
X156498449Y-82947978D01*
X156560268Y-82771892D01*
X156828378Y-82002840D01*
X157068267Y-82024007D01*
G37*
M02*
