%TF.GenerationSoftware,KiCad,Pcbnew,9.0.3*%
%TF.CreationDate,2026-04-10T16:49:53-05:00*%
%TF.ProjectId,esp32xlegend,65737033-3278-46c6-9567-656e642e6b69,rev?*%
%TF.SameCoordinates,Original*%
%TF.FileFunction,Copper,L4,Bot*%
%TF.FilePolarity,Positive*%
%FSLAX46Y46*%
G04 Gerber Fmt 4.6, Leading zero omitted, Abs format (unit mm)*
G04 Created by KiCad (PCBNEW 9.0.3) date 2026-04-10 16:49:53*
%MOMM*%
%LPD*%
G01*
G04 APERTURE LIST*
%TA.AperFunction,ComponentPad*%
%ADD10O,0.900000X1.700000*%
%TD*%
%TA.AperFunction,ComponentPad*%
%ADD11O,0.900000X2.400000*%
%TD*%
%TA.AperFunction,ComponentPad*%
%ADD12C,0.700000*%
%TD*%
%TA.AperFunction,ViaPad*%
%ADD13C,0.600000*%
%TD*%
%TA.AperFunction,Conductor*%
%ADD14C,0.200000*%
%TD*%
G04 APERTURE END LIST*
D10*
%TO.P,J3,S1,SHIELD*%
%TO.N,GND*%
X163757501Y-143300000D03*
D11*
X163757501Y-139920000D03*
D10*
X155107501Y-143300000D03*
D11*
X155107501Y-139920000D03*
D12*
%TO.P,J3,B12,GND*%
X156457501Y-140290000D03*
%TO.P,J3,B9,VBUS*%
%TO.N,VBUS*%
X157307501Y-140290000D03*
%TO.P,J3,B8,SBU2*%
%TO.N,unconnected-(J3-SBU2-PadB8)*%
X158157501Y-140290000D03*
%TO.P,J3,B7,D-*%
%TO.N,Net-(IC4-I{slash}O1_1)*%
X159007501Y-140290000D03*
%TO.P,J3,B6,D+*%
%TO.N,Net-(IC4-I{slash}O2_1)*%
X159857501Y-140290000D03*
%TO.P,J3,B5,CC2*%
%TO.N,Net-(J3-CC2)*%
X160707501Y-140290000D03*
%TO.P,J3,B4,VBUS*%
%TO.N,VBUS*%
X161557501Y-140290000D03*
%TO.P,J3,B1,GND*%
%TO.N,GND*%
X162407501Y-140290000D03*
%TO.P,J3,A12,GND*%
X162407501Y-138940000D03*
%TO.P,J3,A9,VBUS*%
%TO.N,VBUS*%
X161557501Y-138940000D03*
%TO.P,J3,A8,SBU1*%
%TO.N,unconnected-(J3-SBU1-PadA8)*%
X160707501Y-138940000D03*
%TO.P,J3,A7,D-*%
%TO.N,Net-(IC4-I{slash}O1_1)*%
X159857501Y-138940000D03*
%TO.P,J3,A6,D+*%
%TO.N,Net-(IC4-I{slash}O2_1)*%
X159007501Y-138940000D03*
%TO.P,J3,A5,CC1*%
%TO.N,Net-(J3-CC1)*%
X158157501Y-138940000D03*
%TO.P,J3,A4,VBUS*%
%TO.N,VBUS*%
X157307501Y-138940000D03*
%TO.P,J3,A1,GND*%
%TO.N,GND*%
X156457501Y-138940000D03*
%TD*%
D13*
%TO.N,GND*%
X148450000Y-79454998D03*
X151890000Y-79454998D03*
X155530000Y-79454998D03*
X158990000Y-79454998D03*
X162410000Y-79454998D03*
X165930000Y-79450000D03*
%TO.N,RAND_BYTE_15_1V2*%
X165660000Y-81320000D03*
%TO.N,GND*%
X153370000Y-86400000D03*
X153332513Y-87733274D03*
%TO.N,RAND_BYTE_14_1V2*%
X162070000Y-81110000D03*
%TO.N,RAND_BYTE_13_1V2*%
X158725380Y-81225380D03*
%TO.N,RAND_BYTE_10_1V2*%
X158450736Y-94497293D03*
%TO.N,RAND_BYTE_12_1V2*%
X155120000Y-81180000D03*
%TO.N,RAND_BYTE_11_1V2*%
X151230000Y-81600000D03*
%TO.N,RAND_BYTE_13_1V2*%
X160560000Y-94930000D03*
%TO.N,RAND_BYTE_14_1V2*%
X160910000Y-94190000D03*
%TO.N,RAND_BYTE_15_1V2*%
X161710000Y-93680000D03*
%TO.N,RAND_VALID_1V2*%
X163670000Y-92680000D03*
%TO.N,RAND_BYTE_12_1V2*%
X159820000Y-95650000D03*
%TO.N,RAND_BYTE_11_1V2*%
X159060000Y-95090000D03*
%TO.N,RAND_BYTE_10_1V2*%
X148530000Y-81480000D03*
%TO.N,3.3V*%
X166970000Y-80600000D03*
X148630000Y-75840000D03*
X152750000Y-75840000D03*
X156910000Y-75930000D03*
X161260000Y-75840000D03*
X164890000Y-75840000D03*
%TO.N,1.2V*%
X150471851Y-87716984D03*
%TO.N,GND*%
X149715000Y-93170000D03*
X165040000Y-137960000D03*
X172620000Y-130720000D03*
X153740000Y-110430000D03*
X153140000Y-107970000D03*
X153220000Y-105670000D03*
X167020000Y-89610000D03*
X166610000Y-86150000D03*
X169220000Y-83410000D03*
X159432501Y-135449999D03*
X171690000Y-140780000D03*
X167240000Y-133770000D03*
X165930000Y-135800000D03*
%TO.N,Net-(J3-CC1)*%
X154640000Y-137750000D03*
%TO.N,Net-(J3-CC2)*%
X165800000Y-140570000D03*
%TO.N,Net-(IC4-I{slash}O2_1)*%
X160382501Y-135450000D03*
%TO.N,1.2V*%
X165580000Y-97790000D03*
X166830000Y-98830000D03*
X166780000Y-99990000D03*
%TO.N,GND*%
X173330000Y-99200000D03*
X173270000Y-101550000D03*
X172550000Y-102920000D03*
X172630000Y-104310000D03*
%TO.N,3.3V*%
X169380000Y-107340000D03*
X166820000Y-101870000D03*
X167130000Y-102790000D03*
X164770000Y-103370000D03*
%TO.N,1.2V*%
X165529638Y-100570000D03*
%TO.N,GND*%
X163150000Y-97990000D03*
X164210000Y-98070000D03*
X163610000Y-100620000D03*
X164530000Y-100700000D03*
X163770000Y-103730000D03*
X163050000Y-103210000D03*
X145580000Y-101970000D03*
X145570000Y-99440000D03*
X145850000Y-98410000D03*
X152770000Y-95840000D03*
X154490000Y-102460000D03*
X154240000Y-101050000D03*
X154040000Y-99920000D03*
X155350000Y-98230000D03*
X154630000Y-99490000D03*
%TO.N,1.2V*%
X152030000Y-99660000D03*
%TO.N,3.3V*%
X152240000Y-101230000D03*
X152250000Y-102260000D03*
%TO.N,1.2V*%
X153970000Y-104490000D03*
X154250000Y-107740000D03*
%TO.N,GND*%
X148730000Y-100750000D03*
X170020000Y-100410000D03*
X157910000Y-100650000D03*
%TO.N,3.3V*%
X160820000Y-102970000D03*
X162180000Y-102990000D03*
X161310000Y-102240000D03*
X161550000Y-101250000D03*
%TO.N,1.2V*%
X160680000Y-98190000D03*
X161260000Y-99530000D03*
X161620000Y-100420000D03*
X161600000Y-98600000D03*
%TO.N,Net-(U1-EN)*%
X167170000Y-134970000D03*
X167760000Y-137280000D03*
%TO.N,3.3V*%
X173120000Y-132540000D03*
X151780000Y-133610000D03*
X151400000Y-131520000D03*
X155060000Y-130530000D03*
X151630000Y-104630000D03*
X151880000Y-106280000D03*
X152090000Y-110160000D03*
%TO.N,OE_N_FROM_LEGEND2*%
X169790000Y-114740000D03*
%TO.N,RAND_BYTE_9*%
X169790000Y-115990000D03*
%TO.N,RAND_BYTE_8*%
X169780000Y-117170000D03*
X159400000Y-104000000D03*
%TO.N,RAND_BYTE_9*%
X160210000Y-104240000D03*
%TO.N,OE_N_FROM_LEGEND2*%
X160960000Y-103940000D03*
%TO.N,RAND_BYTE_6*%
X157850000Y-104620000D03*
%TO.N,RAND_BYTE_5*%
X157230000Y-105390000D03*
%TO.N,RAND_BYTE_2*%
X169780000Y-124865000D03*
%TO.N,RAND_BYTE_4*%
X169820000Y-122325000D03*
%TO.N,RAND_BYTE_3*%
X169810000Y-123610000D03*
%TO.N,RAND_BYTE_6*%
X169830000Y-119870000D03*
%TO.N,RAND_BYTE_7*%
X169800000Y-118630000D03*
%TO.N,RAND_BYTE_5*%
X169820000Y-121060000D03*
%TO.N,RAND_BYTE_7*%
X158500000Y-104070000D03*
%TO.N,RAND_BYTE_4*%
X156330000Y-104760000D03*
%TO.N,RAND_BYTE_3*%
X155700000Y-104180000D03*
%TO.N,RAND_BYTE_2*%
X155100000Y-103580000D03*
%TO.N,3.3V*%
X151630000Y-103120000D03*
%TO.N,1.2V*%
X154230000Y-98630000D03*
X154120000Y-97660000D03*
X151740000Y-98430000D03*
%TO.N,GND*%
X158360000Y-83900000D03*
%TO.N,LEGEND_MOSI_1V2*%
X168340000Y-94790000D03*
X155070000Y-83850000D03*
%TO.N,LEGEND_SS_n_1V2*%
X156330000Y-83930000D03*
X167326271Y-95877968D03*
%TO.N,1.2V*%
X172100000Y-83030000D03*
%TO.N,GND*%
X169250000Y-80760000D03*
%TO.N,1.2V*%
X165360000Y-84490000D03*
%TO.N,LEGEND_TEMP_DEBUG*%
X168800000Y-92040000D03*
X165910000Y-91530000D03*
%TO.N,LEGEND_INPUT_PIN_1*%
X163680000Y-88710000D03*
X168210000Y-86920000D03*
%TO.N,GND*%
X170500000Y-86390000D03*
%TO.N,1.2V*%
X172160000Y-86080000D03*
X173080000Y-86220000D03*
X172520000Y-92290000D03*
%TO.N,GND*%
X169620000Y-92410000D03*
%TO.N,1.2V*%
X164280000Y-87550000D03*
X164260000Y-86650000D03*
X151805000Y-93130000D03*
%TO.N,GND*%
X149745000Y-91080000D03*
X149795000Y-89510000D03*
%TO.N,LEGEND_OUTPUT_INPUT_DIRECT*%
X167190000Y-84030000D03*
X162660000Y-84210000D03*
%TO.N,LEGEND_DEBUG*%
X161770000Y-83820000D03*
X165130000Y-82440000D03*
%TO.N,RAND_VALID_1V2*%
X148320000Y-97030000D03*
%TD*%
D14*
%TO.N,RAND_BYTE_15_1V2*%
X161710000Y-91710000D02*
X161710000Y-93680000D01*
X158540000Y-88540000D02*
X161710000Y-91710000D01*
X154240000Y-85140000D02*
X157640000Y-88540000D01*
X157640000Y-88540000D02*
X158540000Y-88540000D01*
X154840000Y-82870000D02*
X154240000Y-83470000D01*
X154240000Y-83470000D02*
X154240000Y-85140000D01*
X160510000Y-81780000D02*
X159420000Y-82870000D01*
X159420000Y-82870000D02*
X154840000Y-82870000D01*
X165200000Y-81780000D02*
X160510000Y-81780000D01*
X165660000Y-81320000D02*
X165200000Y-81780000D01*
%TO.N,LEGEND_MOSI_1V2*%
X155640000Y-83280000D02*
X155070000Y-83850000D01*
X156820000Y-83280000D02*
X155640000Y-83280000D01*
X157190000Y-83650000D02*
X156820000Y-83280000D01*
X157190000Y-84330000D02*
X157190000Y-83650000D01*
X167650000Y-94790000D02*
X157190000Y-84330000D01*
X168340000Y-94790000D02*
X167650000Y-94790000D01*
%TO.N,LEGEND_SS_n_1V2*%
X155720000Y-84160000D02*
X155950000Y-83930000D01*
X155720000Y-85370000D02*
X155720000Y-84160000D01*
X157530000Y-87180000D02*
X155720000Y-85370000D01*
X167326271Y-95306271D02*
X159200000Y-87180000D01*
X167326271Y-95877968D02*
X167326271Y-95306271D01*
X159200000Y-87180000D02*
X157530000Y-87180000D01*
X155950000Y-83930000D02*
X156330000Y-83930000D01*
%TO.N,RAND_BYTE_14_1V2*%
X160910000Y-92690000D02*
X160910000Y-94190000D01*
X153390000Y-85170000D02*
X160910000Y-92690000D01*
X154530000Y-82250000D02*
X153390000Y-83390000D01*
X158620000Y-82250000D02*
X154530000Y-82250000D01*
X162070000Y-81110000D02*
X159760000Y-81110000D01*
X159760000Y-81110000D02*
X158620000Y-82250000D01*
X153390000Y-83390000D02*
X153390000Y-85170000D01*
%TO.N,RAND_BYTE_11_1V2*%
X159060000Y-94010000D02*
X159060000Y-95090000D01*
X158560000Y-93510000D02*
X159060000Y-94010000D01*
X155460000Y-93510000D02*
X158560000Y-93510000D01*
X151230000Y-89280000D02*
X155460000Y-93510000D01*
X151230000Y-81600000D02*
X151230000Y-89280000D01*
%TO.N,Net-(IC4-I{slash}O2_1)*%
X159007501Y-139177501D02*
X159007501Y-138590000D01*
X159857501Y-140027501D02*
X159007501Y-139177501D01*
X159857501Y-140290000D02*
X159857501Y-140027501D01*
X160382501Y-136117499D02*
X159007501Y-137492499D01*
X160382501Y-135450000D02*
X160382501Y-136117499D01*
X159007501Y-137492499D02*
X159007501Y-138940000D01*
%TO.N,Net-(J3-CC1)*%
X158157501Y-138445026D02*
X157462475Y-137750000D01*
X158157501Y-138940000D02*
X158157501Y-138445026D01*
X157462475Y-137750000D02*
X154640000Y-137750000D01*
%TO.N,Net-(J3-CC2)*%
X163590000Y-141750000D02*
X164620000Y-141750000D01*
X161672527Y-141750000D02*
X163590000Y-141750000D01*
X164620000Y-141750000D02*
X165800000Y-140570000D01*
X160707501Y-140784974D02*
X161672527Y-141750000D01*
X160707501Y-140290000D02*
X160707501Y-140784974D01*
%TO.N,Net-(U1-EN)*%
X167760000Y-135560000D02*
X167760000Y-137280000D01*
X167170000Y-134970000D02*
X167760000Y-135560000D01*
%TO.N,OE_N_FROM_LEGEND2*%
X163040000Y-114740000D02*
X169790000Y-114740000D01*
X162830000Y-114530000D02*
X163040000Y-114740000D01*
X160960000Y-112660000D02*
X162830000Y-114530000D01*
X160960000Y-103940000D02*
X160960000Y-112660000D01*
%TO.N,RAND_BYTE_9*%
X160210000Y-113900000D02*
X160210000Y-104240000D01*
X162300000Y-115990000D02*
X160210000Y-113900000D01*
X169790000Y-115990000D02*
X162300000Y-115990000D01*
%TO.N,RAND_BYTE_8*%
X162100000Y-117170000D02*
X169780000Y-117170000D01*
X159400000Y-114470000D02*
X162100000Y-117170000D01*
X159400000Y-104000000D02*
X159400000Y-114470000D01*
%TO.N,RAND_BYTE_7*%
X162090000Y-118630000D02*
X158500000Y-115040000D01*
X169800000Y-118630000D02*
X162090000Y-118630000D01*
X158500000Y-115040000D02*
X158500000Y-104070000D01*
%TO.N,RAND_BYTE_6*%
X157850000Y-115920000D02*
X157850000Y-104620000D01*
X161800000Y-119870000D02*
X157850000Y-115920000D01*
X169830000Y-119870000D02*
X161800000Y-119870000D01*
%TO.N,RAND_BYTE_4*%
X161435000Y-122325000D02*
X169820000Y-122325000D01*
X156330000Y-104760000D02*
X156330000Y-117220000D01*
X156330000Y-117220000D02*
X161435000Y-122325000D01*
%TO.N,LEGEND_TEMP_DEBUG*%
X166460000Y-92080000D02*
X165910000Y-91530000D01*
X168760000Y-92080000D02*
X166460000Y-92080000D01*
X168800000Y-92040000D02*
X168760000Y-92080000D01*
%TO.N,LEGEND_OUTPUT_INPUT_DIRECT*%
X163030000Y-83840000D02*
X162660000Y-84210000D01*
X167190000Y-84030000D02*
X167000000Y-83840000D01*
X167000000Y-83840000D02*
X163030000Y-83840000D01*
%TO.N,LEGEND_INPUT_PIN_1*%
X163680000Y-88710000D02*
X166420000Y-88710000D01*
X166420000Y-88710000D02*
X168210000Y-86920000D01*
%TO.N,LEGEND_DEBUG*%
X163150000Y-82440000D02*
X161770000Y-83820000D01*
X165130000Y-82440000D02*
X163150000Y-82440000D01*
%TO.N,RAND_BYTE_5*%
X157230000Y-116560000D02*
X157230000Y-105390000D01*
X161730000Y-121060000D02*
X157230000Y-116560000D01*
X169820000Y-121060000D02*
X161730000Y-121060000D01*
%TO.N,RAND_BYTE_3*%
X155700000Y-117730000D02*
X155700000Y-104180000D01*
X161570000Y-123600000D02*
X155700000Y-117730000D01*
X169800000Y-123600000D02*
X161570000Y-123600000D01*
%TO.N,RAND_BYTE_2*%
X161755000Y-124865000D02*
X169780000Y-124865000D01*
%TO.N,RAND_BYTE_3*%
X169810000Y-123610000D02*
X169800000Y-123600000D01*
%TO.N,RAND_BYTE_2*%
X155100000Y-118210000D02*
X161755000Y-124865000D01*
X155100000Y-103580000D02*
X155100000Y-118210000D01*
%TO.N,RAND_VALID_1V2*%
X159320000Y-97030000D02*
X163670000Y-92680000D01*
X148320000Y-97030000D02*
X159320000Y-97030000D01*
%TO.N,RAND_BYTE_10_1V2*%
X155707293Y-94497293D02*
X158450736Y-94497293D01*
X149810000Y-88600000D02*
X155707293Y-94497293D01*
X148530000Y-84880000D02*
X149810000Y-86160000D01*
X149810000Y-86160000D02*
X149810000Y-88600000D01*
X148530000Y-81480000D02*
X148530000Y-84880000D01*
%TO.N,RAND_BYTE_12_1V2*%
X159820000Y-95650000D02*
X159820000Y-93980000D01*
X155785000Y-92995000D02*
X158835000Y-92995000D01*
X154210000Y-91420000D02*
X155785000Y-92995000D01*
X152000000Y-89220000D02*
X154200000Y-91420000D01*
X153290000Y-81180000D02*
X152000000Y-82470000D01*
%TO.N,RAND_BYTE_13_1V2*%
X158725380Y-81314620D02*
X158725380Y-81225380D01*
X158220000Y-81820000D02*
X158725380Y-81314620D01*
X153980000Y-81820000D02*
X158220000Y-81820000D01*
%TO.N,RAND_BYTE_12_1V2*%
X152000000Y-82470000D02*
X152000000Y-89220000D01*
%TO.N,RAND_BYTE_13_1V2*%
X152630000Y-89040000D02*
X152630000Y-83170000D01*
%TO.N,RAND_BYTE_12_1V2*%
X159820000Y-93980000D02*
X158835000Y-92995000D01*
%TO.N,RAND_BYTE_13_1V2*%
X156130000Y-92540000D02*
X152630000Y-89040000D01*
X159080000Y-92540000D02*
X156130000Y-92540000D01*
X160220000Y-94570000D02*
X160220000Y-93680000D01*
X160560000Y-94910000D02*
X160220000Y-94570000D01*
X152630000Y-83170000D02*
X153980000Y-81820000D01*
%TO.N,RAND_BYTE_12_1V2*%
X154200000Y-91420000D02*
X154210000Y-91420000D01*
%TO.N,RAND_BYTE_13_1V2*%
X160220000Y-93680000D02*
X159080000Y-92540000D01*
X160560000Y-94930000D02*
X160560000Y-94910000D01*
%TO.N,RAND_BYTE_12_1V2*%
X155120000Y-81180000D02*
X153290000Y-81180000D01*
%TD*%
%TA.AperFunction,Conductor*%
%TO.N,GND*%
G36*
X153435703Y-86065384D02*
G01*
X153442181Y-86071416D01*
X159098583Y-91727818D01*
X159109193Y-91747249D01*
X159123693Y-91763981D01*
X159125611Y-91777316D01*
X159132068Y-91789141D01*
X159130488Y-91811224D01*
X159133641Y-91833139D01*
X159128045Y-91845394D01*
X159127084Y-91858833D01*
X159113815Y-91876556D01*
X159104620Y-91896696D01*
X159093285Y-91903981D01*
X159085212Y-91914766D01*
X159064469Y-91922502D01*
X159045844Y-91934474D01*
X159023920Y-91937626D01*
X159019748Y-91939183D01*
X159010909Y-91939499D01*
X159000943Y-91939499D01*
X159000940Y-91939499D01*
X158993338Y-91939500D01*
X158993336Y-91939499D01*
X158993331Y-91939500D01*
X156430097Y-91939500D01*
X156363058Y-91919815D01*
X156342416Y-91903181D01*
X153266819Y-88827584D01*
X153233334Y-88766261D01*
X153230500Y-88739903D01*
X153230500Y-86159097D01*
X153250185Y-86092058D01*
X153302989Y-86046303D01*
X153372147Y-86036359D01*
X153435703Y-86065384D01*
G37*
%TD.AperFunction*%
%TA.AperFunction,Conductor*%
G36*
X174887542Y-74680185D02*
G01*
X174933297Y-74732989D01*
X174944503Y-74784500D01*
X174944503Y-144415500D01*
X174924818Y-144482539D01*
X174872014Y-144528294D01*
X174820503Y-144539500D01*
X164560867Y-144539500D01*
X164493828Y-144519815D01*
X164448073Y-144467011D01*
X164438129Y-144397853D01*
X164467154Y-144334297D01*
X164473186Y-144327819D01*
X164495411Y-144305593D01*
X164495414Y-144305589D01*
X164599376Y-144150000D01*
X164599381Y-144149991D01*
X164670992Y-143977105D01*
X164670994Y-143977097D01*
X164707500Y-143793571D01*
X164707501Y-143793569D01*
X164707501Y-143550000D01*
X164057501Y-143550000D01*
X164057501Y-143050000D01*
X164707501Y-143050000D01*
X164707501Y-142806430D01*
X164707500Y-142806428D01*
X164670994Y-142622902D01*
X164670992Y-142622894D01*
X164626348Y-142515113D01*
X164625050Y-142503048D01*
X164619386Y-142492319D01*
X164621385Y-142468957D01*
X164618879Y-142445643D01*
X164624310Y-142434792D01*
X164625345Y-142422704D01*
X164639658Y-142404131D01*
X164650154Y-142383164D01*
X164661646Y-142375601D01*
X164667996Y-142367362D01*
X164690436Y-142356654D01*
X164699207Y-142350883D01*
X164703942Y-142349192D01*
X164851785Y-142309577D01*
X164901904Y-142280639D01*
X164988716Y-142230520D01*
X165100520Y-142118716D01*
X165100520Y-142118714D01*
X165110728Y-142108507D01*
X165110729Y-142108504D01*
X165814662Y-141404572D01*
X165875983Y-141371089D01*
X165878150Y-141370638D01*
X165936085Y-141359113D01*
X166033497Y-141339737D01*
X166179179Y-141279394D01*
X166310289Y-141191789D01*
X166421789Y-141080289D01*
X166509394Y-140949179D01*
X166569737Y-140803497D01*
X166600500Y-140648842D01*
X166600500Y-140491158D01*
X166600500Y-140491155D01*
X166600499Y-140491153D01*
X166594213Y-140459552D01*
X166569737Y-140336503D01*
X166557176Y-140306177D01*
X166509397Y-140190827D01*
X166509390Y-140190814D01*
X166421789Y-140059711D01*
X166421786Y-140059707D01*
X166310292Y-139948213D01*
X166310288Y-139948210D01*
X166179185Y-139860609D01*
X166179172Y-139860602D01*
X166033501Y-139800264D01*
X166033489Y-139800261D01*
X165878845Y-139769500D01*
X165878842Y-139769500D01*
X165721158Y-139769500D01*
X165721155Y-139769500D01*
X165566510Y-139800261D01*
X165566498Y-139800264D01*
X165420827Y-139860602D01*
X165420814Y-139860609D01*
X165289711Y-139948210D01*
X165289707Y-139948213D01*
X165178213Y-140059707D01*
X165178210Y-140059711D01*
X165090609Y-140190814D01*
X165090602Y-140190827D01*
X165030264Y-140336498D01*
X165030261Y-140336508D01*
X164999361Y-140491850D01*
X164990595Y-140508606D01*
X164986576Y-140527085D01*
X164967833Y-140552121D01*
X164966976Y-140553761D01*
X164965425Y-140555339D01*
X164919182Y-140601582D01*
X164857859Y-140635067D01*
X164788167Y-140630083D01*
X164732234Y-140588211D01*
X164707817Y-140522747D01*
X164707501Y-140513901D01*
X164707501Y-140170000D01*
X164057501Y-140170000D01*
X164057501Y-139670000D01*
X164707501Y-139670000D01*
X164707501Y-139076430D01*
X164707500Y-139076428D01*
X164670994Y-138892902D01*
X164670992Y-138892894D01*
X164599381Y-138720008D01*
X164599376Y-138719999D01*
X164495414Y-138564410D01*
X164495411Y-138564406D01*
X164363094Y-138432089D01*
X164363090Y-138432086D01*
X164207501Y-138328124D01*
X164207492Y-138328119D01*
X164034604Y-138256507D01*
X164034601Y-138256506D01*
X164007501Y-138251115D01*
X164007501Y-139003011D01*
X163997561Y-138985795D01*
X163941706Y-138929940D01*
X163873297Y-138890444D01*
X163796997Y-138870000D01*
X163718005Y-138870000D01*
X163641705Y-138890444D01*
X163573296Y-138929940D01*
X163517441Y-138985795D01*
X163507501Y-139003011D01*
X163507501Y-138251116D01*
X163507500Y-138251115D01*
X163480400Y-138256506D01*
X163480397Y-138256507D01*
X163307508Y-138328120D01*
X163232001Y-138378571D01*
X163226464Y-138434786D01*
X163200302Y-138499573D01*
X163190742Y-138510311D01*
X162761054Y-138939999D01*
X162761054Y-138940000D01*
X163189561Y-139368507D01*
X163223046Y-139429830D01*
X163218062Y-139499522D01*
X163189561Y-139543869D01*
X163118430Y-139615000D01*
X163189561Y-139686131D01*
X163223046Y-139747454D01*
X163218062Y-139817146D01*
X163189561Y-139861493D01*
X162671958Y-140379095D01*
X162664012Y-140383433D01*
X162658587Y-140390681D01*
X162633827Y-140399915D01*
X162610635Y-140412580D01*
X162601605Y-140411934D01*
X162593123Y-140415098D01*
X162570226Y-140410117D01*
X162577053Y-140403291D01*
X162607501Y-140329782D01*
X162607501Y-140250218D01*
X162577053Y-140176709D01*
X162520792Y-140120448D01*
X162447283Y-140090000D01*
X162384881Y-140090000D01*
X162376088Y-140045794D01*
X162382315Y-139976204D01*
X162410024Y-139933923D01*
X162728947Y-139615000D01*
X162728947Y-139614999D01*
X162410024Y-139296076D01*
X162376539Y-139234753D01*
X162376088Y-139184205D01*
X162384881Y-139140000D01*
X162447283Y-139140000D01*
X162520792Y-139109552D01*
X162577053Y-139053291D01*
X162607501Y-138979782D01*
X162607501Y-138900218D01*
X162577053Y-138826709D01*
X162520792Y-138770448D01*
X162447283Y-138740000D01*
X162384881Y-138740000D01*
X162376088Y-138695793D01*
X162382315Y-138626202D01*
X162410024Y-138583921D01*
X162808062Y-138185884D01*
X162655437Y-138122665D01*
X162655429Y-138122663D01*
X162491222Y-138090000D01*
X162323780Y-138090000D01*
X162159572Y-138122663D01*
X162159564Y-138122665D01*
X162030608Y-138176081D01*
X161961138Y-138183550D01*
X161935702Y-138176081D01*
X161805583Y-138122184D01*
X161805575Y-138122182D01*
X161641272Y-138089500D01*
X161641268Y-138089500D01*
X161473734Y-138089500D01*
X161473729Y-138089500D01*
X161309426Y-138122182D01*
X161309414Y-138122185D01*
X161179953Y-138175810D01*
X161110484Y-138183279D01*
X161085049Y-138175810D01*
X160955587Y-138122185D01*
X160955575Y-138122182D01*
X160791272Y-138089500D01*
X160791268Y-138089500D01*
X160623734Y-138089500D01*
X160623729Y-138089500D01*
X160459426Y-138122182D01*
X160459414Y-138122185D01*
X160329953Y-138175810D01*
X160260484Y-138183279D01*
X160235049Y-138175810D01*
X160105587Y-138122185D01*
X160105575Y-138122182D01*
X159941272Y-138089500D01*
X159941268Y-138089500D01*
X159773734Y-138089500D01*
X159773729Y-138089500D01*
X159756188Y-138092989D01*
X159735206Y-138091110D01*
X159714354Y-138094109D01*
X159701103Y-138088057D01*
X159686597Y-138086759D01*
X159669962Y-138073836D01*
X159650798Y-138065084D01*
X159642922Y-138052829D01*
X159631421Y-138043894D01*
X159624413Y-138024029D01*
X159613024Y-138006306D01*
X159609488Y-137981716D01*
X159608179Y-137978004D01*
X159608001Y-137971371D01*
X159608001Y-137792596D01*
X159627686Y-137725557D01*
X159644320Y-137704915D01*
X160225452Y-137123783D01*
X160863021Y-136486215D01*
X160942078Y-136349283D01*
X160983002Y-136196556D01*
X160983002Y-136038441D01*
X160983002Y-136030846D01*
X160983001Y-136030828D01*
X160983001Y-136029765D01*
X161002686Y-135962726D01*
X161003899Y-135960874D01*
X161091891Y-135829185D01*
X161091891Y-135829184D01*
X161091895Y-135829179D01*
X161152238Y-135683497D01*
X161183001Y-135528842D01*
X161183001Y-135371158D01*
X161183001Y-135371155D01*
X161183000Y-135371153D01*
X161152239Y-135216510D01*
X161152238Y-135216503D01*
X161152236Y-135216498D01*
X161091898Y-135070827D01*
X161091891Y-135070814D01*
X161013809Y-134953957D01*
X161013808Y-134953956D01*
X161004288Y-134939708D01*
X160955733Y-134891153D01*
X166369500Y-134891153D01*
X166369500Y-135048846D01*
X166400261Y-135203489D01*
X166400264Y-135203501D01*
X166460602Y-135349172D01*
X166460609Y-135349185D01*
X166548210Y-135480288D01*
X166548213Y-135480292D01*
X166659707Y-135591786D01*
X166659711Y-135591789D01*
X166790814Y-135679390D01*
X166790827Y-135679397D01*
X166936498Y-135739735D01*
X166936503Y-135739737D01*
X167015730Y-135755496D01*
X167059691Y-135764241D01*
X167121602Y-135796626D01*
X167156176Y-135857341D01*
X167159500Y-135885858D01*
X167159500Y-136700234D01*
X167139815Y-136767273D01*
X167138602Y-136769125D01*
X167050609Y-136900814D01*
X167050602Y-136900827D01*
X166990264Y-137046498D01*
X166990261Y-137046510D01*
X166959500Y-137201153D01*
X166959500Y-137358846D01*
X166990261Y-137513489D01*
X166990264Y-137513501D01*
X167050602Y-137659172D01*
X167050609Y-137659185D01*
X167138210Y-137790288D01*
X167138213Y-137790292D01*
X167249707Y-137901786D01*
X167249711Y-137901789D01*
X167380814Y-137989390D01*
X167380827Y-137989397D01*
X167526498Y-138049735D01*
X167526503Y-138049737D01*
X167647656Y-138073836D01*
X167681153Y-138080499D01*
X167681156Y-138080500D01*
X167681158Y-138080500D01*
X167838844Y-138080500D01*
X167838845Y-138080499D01*
X167993497Y-138049737D01*
X168139179Y-137989394D01*
X168270289Y-137901789D01*
X168381789Y-137790289D01*
X168469394Y-137659179D01*
X168529737Y-137513497D01*
X168560500Y-137358842D01*
X168560500Y-137201158D01*
X168560500Y-137201156D01*
X168560500Y-137201155D01*
X168560499Y-137201153D01*
X168555005Y-137173535D01*
X168529737Y-137046503D01*
X168515436Y-137011977D01*
X168469397Y-136900827D01*
X168469390Y-136900814D01*
X168381398Y-136769125D01*
X168360520Y-136702447D01*
X168360500Y-136700234D01*
X168360500Y-135649059D01*
X168360501Y-135649046D01*
X168360501Y-135480945D01*
X168360501Y-135480943D01*
X168319577Y-135328215D01*
X168290639Y-135278095D01*
X168240520Y-135191284D01*
X168128716Y-135079480D01*
X168128715Y-135079479D01*
X168124385Y-135075149D01*
X168124374Y-135075139D01*
X168004574Y-134955339D01*
X167971089Y-134894016D01*
X167970638Y-134891849D01*
X167952595Y-134801147D01*
X167939737Y-134736503D01*
X167916441Y-134680261D01*
X167879397Y-134590827D01*
X167879390Y-134590814D01*
X167791789Y-134459711D01*
X167791786Y-134459707D01*
X167680292Y-134348213D01*
X167680288Y-134348210D01*
X167549185Y-134260609D01*
X167549172Y-134260602D01*
X167403501Y-134200264D01*
X167403489Y-134200261D01*
X167248845Y-134169500D01*
X167248842Y-134169500D01*
X167091158Y-134169500D01*
X167091155Y-134169500D01*
X166936510Y-134200261D01*
X166936498Y-134200264D01*
X166790827Y-134260602D01*
X166790814Y-134260609D01*
X166659711Y-134348210D01*
X166659707Y-134348213D01*
X166548213Y-134459707D01*
X166548210Y-134459711D01*
X166460609Y-134590814D01*
X166460602Y-134590827D01*
X166400264Y-134736498D01*
X166400261Y-134736510D01*
X166369500Y-134891153D01*
X160955733Y-134891153D01*
X160892793Y-134828213D01*
X160892789Y-134828210D01*
X160761686Y-134740609D01*
X160761673Y-134740602D01*
X160616002Y-134680264D01*
X160615990Y-134680261D01*
X160461346Y-134649500D01*
X160461343Y-134649500D01*
X160303659Y-134649500D01*
X160303656Y-134649500D01*
X160149011Y-134680261D01*
X160148999Y-134680264D01*
X160003328Y-134740602D01*
X160003315Y-134740609D01*
X159872212Y-134828210D01*
X159872208Y-134828213D01*
X159760714Y-134939707D01*
X159760711Y-134939711D01*
X159673110Y-135070814D01*
X159673103Y-135070827D01*
X159612765Y-135216498D01*
X159612762Y-135216510D01*
X159582001Y-135371153D01*
X159582001Y-135528846D01*
X159612762Y-135683489D01*
X159612765Y-135683501D01*
X159673103Y-135829172D01*
X159673110Y-135829185D01*
X159676041Y-135833571D01*
X159696919Y-135900248D01*
X159678435Y-135967629D01*
X159660620Y-135990143D01*
X158642189Y-137008574D01*
X158642183Y-137008580D01*
X158638787Y-137011977D01*
X158638785Y-137011979D01*
X158526981Y-137123783D01*
X158498257Y-137173535D01*
X158447924Y-137260714D01*
X158407000Y-137413442D01*
X158407000Y-137413444D01*
X158407000Y-137545928D01*
X158387315Y-137612967D01*
X158334511Y-137658722D01*
X158265353Y-137668666D01*
X158201797Y-137639641D01*
X158195319Y-137633609D01*
X157950065Y-137388355D01*
X157950063Y-137388352D01*
X157831192Y-137269481D01*
X157831184Y-137269475D01*
X157712854Y-137201158D01*
X157712854Y-137201157D01*
X157712849Y-137201156D01*
X157706362Y-137197410D01*
X157694261Y-137190423D01*
X157656078Y-137180192D01*
X157541532Y-137149499D01*
X157383418Y-137149499D01*
X157375822Y-137149499D01*
X157375806Y-137149500D01*
X155219766Y-137149500D01*
X155152727Y-137129815D01*
X155150875Y-137128602D01*
X155019185Y-137040609D01*
X155019172Y-137040602D01*
X154873501Y-136980264D01*
X154873489Y-136980261D01*
X154718845Y-136949500D01*
X154718842Y-136949500D01*
X154561158Y-136949500D01*
X154561155Y-136949500D01*
X154406510Y-136980261D01*
X154406498Y-136980264D01*
X154260827Y-137040602D01*
X154260814Y-137040609D01*
X154129711Y-137128210D01*
X154129707Y-137128213D01*
X154018213Y-137239707D01*
X154018210Y-137239711D01*
X153930609Y-137370814D01*
X153930602Y-137370827D01*
X153870264Y-137516498D01*
X153870261Y-137516510D01*
X153839500Y-137671153D01*
X153839500Y-137828846D01*
X153870261Y-137983489D01*
X153870264Y-137983501D01*
X153930602Y-138129172D01*
X153930609Y-138129185D01*
X154018210Y-138260288D01*
X154018213Y-138260292D01*
X154129707Y-138371786D01*
X154129711Y-138371789D01*
X154260814Y-138459390D01*
X154260823Y-138459395D01*
X154261364Y-138459619D01*
X154261603Y-138459812D01*
X154266191Y-138462264D01*
X154265726Y-138463133D01*
X154315772Y-138503455D01*
X154337843Y-138569747D01*
X154320570Y-138637448D01*
X154317025Y-138643074D01*
X154265624Y-138720001D01*
X154265620Y-138720008D01*
X154194009Y-138892894D01*
X154194007Y-138892902D01*
X154157501Y-139076428D01*
X154157501Y-139670000D01*
X154807501Y-139670000D01*
X154807501Y-140170000D01*
X154157501Y-140170000D01*
X154157501Y-140763571D01*
X154194007Y-140947097D01*
X154194009Y-140947105D01*
X154265620Y-141119991D01*
X154265625Y-141120000D01*
X154369587Y-141275589D01*
X154369590Y-141275593D01*
X154501907Y-141407910D01*
X154501911Y-141407913D01*
X154657500Y-141511875D01*
X154657513Y-141511882D01*
X154830390Y-141583489D01*
X154830397Y-141583491D01*
X154857501Y-141588882D01*
X154857501Y-140836988D01*
X154867441Y-140854205D01*
X154923296Y-140910060D01*
X154991705Y-140949556D01*
X155068005Y-140970000D01*
X155146997Y-140970000D01*
X155223297Y-140949556D01*
X155291706Y-140910060D01*
X155347561Y-140854205D01*
X155357501Y-140836988D01*
X155357501Y-141588881D01*
X155384604Y-141583491D01*
X155384611Y-141583489D01*
X155557488Y-141511882D01*
X155557501Y-141511875D01*
X155713090Y-141407913D01*
X155713094Y-141407910D01*
X155845414Y-141275590D01*
X155952765Y-141114928D01*
X155953868Y-141115665D01*
X155998047Y-141070675D01*
X156066182Y-141055203D01*
X156105915Y-141064401D01*
X156209564Y-141107334D01*
X156209572Y-141107336D01*
X156373778Y-141139999D01*
X156373781Y-141140000D01*
X156541221Y-141140000D01*
X156541223Y-141139999D01*
X156705429Y-141107336D01*
X156705433Y-141107335D01*
X156834393Y-141053918D01*
X156903863Y-141046449D01*
X156929296Y-141053916D01*
X157059419Y-141107816D01*
X157221215Y-141139999D01*
X157223729Y-141140499D01*
X157223733Y-141140500D01*
X157223734Y-141140500D01*
X157391269Y-141140500D01*
X157391270Y-141140499D01*
X157555583Y-141107816D01*
X157685049Y-141054188D01*
X157754517Y-141046720D01*
X157779951Y-141054188D01*
X157909419Y-141107816D01*
X158071215Y-141139999D01*
X158073729Y-141140499D01*
X158073733Y-141140500D01*
X158073734Y-141140500D01*
X158241269Y-141140500D01*
X158241270Y-141140499D01*
X158405583Y-141107816D01*
X158535049Y-141054188D01*
X158604517Y-141046720D01*
X158629951Y-141054188D01*
X158759419Y-141107816D01*
X158921215Y-141139999D01*
X158923729Y-141140499D01*
X158923733Y-141140500D01*
X158923734Y-141140500D01*
X159091269Y-141140500D01*
X159091270Y-141140499D01*
X159255583Y-141107816D01*
X159385049Y-141054188D01*
X159454517Y-141046720D01*
X159479951Y-141054188D01*
X159609419Y-141107816D01*
X159771215Y-141139999D01*
X159773729Y-141140499D01*
X159773733Y-141140500D01*
X159773734Y-141140500D01*
X159941269Y-141140500D01*
X159941270Y-141140499D01*
X160005182Y-141127786D01*
X160104740Y-141107984D01*
X160112981Y-141108721D01*
X160120751Y-141105871D01*
X160147267Y-141111789D01*
X160174331Y-141114211D01*
X160182630Y-141119682D01*
X160188943Y-141121091D01*
X160202596Y-141132843D01*
X160217083Y-141142393D01*
X160225189Y-141150587D01*
X160226981Y-141153690D01*
X160338785Y-141265494D01*
X160338787Y-141265495D01*
X160346142Y-141272850D01*
X161187666Y-142114374D01*
X161187676Y-142114385D01*
X161192006Y-142118715D01*
X161192007Y-142118716D01*
X161303811Y-142230520D01*
X161380898Y-142275025D01*
X161390622Y-142280639D01*
X161390624Y-142280641D01*
X161414466Y-142294406D01*
X161440742Y-142309577D01*
X161593470Y-142350501D01*
X161593473Y-142350501D01*
X161759180Y-142350501D01*
X161759196Y-142350500D01*
X162771260Y-142350500D01*
X162838299Y-142370185D01*
X162884054Y-142422989D01*
X162893998Y-142492147D01*
X162885821Y-142521953D01*
X162844009Y-142622894D01*
X162844007Y-142622902D01*
X162807501Y-142806428D01*
X162807501Y-143050000D01*
X163457501Y-143050000D01*
X163457501Y-143550000D01*
X162807501Y-143550000D01*
X162807501Y-143793571D01*
X162844007Y-143977097D01*
X162844009Y-143977105D01*
X162915620Y-144149991D01*
X162915625Y-144150000D01*
X163019587Y-144305589D01*
X163019590Y-144305593D01*
X163041816Y-144327819D01*
X163075301Y-144389142D01*
X163070317Y-144458834D01*
X163028445Y-144514767D01*
X162962981Y-144539184D01*
X162954135Y-144539500D01*
X155910867Y-144539500D01*
X155843828Y-144519815D01*
X155798073Y-144467011D01*
X155788129Y-144397853D01*
X155817154Y-144334297D01*
X155823186Y-144327819D01*
X155845411Y-144305593D01*
X155845414Y-144305589D01*
X155949376Y-144150000D01*
X155949381Y-144149991D01*
X156020992Y-143977105D01*
X156020994Y-143977097D01*
X156057500Y-143793571D01*
X156057501Y-143793569D01*
X156057501Y-143550000D01*
X155407501Y-143550000D01*
X155407501Y-143050000D01*
X156057501Y-143050000D01*
X156057501Y-142806430D01*
X156057500Y-142806428D01*
X156020994Y-142622902D01*
X156020992Y-142622894D01*
X155949381Y-142450008D01*
X155949376Y-142449999D01*
X155845414Y-142294410D01*
X155845411Y-142294406D01*
X155713094Y-142162089D01*
X155713090Y-142162086D01*
X155557501Y-142058124D01*
X155557492Y-142058119D01*
X155384604Y-141986507D01*
X155384601Y-141986506D01*
X155357501Y-141981115D01*
X155357501Y-142733011D01*
X155347561Y-142715795D01*
X155291706Y-142659940D01*
X155223297Y-142620444D01*
X155146997Y-142600000D01*
X155068005Y-142600000D01*
X154991705Y-142620444D01*
X154923296Y-142659940D01*
X154867441Y-142715795D01*
X154857501Y-142733011D01*
X154857501Y-141981116D01*
X154857500Y-141981115D01*
X154830400Y-141986506D01*
X154830397Y-141986507D01*
X154657509Y-142058119D01*
X154657500Y-142058124D01*
X154501911Y-142162086D01*
X154501907Y-142162089D01*
X154369590Y-142294406D01*
X154369587Y-142294410D01*
X154265625Y-142449999D01*
X154265620Y-142450008D01*
X154194009Y-142622894D01*
X154194007Y-142622902D01*
X154157501Y-142806428D01*
X154157501Y-143050000D01*
X154807501Y-143050000D01*
X154807501Y-143550000D01*
X154157501Y-143550000D01*
X154157501Y-143793571D01*
X154194007Y-143977097D01*
X154194009Y-143977105D01*
X154265620Y-144149991D01*
X154265625Y-144150000D01*
X154369587Y-144305589D01*
X154369590Y-144305593D01*
X154391816Y-144327819D01*
X154425301Y-144389142D01*
X154420317Y-144458834D01*
X154378445Y-144514767D01*
X154312981Y-144539184D01*
X154304135Y-144539500D01*
X144474500Y-144539500D01*
X144407461Y-144519815D01*
X144361706Y-144467011D01*
X144350500Y-144415500D01*
X144350500Y-142033713D01*
X146209500Y-142033713D01*
X146209500Y-142246286D01*
X146228676Y-142367362D01*
X146242754Y-142456243D01*
X146296902Y-142622894D01*
X146308444Y-142658414D01*
X146404951Y-142847820D01*
X146529890Y-143019786D01*
X146680213Y-143170109D01*
X146852179Y-143295048D01*
X146852181Y-143295049D01*
X146852184Y-143295051D01*
X147041588Y-143391557D01*
X147243757Y-143457246D01*
X147453713Y-143490500D01*
X147453714Y-143490500D01*
X147666286Y-143490500D01*
X147666287Y-143490500D01*
X147876243Y-143457246D01*
X148078412Y-143391557D01*
X148267816Y-143295051D01*
X148289789Y-143279086D01*
X148439786Y-143170109D01*
X148439788Y-143170106D01*
X148439792Y-143170104D01*
X148590104Y-143019792D01*
X148590106Y-143019788D01*
X148590109Y-143019786D01*
X148715048Y-142847820D01*
X148715047Y-142847820D01*
X148715051Y-142847816D01*
X148811557Y-142658412D01*
X148877246Y-142456243D01*
X148910500Y-142246287D01*
X148910500Y-142033713D01*
X148877246Y-141823757D01*
X148811557Y-141621588D01*
X148715051Y-141432184D01*
X148715049Y-141432181D01*
X148715048Y-141432179D01*
X148590109Y-141260213D01*
X148439786Y-141109890D01*
X148267820Y-140984951D01*
X148078414Y-140888444D01*
X148078413Y-140888443D01*
X148078412Y-140888443D01*
X147876243Y-140822754D01*
X147876241Y-140822753D01*
X147876240Y-140822753D01*
X147714957Y-140797208D01*
X147666287Y-140789500D01*
X147453713Y-140789500D01*
X147405042Y-140797208D01*
X147243760Y-140822753D01*
X147041585Y-140888444D01*
X146852179Y-140984951D01*
X146680213Y-141109890D01*
X146529890Y-141260213D01*
X146404951Y-141432179D01*
X146308444Y-141621585D01*
X146242753Y-141823760D01*
X146209500Y-142033713D01*
X144350500Y-142033713D01*
X144350500Y-133531153D01*
X150979500Y-133531153D01*
X150979500Y-133688846D01*
X151010261Y-133843489D01*
X151010264Y-133843501D01*
X151070602Y-133989172D01*
X151070609Y-133989185D01*
X151158210Y-134120288D01*
X151158213Y-134120292D01*
X151269707Y-134231786D01*
X151269711Y-134231789D01*
X151400814Y-134319390D01*
X151400827Y-134319397D01*
X151546498Y-134379735D01*
X151546503Y-134379737D01*
X151701153Y-134410499D01*
X151701156Y-134410500D01*
X151701158Y-134410500D01*
X151858844Y-134410500D01*
X151858845Y-134410499D01*
X152013497Y-134379737D01*
X152159179Y-134319394D01*
X152290289Y-134231789D01*
X152401789Y-134120289D01*
X152489394Y-133989179D01*
X152549737Y-133843497D01*
X152580500Y-133688842D01*
X152580500Y-133531158D01*
X152580500Y-133531155D01*
X152580499Y-133531153D01*
X152549738Y-133376510D01*
X152549737Y-133376503D01*
X152534824Y-133340499D01*
X152489397Y-133230827D01*
X152489390Y-133230814D01*
X152401789Y-133099711D01*
X152401786Y-133099707D01*
X152290292Y-132988213D01*
X152290288Y-132988210D01*
X152159185Y-132900609D01*
X152159172Y-132900602D01*
X152013501Y-132840264D01*
X152013489Y-132840261D01*
X151858845Y-132809500D01*
X151858842Y-132809500D01*
X151701158Y-132809500D01*
X151701155Y-132809500D01*
X151546510Y-132840261D01*
X151546498Y-132840264D01*
X151400827Y-132900602D01*
X151400814Y-132900609D01*
X151269711Y-132988210D01*
X151269707Y-132988213D01*
X151158213Y-133099707D01*
X151158210Y-133099711D01*
X151070609Y-133230814D01*
X151070602Y-133230827D01*
X151010264Y-133376498D01*
X151010261Y-133376510D01*
X150979500Y-133531153D01*
X144350500Y-133531153D01*
X144350500Y-132461153D01*
X172319500Y-132461153D01*
X172319500Y-132618846D01*
X172350261Y-132773489D01*
X172350264Y-132773501D01*
X172410602Y-132919172D01*
X172410609Y-132919185D01*
X172498210Y-133050288D01*
X172498213Y-133050292D01*
X172609707Y-133161786D01*
X172609711Y-133161789D01*
X172740814Y-133249390D01*
X172740827Y-133249397D01*
X172886498Y-133309735D01*
X172886503Y-133309737D01*
X173041153Y-133340499D01*
X173041156Y-133340500D01*
X173041158Y-133340500D01*
X173198844Y-133340500D01*
X173198845Y-133340499D01*
X173353497Y-133309737D01*
X173499179Y-133249394D01*
X173630289Y-133161789D01*
X173741789Y-133050289D01*
X173829394Y-132919179D01*
X173889737Y-132773497D01*
X173920500Y-132618842D01*
X173920500Y-132461158D01*
X173920500Y-132461155D01*
X173920499Y-132461153D01*
X173889738Y-132306510D01*
X173889737Y-132306503D01*
X173857796Y-132229390D01*
X173829397Y-132160827D01*
X173829390Y-132160814D01*
X173741789Y-132029711D01*
X173741786Y-132029707D01*
X173630292Y-131918213D01*
X173630288Y-131918210D01*
X173499185Y-131830609D01*
X173499172Y-131830602D01*
X173353501Y-131770264D01*
X173353489Y-131770261D01*
X173198845Y-131739500D01*
X173198842Y-131739500D01*
X173041158Y-131739500D01*
X173041155Y-131739500D01*
X172886510Y-131770261D01*
X172886498Y-131770264D01*
X172740827Y-131830602D01*
X172740814Y-131830609D01*
X172609711Y-131918210D01*
X172609707Y-131918213D01*
X172498213Y-132029707D01*
X172498210Y-132029711D01*
X172410609Y-132160814D01*
X172410602Y-132160827D01*
X172350264Y-132306498D01*
X172350261Y-132306510D01*
X172319500Y-132461153D01*
X144350500Y-132461153D01*
X144350500Y-131441153D01*
X150599500Y-131441153D01*
X150599500Y-131598846D01*
X150630261Y-131753489D01*
X150630264Y-131753501D01*
X150690602Y-131899172D01*
X150690609Y-131899185D01*
X150778210Y-132030288D01*
X150778213Y-132030292D01*
X150889707Y-132141786D01*
X150889711Y-132141789D01*
X151020814Y-132229390D01*
X151020827Y-132229397D01*
X151166498Y-132289735D01*
X151166503Y-132289737D01*
X151321153Y-132320499D01*
X151321156Y-132320500D01*
X151321158Y-132320500D01*
X151478844Y-132320500D01*
X151478845Y-132320499D01*
X151633497Y-132289737D01*
X151779179Y-132229394D01*
X151910289Y-132141789D01*
X152021789Y-132030289D01*
X152109394Y-131899179D01*
X152169737Y-131753497D01*
X152200500Y-131598842D01*
X152200500Y-131441158D01*
X152200500Y-131441155D01*
X152200499Y-131441153D01*
X152169737Y-131286503D01*
X152150224Y-131239394D01*
X152109397Y-131140827D01*
X152109390Y-131140814D01*
X152021789Y-131009711D01*
X152021786Y-131009707D01*
X151910292Y-130898213D01*
X151910288Y-130898210D01*
X151779185Y-130810609D01*
X151779172Y-130810602D01*
X151633501Y-130750264D01*
X151633489Y-130750261D01*
X151478845Y-130719500D01*
X151478842Y-130719500D01*
X151321158Y-130719500D01*
X151321155Y-130719500D01*
X151166510Y-130750261D01*
X151166498Y-130750264D01*
X151020827Y-130810602D01*
X151020814Y-130810609D01*
X150889711Y-130898210D01*
X150889707Y-130898213D01*
X150778213Y-131009707D01*
X150778210Y-131009711D01*
X150690609Y-131140814D01*
X150690602Y-131140827D01*
X150630264Y-131286498D01*
X150630261Y-131286510D01*
X150599500Y-131441153D01*
X144350500Y-131441153D01*
X144350500Y-130451153D01*
X154259500Y-130451153D01*
X154259500Y-130608846D01*
X154290261Y-130763489D01*
X154290264Y-130763501D01*
X154350602Y-130909172D01*
X154350609Y-130909185D01*
X154438210Y-131040288D01*
X154438213Y-131040292D01*
X154549707Y-131151786D01*
X154549711Y-131151789D01*
X154680814Y-131239390D01*
X154680827Y-131239397D01*
X154794541Y-131286498D01*
X154826503Y-131299737D01*
X154981153Y-131330499D01*
X154981156Y-131330500D01*
X154981158Y-131330500D01*
X155138844Y-131330500D01*
X155138845Y-131330499D01*
X155293497Y-131299737D01*
X155439179Y-131239394D01*
X155570289Y-131151789D01*
X155681789Y-131040289D01*
X155769394Y-130909179D01*
X155773938Y-130898210D01*
X155810224Y-130810606D01*
X155829737Y-130763497D01*
X155860500Y-130608842D01*
X155860500Y-130451158D01*
X155860500Y-130451155D01*
X155860499Y-130451153D01*
X155829738Y-130296510D01*
X155829737Y-130296503D01*
X155829735Y-130296498D01*
X155769397Y-130150827D01*
X155769390Y-130150814D01*
X155681789Y-130019711D01*
X155681786Y-130019707D01*
X155570292Y-129908213D01*
X155570288Y-129908210D01*
X155439185Y-129820609D01*
X155439172Y-129820602D01*
X155293501Y-129760264D01*
X155293489Y-129760261D01*
X155138845Y-129729500D01*
X155138842Y-129729500D01*
X154981158Y-129729500D01*
X154981155Y-129729500D01*
X154826510Y-129760261D01*
X154826498Y-129760264D01*
X154680827Y-129820602D01*
X154680814Y-129820609D01*
X154549711Y-129908210D01*
X154549707Y-129908213D01*
X154438213Y-130019707D01*
X154438210Y-130019711D01*
X154350609Y-130150814D01*
X154350602Y-130150827D01*
X154290264Y-130296498D01*
X154290261Y-130296510D01*
X154259500Y-130451153D01*
X144350500Y-130451153D01*
X144350500Y-110081153D01*
X151289500Y-110081153D01*
X151289500Y-110238846D01*
X151320261Y-110393489D01*
X151320264Y-110393501D01*
X151380602Y-110539172D01*
X151380609Y-110539185D01*
X151468210Y-110670288D01*
X151468213Y-110670292D01*
X151579707Y-110781786D01*
X151579711Y-110781789D01*
X151710814Y-110869390D01*
X151710827Y-110869397D01*
X151856498Y-110929735D01*
X151856503Y-110929737D01*
X152011153Y-110960499D01*
X152011156Y-110960500D01*
X152011158Y-110960500D01*
X152168844Y-110960500D01*
X152168845Y-110960499D01*
X152323497Y-110929737D01*
X152469179Y-110869394D01*
X152600289Y-110781789D01*
X152711789Y-110670289D01*
X152799394Y-110539179D01*
X152859737Y-110393497D01*
X152890500Y-110238842D01*
X152890500Y-110081158D01*
X152890500Y-110081155D01*
X152890499Y-110081153D01*
X152859738Y-109926510D01*
X152859737Y-109926503D01*
X152859735Y-109926498D01*
X152799397Y-109780827D01*
X152799390Y-109780814D01*
X152711789Y-109649711D01*
X152711786Y-109649707D01*
X152600292Y-109538213D01*
X152600288Y-109538210D01*
X152469185Y-109450609D01*
X152469172Y-109450602D01*
X152323501Y-109390264D01*
X152323489Y-109390261D01*
X152168845Y-109359500D01*
X152168842Y-109359500D01*
X152011158Y-109359500D01*
X152011155Y-109359500D01*
X151856510Y-109390261D01*
X151856498Y-109390264D01*
X151710827Y-109450602D01*
X151710814Y-109450609D01*
X151579711Y-109538210D01*
X151579707Y-109538213D01*
X151468213Y-109649707D01*
X151468210Y-109649711D01*
X151380609Y-109780814D01*
X151380602Y-109780827D01*
X151320264Y-109926498D01*
X151320261Y-109926510D01*
X151289500Y-110081153D01*
X144350500Y-110081153D01*
X144350500Y-96951153D01*
X147519500Y-96951153D01*
X147519500Y-97108846D01*
X147550261Y-97263489D01*
X147550264Y-97263501D01*
X147610602Y-97409172D01*
X147610609Y-97409185D01*
X147698210Y-97540288D01*
X147698213Y-97540292D01*
X147809707Y-97651786D01*
X147809711Y-97651789D01*
X147940814Y-97739390D01*
X147940827Y-97739397D01*
X148085931Y-97799500D01*
X148086503Y-97799737D01*
X148239967Y-97830263D01*
X148241153Y-97830499D01*
X148241156Y-97830500D01*
X148241158Y-97830500D01*
X148398844Y-97830500D01*
X148398845Y-97830499D01*
X148553497Y-97799737D01*
X148699179Y-97739394D01*
X148708314Y-97733290D01*
X148830875Y-97651398D01*
X148897553Y-97630520D01*
X148899766Y-97630500D01*
X151108059Y-97630500D01*
X151175098Y-97650185D01*
X151220853Y-97702989D01*
X151230797Y-97772147D01*
X151201772Y-97835703D01*
X151195740Y-97842181D01*
X151118213Y-97919707D01*
X151118210Y-97919711D01*
X151030609Y-98050814D01*
X151030602Y-98050827D01*
X150970264Y-98196498D01*
X150970261Y-98196510D01*
X150939500Y-98351153D01*
X150939500Y-98508846D01*
X150970261Y-98663489D01*
X150970264Y-98663501D01*
X151030602Y-98809172D01*
X151030609Y-98809185D01*
X151118210Y-98940288D01*
X151118213Y-98940292D01*
X151229710Y-99051789D01*
X151295247Y-99095579D01*
X151340052Y-99149191D01*
X151348759Y-99218516D01*
X151329460Y-99267569D01*
X151320610Y-99280814D01*
X151320602Y-99280828D01*
X151260264Y-99426498D01*
X151260261Y-99426510D01*
X151229500Y-99581153D01*
X151229500Y-99738846D01*
X151260261Y-99893489D01*
X151260264Y-99893501D01*
X151320602Y-100039172D01*
X151320609Y-100039185D01*
X151408210Y-100170288D01*
X151408213Y-100170292D01*
X151519707Y-100281786D01*
X151519711Y-100281789D01*
X151650814Y-100369390D01*
X151650818Y-100369392D01*
X151650821Y-100369394D01*
X151705831Y-100392179D01*
X151760233Y-100436019D01*
X151782298Y-100502313D01*
X151765019Y-100570012D01*
X151733521Y-100603253D01*
X151734419Y-100604347D01*
X151729707Y-100608213D01*
X151618213Y-100719707D01*
X151618210Y-100719711D01*
X151530609Y-100850814D01*
X151530602Y-100850827D01*
X151470264Y-100996498D01*
X151470261Y-100996510D01*
X151439500Y-101151153D01*
X151439500Y-101308846D01*
X151470261Y-101463489D01*
X151470264Y-101463501D01*
X151530602Y-101609172D01*
X151530608Y-101609183D01*
X151580327Y-101683593D01*
X151601204Y-101750270D01*
X151582719Y-101817650D01*
X151580327Y-101821372D01*
X151540611Y-101880812D01*
X151540602Y-101880828D01*
X151480264Y-102026498D01*
X151480261Y-102026510D01*
X151449500Y-102181153D01*
X151449500Y-102245456D01*
X151429815Y-102312495D01*
X151377011Y-102358250D01*
X151372953Y-102360017D01*
X151250824Y-102410604D01*
X151250814Y-102410609D01*
X151119711Y-102498210D01*
X151119707Y-102498213D01*
X151008213Y-102609707D01*
X151008210Y-102609711D01*
X150920609Y-102740814D01*
X150920602Y-102740827D01*
X150860264Y-102886498D01*
X150860261Y-102886510D01*
X150829500Y-103041153D01*
X150829500Y-103198846D01*
X150860261Y-103353489D01*
X150860264Y-103353501D01*
X150920602Y-103499172D01*
X150920609Y-103499185D01*
X151008210Y-103630288D01*
X151008213Y-103630292D01*
X151119707Y-103741786D01*
X151119711Y-103741789D01*
X151164771Y-103771898D01*
X151209576Y-103825511D01*
X151218283Y-103894836D01*
X151188128Y-103957863D01*
X151164771Y-103978102D01*
X151119711Y-104008210D01*
X151119707Y-104008213D01*
X151008213Y-104119707D01*
X151008210Y-104119711D01*
X150920609Y-104250814D01*
X150920602Y-104250827D01*
X150860264Y-104396498D01*
X150860261Y-104396510D01*
X150829500Y-104551153D01*
X150829500Y-104708846D01*
X150860261Y-104863489D01*
X150860264Y-104863501D01*
X150920602Y-105009172D01*
X150920609Y-105009185D01*
X151008210Y-105140288D01*
X151008213Y-105140292D01*
X151119707Y-105251786D01*
X151119711Y-105251789D01*
X151250814Y-105339390D01*
X151250827Y-105339397D01*
X151402130Y-105402068D01*
X151401313Y-105404038D01*
X151451675Y-105437041D01*
X151480133Y-105500852D01*
X151469575Y-105569920D01*
X151426135Y-105620508D01*
X151369713Y-105658208D01*
X151369707Y-105658213D01*
X151258213Y-105769707D01*
X151258210Y-105769711D01*
X151170609Y-105900814D01*
X151170602Y-105900827D01*
X151110264Y-106046498D01*
X151110261Y-106046510D01*
X151079500Y-106201153D01*
X151079500Y-106358846D01*
X151110261Y-106513489D01*
X151110264Y-106513501D01*
X151170602Y-106659172D01*
X151170609Y-106659185D01*
X151258210Y-106790288D01*
X151258213Y-106790292D01*
X151369707Y-106901786D01*
X151369711Y-106901789D01*
X151500814Y-106989390D01*
X151500827Y-106989397D01*
X151646498Y-107049735D01*
X151646503Y-107049737D01*
X151801153Y-107080499D01*
X151801156Y-107080500D01*
X151801158Y-107080500D01*
X151958844Y-107080500D01*
X151958845Y-107080499D01*
X152113497Y-107049737D01*
X152259179Y-106989394D01*
X152390289Y-106901789D01*
X152501789Y-106790289D01*
X152589394Y-106659179D01*
X152649737Y-106513497D01*
X152680500Y-106358842D01*
X152680500Y-106201158D01*
X152680500Y-106201155D01*
X152680499Y-106201153D01*
X152649738Y-106046510D01*
X152649737Y-106046503D01*
X152649735Y-106046498D01*
X152589397Y-105900827D01*
X152589390Y-105900814D01*
X152501789Y-105769711D01*
X152501786Y-105769707D01*
X152390292Y-105658213D01*
X152390288Y-105658210D01*
X152259185Y-105570609D01*
X152259172Y-105570602D01*
X152107870Y-105507932D01*
X152108684Y-105505966D01*
X152058305Y-105472934D01*
X152029862Y-105409116D01*
X152040437Y-105340051D01*
X152083864Y-105289490D01*
X152140289Y-105251789D01*
X152251789Y-105140289D01*
X152339394Y-105009179D01*
X152399737Y-104863497D01*
X152430500Y-104708842D01*
X152430500Y-104551158D01*
X152430500Y-104551155D01*
X152430499Y-104551153D01*
X152406253Y-104429257D01*
X152402651Y-104411153D01*
X153169500Y-104411153D01*
X153169500Y-104568846D01*
X153200261Y-104723489D01*
X153200264Y-104723501D01*
X153260602Y-104869172D01*
X153260609Y-104869185D01*
X153348210Y-105000288D01*
X153348213Y-105000292D01*
X153459707Y-105111786D01*
X153459711Y-105111789D01*
X153590814Y-105199390D01*
X153590827Y-105199397D01*
X153736498Y-105259735D01*
X153736503Y-105259737D01*
X153886075Y-105289489D01*
X153891153Y-105290499D01*
X153891156Y-105290500D01*
X153891158Y-105290500D01*
X154048844Y-105290500D01*
X154048845Y-105290499D01*
X154203497Y-105259737D01*
X154270574Y-105231953D01*
X154328048Y-105208147D01*
X154397517Y-105200678D01*
X154459996Y-105231953D01*
X154495648Y-105292042D01*
X154499500Y-105322708D01*
X154499500Y-106822351D01*
X154479815Y-106889390D01*
X154427011Y-106935145D01*
X154357853Y-106945089D01*
X154351310Y-106943969D01*
X154328842Y-106939500D01*
X154171158Y-106939500D01*
X154171155Y-106939500D01*
X154016510Y-106970261D01*
X154016498Y-106970264D01*
X153870827Y-107030602D01*
X153870814Y-107030609D01*
X153739711Y-107118210D01*
X153739707Y-107118213D01*
X153628213Y-107229707D01*
X153628210Y-107229711D01*
X153540609Y-107360814D01*
X153540602Y-107360827D01*
X153480264Y-107506498D01*
X153480261Y-107506510D01*
X153449500Y-107661153D01*
X153449500Y-107818846D01*
X153480261Y-107973489D01*
X153480264Y-107973501D01*
X153540602Y-108119172D01*
X153540609Y-108119185D01*
X153628210Y-108250288D01*
X153628213Y-108250292D01*
X153739707Y-108361786D01*
X153739711Y-108361789D01*
X153870814Y-108449390D01*
X153870827Y-108449397D01*
X154000499Y-108503108D01*
X154016503Y-108509737D01*
X154148691Y-108536031D01*
X154171153Y-108540499D01*
X154171156Y-108540500D01*
X154171158Y-108540500D01*
X154328842Y-108540500D01*
X154351308Y-108536031D01*
X154420898Y-108542257D01*
X154476076Y-108585119D01*
X154499322Y-108651008D01*
X154499500Y-108657648D01*
X154499500Y-118123330D01*
X154499499Y-118123348D01*
X154499499Y-118289054D01*
X154499498Y-118289054D01*
X154540423Y-118441785D01*
X154569358Y-118491900D01*
X154569359Y-118491904D01*
X154569360Y-118491904D01*
X154619479Y-118578714D01*
X154619481Y-118578717D01*
X154738349Y-118697585D01*
X154738355Y-118697590D01*
X161270139Y-125229374D01*
X161270149Y-125229385D01*
X161274479Y-125233715D01*
X161274480Y-125233716D01*
X161386284Y-125345520D01*
X161437845Y-125375288D01*
X161473095Y-125395639D01*
X161473097Y-125395641D01*
X161523213Y-125424576D01*
X161523215Y-125424577D01*
X161675942Y-125465500D01*
X161675943Y-125465500D01*
X169200234Y-125465500D01*
X169267273Y-125485185D01*
X169269125Y-125486398D01*
X169400814Y-125574390D01*
X169400827Y-125574397D01*
X169546498Y-125634735D01*
X169546503Y-125634737D01*
X169701153Y-125665499D01*
X169701156Y-125665500D01*
X169701158Y-125665500D01*
X169858844Y-125665500D01*
X169858845Y-125665499D01*
X170013497Y-125634737D01*
X170159179Y-125574394D01*
X170290289Y-125486789D01*
X170401789Y-125375289D01*
X170489394Y-125244179D01*
X170549737Y-125098497D01*
X170580500Y-124943842D01*
X170580500Y-124786158D01*
X170580500Y-124786155D01*
X170580499Y-124786153D01*
X170549738Y-124631510D01*
X170549737Y-124631503D01*
X170549735Y-124631498D01*
X170489397Y-124485827D01*
X170489390Y-124485814D01*
X170401789Y-124354711D01*
X170401786Y-124354707D01*
X170387259Y-124340180D01*
X170353774Y-124278857D01*
X170358758Y-124209165D01*
X170387259Y-124164818D01*
X170431789Y-124120289D01*
X170519394Y-123989179D01*
X170579737Y-123843497D01*
X170610500Y-123688842D01*
X170610500Y-123531158D01*
X170610500Y-123531155D01*
X170610499Y-123531153D01*
X170579738Y-123376510D01*
X170579737Y-123376503D01*
X170579735Y-123376498D01*
X170519397Y-123230827D01*
X170519390Y-123230814D01*
X170431789Y-123099711D01*
X170431786Y-123099707D01*
X170392259Y-123060180D01*
X170358774Y-122998857D01*
X170363758Y-122929165D01*
X170392256Y-122884821D01*
X170441789Y-122835289D01*
X170529394Y-122704179D01*
X170589737Y-122558497D01*
X170620500Y-122403842D01*
X170620500Y-122246158D01*
X170620500Y-122246155D01*
X170620499Y-122246153D01*
X170589738Y-122091510D01*
X170589737Y-122091503D01*
X170589735Y-122091498D01*
X170529397Y-121945827D01*
X170529390Y-121945814D01*
X170441789Y-121814711D01*
X170441786Y-121814707D01*
X170407260Y-121780182D01*
X170373774Y-121718860D01*
X170378758Y-121649168D01*
X170407260Y-121604818D01*
X170441786Y-121570292D01*
X170441789Y-121570289D01*
X170529394Y-121439179D01*
X170589737Y-121293497D01*
X170620500Y-121138842D01*
X170620500Y-120981158D01*
X170620500Y-120981155D01*
X170620499Y-120981153D01*
X170589738Y-120826510D01*
X170589737Y-120826503D01*
X170589735Y-120826498D01*
X170529397Y-120680827D01*
X170529390Y-120680814D01*
X170441787Y-120549707D01*
X170441222Y-120549019D01*
X170441039Y-120548588D01*
X170438405Y-120544646D01*
X170439152Y-120544146D01*
X170413913Y-120484707D01*
X170425709Y-120415840D01*
X170449402Y-120382675D01*
X170451789Y-120380289D01*
X170539394Y-120249179D01*
X170599737Y-120103497D01*
X170630500Y-119948842D01*
X170630500Y-119791158D01*
X170630500Y-119791155D01*
X170630499Y-119791153D01*
X170599738Y-119636510D01*
X170599737Y-119636503D01*
X170599735Y-119636498D01*
X170539397Y-119490827D01*
X170539390Y-119490814D01*
X170451789Y-119359711D01*
X170451786Y-119359707D01*
X170414759Y-119322680D01*
X170381274Y-119261357D01*
X170386258Y-119191665D01*
X170414761Y-119147316D01*
X170421789Y-119140289D01*
X170509394Y-119009179D01*
X170569737Y-118863497D01*
X170600500Y-118708842D01*
X170600500Y-118551158D01*
X170600500Y-118551155D01*
X170600499Y-118551153D01*
X170569737Y-118396503D01*
X170525231Y-118289054D01*
X170509397Y-118250827D01*
X170509390Y-118250814D01*
X170421789Y-118119711D01*
X170421786Y-118119707D01*
X170310292Y-118008213D01*
X170310288Y-118008210D01*
X170292643Y-117996420D01*
X170247838Y-117942808D01*
X170239131Y-117873483D01*
X170269285Y-117810456D01*
X170285909Y-117796052D01*
X170285581Y-117795653D01*
X170290285Y-117791791D01*
X170290289Y-117791789D01*
X170401789Y-117680289D01*
X170489394Y-117549179D01*
X170549737Y-117403497D01*
X170580500Y-117248842D01*
X170580500Y-117091158D01*
X170580500Y-117091155D01*
X170580499Y-117091153D01*
X170549738Y-116936510D01*
X170549737Y-116936503D01*
X170549735Y-116936498D01*
X170489397Y-116790827D01*
X170489390Y-116790814D01*
X170398476Y-116654753D01*
X170377598Y-116588076D01*
X170396082Y-116520696D01*
X170408276Y-116505288D01*
X170407924Y-116504999D01*
X170411784Y-116500293D01*
X170411789Y-116500289D01*
X170499394Y-116369179D01*
X170559737Y-116223497D01*
X170590500Y-116068842D01*
X170590500Y-115911158D01*
X170590500Y-115911155D01*
X170590499Y-115911153D01*
X170559738Y-115756510D01*
X170559737Y-115756503D01*
X170559735Y-115756498D01*
X170499397Y-115610827D01*
X170499390Y-115610814D01*
X170411789Y-115479711D01*
X170411786Y-115479707D01*
X170384760Y-115452681D01*
X170351275Y-115391358D01*
X170356259Y-115321666D01*
X170384760Y-115277319D01*
X170411786Y-115250292D01*
X170411789Y-115250289D01*
X170499394Y-115119179D01*
X170559737Y-114973497D01*
X170590500Y-114818842D01*
X170590500Y-114661158D01*
X170590500Y-114661155D01*
X170590499Y-114661153D01*
X170559738Y-114506510D01*
X170559737Y-114506503D01*
X170559735Y-114506498D01*
X170499397Y-114360827D01*
X170499390Y-114360814D01*
X170411789Y-114229711D01*
X170411786Y-114229707D01*
X170300292Y-114118213D01*
X170300288Y-114118210D01*
X170169185Y-114030609D01*
X170169172Y-114030602D01*
X170023501Y-113970264D01*
X170023489Y-113970261D01*
X169868845Y-113939500D01*
X169868842Y-113939500D01*
X169711158Y-113939500D01*
X169711155Y-113939500D01*
X169556510Y-113970261D01*
X169556498Y-113970264D01*
X169410827Y-114030602D01*
X169410814Y-114030609D01*
X169279125Y-114118602D01*
X169212447Y-114139480D01*
X169210234Y-114139500D01*
X163340097Y-114139500D01*
X163273058Y-114119815D01*
X163252416Y-114103181D01*
X161596819Y-112447584D01*
X161563334Y-112386261D01*
X161560500Y-112359903D01*
X161560500Y-107261153D01*
X168579500Y-107261153D01*
X168579500Y-107418846D01*
X168610261Y-107573489D01*
X168610264Y-107573501D01*
X168670602Y-107719172D01*
X168670609Y-107719185D01*
X168758210Y-107850288D01*
X168758213Y-107850292D01*
X168869707Y-107961786D01*
X168869711Y-107961789D01*
X169000814Y-108049390D01*
X169000827Y-108049397D01*
X169146498Y-108109735D01*
X169146503Y-108109737D01*
X169301153Y-108140499D01*
X169301156Y-108140500D01*
X169301158Y-108140500D01*
X169458844Y-108140500D01*
X169458845Y-108140499D01*
X169613497Y-108109737D01*
X169759179Y-108049394D01*
X169890289Y-107961789D01*
X170001789Y-107850289D01*
X170089394Y-107719179D01*
X170149737Y-107573497D01*
X170180500Y-107418842D01*
X170180500Y-107261158D01*
X170180500Y-107261155D01*
X170180499Y-107261153D01*
X170152066Y-107118211D01*
X170149737Y-107106503D01*
X170138966Y-107080499D01*
X170089397Y-106960827D01*
X170089390Y-106960814D01*
X170001789Y-106829711D01*
X170001786Y-106829707D01*
X169890292Y-106718213D01*
X169890288Y-106718210D01*
X169759185Y-106630609D01*
X169759172Y-106630602D01*
X169613501Y-106570264D01*
X169613489Y-106570261D01*
X169458845Y-106539500D01*
X169458842Y-106539500D01*
X169301158Y-106539500D01*
X169301155Y-106539500D01*
X169146510Y-106570261D01*
X169146498Y-106570264D01*
X169000827Y-106630602D01*
X169000814Y-106630609D01*
X168869711Y-106718210D01*
X168869707Y-106718213D01*
X168758213Y-106829707D01*
X168758210Y-106829711D01*
X168670609Y-106960814D01*
X168670602Y-106960827D01*
X168610264Y-107106498D01*
X168610261Y-107106510D01*
X168579500Y-107261153D01*
X161560500Y-107261153D01*
X161560500Y-104519765D01*
X161580185Y-104452726D01*
X161581398Y-104450874D01*
X161607936Y-104411158D01*
X161669394Y-104319179D01*
X161729737Y-104173497D01*
X161760500Y-104018842D01*
X161760500Y-103868271D01*
X161780185Y-103801232D01*
X161832989Y-103755477D01*
X161902147Y-103745533D01*
X161931951Y-103753709D01*
X161946503Y-103759737D01*
X162101153Y-103790499D01*
X162101156Y-103790500D01*
X162101158Y-103790500D01*
X162258844Y-103790500D01*
X162258845Y-103790499D01*
X162413497Y-103759737D01*
X162559179Y-103699394D01*
X162690289Y-103611789D01*
X162801789Y-103500289D01*
X162889394Y-103369179D01*
X162890130Y-103367402D01*
X162921713Y-103291153D01*
X163969500Y-103291153D01*
X163969500Y-103448846D01*
X164000261Y-103603489D01*
X164000264Y-103603501D01*
X164060602Y-103749172D01*
X164060609Y-103749185D01*
X164148210Y-103880288D01*
X164148213Y-103880292D01*
X164259707Y-103991786D01*
X164259711Y-103991789D01*
X164390814Y-104079390D01*
X164390827Y-104079397D01*
X164532816Y-104138210D01*
X164536503Y-104139737D01*
X164691153Y-104170499D01*
X164691156Y-104170500D01*
X164691158Y-104170500D01*
X164848844Y-104170500D01*
X164848845Y-104170499D01*
X165003497Y-104139737D01*
X165149179Y-104079394D01*
X165280289Y-103991789D01*
X165391789Y-103880289D01*
X165479394Y-103749179D01*
X165539737Y-103603497D01*
X165570500Y-103448842D01*
X165570500Y-103291158D01*
X165570500Y-103291155D01*
X165570499Y-103291153D01*
X165557040Y-103223489D01*
X165539737Y-103136503D01*
X165512071Y-103069711D01*
X165479397Y-102990827D01*
X165479390Y-102990814D01*
X165391789Y-102859711D01*
X165391786Y-102859707D01*
X165280292Y-102748213D01*
X165280288Y-102748210D01*
X165149185Y-102660609D01*
X165149172Y-102660602D01*
X165003501Y-102600264D01*
X165003489Y-102600261D01*
X164848845Y-102569500D01*
X164848842Y-102569500D01*
X164691158Y-102569500D01*
X164691155Y-102569500D01*
X164536510Y-102600261D01*
X164536498Y-102600264D01*
X164390827Y-102660602D01*
X164390814Y-102660609D01*
X164259711Y-102748210D01*
X164259707Y-102748213D01*
X164148213Y-102859707D01*
X164148210Y-102859711D01*
X164060609Y-102990814D01*
X164060602Y-102990827D01*
X164000264Y-103136498D01*
X164000261Y-103136510D01*
X163969500Y-103291153D01*
X162921713Y-103291153D01*
X162943887Y-103237621D01*
X162943887Y-103237618D01*
X162949737Y-103223497D01*
X162980500Y-103068842D01*
X162980500Y-102911158D01*
X162980500Y-102911155D01*
X162980499Y-102911153D01*
X162974658Y-102881789D01*
X162949737Y-102756503D01*
X162943241Y-102740821D01*
X162889397Y-102610827D01*
X162889390Y-102610814D01*
X162801789Y-102479711D01*
X162801786Y-102479707D01*
X162690292Y-102368213D01*
X162690288Y-102368210D01*
X162559185Y-102280609D01*
X162559172Y-102280602D01*
X162413501Y-102220264D01*
X162413489Y-102220261D01*
X162258845Y-102189500D01*
X162258842Y-102189500D01*
X162217902Y-102189500D01*
X162191118Y-102181635D01*
X162163593Y-102176974D01*
X162158052Y-102171926D01*
X162150863Y-102169815D01*
X162132585Y-102148721D01*
X162111946Y-102129916D01*
X162108401Y-102120811D01*
X162105108Y-102117011D01*
X162098090Y-102097456D01*
X162097062Y-102093603D01*
X162079737Y-102006503D01*
X162063152Y-101966463D01*
X162061040Y-101958544D01*
X162061715Y-101931481D01*
X162058822Y-101904570D01*
X162062573Y-101897074D01*
X162062783Y-101888696D01*
X162077980Y-101866297D01*
X162090098Y-101842091D01*
X162093143Y-101838934D01*
X162171789Y-101760289D01*
X162259394Y-101629179D01*
X162319737Y-101483497D01*
X162350500Y-101328842D01*
X162350500Y-101171158D01*
X162350500Y-101171155D01*
X162350499Y-101171153D01*
X162336398Y-101100263D01*
X162319737Y-101016503D01*
X162293225Y-100952499D01*
X162285757Y-100883030D01*
X162304683Y-100836159D01*
X162329394Y-100799179D01*
X162389737Y-100653497D01*
X162420500Y-100498842D01*
X162420500Y-100491153D01*
X164729138Y-100491153D01*
X164729138Y-100648846D01*
X164759899Y-100803489D01*
X164759902Y-100803501D01*
X164820240Y-100949172D01*
X164820247Y-100949185D01*
X164907848Y-101080288D01*
X164907851Y-101080292D01*
X165019345Y-101191786D01*
X165019349Y-101191789D01*
X165150452Y-101279390D01*
X165150465Y-101279397D01*
X165273061Y-101330177D01*
X165296141Y-101339737D01*
X165450791Y-101370499D01*
X165450794Y-101370500D01*
X165450796Y-101370500D01*
X165608482Y-101370500D01*
X165608483Y-101370499D01*
X165763135Y-101339737D01*
X165908817Y-101279394D01*
X166010245Y-101211622D01*
X166076922Y-101190744D01*
X166144302Y-101209228D01*
X166190993Y-101261207D01*
X166202169Y-101330177D01*
X166182238Y-101383615D01*
X166110609Y-101490814D01*
X166110602Y-101490827D01*
X166050264Y-101636498D01*
X166050261Y-101636510D01*
X166019500Y-101791153D01*
X166019500Y-101948846D01*
X166050261Y-102103489D01*
X166050264Y-102103501D01*
X166110602Y-102249172D01*
X166110609Y-102249185D01*
X166198210Y-102380288D01*
X166198213Y-102380292D01*
X166314018Y-102496097D01*
X166312434Y-102497680D01*
X166346119Y-102547139D01*
X166349734Y-102609430D01*
X166329500Y-102711153D01*
X166329500Y-102868846D01*
X166360261Y-103023489D01*
X166360264Y-103023501D01*
X166420602Y-103169172D01*
X166420609Y-103169185D01*
X166508210Y-103300288D01*
X166508213Y-103300292D01*
X166619707Y-103411786D01*
X166619711Y-103411789D01*
X166750814Y-103499390D01*
X166750827Y-103499397D01*
X166896440Y-103559711D01*
X166896503Y-103559737D01*
X167039917Y-103588264D01*
X167051153Y-103590499D01*
X167051156Y-103590500D01*
X167051158Y-103590500D01*
X167208844Y-103590500D01*
X167208845Y-103590499D01*
X167363497Y-103559737D01*
X167476166Y-103513067D01*
X167509172Y-103499397D01*
X167509172Y-103499396D01*
X167509179Y-103499394D01*
X167640289Y-103411789D01*
X167751789Y-103300289D01*
X167839394Y-103169179D01*
X167899737Y-103023497D01*
X167930500Y-102868842D01*
X167930500Y-102711158D01*
X167930500Y-102711155D01*
X167930499Y-102711153D01*
X167920445Y-102660609D01*
X167899737Y-102556503D01*
X167875592Y-102498211D01*
X167839397Y-102410827D01*
X167839390Y-102410814D01*
X167751789Y-102279711D01*
X167751786Y-102279707D01*
X167635982Y-102163903D01*
X167637564Y-102162320D01*
X167603878Y-102112853D01*
X167600265Y-102050568D01*
X167620500Y-101948844D01*
X167620500Y-101791155D01*
X167620499Y-101791153D01*
X167608277Y-101729711D01*
X167589737Y-101636503D01*
X167586703Y-101629179D01*
X167529397Y-101490827D01*
X167529390Y-101490814D01*
X167441789Y-101359711D01*
X167441786Y-101359707D01*
X167330292Y-101248213D01*
X167330288Y-101248210D01*
X167199185Y-101160609D01*
X167199172Y-101160602D01*
X167053501Y-101100264D01*
X167053489Y-101100261D01*
X166898845Y-101069500D01*
X166898842Y-101069500D01*
X166741158Y-101069500D01*
X166741155Y-101069500D01*
X166586510Y-101100261D01*
X166586498Y-101100264D01*
X166440827Y-101160602D01*
X166440816Y-101160608D01*
X166339391Y-101228378D01*
X166272713Y-101249255D01*
X166205333Y-101230770D01*
X166158644Y-101178791D01*
X166147468Y-101109821D01*
X166167397Y-101056388D01*
X166239032Y-100949179D01*
X166299375Y-100803497D01*
X166299375Y-100803496D01*
X166301706Y-100797869D01*
X166303083Y-100798439D01*
X166337320Y-100746179D01*
X166401128Y-100717713D01*
X166465150Y-100726040D01*
X166546498Y-100759735D01*
X166546503Y-100759737D01*
X166642002Y-100778733D01*
X166701153Y-100790499D01*
X166701156Y-100790500D01*
X166701158Y-100790500D01*
X166858844Y-100790500D01*
X166858845Y-100790499D01*
X167013497Y-100759737D01*
X167159179Y-100699394D01*
X167290289Y-100611789D01*
X167401789Y-100500289D01*
X167489394Y-100369179D01*
X167549737Y-100223497D01*
X167580500Y-100068842D01*
X167580500Y-99911158D01*
X167580500Y-99911155D01*
X167580499Y-99911153D01*
X167570445Y-99860609D01*
X167549737Y-99756503D01*
X167542423Y-99738846D01*
X167489397Y-99610827D01*
X167489390Y-99610814D01*
X167422509Y-99510720D01*
X167401631Y-99444043D01*
X167420115Y-99376662D01*
X167437928Y-99354149D01*
X167451789Y-99340289D01*
X167539394Y-99209179D01*
X167599737Y-99063497D01*
X167630500Y-98908842D01*
X167630500Y-98751158D01*
X167630500Y-98751155D01*
X167630499Y-98751153D01*
X167599737Y-98596503D01*
X167599735Y-98596498D01*
X167539397Y-98450827D01*
X167539390Y-98450814D01*
X167451789Y-98319711D01*
X167451786Y-98319707D01*
X167340292Y-98208213D01*
X167340288Y-98208210D01*
X167209185Y-98120609D01*
X167209172Y-98120602D01*
X167063501Y-98060264D01*
X167063489Y-98060261D01*
X166908845Y-98029500D01*
X166908842Y-98029500D01*
X166751158Y-98029500D01*
X166751155Y-98029500D01*
X166596510Y-98060261D01*
X166596503Y-98060263D01*
X166533937Y-98086178D01*
X166464468Y-98093645D01*
X166401989Y-98062370D01*
X166366337Y-98002280D01*
X166364869Y-97947424D01*
X166380500Y-97868844D01*
X166380500Y-97711155D01*
X166380499Y-97711153D01*
X166368613Y-97651398D01*
X166349737Y-97556503D01*
X166330691Y-97510522D01*
X166289397Y-97410827D01*
X166289390Y-97410814D01*
X166201789Y-97279711D01*
X166201786Y-97279707D01*
X166090292Y-97168213D01*
X166090288Y-97168210D01*
X165959185Y-97080609D01*
X165959172Y-97080602D01*
X165813501Y-97020264D01*
X165813489Y-97020261D01*
X165658845Y-96989500D01*
X165658842Y-96989500D01*
X165501158Y-96989500D01*
X165501155Y-96989500D01*
X165346510Y-97020261D01*
X165346498Y-97020264D01*
X165200827Y-97080602D01*
X165200814Y-97080609D01*
X165069711Y-97168210D01*
X165069707Y-97168213D01*
X164958213Y-97279707D01*
X164958210Y-97279711D01*
X164870609Y-97410814D01*
X164870602Y-97410827D01*
X164810264Y-97556498D01*
X164810261Y-97556510D01*
X164779500Y-97711153D01*
X164779500Y-97868846D01*
X164810261Y-98023489D01*
X164810264Y-98023501D01*
X164870602Y-98169172D01*
X164870609Y-98169185D01*
X164958210Y-98300288D01*
X164958213Y-98300292D01*
X165069707Y-98411786D01*
X165069711Y-98411789D01*
X165200814Y-98499390D01*
X165200827Y-98499397D01*
X165265906Y-98526353D01*
X165346503Y-98559737D01*
X165501153Y-98590499D01*
X165501156Y-98590500D01*
X165501158Y-98590500D01*
X165658844Y-98590500D01*
X165658845Y-98590499D01*
X165813497Y-98559737D01*
X165876062Y-98533821D01*
X165945529Y-98526353D01*
X166008008Y-98557628D01*
X166043661Y-98617716D01*
X166045131Y-98672573D01*
X166029500Y-98751158D01*
X166029500Y-98908846D01*
X166060261Y-99063489D01*
X166060264Y-99063501D01*
X166120602Y-99209172D01*
X166120609Y-99209185D01*
X166187490Y-99309279D01*
X166208368Y-99375957D01*
X166189883Y-99443337D01*
X166172072Y-99465849D01*
X166158210Y-99479711D01*
X166070609Y-99610814D01*
X166070602Y-99610827D01*
X166007932Y-99762130D01*
X166006562Y-99761562D01*
X165972279Y-99813851D01*
X165908460Y-99842292D01*
X165844486Y-99833959D01*
X165763139Y-99800264D01*
X165763127Y-99800261D01*
X165608483Y-99769500D01*
X165608480Y-99769500D01*
X165450796Y-99769500D01*
X165450793Y-99769500D01*
X165296148Y-99800261D01*
X165296136Y-99800264D01*
X165150465Y-99860602D01*
X165150452Y-99860609D01*
X165019349Y-99948210D01*
X165019345Y-99948213D01*
X164907851Y-100059707D01*
X164907848Y-100059711D01*
X164820247Y-100190814D01*
X164820240Y-100190827D01*
X164759902Y-100336498D01*
X164759899Y-100336510D01*
X164729138Y-100491153D01*
X162420500Y-100491153D01*
X162420500Y-100341158D01*
X162420500Y-100341155D01*
X162420499Y-100341153D01*
X162397096Y-100223501D01*
X162389737Y-100186503D01*
X162375357Y-100151786D01*
X162329397Y-100040827D01*
X162329390Y-100040814D01*
X162241789Y-99909711D01*
X162241786Y-99909707D01*
X162130292Y-99798213D01*
X162130288Y-99798210D01*
X162104328Y-99780864D01*
X162059523Y-99727252D01*
X162050816Y-99657927D01*
X162051588Y-99653639D01*
X162060500Y-99608842D01*
X162060500Y-99451158D01*
X162060500Y-99451155D01*
X162042233Y-99359325D01*
X162048460Y-99289733D01*
X162091322Y-99234556D01*
X162094923Y-99232055D01*
X162110289Y-99221789D01*
X162221789Y-99110289D01*
X162309394Y-98979179D01*
X162369737Y-98833497D01*
X162400500Y-98678842D01*
X162400500Y-98521158D01*
X162400500Y-98521155D01*
X162400499Y-98521153D01*
X162386509Y-98450821D01*
X162369737Y-98366503D01*
X162342312Y-98300292D01*
X162309397Y-98220827D01*
X162309390Y-98220814D01*
X162221789Y-98089711D01*
X162221786Y-98089707D01*
X162110292Y-97978213D01*
X162110288Y-97978210D01*
X161979185Y-97890609D01*
X161979172Y-97890602D01*
X161833501Y-97830264D01*
X161833489Y-97830261D01*
X161678845Y-97799500D01*
X161678842Y-97799500D01*
X161521158Y-97799500D01*
X161479436Y-97807799D01*
X161409845Y-97801570D01*
X161354668Y-97758707D01*
X161352144Y-97755072D01*
X161301789Y-97679711D01*
X161301786Y-97679707D01*
X161190292Y-97568213D01*
X161190288Y-97568210D01*
X161059185Y-97480609D01*
X161059172Y-97480602D01*
X160913501Y-97420264D01*
X160913489Y-97420261D01*
X160758845Y-97389500D01*
X160758842Y-97389500D01*
X160601158Y-97389500D01*
X160601155Y-97389500D01*
X160446510Y-97420261D01*
X160446498Y-97420264D01*
X160300827Y-97480602D01*
X160300814Y-97480609D01*
X160169711Y-97568210D01*
X160169707Y-97568213D01*
X160058213Y-97679707D01*
X160058210Y-97679711D01*
X159970609Y-97810814D01*
X159970602Y-97810827D01*
X159910264Y-97956498D01*
X159910261Y-97956510D01*
X159879500Y-98111153D01*
X159879500Y-98268846D01*
X159910261Y-98423489D01*
X159910264Y-98423501D01*
X159970602Y-98569172D01*
X159970609Y-98569185D01*
X160058210Y-98700288D01*
X160058213Y-98700292D01*
X160169707Y-98811786D01*
X160169711Y-98811789D01*
X160300814Y-98899390D01*
X160300827Y-98899397D01*
X160446498Y-98959735D01*
X160446503Y-98959737D01*
X160456184Y-98961662D01*
X160469078Y-98964228D01*
X160530989Y-98996613D01*
X160565563Y-99057329D01*
X160561824Y-99127098D01*
X160552818Y-99145093D01*
X160553479Y-99145446D01*
X160550602Y-99150827D01*
X160490264Y-99296498D01*
X160490261Y-99296510D01*
X160459500Y-99451153D01*
X160459500Y-99608846D01*
X160490261Y-99763489D01*
X160490264Y-99763501D01*
X160550602Y-99909172D01*
X160550609Y-99909185D01*
X160638210Y-100040288D01*
X160638213Y-100040292D01*
X160749707Y-100151786D01*
X160775671Y-100169135D01*
X160820475Y-100222748D01*
X160829182Y-100292073D01*
X160828397Y-100296426D01*
X160819500Y-100341158D01*
X160819500Y-100498846D01*
X160850260Y-100653488D01*
X160850263Y-100653498D01*
X160876773Y-100717499D01*
X160884242Y-100786969D01*
X160865315Y-100833841D01*
X160840608Y-100870817D01*
X160840602Y-100870828D01*
X160780264Y-101016498D01*
X160780261Y-101016510D01*
X160749500Y-101171153D01*
X160749500Y-101328846D01*
X160780260Y-101483488D01*
X160780263Y-101483498D01*
X160793709Y-101515959D01*
X160801178Y-101585429D01*
X160769902Y-101647908D01*
X160766829Y-101651092D01*
X160688213Y-101729707D01*
X160688210Y-101729711D01*
X160600609Y-101860814D01*
X160600602Y-101860827D01*
X160540264Y-102006498D01*
X160540261Y-102006510D01*
X160509497Y-102161164D01*
X160509471Y-102161438D01*
X160509417Y-102161571D01*
X160508311Y-102167132D01*
X160507255Y-102166922D01*
X160483302Y-102226222D01*
X160444526Y-102258625D01*
X160440819Y-102260606D01*
X160309711Y-102348210D01*
X160309707Y-102348213D01*
X160198213Y-102459707D01*
X160198210Y-102459711D01*
X160110609Y-102590814D01*
X160110602Y-102590827D01*
X160050264Y-102736498D01*
X160050261Y-102736510D01*
X160019500Y-102891153D01*
X160019500Y-103048846D01*
X160050260Y-103203486D01*
X160051718Y-103208291D01*
X160052343Y-103278158D01*
X160015097Y-103337272D01*
X159951803Y-103366865D01*
X159882559Y-103357541D01*
X159864168Y-103347392D01*
X159779190Y-103290612D01*
X159779172Y-103290602D01*
X159633501Y-103230264D01*
X159633489Y-103230261D01*
X159478845Y-103199500D01*
X159478842Y-103199500D01*
X159321158Y-103199500D01*
X159321155Y-103199500D01*
X159166510Y-103230261D01*
X159166498Y-103230264D01*
X159020828Y-103290602D01*
X159020815Y-103290609D01*
X158957055Y-103333213D01*
X158890377Y-103354091D01*
X158840712Y-103344672D01*
X158733501Y-103300264D01*
X158733489Y-103300261D01*
X158578845Y-103269500D01*
X158578842Y-103269500D01*
X158421158Y-103269500D01*
X158421155Y-103269500D01*
X158266510Y-103300261D01*
X158266498Y-103300264D01*
X158120827Y-103360602D01*
X158120814Y-103360609D01*
X157989711Y-103448210D01*
X157989707Y-103448213D01*
X157878213Y-103559707D01*
X157878210Y-103559711D01*
X157790609Y-103690814D01*
X157790606Y-103690820D01*
X157759629Y-103765605D01*
X157715787Y-103820008D01*
X157669261Y-103839768D01*
X157616507Y-103850262D01*
X157616498Y-103850264D01*
X157470827Y-103910602D01*
X157470814Y-103910609D01*
X157339711Y-103998210D01*
X157339707Y-103998213D01*
X157228213Y-104109707D01*
X157145358Y-104233707D01*
X157091745Y-104278511D01*
X157022420Y-104287218D01*
X156959393Y-104257063D01*
X156954575Y-104252496D01*
X156840292Y-104138213D01*
X156840288Y-104138210D01*
X156709185Y-104050609D01*
X156709172Y-104050602D01*
X156563501Y-103990264D01*
X156563493Y-103990262D01*
X156546075Y-103986797D01*
X156484164Y-103954410D01*
X156455708Y-103912633D01*
X156409395Y-103800823D01*
X156409390Y-103800814D01*
X156321789Y-103669711D01*
X156321786Y-103669707D01*
X156210292Y-103558213D01*
X156210288Y-103558210D01*
X156079185Y-103470609D01*
X156079172Y-103470602D01*
X155935864Y-103411243D01*
X155881460Y-103367402D01*
X155868761Y-103344147D01*
X155809394Y-103200821D01*
X155809392Y-103200818D01*
X155809390Y-103200814D01*
X155721789Y-103069711D01*
X155721786Y-103069707D01*
X155610292Y-102958213D01*
X155610288Y-102958210D01*
X155479185Y-102870609D01*
X155479172Y-102870602D01*
X155333501Y-102810264D01*
X155333489Y-102810261D01*
X155178845Y-102779500D01*
X155178842Y-102779500D01*
X155021158Y-102779500D01*
X155021155Y-102779500D01*
X154866510Y-102810261D01*
X154866498Y-102810264D01*
X154720827Y-102870602D01*
X154720814Y-102870609D01*
X154589711Y-102958210D01*
X154589707Y-102958213D01*
X154478213Y-103069707D01*
X154478210Y-103069711D01*
X154390609Y-103200814D01*
X154390602Y-103200827D01*
X154330264Y-103346498D01*
X154330261Y-103346510D01*
X154299500Y-103501153D01*
X154299500Y-103588264D01*
X154279815Y-103655303D01*
X154227011Y-103701058D01*
X154157853Y-103711002D01*
X154151309Y-103709881D01*
X154048846Y-103689500D01*
X154048842Y-103689500D01*
X153891158Y-103689500D01*
X153891155Y-103689500D01*
X153736510Y-103720261D01*
X153736498Y-103720264D01*
X153590827Y-103780602D01*
X153590814Y-103780609D01*
X153459711Y-103868210D01*
X153459707Y-103868213D01*
X153348213Y-103979707D01*
X153348210Y-103979711D01*
X153260609Y-104110814D01*
X153260602Y-104110827D01*
X153200264Y-104256498D01*
X153200261Y-104256510D01*
X153169500Y-104411153D01*
X152402651Y-104411153D01*
X152399738Y-104396508D01*
X152399737Y-104396507D01*
X152399737Y-104396503D01*
X152354470Y-104287218D01*
X152339397Y-104250827D01*
X152339390Y-104250814D01*
X152251789Y-104119711D01*
X152251786Y-104119707D01*
X152140289Y-104008210D01*
X152095228Y-103978102D01*
X152050423Y-103924490D01*
X152041716Y-103855165D01*
X152071870Y-103792138D01*
X152095228Y-103771898D01*
X152140289Y-103741789D01*
X152251786Y-103630292D01*
X152251789Y-103630289D01*
X152339394Y-103499179D01*
X152399737Y-103353497D01*
X152430500Y-103198842D01*
X152430500Y-103134542D01*
X152450185Y-103067503D01*
X152502989Y-103021748D01*
X152506977Y-103020011D01*
X152629179Y-102969394D01*
X152760289Y-102881789D01*
X152871789Y-102770289D01*
X152959394Y-102639179D01*
X153019737Y-102493497D01*
X153050500Y-102338842D01*
X153050500Y-102181158D01*
X153050500Y-102181155D01*
X153050499Y-102181153D01*
X153035052Y-102103497D01*
X153019737Y-102026503D01*
X152980378Y-101931481D01*
X152959397Y-101880827D01*
X152959395Y-101880823D01*
X152959394Y-101880821D01*
X152909671Y-101806406D01*
X152888794Y-101739730D01*
X152907278Y-101672350D01*
X152909655Y-101668650D01*
X152949394Y-101609179D01*
X153009737Y-101463497D01*
X153040500Y-101308842D01*
X153040500Y-101151158D01*
X153040500Y-101151155D01*
X153040499Y-101151153D01*
X153009737Y-100996503D01*
X153009735Y-100996498D01*
X152949397Y-100850827D01*
X152949390Y-100850814D01*
X152861789Y-100719711D01*
X152861786Y-100719707D01*
X152750292Y-100608213D01*
X152750288Y-100608210D01*
X152619185Y-100520609D01*
X152619176Y-100520604D01*
X152564169Y-100497820D01*
X152509766Y-100453979D01*
X152487701Y-100387685D01*
X152504980Y-100319986D01*
X152536483Y-100286753D01*
X152535581Y-100285653D01*
X152540285Y-100281791D01*
X152540289Y-100281789D01*
X152651789Y-100170289D01*
X152739394Y-100039179D01*
X152799737Y-99893497D01*
X152830500Y-99738842D01*
X152830500Y-99581158D01*
X152830500Y-99581155D01*
X152830499Y-99581153D01*
X152804641Y-99451158D01*
X152799737Y-99426503D01*
X152788650Y-99399737D01*
X152739397Y-99280827D01*
X152739390Y-99280814D01*
X152651789Y-99149711D01*
X152651786Y-99149707D01*
X152540292Y-99038213D01*
X152540288Y-99038210D01*
X152474752Y-98994420D01*
X152429947Y-98940808D01*
X152421240Y-98871483D01*
X152440540Y-98822429D01*
X152449394Y-98809179D01*
X152509737Y-98663497D01*
X152540500Y-98508842D01*
X152540500Y-98351158D01*
X152540500Y-98351155D01*
X152540499Y-98351153D01*
X152530381Y-98300288D01*
X152509737Y-98196503D01*
X152477929Y-98119711D01*
X152449397Y-98050827D01*
X152449390Y-98050814D01*
X152361789Y-97919711D01*
X152361786Y-97919707D01*
X152284260Y-97842181D01*
X152250775Y-97780858D01*
X152255759Y-97711166D01*
X152297631Y-97655233D01*
X152363095Y-97630816D01*
X152371941Y-97630500D01*
X153196442Y-97630500D01*
X153263481Y-97650185D01*
X153309236Y-97702989D01*
X153317341Y-97733060D01*
X153318311Y-97732868D01*
X153350261Y-97893489D01*
X153350264Y-97893501D01*
X153410602Y-98039172D01*
X153410609Y-98039185D01*
X153495804Y-98166688D01*
X153516682Y-98233366D01*
X153507264Y-98283031D01*
X153493114Y-98317192D01*
X153460263Y-98396503D01*
X153460262Y-98396506D01*
X153460262Y-98396507D01*
X153460261Y-98396510D01*
X153429500Y-98551153D01*
X153429500Y-98708846D01*
X153460261Y-98863489D01*
X153460264Y-98863501D01*
X153520602Y-99009172D01*
X153520609Y-99009185D01*
X153608210Y-99140288D01*
X153608213Y-99140292D01*
X153719707Y-99251786D01*
X153719711Y-99251789D01*
X153850814Y-99339390D01*
X153850827Y-99339397D01*
X153960924Y-99385000D01*
X153996503Y-99399737D01*
X154131039Y-99426498D01*
X154151153Y-99430499D01*
X154151156Y-99430500D01*
X154151158Y-99430500D01*
X154308844Y-99430500D01*
X154308845Y-99430499D01*
X154463497Y-99399737D01*
X154609179Y-99339394D01*
X154740289Y-99251789D01*
X154851789Y-99140289D01*
X154939394Y-99009179D01*
X154999737Y-98863497D01*
X155030500Y-98708842D01*
X155030500Y-98551158D01*
X155030500Y-98551155D01*
X155030499Y-98551153D01*
X155024532Y-98521153D01*
X154999737Y-98396503D01*
X154980955Y-98351158D01*
X154939397Y-98250827D01*
X154939390Y-98250814D01*
X154854195Y-98123311D01*
X154833317Y-98056633D01*
X154842735Y-98006969D01*
X154889737Y-97893497D01*
X154908434Y-97799500D01*
X154921689Y-97732868D01*
X154923812Y-97733290D01*
X154946315Y-97677560D01*
X155003349Y-97637200D01*
X155043558Y-97630500D01*
X159233331Y-97630500D01*
X159233347Y-97630501D01*
X159240943Y-97630501D01*
X159399054Y-97630501D01*
X159399057Y-97630501D01*
X159551785Y-97589577D01*
X159609070Y-97556503D01*
X159688716Y-97510520D01*
X159800520Y-97398716D01*
X159800520Y-97398714D01*
X159810724Y-97388511D01*
X159810727Y-97388506D01*
X163684662Y-93514572D01*
X163745983Y-93481089D01*
X163748150Y-93480638D01*
X163806085Y-93469113D01*
X163903497Y-93449737D01*
X164049179Y-93389394D01*
X164180289Y-93301789D01*
X164238741Y-93243336D01*
X164300062Y-93209853D01*
X164369754Y-93214837D01*
X164414102Y-93243338D01*
X166573718Y-95402954D01*
X166607203Y-95464277D01*
X166602219Y-95533969D01*
X166600599Y-95538086D01*
X166556534Y-95644471D01*
X166556532Y-95644478D01*
X166525771Y-95799121D01*
X166525771Y-95956814D01*
X166556532Y-96111457D01*
X166556535Y-96111469D01*
X166616873Y-96257140D01*
X166616880Y-96257153D01*
X166704481Y-96388256D01*
X166704484Y-96388260D01*
X166815978Y-96499754D01*
X166815982Y-96499757D01*
X166947085Y-96587358D01*
X166947098Y-96587365D01*
X167092769Y-96647703D01*
X167092774Y-96647705D01*
X167247424Y-96678467D01*
X167247427Y-96678468D01*
X167247429Y-96678468D01*
X167405115Y-96678468D01*
X167405116Y-96678467D01*
X167559768Y-96647705D01*
X167705450Y-96587362D01*
X167836560Y-96499757D01*
X167948060Y-96388257D01*
X168035665Y-96257147D01*
X168046290Y-96231497D01*
X168072782Y-96167537D01*
X168096008Y-96111465D01*
X168126771Y-95956810D01*
X168126771Y-95799126D01*
X168126771Y-95799123D01*
X168114232Y-95736087D01*
X168120459Y-95666495D01*
X168163322Y-95611318D01*
X168229212Y-95588073D01*
X168255090Y-95589924D01*
X168255093Y-95589903D01*
X168255898Y-95589982D01*
X168260045Y-95590279D01*
X168261156Y-95590500D01*
X168261158Y-95590500D01*
X168418844Y-95590500D01*
X168418845Y-95590499D01*
X168573497Y-95559737D01*
X168719179Y-95499394D01*
X168850289Y-95411789D01*
X168961789Y-95300289D01*
X169049394Y-95169179D01*
X169109737Y-95023497D01*
X169140500Y-94868842D01*
X169140500Y-94711158D01*
X169140500Y-94711155D01*
X169140499Y-94711153D01*
X169109738Y-94556510D01*
X169109737Y-94556503D01*
X169109735Y-94556498D01*
X169049397Y-94410827D01*
X169049390Y-94410814D01*
X168961789Y-94279711D01*
X168961786Y-94279707D01*
X168850292Y-94168213D01*
X168850288Y-94168210D01*
X168719185Y-94080609D01*
X168719172Y-94080602D01*
X168573501Y-94020264D01*
X168573489Y-94020261D01*
X168418845Y-93989500D01*
X168418842Y-93989500D01*
X168261158Y-93989500D01*
X168261155Y-93989500D01*
X168106510Y-94020261D01*
X168106498Y-94020264D01*
X167960827Y-94080602D01*
X167960818Y-94080607D01*
X167942937Y-94092555D01*
X167876259Y-94113431D01*
X167808879Y-94094945D01*
X167786367Y-94077132D01*
X166601416Y-92892181D01*
X166567931Y-92830858D01*
X166572915Y-92761166D01*
X166614787Y-92705233D01*
X166680251Y-92680816D01*
X166689097Y-92680500D01*
X168280099Y-92680500D01*
X168347138Y-92700185D01*
X168348990Y-92701398D01*
X168420821Y-92749394D01*
X168420823Y-92749395D01*
X168420827Y-92749397D01*
X168566498Y-92809735D01*
X168566503Y-92809737D01*
X168672685Y-92830858D01*
X168721153Y-92840499D01*
X168721156Y-92840500D01*
X168721158Y-92840500D01*
X168878844Y-92840500D01*
X168878845Y-92840499D01*
X169033497Y-92809737D01*
X169150759Y-92761166D01*
X169179172Y-92749397D01*
X169179172Y-92749396D01*
X169179179Y-92749394D01*
X169310289Y-92661789D01*
X169421789Y-92550289D01*
X169509394Y-92419179D01*
X169569737Y-92273497D01*
X169582138Y-92211153D01*
X171719500Y-92211153D01*
X171719500Y-92368846D01*
X171750261Y-92523489D01*
X171750264Y-92523501D01*
X171810602Y-92669172D01*
X171810609Y-92669185D01*
X171898210Y-92800288D01*
X171898213Y-92800292D01*
X172009707Y-92911786D01*
X172009711Y-92911789D01*
X172140814Y-92999390D01*
X172140827Y-92999397D01*
X172265779Y-93051153D01*
X172286503Y-93059737D01*
X172441153Y-93090499D01*
X172441156Y-93090500D01*
X172441158Y-93090500D01*
X172598844Y-93090500D01*
X172598845Y-93090499D01*
X172753497Y-93059737D01*
X172899179Y-92999394D01*
X173030289Y-92911789D01*
X173141789Y-92800289D01*
X173229394Y-92669179D01*
X173289737Y-92523497D01*
X173320500Y-92368842D01*
X173320500Y-92211158D01*
X173320500Y-92211155D01*
X173320499Y-92211153D01*
X173302137Y-92118842D01*
X173289737Y-92056503D01*
X173278953Y-92030467D01*
X173229397Y-91910827D01*
X173229390Y-91910814D01*
X173141789Y-91779711D01*
X173141786Y-91779707D01*
X173030292Y-91668213D01*
X173030288Y-91668210D01*
X172899185Y-91580609D01*
X172899172Y-91580602D01*
X172753501Y-91520264D01*
X172753489Y-91520261D01*
X172598845Y-91489500D01*
X172598842Y-91489500D01*
X172441158Y-91489500D01*
X172441155Y-91489500D01*
X172286510Y-91520261D01*
X172286498Y-91520264D01*
X172140827Y-91580602D01*
X172140814Y-91580609D01*
X172009711Y-91668210D01*
X172009707Y-91668213D01*
X171898213Y-91779707D01*
X171898210Y-91779711D01*
X171810609Y-91910814D01*
X171810602Y-91910827D01*
X171750264Y-92056498D01*
X171750261Y-92056510D01*
X171719500Y-92211153D01*
X169582138Y-92211153D01*
X169588161Y-92180874D01*
X169600500Y-92118844D01*
X169600500Y-91961155D01*
X169600499Y-91961153D01*
X169589127Y-91903981D01*
X169569737Y-91806503D01*
X169566648Y-91799046D01*
X169509397Y-91660827D01*
X169509390Y-91660814D01*
X169421789Y-91529711D01*
X169421786Y-91529707D01*
X169310292Y-91418213D01*
X169310288Y-91418210D01*
X169179185Y-91330609D01*
X169179172Y-91330602D01*
X169033501Y-91270264D01*
X169033489Y-91270261D01*
X168878845Y-91239500D01*
X168878842Y-91239500D01*
X168721158Y-91239500D01*
X168721155Y-91239500D01*
X168566510Y-91270261D01*
X168566498Y-91270264D01*
X168420827Y-91330602D01*
X168420814Y-91330609D01*
X168289711Y-91418210D01*
X168289707Y-91418213D01*
X168264740Y-91443181D01*
X168203417Y-91476666D01*
X168177059Y-91479500D01*
X166817902Y-91479500D01*
X166750863Y-91459815D01*
X166705108Y-91407011D01*
X166696285Y-91379692D01*
X166679738Y-91296508D01*
X166679737Y-91296507D01*
X166679737Y-91296503D01*
X166679735Y-91296498D01*
X166619397Y-91150827D01*
X166619390Y-91150814D01*
X166531789Y-91019711D01*
X166531786Y-91019707D01*
X166420292Y-90908213D01*
X166420288Y-90908210D01*
X166289185Y-90820609D01*
X166289172Y-90820602D01*
X166143501Y-90760264D01*
X166143489Y-90760261D01*
X165988845Y-90729500D01*
X165988842Y-90729500D01*
X165831158Y-90729500D01*
X165831155Y-90729500D01*
X165676510Y-90760261D01*
X165676498Y-90760264D01*
X165530827Y-90820602D01*
X165530814Y-90820609D01*
X165399711Y-90908210D01*
X165399707Y-90908213D01*
X165288213Y-91019707D01*
X165288210Y-91019711D01*
X165200609Y-91150814D01*
X165200604Y-91150823D01*
X165171879Y-91220174D01*
X165128038Y-91274577D01*
X165061744Y-91296642D01*
X164994045Y-91279363D01*
X164969637Y-91260402D01*
X163414072Y-89704837D01*
X163380587Y-89643514D01*
X163385571Y-89573822D01*
X163427443Y-89517889D01*
X163492907Y-89493472D01*
X163525944Y-89495538D01*
X163541417Y-89498616D01*
X163601156Y-89510500D01*
X163601158Y-89510500D01*
X163758844Y-89510500D01*
X163758845Y-89510499D01*
X163913497Y-89479737D01*
X164059179Y-89419394D01*
X164059185Y-89419390D01*
X164190875Y-89331398D01*
X164257553Y-89310520D01*
X164259766Y-89310500D01*
X166333331Y-89310500D01*
X166333347Y-89310501D01*
X166340943Y-89310501D01*
X166499054Y-89310501D01*
X166499057Y-89310501D01*
X166651785Y-89269577D01*
X166701904Y-89240639D01*
X166788716Y-89190520D01*
X166900520Y-89078716D01*
X166900520Y-89078714D01*
X166910728Y-89068507D01*
X166910729Y-89068504D01*
X168224662Y-87754572D01*
X168285983Y-87721089D01*
X168288150Y-87720638D01*
X168346085Y-87709113D01*
X168443497Y-87689737D01*
X168589179Y-87629394D01*
X168720289Y-87541789D01*
X168831789Y-87430289D01*
X168919394Y-87299179D01*
X168979737Y-87153497D01*
X169010500Y-86998842D01*
X169010500Y-86841158D01*
X169010500Y-86841155D01*
X169010499Y-86841153D01*
X168988447Y-86730292D01*
X168979737Y-86686503D01*
X168943569Y-86599185D01*
X168919397Y-86540827D01*
X168919390Y-86540814D01*
X168831789Y-86409711D01*
X168831786Y-86409707D01*
X168720292Y-86298213D01*
X168720288Y-86298210D01*
X168589185Y-86210609D01*
X168589172Y-86210602D01*
X168443501Y-86150264D01*
X168443489Y-86150261D01*
X168288845Y-86119500D01*
X168288842Y-86119500D01*
X168131158Y-86119500D01*
X168131155Y-86119500D01*
X167976510Y-86150261D01*
X167976498Y-86150264D01*
X167830827Y-86210602D01*
X167830814Y-86210609D01*
X167699711Y-86298210D01*
X167699707Y-86298213D01*
X167588213Y-86409707D01*
X167588210Y-86409711D01*
X167500609Y-86540814D01*
X167500602Y-86540827D01*
X167440264Y-86686498D01*
X167440261Y-86686508D01*
X167409361Y-86841850D01*
X167376976Y-86903761D01*
X167375425Y-86905339D01*
X166207584Y-88073181D01*
X166146261Y-88106666D01*
X166119903Y-88109500D01*
X165099892Y-88109500D01*
X165032853Y-88089815D01*
X164987098Y-88037011D01*
X164977154Y-87967853D01*
X164987878Y-87935145D01*
X164987063Y-87934808D01*
X165026697Y-87839120D01*
X165049737Y-87783497D01*
X165080500Y-87628842D01*
X165080500Y-87471158D01*
X165080500Y-87471155D01*
X165080499Y-87471153D01*
X165072371Y-87430292D01*
X165049737Y-87316503D01*
X165042558Y-87299172D01*
X164989397Y-87170827D01*
X164989389Y-87170812D01*
X164977513Y-87153039D01*
X164956634Y-87086362D01*
X164968891Y-87035565D01*
X164967063Y-87034808D01*
X165029735Y-86883501D01*
X165029737Y-86883497D01*
X165060500Y-86728842D01*
X165060500Y-86571158D01*
X165060500Y-86571155D01*
X165060499Y-86571153D01*
X165054467Y-86540827D01*
X165029737Y-86416503D01*
X165026922Y-86409707D01*
X164969397Y-86270827D01*
X164969390Y-86270814D01*
X164881789Y-86139711D01*
X164881786Y-86139707D01*
X164770292Y-86028213D01*
X164770288Y-86028210D01*
X164729795Y-86001153D01*
X171359500Y-86001153D01*
X171359500Y-86158846D01*
X171390261Y-86313489D01*
X171390264Y-86313501D01*
X171450602Y-86459172D01*
X171450609Y-86459185D01*
X171538210Y-86590288D01*
X171538213Y-86590292D01*
X171649707Y-86701786D01*
X171649711Y-86701789D01*
X171780814Y-86789390D01*
X171780827Y-86789397D01*
X171907462Y-86841850D01*
X171926503Y-86849737D01*
X172034731Y-86871265D01*
X172081153Y-86880499D01*
X172081156Y-86880500D01*
X172081158Y-86880500D01*
X172238844Y-86880500D01*
X172238845Y-86880499D01*
X172393497Y-86849737D01*
X172448384Y-86827001D01*
X172517852Y-86819532D01*
X172564728Y-86838460D01*
X172700814Y-86929390D01*
X172700827Y-86929397D01*
X172846498Y-86989735D01*
X172846503Y-86989737D01*
X173001153Y-87020499D01*
X173001156Y-87020500D01*
X173001158Y-87020500D01*
X173158844Y-87020500D01*
X173158845Y-87020499D01*
X173313497Y-86989737D01*
X173459179Y-86929394D01*
X173590289Y-86841789D01*
X173701789Y-86730289D01*
X173789394Y-86599179D01*
X173849737Y-86453497D01*
X173880500Y-86298842D01*
X173880500Y-86141158D01*
X173880500Y-86141155D01*
X173880499Y-86141153D01*
X173866183Y-86069183D01*
X173849737Y-85986503D01*
X173849735Y-85986498D01*
X173789397Y-85840827D01*
X173789390Y-85840814D01*
X173701789Y-85709711D01*
X173701786Y-85709707D01*
X173590292Y-85598213D01*
X173590288Y-85598210D01*
X173459185Y-85510609D01*
X173459172Y-85510602D01*
X173313501Y-85450264D01*
X173313489Y-85450261D01*
X173158845Y-85419500D01*
X173158842Y-85419500D01*
X173001158Y-85419500D01*
X173001155Y-85419500D01*
X172846511Y-85450260D01*
X172846505Y-85450262D01*
X172791612Y-85472999D01*
X172722142Y-85480466D01*
X172675270Y-85461539D01*
X172539185Y-85370609D01*
X172539172Y-85370602D01*
X172393501Y-85310264D01*
X172393489Y-85310261D01*
X172238845Y-85279500D01*
X172238842Y-85279500D01*
X172081158Y-85279500D01*
X172081155Y-85279500D01*
X171926510Y-85310261D01*
X171926498Y-85310264D01*
X171780827Y-85370602D01*
X171780814Y-85370609D01*
X171649711Y-85458210D01*
X171649707Y-85458213D01*
X171538213Y-85569707D01*
X171538210Y-85569711D01*
X171450609Y-85700814D01*
X171450602Y-85700827D01*
X171390264Y-85846498D01*
X171390261Y-85846510D01*
X171359500Y-86001153D01*
X164729795Y-86001153D01*
X164639185Y-85940609D01*
X164639172Y-85940602D01*
X164493501Y-85880264D01*
X164493489Y-85880261D01*
X164338845Y-85849500D01*
X164338842Y-85849500D01*
X164181158Y-85849500D01*
X164181155Y-85849500D01*
X164026510Y-85880261D01*
X164026498Y-85880264D01*
X163880827Y-85940602D01*
X163880814Y-85940609D01*
X163749711Y-86028210D01*
X163749707Y-86028213D01*
X163638213Y-86139707D01*
X163638210Y-86139711D01*
X163550609Y-86270814D01*
X163550602Y-86270827D01*
X163490264Y-86416498D01*
X163490261Y-86416510D01*
X163459500Y-86571153D01*
X163459500Y-86728846D01*
X163490261Y-86883489D01*
X163490264Y-86883501D01*
X163550602Y-87029172D01*
X163550609Y-87029185D01*
X163562487Y-87046961D01*
X163583365Y-87113638D01*
X163571122Y-87164440D01*
X163572937Y-87165192D01*
X163510264Y-87316498D01*
X163510261Y-87316510D01*
X163479500Y-87471153D01*
X163479500Y-87628846D01*
X163510260Y-87783488D01*
X163512030Y-87789320D01*
X163509949Y-87789951D01*
X163516364Y-87849687D01*
X163485081Y-87912162D01*
X163441789Y-87942215D01*
X163300827Y-88000602D01*
X163300814Y-88000609D01*
X163169711Y-88088210D01*
X163169707Y-88088213D01*
X163058213Y-88199707D01*
X163058210Y-88199711D01*
X162970609Y-88330814D01*
X162970602Y-88330827D01*
X162910264Y-88476498D01*
X162910261Y-88476510D01*
X162879500Y-88631153D01*
X162879500Y-88788846D01*
X162894460Y-88864055D01*
X162888233Y-88933647D01*
X162845370Y-88988824D01*
X162779480Y-89012068D01*
X162711483Y-88996000D01*
X162685162Y-88975927D01*
X157826819Y-84117584D01*
X157793334Y-84056261D01*
X157790500Y-84029903D01*
X157790500Y-83739058D01*
X157790500Y-83729059D01*
X157790501Y-83729057D01*
X157790501Y-83594499D01*
X157810186Y-83527460D01*
X157862990Y-83481705D01*
X157863003Y-83481703D01*
X157914501Y-83470500D01*
X159333331Y-83470500D01*
X159333347Y-83470501D01*
X159340943Y-83470501D01*
X159499054Y-83470501D01*
X159499057Y-83470501D01*
X159651785Y-83429577D01*
X159701904Y-83400639D01*
X159788716Y-83350520D01*
X159900520Y-83238716D01*
X159900520Y-83238714D01*
X159910728Y-83228507D01*
X159910729Y-83228504D01*
X160722417Y-82416819D01*
X160783740Y-82383334D01*
X160810098Y-82380500D01*
X162060902Y-82380500D01*
X162127941Y-82400185D01*
X162173696Y-82452989D01*
X162183640Y-82522147D01*
X162154615Y-82585703D01*
X162148583Y-82592181D01*
X161755339Y-82985425D01*
X161694016Y-83018910D01*
X161691850Y-83019361D01*
X161536508Y-83050261D01*
X161536498Y-83050264D01*
X161390827Y-83110602D01*
X161390814Y-83110609D01*
X161259711Y-83198210D01*
X161259707Y-83198213D01*
X161148213Y-83309707D01*
X161148210Y-83309711D01*
X161060609Y-83440814D01*
X161060602Y-83440827D01*
X161000264Y-83586498D01*
X161000261Y-83586510D01*
X160969500Y-83741153D01*
X160969500Y-83898846D01*
X161000261Y-84053489D01*
X161000264Y-84053501D01*
X161060602Y-84199172D01*
X161060609Y-84199185D01*
X161148210Y-84330288D01*
X161148213Y-84330292D01*
X161259707Y-84441786D01*
X161259711Y-84441789D01*
X161390814Y-84529390D01*
X161390827Y-84529397D01*
X161486062Y-84568844D01*
X161536503Y-84589737D01*
X161691153Y-84620499D01*
X161691156Y-84620500D01*
X161691158Y-84620500D01*
X161848842Y-84620500D01*
X161875877Y-84615122D01*
X161945466Y-84621348D01*
X162000645Y-84664210D01*
X162003171Y-84667849D01*
X162038207Y-84720284D01*
X162038213Y-84720292D01*
X162149707Y-84831786D01*
X162149711Y-84831789D01*
X162280814Y-84919390D01*
X162280827Y-84919397D01*
X162426498Y-84979735D01*
X162426503Y-84979737D01*
X162581153Y-85010499D01*
X162581156Y-85010500D01*
X162581158Y-85010500D01*
X162738844Y-85010500D01*
X162738845Y-85010499D01*
X162893497Y-84979737D01*
X163039179Y-84919394D01*
X163170289Y-84831789D01*
X163281789Y-84720289D01*
X163369394Y-84589179D01*
X163377818Y-84568842D01*
X163399272Y-84517048D01*
X163443113Y-84462644D01*
X163509407Y-84440579D01*
X163513833Y-84440500D01*
X164435500Y-84440500D01*
X164502539Y-84460185D01*
X164548294Y-84512989D01*
X164559500Y-84564500D01*
X164559500Y-84568846D01*
X164590261Y-84723489D01*
X164590264Y-84723501D01*
X164650602Y-84869172D01*
X164650609Y-84869185D01*
X164738210Y-85000288D01*
X164738213Y-85000292D01*
X164849707Y-85111786D01*
X164849711Y-85111789D01*
X164980814Y-85199390D01*
X164980827Y-85199397D01*
X165126498Y-85259735D01*
X165126503Y-85259737D01*
X165225858Y-85279500D01*
X165281153Y-85290499D01*
X165281156Y-85290500D01*
X165281158Y-85290500D01*
X165438844Y-85290500D01*
X165438845Y-85290499D01*
X165593497Y-85259737D01*
X165739179Y-85199394D01*
X165870289Y-85111789D01*
X165981789Y-85000289D01*
X166069394Y-84869179D01*
X166129737Y-84723497D01*
X166160500Y-84568842D01*
X166160500Y-84564500D01*
X166163050Y-84555814D01*
X166161762Y-84546853D01*
X166172740Y-84522812D01*
X166180185Y-84497461D01*
X166187025Y-84491533D01*
X166190787Y-84483297D01*
X166213021Y-84469007D01*
X166232989Y-84451706D01*
X166243503Y-84449418D01*
X166249565Y-84445523D01*
X166284500Y-84440500D01*
X166435255Y-84440500D01*
X166502294Y-84460185D01*
X166538356Y-84495608D01*
X166549970Y-84512989D01*
X166568212Y-84540291D01*
X166679707Y-84651786D01*
X166679711Y-84651789D01*
X166810814Y-84739390D01*
X166810827Y-84739397D01*
X166941035Y-84793330D01*
X166956503Y-84799737D01*
X167111153Y-84830499D01*
X167111156Y-84830500D01*
X167111158Y-84830500D01*
X167268844Y-84830500D01*
X167268845Y-84830499D01*
X167423497Y-84799737D01*
X167569179Y-84739394D01*
X167700289Y-84651789D01*
X167811789Y-84540289D01*
X167899394Y-84409179D01*
X167959737Y-84263497D01*
X167990500Y-84108842D01*
X167990500Y-83951158D01*
X167990500Y-83951155D01*
X167990499Y-83951153D01*
X167980094Y-83898846D01*
X167959737Y-83796503D01*
X167936813Y-83741158D01*
X167899397Y-83650827D01*
X167899390Y-83650814D01*
X167811789Y-83519711D01*
X167811786Y-83519707D01*
X167700292Y-83408213D01*
X167700288Y-83408210D01*
X167569185Y-83320609D01*
X167569172Y-83320602D01*
X167423501Y-83260264D01*
X167423489Y-83260261D01*
X167268845Y-83229500D01*
X167268842Y-83229500D01*
X167111158Y-83229500D01*
X167111157Y-83229500D01*
X167091397Y-83233430D01*
X167072869Y-83237116D01*
X167048679Y-83239499D01*
X166920943Y-83239499D01*
X166920939Y-83239499D01*
X166913332Y-83239500D01*
X166913331Y-83239499D01*
X166913331Y-83239500D01*
X165761941Y-83239500D01*
X165694902Y-83219815D01*
X165649147Y-83167011D01*
X165639203Y-83097853D01*
X165668228Y-83034297D01*
X165674260Y-83027819D01*
X165750925Y-82951153D01*
X171299500Y-82951153D01*
X171299500Y-83108846D01*
X171330261Y-83263489D01*
X171330264Y-83263501D01*
X171390602Y-83409172D01*
X171390609Y-83409185D01*
X171478210Y-83540288D01*
X171478213Y-83540292D01*
X171589707Y-83651786D01*
X171589711Y-83651789D01*
X171720814Y-83739390D01*
X171720827Y-83739397D01*
X171858683Y-83796498D01*
X171866503Y-83799737D01*
X172021153Y-83830499D01*
X172021156Y-83830500D01*
X172021158Y-83830500D01*
X172178844Y-83830500D01*
X172178845Y-83830499D01*
X172333497Y-83799737D01*
X172446166Y-83753067D01*
X172479172Y-83739397D01*
X172479172Y-83739396D01*
X172479179Y-83739394D01*
X172610289Y-83651789D01*
X172721789Y-83540289D01*
X172809394Y-83409179D01*
X172869737Y-83263497D01*
X172900500Y-83108842D01*
X172900500Y-82951158D01*
X172900500Y-82951155D01*
X172900499Y-82951153D01*
X172885585Y-82876175D01*
X172869737Y-82796503D01*
X172869735Y-82796498D01*
X172809397Y-82650827D01*
X172809390Y-82650814D01*
X172721789Y-82519711D01*
X172721786Y-82519707D01*
X172610292Y-82408213D01*
X172610288Y-82408210D01*
X172479185Y-82320609D01*
X172479172Y-82320602D01*
X172333501Y-82260264D01*
X172333489Y-82260261D01*
X172178845Y-82229500D01*
X172178842Y-82229500D01*
X172021158Y-82229500D01*
X172021155Y-82229500D01*
X171866510Y-82260261D01*
X171866498Y-82260264D01*
X171720827Y-82320602D01*
X171720814Y-82320609D01*
X171589711Y-82408210D01*
X171589707Y-82408213D01*
X171478213Y-82519707D01*
X171478210Y-82519711D01*
X171390609Y-82650814D01*
X171390602Y-82650827D01*
X171330264Y-82796498D01*
X171330261Y-82796510D01*
X171299500Y-82951153D01*
X165750925Y-82951153D01*
X165751786Y-82950292D01*
X165751789Y-82950289D01*
X165778894Y-82909722D01*
X165801311Y-82876175D01*
X165839390Y-82819185D01*
X165839390Y-82819184D01*
X165839394Y-82819179D01*
X165899737Y-82673497D01*
X165930500Y-82518842D01*
X165930500Y-82361158D01*
X165930500Y-82361155D01*
X165930499Y-82361153D01*
X165898549Y-82200528D01*
X165900131Y-82200213D01*
X165899570Y-82138170D01*
X165936811Y-82079053D01*
X165971402Y-82057467D01*
X166039179Y-82029394D01*
X166170289Y-81941789D01*
X166281789Y-81830289D01*
X166369394Y-81699179D01*
X166429737Y-81553497D01*
X166457381Y-81414521D01*
X166489766Y-81352611D01*
X166550481Y-81318037D01*
X166620251Y-81321776D01*
X166626440Y-81324148D01*
X166736503Y-81369737D01*
X166882823Y-81398842D01*
X166891153Y-81400499D01*
X166891156Y-81400500D01*
X166891158Y-81400500D01*
X167048844Y-81400500D01*
X167048845Y-81400499D01*
X167203497Y-81369737D01*
X167349179Y-81309394D01*
X167480289Y-81221789D01*
X167591789Y-81110289D01*
X167679394Y-80979179D01*
X167739737Y-80833497D01*
X167770500Y-80678842D01*
X167770500Y-80521158D01*
X167770500Y-80521155D01*
X167770499Y-80521153D01*
X167760445Y-80470609D01*
X167739737Y-80366503D01*
X167716126Y-80309500D01*
X167679397Y-80220827D01*
X167679390Y-80220814D01*
X167591789Y-80089711D01*
X167591786Y-80089707D01*
X167480292Y-79978213D01*
X167480288Y-79978210D01*
X167349185Y-79890609D01*
X167349172Y-79890602D01*
X167203501Y-79830264D01*
X167203489Y-79830261D01*
X167048845Y-79799500D01*
X167048842Y-79799500D01*
X166891158Y-79799500D01*
X166891155Y-79799500D01*
X166736510Y-79830261D01*
X166736498Y-79830264D01*
X166590827Y-79890602D01*
X166590814Y-79890609D01*
X166459711Y-79978210D01*
X166459707Y-79978213D01*
X166348213Y-80089707D01*
X166348210Y-80089711D01*
X166260609Y-80220814D01*
X166260602Y-80220827D01*
X166200264Y-80366498D01*
X166200261Y-80366508D01*
X166172618Y-80505478D01*
X166140233Y-80567389D01*
X166079517Y-80601963D01*
X166009747Y-80598222D01*
X166003549Y-80595847D01*
X165893501Y-80550264D01*
X165893489Y-80550261D01*
X165738845Y-80519500D01*
X165738842Y-80519500D01*
X165581158Y-80519500D01*
X165581155Y-80519500D01*
X165426510Y-80550261D01*
X165426498Y-80550264D01*
X165280827Y-80610602D01*
X165280814Y-80610609D01*
X165149711Y-80698210D01*
X165149707Y-80698213D01*
X165038213Y-80809707D01*
X165038210Y-80809711D01*
X164950609Y-80940814D01*
X164950602Y-80940827D01*
X164890262Y-81086503D01*
X164888747Y-81091500D01*
X164850447Y-81149937D01*
X164786634Y-81178391D01*
X164770088Y-81179500D01*
X162994500Y-81179500D01*
X162927461Y-81159815D01*
X162881706Y-81107011D01*
X162870500Y-81055500D01*
X162870500Y-81031155D01*
X162870499Y-81031153D01*
X162860159Y-80979172D01*
X162839737Y-80876503D01*
X162821925Y-80833501D01*
X162779397Y-80730827D01*
X162779390Y-80730814D01*
X162691789Y-80599711D01*
X162691786Y-80599707D01*
X162580292Y-80488213D01*
X162580288Y-80488210D01*
X162449185Y-80400609D01*
X162449172Y-80400602D01*
X162303501Y-80340264D01*
X162303489Y-80340261D01*
X162148845Y-80309500D01*
X162148842Y-80309500D01*
X161991158Y-80309500D01*
X161991155Y-80309500D01*
X161836510Y-80340261D01*
X161836498Y-80340264D01*
X161690827Y-80400602D01*
X161690814Y-80400609D01*
X161559125Y-80488602D01*
X161492447Y-80509480D01*
X161490234Y-80509500D01*
X159680940Y-80509500D01*
X159643621Y-80519499D01*
X159643622Y-80519500D01*
X159528215Y-80550423D01*
X159391441Y-80629389D01*
X159323541Y-80645861D01*
X159257514Y-80623008D01*
X159241761Y-80609682D01*
X159235672Y-80603593D01*
X159235668Y-80603590D01*
X159104565Y-80515989D01*
X159104552Y-80515982D01*
X158958881Y-80455644D01*
X158958869Y-80455641D01*
X158804225Y-80424880D01*
X158804222Y-80424880D01*
X158646538Y-80424880D01*
X158646535Y-80424880D01*
X158491890Y-80455641D01*
X158491878Y-80455644D01*
X158346207Y-80515982D01*
X158346194Y-80515989D01*
X158215091Y-80603590D01*
X158215087Y-80603593D01*
X158103593Y-80715087D01*
X158103590Y-80715091D01*
X158015989Y-80846194D01*
X158015982Y-80846207D01*
X157955644Y-80991878D01*
X157955641Y-80991890D01*
X157930220Y-81119691D01*
X157897835Y-81181602D01*
X157837120Y-81216176D01*
X157808603Y-81219500D01*
X156044500Y-81219500D01*
X155977461Y-81199815D01*
X155931706Y-81147011D01*
X155923008Y-81107029D01*
X155921097Y-81107218D01*
X155920500Y-81101163D01*
X155920500Y-81101158D01*
X155889737Y-80946503D01*
X155887386Y-80940827D01*
X155829397Y-80800827D01*
X155829390Y-80800814D01*
X155741789Y-80669711D01*
X155741786Y-80669707D01*
X155630292Y-80558213D01*
X155630288Y-80558210D01*
X155499185Y-80470609D01*
X155499172Y-80470602D01*
X155353501Y-80410264D01*
X155353489Y-80410261D01*
X155198845Y-80379500D01*
X155198842Y-80379500D01*
X155041158Y-80379500D01*
X155041155Y-80379500D01*
X154886510Y-80410261D01*
X154886498Y-80410264D01*
X154740827Y-80470602D01*
X154740814Y-80470609D01*
X154609125Y-80558602D01*
X154542447Y-80579480D01*
X154540234Y-80579500D01*
X153210940Y-80579500D01*
X153170019Y-80590464D01*
X153170019Y-80590465D01*
X153141070Y-80598222D01*
X153058214Y-80620423D01*
X153058209Y-80620426D01*
X152921290Y-80699475D01*
X152921282Y-80699481D01*
X152205263Y-81415501D01*
X152143940Y-81448986D01*
X152074248Y-81444002D01*
X152018315Y-81402130D01*
X152002946Y-81371766D01*
X152002068Y-81372130D01*
X151939397Y-81220827D01*
X151939390Y-81220814D01*
X151851789Y-81089711D01*
X151851786Y-81089707D01*
X151740292Y-80978213D01*
X151740288Y-80978210D01*
X151609185Y-80890609D01*
X151609172Y-80890602D01*
X151463501Y-80830264D01*
X151463489Y-80830261D01*
X151308845Y-80799500D01*
X151308842Y-80799500D01*
X151151158Y-80799500D01*
X151151155Y-80799500D01*
X150996510Y-80830261D01*
X150996498Y-80830264D01*
X150850827Y-80890602D01*
X150850814Y-80890609D01*
X150719711Y-80978210D01*
X150719707Y-80978213D01*
X150608213Y-81089707D01*
X150608210Y-81089711D01*
X150520609Y-81220814D01*
X150520602Y-81220827D01*
X150460264Y-81366498D01*
X150460261Y-81366510D01*
X150429500Y-81521153D01*
X150429500Y-81678846D01*
X150460261Y-81833489D01*
X150460264Y-81833501D01*
X150520602Y-81979172D01*
X150520609Y-81979185D01*
X150608602Y-82110874D01*
X150629480Y-82177551D01*
X150629500Y-82179765D01*
X150629500Y-85956389D01*
X150609815Y-86023428D01*
X150557011Y-86069183D01*
X150487853Y-86079127D01*
X150424297Y-86050102D01*
X150386523Y-85991324D01*
X150385725Y-85988483D01*
X150369577Y-85928216D01*
X150341892Y-85880263D01*
X150290524Y-85791290D01*
X150290521Y-85791286D01*
X150290520Y-85791284D01*
X150178716Y-85679480D01*
X150178715Y-85679479D01*
X150174385Y-85675149D01*
X150174374Y-85675139D01*
X149166819Y-84667584D01*
X149133334Y-84606261D01*
X149130500Y-84579903D01*
X149130500Y-82059765D01*
X149150185Y-81992726D01*
X149151398Y-81990874D01*
X149239390Y-81859185D01*
X149239390Y-81859184D01*
X149239394Y-81859179D01*
X149299737Y-81713497D01*
X149330500Y-81558842D01*
X149330500Y-81401158D01*
X149330500Y-81401155D01*
X149330499Y-81401153D01*
X149324726Y-81372130D01*
X149299737Y-81246503D01*
X149287175Y-81216176D01*
X149239397Y-81100827D01*
X149239390Y-81100814D01*
X149151789Y-80969711D01*
X149151786Y-80969707D01*
X149040292Y-80858213D01*
X149040288Y-80858210D01*
X148909185Y-80770609D01*
X148909172Y-80770602D01*
X148763501Y-80710264D01*
X148763489Y-80710261D01*
X148608845Y-80679500D01*
X148608842Y-80679500D01*
X148451158Y-80679500D01*
X148451155Y-80679500D01*
X148296510Y-80710261D01*
X148296498Y-80710264D01*
X148150827Y-80770602D01*
X148150814Y-80770609D01*
X148019711Y-80858210D01*
X148019707Y-80858213D01*
X147908213Y-80969707D01*
X147908210Y-80969711D01*
X147820609Y-81100814D01*
X147820602Y-81100827D01*
X147760264Y-81246498D01*
X147760261Y-81246510D01*
X147729500Y-81401153D01*
X147729500Y-81558846D01*
X147760261Y-81713489D01*
X147760264Y-81713501D01*
X147820602Y-81859172D01*
X147820609Y-81859185D01*
X147908602Y-81990874D01*
X147929480Y-82057551D01*
X147929500Y-82059765D01*
X147929500Y-84793330D01*
X147929499Y-84793348D01*
X147929499Y-84959054D01*
X147929498Y-84959054D01*
X147940547Y-85000288D01*
X147970423Y-85111785D01*
X147985683Y-85138215D01*
X148004187Y-85170265D01*
X148049479Y-85248715D01*
X148168349Y-85367585D01*
X148168355Y-85367590D01*
X149173181Y-86372416D01*
X149206666Y-86433739D01*
X149209500Y-86460097D01*
X149209500Y-88513330D01*
X149209499Y-88513348D01*
X149209499Y-88679054D01*
X149209498Y-88679054D01*
X149209499Y-88679057D01*
X149250423Y-88831785D01*
X149250424Y-88831786D01*
X149261680Y-88851284D01*
X149261681Y-88851285D01*
X149329475Y-88968709D01*
X149329481Y-88968717D01*
X149448349Y-89087585D01*
X149448354Y-89087589D01*
X155338577Y-94977813D01*
X155338579Y-94977814D01*
X155338583Y-94977817D01*
X155475502Y-95056866D01*
X155475509Y-95056870D01*
X155628236Y-95097794D01*
X155628238Y-95097794D01*
X155793947Y-95097794D01*
X155793963Y-95097793D01*
X157870970Y-95097793D01*
X157938009Y-95117478D01*
X157939861Y-95118691D01*
X158071550Y-95206683D01*
X158071563Y-95206690D01*
X158158966Y-95242892D01*
X158217239Y-95267030D01*
X158217246Y-95267031D01*
X158217874Y-95267222D01*
X158218168Y-95267414D01*
X158222867Y-95269361D01*
X158222498Y-95270251D01*
X158276316Y-95305514D01*
X158296449Y-95338433D01*
X158350602Y-95469172D01*
X158350609Y-95469185D01*
X158438210Y-95600288D01*
X158438213Y-95600292D01*
X158549707Y-95711786D01*
X158549711Y-95711789D01*
X158680814Y-95799390D01*
X158680827Y-95799397D01*
X158826498Y-95859735D01*
X158826503Y-95859737D01*
X158981158Y-95890500D01*
X158981168Y-95890500D01*
X158982248Y-95890607D01*
X158982787Y-95890824D01*
X158987132Y-95891689D01*
X158986968Y-95892512D01*
X158987540Y-95892743D01*
X158993222Y-95892184D01*
X159019579Y-95905676D01*
X159047038Y-95916760D01*
X159051665Y-95922100D01*
X159055417Y-95924021D01*
X159063442Y-95935692D01*
X159077314Y-95951701D01*
X159081490Y-95958886D01*
X159110606Y-96029179D01*
X159198211Y-96160289D01*
X159199016Y-96161094D01*
X159202761Y-96167537D01*
X159210207Y-96197846D01*
X159219534Y-96227634D01*
X159218474Y-96231497D01*
X159219430Y-96235389D01*
X159209305Y-96264918D01*
X159201049Y-96295014D01*
X159197409Y-96299613D01*
X159196769Y-96301482D01*
X159194529Y-96303253D01*
X159183236Y-96317527D01*
X159107585Y-96393180D01*
X159046263Y-96426666D01*
X159019903Y-96429500D01*
X148899766Y-96429500D01*
X148832727Y-96409815D01*
X148830875Y-96408602D01*
X148699185Y-96320609D01*
X148699172Y-96320602D01*
X148553501Y-96260264D01*
X148553489Y-96260261D01*
X148398845Y-96229500D01*
X148398842Y-96229500D01*
X148241158Y-96229500D01*
X148241155Y-96229500D01*
X148086510Y-96260261D01*
X148086498Y-96260264D01*
X147940827Y-96320602D01*
X147940814Y-96320609D01*
X147809711Y-96408210D01*
X147809707Y-96408213D01*
X147698213Y-96519707D01*
X147698210Y-96519711D01*
X147610609Y-96650814D01*
X147610602Y-96650827D01*
X147550264Y-96796498D01*
X147550261Y-96796510D01*
X147519500Y-96951153D01*
X144350500Y-96951153D01*
X144350500Y-93051153D01*
X151004500Y-93051153D01*
X151004500Y-93208846D01*
X151035261Y-93363489D01*
X151035264Y-93363501D01*
X151095602Y-93509172D01*
X151095609Y-93509185D01*
X151183210Y-93640288D01*
X151183213Y-93640292D01*
X151294707Y-93751786D01*
X151294711Y-93751789D01*
X151425814Y-93839390D01*
X151425827Y-93839397D01*
X151571498Y-93899735D01*
X151571503Y-93899737D01*
X151726153Y-93930499D01*
X151726156Y-93930500D01*
X151726158Y-93930500D01*
X151883844Y-93930500D01*
X151883845Y-93930499D01*
X152038497Y-93899737D01*
X152184179Y-93839394D01*
X152315289Y-93751789D01*
X152426789Y-93640289D01*
X152514394Y-93509179D01*
X152574737Y-93363497D01*
X152605500Y-93208842D01*
X152605500Y-93051158D01*
X152605500Y-93051155D01*
X152605499Y-93051153D01*
X152588404Y-92965212D01*
X152574737Y-92896503D01*
X152538797Y-92809735D01*
X152514397Y-92750827D01*
X152514390Y-92750814D01*
X152426789Y-92619711D01*
X152426786Y-92619707D01*
X152315292Y-92508213D01*
X152315288Y-92508210D01*
X152184185Y-92420609D01*
X152184172Y-92420602D01*
X152038501Y-92360264D01*
X152038489Y-92360261D01*
X151883845Y-92329500D01*
X151883842Y-92329500D01*
X151726158Y-92329500D01*
X151726155Y-92329500D01*
X151571510Y-92360261D01*
X151571498Y-92360264D01*
X151425827Y-92420602D01*
X151425814Y-92420609D01*
X151294711Y-92508210D01*
X151294707Y-92508213D01*
X151183213Y-92619707D01*
X151183210Y-92619711D01*
X151095609Y-92750814D01*
X151095602Y-92750827D01*
X151035264Y-92896498D01*
X151035261Y-92896510D01*
X151004500Y-93051153D01*
X144350500Y-93051153D01*
X144350500Y-77663713D01*
X170469500Y-77663713D01*
X170469500Y-77876286D01*
X170502753Y-78086239D01*
X170568444Y-78288414D01*
X170664951Y-78477820D01*
X170789890Y-78649786D01*
X170940213Y-78800109D01*
X171112179Y-78925048D01*
X171112181Y-78925049D01*
X171112184Y-78925051D01*
X171301588Y-79021557D01*
X171503757Y-79087246D01*
X171713713Y-79120500D01*
X171713714Y-79120500D01*
X171926286Y-79120500D01*
X171926287Y-79120500D01*
X172136243Y-79087246D01*
X172338412Y-79021557D01*
X172527816Y-78925051D01*
X172549789Y-78909086D01*
X172699786Y-78800109D01*
X172699788Y-78800106D01*
X172699792Y-78800104D01*
X172850104Y-78649792D01*
X172850106Y-78649788D01*
X172850109Y-78649786D01*
X172975048Y-78477820D01*
X172975047Y-78477820D01*
X172975051Y-78477816D01*
X173071557Y-78288412D01*
X173137246Y-78086243D01*
X173170500Y-77876287D01*
X173170500Y-77663713D01*
X173137246Y-77453757D01*
X173071557Y-77251588D01*
X172975051Y-77062184D01*
X172975049Y-77062181D01*
X172975048Y-77062179D01*
X172850109Y-76890213D01*
X172699786Y-76739890D01*
X172527820Y-76614951D01*
X172338414Y-76518444D01*
X172338413Y-76518443D01*
X172338412Y-76518443D01*
X172136243Y-76452754D01*
X172136241Y-76452753D01*
X172136240Y-76452753D01*
X171974957Y-76427208D01*
X171926287Y-76419500D01*
X171713713Y-76419500D01*
X171665042Y-76427208D01*
X171503760Y-76452753D01*
X171301585Y-76518444D01*
X171112179Y-76614951D01*
X170940213Y-76739890D01*
X170789890Y-76890213D01*
X170664951Y-77062179D01*
X170568444Y-77251585D01*
X170502753Y-77453760D01*
X170469500Y-77663713D01*
X144350500Y-77663713D01*
X144350500Y-75761153D01*
X147829500Y-75761153D01*
X147829500Y-75918846D01*
X147860261Y-76073489D01*
X147860264Y-76073501D01*
X147920602Y-76219172D01*
X147920609Y-76219185D01*
X148008210Y-76350288D01*
X148008213Y-76350292D01*
X148119707Y-76461786D01*
X148119711Y-76461789D01*
X148250814Y-76549390D01*
X148250827Y-76549397D01*
X148396498Y-76609735D01*
X148396503Y-76609737D01*
X148545578Y-76639390D01*
X148551153Y-76640499D01*
X148551156Y-76640500D01*
X148551158Y-76640500D01*
X148708844Y-76640500D01*
X148708845Y-76640499D01*
X148863497Y-76609737D01*
X149009179Y-76549394D01*
X149140289Y-76461789D01*
X149251789Y-76350289D01*
X149339394Y-76219179D01*
X149399737Y-76073497D01*
X149430500Y-75918842D01*
X149430500Y-75761158D01*
X149430500Y-75761155D01*
X149430499Y-75761153D01*
X151949500Y-75761153D01*
X151949500Y-75918846D01*
X151980261Y-76073489D01*
X151980264Y-76073501D01*
X152040602Y-76219172D01*
X152040609Y-76219185D01*
X152128210Y-76350288D01*
X152128213Y-76350292D01*
X152239707Y-76461786D01*
X152239711Y-76461789D01*
X152370814Y-76549390D01*
X152370827Y-76549397D01*
X152516498Y-76609735D01*
X152516503Y-76609737D01*
X152665578Y-76639390D01*
X152671153Y-76640499D01*
X152671156Y-76640500D01*
X152671158Y-76640500D01*
X152828844Y-76640500D01*
X152828845Y-76640499D01*
X152983497Y-76609737D01*
X153129179Y-76549394D01*
X153260289Y-76461789D01*
X153371789Y-76350289D01*
X153459394Y-76219179D01*
X153519737Y-76073497D01*
X153550500Y-75918842D01*
X153550500Y-75851153D01*
X156109500Y-75851153D01*
X156109500Y-76008846D01*
X156140261Y-76163489D01*
X156140264Y-76163501D01*
X156200602Y-76309172D01*
X156200609Y-76309185D01*
X156288210Y-76440288D01*
X156288213Y-76440292D01*
X156399707Y-76551786D01*
X156399711Y-76551789D01*
X156530814Y-76639390D01*
X156530827Y-76639397D01*
X156676498Y-76699735D01*
X156676503Y-76699737D01*
X156831153Y-76730499D01*
X156831156Y-76730500D01*
X156831158Y-76730500D01*
X156988844Y-76730500D01*
X156988845Y-76730499D01*
X157143497Y-76699737D01*
X157289179Y-76639394D01*
X157420289Y-76551789D01*
X157531789Y-76440289D01*
X157619394Y-76309179D01*
X157679737Y-76163497D01*
X157710500Y-76008842D01*
X157710500Y-75851158D01*
X157710500Y-75851155D01*
X157710499Y-75851153D01*
X157696199Y-75779257D01*
X157692598Y-75761153D01*
X160459500Y-75761153D01*
X160459500Y-75918846D01*
X160490261Y-76073489D01*
X160490264Y-76073501D01*
X160550602Y-76219172D01*
X160550609Y-76219185D01*
X160638210Y-76350288D01*
X160638213Y-76350292D01*
X160749707Y-76461786D01*
X160749711Y-76461789D01*
X160880814Y-76549390D01*
X160880827Y-76549397D01*
X161026498Y-76609735D01*
X161026503Y-76609737D01*
X161175578Y-76639390D01*
X161181153Y-76640499D01*
X161181156Y-76640500D01*
X161181158Y-76640500D01*
X161338844Y-76640500D01*
X161338845Y-76640499D01*
X161493497Y-76609737D01*
X161639179Y-76549394D01*
X161770289Y-76461789D01*
X161881789Y-76350289D01*
X161969394Y-76219179D01*
X162029737Y-76073497D01*
X162060500Y-75918842D01*
X162060500Y-75761158D01*
X162060500Y-75761155D01*
X162060499Y-75761153D01*
X164089500Y-75761153D01*
X164089500Y-75918846D01*
X164120261Y-76073489D01*
X164120264Y-76073501D01*
X164180602Y-76219172D01*
X164180609Y-76219185D01*
X164268210Y-76350288D01*
X164268213Y-76350292D01*
X164379707Y-76461786D01*
X164379711Y-76461789D01*
X164510814Y-76549390D01*
X164510827Y-76549397D01*
X164656498Y-76609735D01*
X164656503Y-76609737D01*
X164805578Y-76639390D01*
X164811153Y-76640499D01*
X164811156Y-76640500D01*
X164811158Y-76640500D01*
X164968844Y-76640500D01*
X164968845Y-76640499D01*
X165123497Y-76609737D01*
X165269179Y-76549394D01*
X165400289Y-76461789D01*
X165511789Y-76350289D01*
X165599394Y-76219179D01*
X165659737Y-76073497D01*
X165690500Y-75918842D01*
X165690500Y-75761158D01*
X165690500Y-75761155D01*
X165690499Y-75761153D01*
X165659737Y-75606503D01*
X165659735Y-75606498D01*
X165599397Y-75460827D01*
X165599390Y-75460814D01*
X165511789Y-75329711D01*
X165511786Y-75329707D01*
X165400292Y-75218213D01*
X165400288Y-75218210D01*
X165269185Y-75130609D01*
X165269172Y-75130602D01*
X165123501Y-75070264D01*
X165123489Y-75070261D01*
X164968845Y-75039500D01*
X164968842Y-75039500D01*
X164811158Y-75039500D01*
X164811155Y-75039500D01*
X164656510Y-75070261D01*
X164656498Y-75070264D01*
X164510827Y-75130602D01*
X164510814Y-75130609D01*
X164379711Y-75218210D01*
X164379707Y-75218213D01*
X164268213Y-75329707D01*
X164268210Y-75329711D01*
X164180609Y-75460814D01*
X164180602Y-75460827D01*
X164120264Y-75606498D01*
X164120261Y-75606510D01*
X164089500Y-75761153D01*
X162060499Y-75761153D01*
X162029737Y-75606503D01*
X162029735Y-75606498D01*
X161969397Y-75460827D01*
X161969390Y-75460814D01*
X161881789Y-75329711D01*
X161881786Y-75329707D01*
X161770292Y-75218213D01*
X161770288Y-75218210D01*
X161639185Y-75130609D01*
X161639172Y-75130602D01*
X161493501Y-75070264D01*
X161493489Y-75070261D01*
X161338845Y-75039500D01*
X161338842Y-75039500D01*
X161181158Y-75039500D01*
X161181155Y-75039500D01*
X161026510Y-75070261D01*
X161026498Y-75070264D01*
X160880827Y-75130602D01*
X160880814Y-75130609D01*
X160749711Y-75218210D01*
X160749707Y-75218213D01*
X160638213Y-75329707D01*
X160638210Y-75329711D01*
X160550609Y-75460814D01*
X160550602Y-75460827D01*
X160490264Y-75606498D01*
X160490261Y-75606510D01*
X160459500Y-75761153D01*
X157692598Y-75761153D01*
X157679738Y-75696508D01*
X157679737Y-75696507D01*
X157679737Y-75696503D01*
X157642456Y-75606498D01*
X157619397Y-75550827D01*
X157619390Y-75550814D01*
X157531789Y-75419711D01*
X157531786Y-75419707D01*
X157420292Y-75308213D01*
X157420288Y-75308210D01*
X157289185Y-75220609D01*
X157289172Y-75220602D01*
X157143501Y-75160264D01*
X157143489Y-75160261D01*
X156988845Y-75129500D01*
X156988842Y-75129500D01*
X156831158Y-75129500D01*
X156831155Y-75129500D01*
X156676510Y-75160261D01*
X156676498Y-75160264D01*
X156530827Y-75220602D01*
X156530814Y-75220609D01*
X156399711Y-75308210D01*
X156399707Y-75308213D01*
X156288213Y-75419707D01*
X156288210Y-75419711D01*
X156200609Y-75550814D01*
X156200602Y-75550827D01*
X156140264Y-75696498D01*
X156140261Y-75696510D01*
X156109500Y-75851153D01*
X153550500Y-75851153D01*
X153550500Y-75761158D01*
X153550500Y-75761155D01*
X153550499Y-75761153D01*
X153519737Y-75606503D01*
X153519735Y-75606498D01*
X153459397Y-75460827D01*
X153459390Y-75460814D01*
X153371789Y-75329711D01*
X153371786Y-75329707D01*
X153260292Y-75218213D01*
X153260288Y-75218210D01*
X153129185Y-75130609D01*
X153129172Y-75130602D01*
X152983501Y-75070264D01*
X152983489Y-75070261D01*
X152828845Y-75039500D01*
X152828842Y-75039500D01*
X152671158Y-75039500D01*
X152671155Y-75039500D01*
X152516510Y-75070261D01*
X152516498Y-75070264D01*
X152370827Y-75130602D01*
X152370814Y-75130609D01*
X152239711Y-75218210D01*
X152239707Y-75218213D01*
X152128213Y-75329707D01*
X152128210Y-75329711D01*
X152040609Y-75460814D01*
X152040602Y-75460827D01*
X151980264Y-75606498D01*
X151980261Y-75606510D01*
X151949500Y-75761153D01*
X149430499Y-75761153D01*
X149399737Y-75606503D01*
X149399735Y-75606498D01*
X149339397Y-75460827D01*
X149339390Y-75460814D01*
X149251789Y-75329711D01*
X149251786Y-75329707D01*
X149140292Y-75218213D01*
X149140288Y-75218210D01*
X149009185Y-75130609D01*
X149009172Y-75130602D01*
X148863501Y-75070264D01*
X148863489Y-75070261D01*
X148708845Y-75039500D01*
X148708842Y-75039500D01*
X148551158Y-75039500D01*
X148551155Y-75039500D01*
X148396510Y-75070261D01*
X148396498Y-75070264D01*
X148250827Y-75130602D01*
X148250814Y-75130609D01*
X148119711Y-75218210D01*
X148119707Y-75218213D01*
X148008213Y-75329707D01*
X148008210Y-75329711D01*
X147920609Y-75460814D01*
X147920602Y-75460827D01*
X147860264Y-75606498D01*
X147860261Y-75606510D01*
X147829500Y-75761153D01*
X144350500Y-75761153D01*
X144350500Y-74784500D01*
X144370185Y-74717461D01*
X144422989Y-74671706D01*
X144474500Y-74660500D01*
X174820503Y-74660500D01*
X174887542Y-74680185D01*
G37*
%TD.AperFunction*%
%TA.AperFunction,Conductor*%
G36*
X156294377Y-138820280D02*
G01*
X156287949Y-138826709D01*
X156257501Y-138900218D01*
X156257501Y-138979782D01*
X156287949Y-139053291D01*
X156344210Y-139109552D01*
X156417719Y-139140000D01*
X156480121Y-139140000D01*
X156489395Y-139186628D01*
X156489783Y-139189084D01*
X156485587Y-139221368D01*
X156482686Y-139253796D01*
X156481109Y-139255824D01*
X156480779Y-139258371D01*
X156454977Y-139296076D01*
X156136054Y-139614999D01*
X156136054Y-139615000D01*
X156454977Y-139933922D01*
X156457576Y-139938683D01*
X156462102Y-139941679D01*
X156474144Y-139969025D01*
X156488462Y-139995245D01*
X156488656Y-140001977D01*
X156490262Y-140005623D01*
X156489456Y-140029616D01*
X156489783Y-140040913D01*
X156489393Y-140043382D01*
X156480121Y-140090000D01*
X156417719Y-140090000D01*
X156344210Y-140120448D01*
X156287949Y-140176709D01*
X156257501Y-140250218D01*
X156257501Y-140329782D01*
X156287949Y-140403291D01*
X156296479Y-140411821D01*
X156237389Y-140407595D01*
X156193043Y-140379095D01*
X155675440Y-139861493D01*
X155641955Y-139800170D01*
X155646939Y-139730479D01*
X155675440Y-139686131D01*
X155746571Y-139615000D01*
X155675439Y-139543868D01*
X155641955Y-139482545D01*
X155646939Y-139412853D01*
X155675440Y-139368506D01*
X156193043Y-138850904D01*
X156254366Y-138817419D01*
X156294377Y-138820280D01*
G37*
%TD.AperFunction*%
%TD*%
M02*
