M48
; DRILL file {KiCad 9.0.3} date 2026-04-10T16:49:52-0500
; FORMAT={-:-/ absolute / inch / decimal}
; #@! TF.CreationDate,2026-04-10T16:49:52-05:00
; #@! TF.GenerationSoftware,Kicad,Pcbnew,9.0.3
; #@! TF.FileFunction,Plated,1,4,PTH
FMAT,2
INCH
; #@! TA.AperFunction,Plated,PTH,ViaDrill
T1C0.0118
; #@! TA.AperFunction,Plated,PTH,ComponentDrill
T2C0.0157
; #@! TA.AperFunction,Plated,PTH,ComponentDrill
T3C0.0236
%
G90
G05
T1
X5.7311Y-3.915
X5.7315Y-4.0146
X5.7421Y-3.8744
X5.8394Y-3.8201
X5.8445Y-3.1281
X5.8476Y-3.2079
X5.8516Y-2.9858
X5.8555Y-3.9665
X5.8943Y-3.6681
X5.8955Y-3.5858
X5.8974Y-3.524
X5.9241Y-3.4534
X5.9539Y-3.2126
X5.9606Y-5.178
X5.9697Y-4.0598
X5.9697Y-4.1193
X5.974Y-3.8752
X5.9756Y-5.2602
X5.9766Y-3.6665
X5.9795Y-4.1843
X5.9799Y-3.1281
X5.9854Y-3.9236
X5.9878Y-4.337
X5.9937Y-3.9854
X5.9941Y-4.026
X6.0138Y-2.9858
X6.0146Y-3.7732
X6.0291Y-4.2508
X6.0323Y-4.1602
X6.0367Y-3.4541
X6.0382Y-3.4016
X6.0528Y-4.3476
X6.0618Y-4.1138
X6.0646Y-3.9339
X6.0677Y-3.8449
X6.072Y-3.8831
X6.0724Y-3.9783
X6.0728Y-4.2417
X6.0823Y-4.0339
X6.0878Y-3.9169
X6.0882Y-5.4232
X6.1047Y-5.139
X6.1051Y-3.3012
X6.1063Y-4.078
X6.1071Y-3.1961
X6.1161Y-3.8673
X6.1232Y-3.1281
X6.1299Y-4.1016
X6.1547Y-3.3043
X6.1547Y-4.1244
X6.1776Y-2.9894
X6.1902Y-4.1492
X6.2146Y-4.1189
X6.2169Y-3.9626
X6.2346Y-3.3031
X6.2382Y-3.7204
X6.2402Y-4.0972
X6.249Y-3.1978
X6.2594Y-3.1281
X6.2622Y-3.7437
X6.2756Y-4.0945
X6.2769Y-5.3327
X6.2921Y-3.7657
X6.3075Y-4.1039
X6.3143Y-5.3327
X6.3213Y-3.7374
X6.326Y-3.8657
X6.3315Y-4.0539
X6.335Y-3.7083
X6.337Y-4.0921
X6.3488Y-2.9858
X6.3488Y-3.9185
X6.3508Y-4.0252
X6.3602Y-3.9862
X6.3622Y-3.8819
X6.363Y-3.9535
X6.3665Y-3.6882
X6.3689Y-3.3
X6.3807Y-3.1933
X6.385Y-4.0547
X6.3941Y-3.1281
X6.4039Y-3.3154
X6.4193Y-4.0634
X6.4232Y-3.8579
X6.4413Y-3.9614
X6.4437Y-3.6488
X6.4441Y-3.4925
X6.4476Y-4.0839
X6.465Y-3.861
X6.4669Y-3.4114
X6.4677Y-3.4469
X6.4776Y-3.9646
X6.487Y-4.0697
X6.4917Y-2.9858
X6.4976Y-5.4315
X6.5012Y-3.2457
X6.5102Y-3.3264
X6.5169Y-3.9594
X6.5189Y-3.85
X6.522Y-3.2016
X6.5276Y-5.5343
X6.5319Y-3.6035
X6.5327Y-3.128
X6.5327Y-5.3465
X6.5594Y-3.3917
X6.5661Y-3.9366
X6.5677Y-4.0106
X6.5681Y-3.8909
X6.5736Y-3.1732
X6.5756Y-3.528
X6.5799Y-4.0469
X6.5815Y-5.3138
X6.5823Y-3.3083
X6.5843Y-5.2665
X6.5876Y-3.7747
X6.6047Y-5.4047
X6.6224Y-3.422
X6.6276Y-3.7319
X6.6457Y-3.6236
X6.6622Y-3.2839
X6.6634Y-3.1795
X6.6685Y-4.226
X6.678Y-3.6382
X6.6843Y-4.613
X6.6843Y-4.9159
X6.6846Y-4.5173
X6.6846Y-4.5665
X6.685Y-4.6705
X6.6854Y-4.8665
X6.6858Y-4.7661
X6.6858Y-4.8159
X6.6862Y-4.7193
X6.6937Y-3.9531
X6.7126Y-3.4012
X6.7594Y-5.5425
X6.7756Y-3.2689
X6.778Y-3.389
X6.7921Y-3.6335
X6.7933Y-4.052
X6.7961Y-5.1465
X6.7965Y-4.1067
X6.8142Y-3.3945
X6.8157Y-5.2181
X6.8217Y-3.998
X6.824Y-3.9055
T2
X6.1597Y-5.4701
X6.1597Y-5.5232
X6.1932Y-5.4701
X6.1932Y-5.5232
X6.2267Y-5.4701
X6.2267Y-5.5232
X6.2601Y-5.4701
X6.2601Y-5.5232
X6.2936Y-5.4701
X6.2936Y-5.5232
X6.3271Y-5.4701
X6.3271Y-5.5232
X6.3605Y-5.4701
X6.3605Y-5.5232
X6.394Y-5.4701
X6.394Y-5.5232
T3
G00X6.1066Y-5.4791
M15
G01X6.1066Y-5.5382
M16
G05
G00X6.1066Y-5.626
M15
G01X6.1066Y-5.6575
M16
G05
G00X6.4471Y-5.4791
M15
G01X6.4471Y-5.5382
M16
G05
G00X6.4471Y-5.626
M15
G01X6.4471Y-5.6575
M16
G05
M30
