%TF.GenerationSoftware,KiCad,Pcbnew,9.0.3*%
%TF.CreationDate,2026-04-10T16:49:53-05:00*%
%TF.ProjectId,esp32xlegend,65737033-3278-46c6-9567-656e642e6b69,rev?*%
%TF.SameCoordinates,Original*%
%TF.FileFunction,Copper,L3,Inr*%
%TF.FilePolarity,Positive*%
%FSLAX46Y46*%
G04 Gerber Fmt 4.6, Leading zero omitted, Abs format (unit mm)*
G04 Created by KiCad (PCBNEW 9.0.3) date 2026-04-10 16:49:53*
%MOMM*%
%LPD*%
G01*
G04 APERTURE LIST*
%TA.AperFunction,ComponentPad*%
%ADD10O,0.900000X1.700000*%
%TD*%
%TA.AperFunction,ComponentPad*%
%ADD11O,0.900000X2.400000*%
%TD*%
%TA.AperFunction,ComponentPad*%
%ADD12C,0.700000*%
%TD*%
%TA.AperFunction,ViaPad*%
%ADD13C,0.600000*%
%TD*%
%TA.AperFunction,Conductor*%
%ADD14C,0.500000*%
%TD*%
G04 APERTURE END LIST*
D10*
%TO.N,GND*%
%TO.C,J3*%
X163757501Y-143300000D03*
D11*
X163757501Y-139920000D03*
D10*
X155107501Y-143300000D03*
D11*
X155107501Y-139920000D03*
D12*
X156457501Y-140290000D03*
%TO.N,VBUS*%
X157307501Y-140290000D03*
%TO.N,unconnected-(J3-SBU2-PadB8)*%
X158157501Y-140290000D03*
%TO.N,Net-(IC4-I{slash}O1_1)*%
X159007501Y-140290000D03*
%TO.N,Net-(IC4-I{slash}O2_1)*%
X159857501Y-140290000D03*
%TO.N,Net-(J3-CC2)*%
X160707501Y-140290000D03*
%TO.N,VBUS*%
X161557501Y-140290000D03*
%TO.N,GND*%
X162407501Y-140290000D03*
X162407501Y-138940000D03*
%TO.N,VBUS*%
X161557501Y-138940000D03*
%TO.N,unconnected-(J3-SBU1-PadA8)*%
X160707501Y-138940000D03*
%TO.N,Net-(IC4-I{slash}O1_1)*%
X159857501Y-138940000D03*
%TO.N,Net-(IC4-I{slash}O2_1)*%
X159007501Y-138940000D03*
%TO.N,Net-(J3-CC1)*%
X158157501Y-138940000D03*
%TO.N,VBUS*%
X157307501Y-138940000D03*
%TO.N,GND*%
X156457501Y-138940000D03*
%TD*%
D13*
%TO.N,GND*%
X148450000Y-79454998D03*
X151890000Y-79454998D03*
X155530000Y-79454998D03*
X158990000Y-79454998D03*
X162410000Y-79454998D03*
X165930000Y-79450000D03*
%TO.N,RAND_BYTE_15_1V2*%
X165660000Y-81320000D03*
%TO.N,GND*%
X153370000Y-86400000D03*
X153332513Y-87733274D03*
%TO.N,RAND_BYTE_14_1V2*%
X162070000Y-81110000D03*
%TO.N,RAND_BYTE_13_1V2*%
X158725380Y-81225380D03*
%TO.N,RAND_BYTE_10_1V2*%
X158450736Y-94497293D03*
%TO.N,RAND_BYTE_12_1V2*%
X155120000Y-81180000D03*
%TO.N,RAND_BYTE_11_1V2*%
X151230000Y-81600000D03*
%TO.N,RAND_BYTE_13_1V2*%
X160560000Y-94930000D03*
%TO.N,RAND_BYTE_14_1V2*%
X160910000Y-94190000D03*
%TO.N,RAND_BYTE_15_1V2*%
X161710000Y-93680000D03*
%TO.N,RAND_VALID_1V2*%
X163670000Y-92680000D03*
%TO.N,RAND_BYTE_12_1V2*%
X159820000Y-95650000D03*
%TO.N,RAND_BYTE_11_1V2*%
X159060000Y-95090000D03*
%TO.N,RAND_BYTE_10_1V2*%
X148530000Y-81480000D03*
%TO.N,3.3V*%
X166970000Y-80600000D03*
X148630000Y-75840000D03*
X152750000Y-75840000D03*
X156910000Y-75930000D03*
X161260000Y-75840000D03*
X164890000Y-75840000D03*
%TO.N,1.2V*%
X150471851Y-87716984D03*
%TO.N,GND*%
X149715000Y-93170000D03*
X165040000Y-137960000D03*
X172620000Y-130720000D03*
X153740000Y-110430000D03*
X153140000Y-107970000D03*
X153220000Y-105670000D03*
X167020000Y-89610000D03*
X166610000Y-86150000D03*
X169220000Y-83410000D03*
X159432501Y-135449999D03*
X171690000Y-140780000D03*
X167240000Y-133770000D03*
X165930000Y-135800000D03*
%TO.N,Net-(J3-CC1)*%
X154640000Y-137750000D03*
%TO.N,Net-(J3-CC2)*%
X165800000Y-140570000D03*
%TO.N,Net-(IC4-I{slash}O2_1)*%
X160382501Y-135450000D03*
%TO.N,1.2V*%
X165580000Y-97790000D03*
X166830000Y-98830000D03*
X166780000Y-99990000D03*
%TO.N,GND*%
X173330000Y-99200000D03*
X173270000Y-101550000D03*
X172550000Y-102920000D03*
X172630000Y-104310000D03*
%TO.N,3.3V*%
X169380000Y-107340000D03*
X166820000Y-101870000D03*
X167130000Y-102790000D03*
X164770000Y-103370000D03*
%TO.N,1.2V*%
X165529638Y-100570000D03*
%TO.N,GND*%
X163150000Y-97990000D03*
X164210000Y-98070000D03*
X163610000Y-100620000D03*
X164530000Y-100700000D03*
X163770000Y-103730000D03*
X163050000Y-103210000D03*
X145580000Y-101970000D03*
X145570000Y-99440000D03*
X145850000Y-98410000D03*
X152770000Y-95840000D03*
X154490000Y-102460000D03*
X154240000Y-101050000D03*
X154040000Y-99920000D03*
X155350000Y-98230000D03*
X154630000Y-99490000D03*
%TO.N,1.2V*%
X152030000Y-99660000D03*
%TO.N,3.3V*%
X152240000Y-101230000D03*
X152250000Y-102260000D03*
%TO.N,1.2V*%
X153970000Y-104490000D03*
X154250000Y-107740000D03*
%TO.N,GND*%
X148730000Y-100750000D03*
X170020000Y-100410000D03*
X157910000Y-100650000D03*
%TO.N,3.3V*%
X160820000Y-102970000D03*
X162180000Y-102990000D03*
X161310000Y-102240000D03*
X161550000Y-101250000D03*
%TO.N,1.2V*%
X160680000Y-98190000D03*
X161260000Y-99530000D03*
X161620000Y-100420000D03*
X161600000Y-98600000D03*
%TO.N,Net-(U1-EN)*%
X167170000Y-134970000D03*
X167760000Y-137280000D03*
%TO.N,3.3V*%
X173120000Y-132540000D03*
X151780000Y-133610000D03*
X151400000Y-131520000D03*
X155060000Y-130530000D03*
X151630000Y-104630000D03*
X151880000Y-106280000D03*
X152090000Y-110160000D03*
%TO.N,OE_N_FROM_LEGEND2*%
X169790000Y-114740000D03*
%TO.N,RAND_BYTE_9*%
X169790000Y-115990000D03*
%TO.N,RAND_BYTE_8*%
X169780000Y-117170000D03*
X159400000Y-104000000D03*
%TO.N,RAND_BYTE_9*%
X160210000Y-104240000D03*
%TO.N,OE_N_FROM_LEGEND2*%
X160960000Y-103940000D03*
%TO.N,RAND_BYTE_6*%
X157850000Y-104620000D03*
%TO.N,RAND_BYTE_5*%
X157230000Y-105390000D03*
%TO.N,RAND_BYTE_2*%
X169780000Y-124865000D03*
%TO.N,RAND_BYTE_4*%
X169820000Y-122325000D03*
%TO.N,RAND_BYTE_3*%
X169810000Y-123610000D03*
%TO.N,RAND_BYTE_6*%
X169830000Y-119870000D03*
%TO.N,RAND_BYTE_7*%
X169800000Y-118630000D03*
%TO.N,RAND_BYTE_5*%
X169820000Y-121060000D03*
%TO.N,RAND_BYTE_7*%
X158500000Y-104070000D03*
%TO.N,RAND_BYTE_4*%
X156330000Y-104760000D03*
%TO.N,RAND_BYTE_3*%
X155700000Y-104180000D03*
%TO.N,RAND_BYTE_2*%
X155100000Y-103580000D03*
%TO.N,3.3V*%
X151630000Y-103120000D03*
%TO.N,1.2V*%
X154230000Y-98630000D03*
X154120000Y-97660000D03*
X151740000Y-98430000D03*
%TO.N,GND*%
X158360000Y-83900000D03*
%TO.N,LEGEND_MOSI_1V2*%
X168340000Y-94790000D03*
X155070000Y-83850000D03*
%TO.N,LEGEND_SS_n_1V2*%
X156330000Y-83930000D03*
X167326271Y-95877968D03*
%TO.N,1.2V*%
X172100000Y-83030000D03*
%TO.N,GND*%
X169250000Y-80760000D03*
%TO.N,1.2V*%
X165360000Y-84490000D03*
%TO.N,LEGEND_TEMP_DEBUG*%
X168800000Y-92040000D03*
X165910000Y-91530000D03*
%TO.N,LEGEND_INPUT_PIN_1*%
X163680000Y-88710000D03*
X168210000Y-86920000D03*
%TO.N,GND*%
X170500000Y-86390000D03*
%TO.N,1.2V*%
X172160000Y-86080000D03*
X173080000Y-86220000D03*
X172520000Y-92290000D03*
%TO.N,GND*%
X169620000Y-92410000D03*
%TO.N,1.2V*%
X164280000Y-87550000D03*
X164260000Y-86650000D03*
X151805000Y-93130000D03*
%TO.N,GND*%
X149745000Y-91080000D03*
X149795000Y-89510000D03*
%TO.N,LEGEND_OUTPUT_INPUT_DIRECT*%
X167190000Y-84030000D03*
X162660000Y-84210000D03*
%TO.N,LEGEND_DEBUG*%
X161770000Y-83820000D03*
X165130000Y-82440000D03*
%TO.N,RAND_VALID_1V2*%
X148320000Y-97030000D03*
%TD*%
D14*
%TO.N,3.3V*%
X166970000Y-76270000D02*
X166970000Y-80600000D01*
X164080000Y-75840000D02*
X166540000Y-75840000D01*
X164080000Y-75840000D02*
X164890000Y-75840000D01*
X166540000Y-75840000D02*
X166970000Y-76270000D01*
X145430000Y-75840000D02*
X164080000Y-75840000D01*
X149860000Y-130530000D02*
X144601000Y-125271000D01*
X144601000Y-76669000D02*
X145430000Y-75840000D01*
X155060000Y-130530000D02*
X149860000Y-130530000D01*
X144601000Y-125271000D02*
X144601000Y-76669000D01*
%TD*%
%TA.AperFunction,Conductor*%
%TO.N,1.2V*%
G36*
X174887542Y-74680185D02*
G01*
X174933297Y-74732989D01*
X174944503Y-74784500D01*
X174944503Y-100153972D01*
X174924818Y-100221011D01*
X174872014Y-100266766D01*
X174818016Y-100276815D01*
X174818027Y-100277733D01*
X174813602Y-100277781D01*
X174813599Y-100277781D01*
X174014311Y-100286548D01*
X173937342Y-100287393D01*
X173921985Y-100287795D01*
X173918330Y-100287946D01*
X173914547Y-100288103D01*
X173914535Y-100288103D01*
X173914527Y-100288104D01*
X173899382Y-100288959D01*
X173758801Y-100319541D01*
X173758796Y-100319542D01*
X173758795Y-100319543D01*
X173754184Y-100321263D01*
X173693335Y-100343958D01*
X173693328Y-100343961D01*
X173618446Y-100384848D01*
X173561671Y-100399986D01*
X172975709Y-100412506D01*
X172922789Y-100401886D01*
X172783735Y-100340216D01*
X172783719Y-100340210D01*
X172716472Y-100321263D01*
X172573846Y-100302351D01*
X172573843Y-100302351D01*
X172371801Y-100304567D01*
X170921500Y-100320476D01*
X170854249Y-100301527D01*
X170807917Y-100249229D01*
X170798523Y-100220679D01*
X170789737Y-100176503D01*
X170749024Y-100078213D01*
X170729397Y-100030827D01*
X170729390Y-100030814D01*
X170641789Y-99899711D01*
X170641786Y-99899707D01*
X170530292Y-99788213D01*
X170530288Y-99788210D01*
X170399185Y-99700609D01*
X170399172Y-99700602D01*
X170253501Y-99640264D01*
X170253489Y-99640261D01*
X170098845Y-99609500D01*
X170098842Y-99609500D01*
X169941158Y-99609500D01*
X169941155Y-99609500D01*
X169786510Y-99640261D01*
X169786498Y-99640264D01*
X169640827Y-99700602D01*
X169640814Y-99700609D01*
X169509711Y-99788210D01*
X169509707Y-99788213D01*
X169398213Y-99899707D01*
X169398210Y-99899711D01*
X169310609Y-100030814D01*
X169310602Y-100030827D01*
X169250264Y-100176498D01*
X169250261Y-100176508D01*
X169237539Y-100240466D01*
X169205154Y-100302377D01*
X169144437Y-100336951D01*
X169117282Y-100340267D01*
X167628416Y-100356600D01*
X166345119Y-100370678D01*
X166345075Y-100370678D01*
X166345054Y-100370679D01*
X166338583Y-100370792D01*
X166335482Y-100370866D01*
X166329395Y-100371049D01*
X166329385Y-100371049D01*
X166329384Y-100371050D01*
X166187802Y-100396661D01*
X166121518Y-100418756D01*
X166121516Y-100418756D01*
X166121513Y-100418758D01*
X165992896Y-100483210D01*
X165992894Y-100483212D01*
X165941290Y-100531298D01*
X165878824Y-100562599D01*
X165859405Y-100564550D01*
X165425502Y-100573821D01*
X165358057Y-100555573D01*
X165311185Y-100503758D01*
X165301236Y-100474041D01*
X165299737Y-100466503D01*
X165297152Y-100460263D01*
X165239397Y-100320827D01*
X165239390Y-100320814D01*
X165151789Y-100189711D01*
X165151786Y-100189707D01*
X165040292Y-100078213D01*
X165040288Y-100078210D01*
X164909185Y-99990609D01*
X164909172Y-99990602D01*
X164763501Y-99930264D01*
X164763489Y-99930261D01*
X164608845Y-99899500D01*
X164608842Y-99899500D01*
X164451158Y-99899500D01*
X164451155Y-99899500D01*
X164296510Y-99930261D01*
X164296498Y-99930264D01*
X164186181Y-99975959D01*
X164116712Y-99983428D01*
X164069838Y-99964500D01*
X163989185Y-99910609D01*
X163989172Y-99910602D01*
X163843501Y-99850264D01*
X163843489Y-99850261D01*
X163688845Y-99819500D01*
X163688842Y-99819500D01*
X163531158Y-99819500D01*
X163531155Y-99819500D01*
X163376510Y-99850261D01*
X163376498Y-99850264D01*
X163230827Y-99910602D01*
X163230814Y-99910609D01*
X163099711Y-99998210D01*
X163099707Y-99998213D01*
X162988213Y-100109707D01*
X162988210Y-100109711D01*
X162900609Y-100240814D01*
X162900604Y-100240823D01*
X162862181Y-100333587D01*
X162818340Y-100387990D01*
X162752046Y-100410055D01*
X162749018Y-100410126D01*
X162461357Y-100413281D01*
X162295941Y-100415096D01*
X162244708Y-100418268D01*
X162244685Y-100418270D01*
X162219701Y-100421096D01*
X162169071Y-100429445D01*
X162169068Y-100429445D01*
X162169068Y-100429446D01*
X162155850Y-100434376D01*
X162034257Y-100479728D01*
X161995637Y-100500816D01*
X161977603Y-100510664D01*
X161909331Y-100525516D01*
X161870724Y-100516393D01*
X161783501Y-100480264D01*
X161783489Y-100480261D01*
X161628845Y-100449500D01*
X161628842Y-100449500D01*
X161471158Y-100449500D01*
X161471155Y-100449500D01*
X161316511Y-100480260D01*
X161316502Y-100480263D01*
X161296625Y-100488496D01*
X161269525Y-100491408D01*
X161243026Y-100497780D01*
X161232822Y-100495352D01*
X161227155Y-100495962D01*
X161208383Y-100491031D01*
X161203564Y-100489352D01*
X161154918Y-100467778D01*
X161087668Y-100448830D01*
X161087666Y-100448829D01*
X161086983Y-100448738D01*
X161086982Y-100448738D01*
X161002376Y-100437519D01*
X160945034Y-100429916D01*
X160945033Y-100429916D01*
X160648210Y-100433172D01*
X160648207Y-100433172D01*
X160541352Y-100445799D01*
X160541334Y-100445802D01*
X160490172Y-100457472D01*
X160399859Y-100488496D01*
X160388413Y-100492428D01*
X160268327Y-100571158D01*
X160268084Y-100571317D01*
X160215704Y-100617547D01*
X160215702Y-100617549D01*
X160122477Y-100727136D01*
X160081442Y-100819200D01*
X160063899Y-100858557D01*
X160046587Y-100919561D01*
X160046023Y-100921217D01*
X160044825Y-100925773D01*
X160025648Y-101068354D01*
X160025648Y-101068365D01*
X160041138Y-102769001D01*
X160038761Y-102794319D01*
X160019500Y-102891158D01*
X160019500Y-103048846D01*
X160050260Y-103203486D01*
X160051718Y-103208291D01*
X160052343Y-103278158D01*
X160015097Y-103337272D01*
X159951803Y-103366865D01*
X159882559Y-103357541D01*
X159864168Y-103347392D01*
X159779190Y-103290612D01*
X159779172Y-103290602D01*
X159633501Y-103230264D01*
X159633489Y-103230261D01*
X159478845Y-103199500D01*
X159478842Y-103199500D01*
X159321158Y-103199500D01*
X159321155Y-103199500D01*
X159166510Y-103230261D01*
X159166498Y-103230264D01*
X159020828Y-103290602D01*
X159020815Y-103290609D01*
X158957055Y-103333213D01*
X158890377Y-103354091D01*
X158840712Y-103344672D01*
X158733501Y-103300264D01*
X158733489Y-103300261D01*
X158578845Y-103269500D01*
X158578842Y-103269500D01*
X158421158Y-103269500D01*
X158421155Y-103269500D01*
X158266510Y-103300261D01*
X158266498Y-103300264D01*
X158120827Y-103360602D01*
X158120814Y-103360609D01*
X157989711Y-103448210D01*
X157989707Y-103448213D01*
X157878213Y-103559707D01*
X157878210Y-103559711D01*
X157790609Y-103690814D01*
X157790606Y-103690820D01*
X157759629Y-103765605D01*
X157715787Y-103820008D01*
X157669261Y-103839768D01*
X157616507Y-103850262D01*
X157616498Y-103850264D01*
X157470827Y-103910602D01*
X157470814Y-103910609D01*
X157339711Y-103998210D01*
X157339707Y-103998213D01*
X157228213Y-104109707D01*
X157145358Y-104233707D01*
X157091745Y-104278511D01*
X157022420Y-104287218D01*
X156959393Y-104257063D01*
X156954575Y-104252496D01*
X156840292Y-104138213D01*
X156840288Y-104138210D01*
X156709185Y-104050609D01*
X156709172Y-104050602D01*
X156563501Y-103990264D01*
X156563493Y-103990262D01*
X156546075Y-103986797D01*
X156484164Y-103954410D01*
X156455708Y-103912633D01*
X156409395Y-103800823D01*
X156409390Y-103800814D01*
X156321789Y-103669711D01*
X156321786Y-103669707D01*
X156210292Y-103558213D01*
X156210288Y-103558210D01*
X156079185Y-103470609D01*
X156079172Y-103470602D01*
X155935864Y-103411243D01*
X155881460Y-103367402D01*
X155868761Y-103344147D01*
X155809394Y-103200821D01*
X155809392Y-103200818D01*
X155809390Y-103200814D01*
X155721789Y-103069711D01*
X155721786Y-103069707D01*
X155610292Y-102958213D01*
X155610288Y-102958210D01*
X155479185Y-102870609D01*
X155479176Y-102870604D01*
X155337911Y-102812091D01*
X155283508Y-102768250D01*
X155261443Y-102701956D01*
X155263747Y-102673338D01*
X155290500Y-102538844D01*
X155290500Y-102381155D01*
X155290499Y-102381153D01*
X155259738Y-102226510D01*
X155259737Y-102226503D01*
X155259735Y-102226498D01*
X155199397Y-102080827D01*
X155199390Y-102080814D01*
X155111789Y-101949711D01*
X155111786Y-101949707D01*
X155000292Y-101838213D01*
X155000288Y-101838210D01*
X154876293Y-101755358D01*
X154831488Y-101701745D01*
X154822781Y-101632420D01*
X154852936Y-101569393D01*
X154857508Y-101564570D01*
X154861789Y-101560289D01*
X154949394Y-101429179D01*
X155009737Y-101283497D01*
X155040500Y-101128842D01*
X155040500Y-100971158D01*
X155040500Y-100971155D01*
X155040499Y-100971153D01*
X155023061Y-100883489D01*
X155009737Y-100816503D01*
X155002544Y-100799138D01*
X154949397Y-100670827D01*
X154949390Y-100670814D01*
X154927922Y-100638686D01*
X154882798Y-100571153D01*
X157109500Y-100571153D01*
X157109500Y-100728846D01*
X157140261Y-100883489D01*
X157140264Y-100883501D01*
X157200602Y-101029172D01*
X157200609Y-101029185D01*
X157288210Y-101160288D01*
X157288213Y-101160292D01*
X157399707Y-101271786D01*
X157399711Y-101271789D01*
X157530814Y-101359390D01*
X157530827Y-101359397D01*
X157676498Y-101419735D01*
X157676503Y-101419737D01*
X157831153Y-101450499D01*
X157831156Y-101450500D01*
X157831158Y-101450500D01*
X157988844Y-101450500D01*
X157988845Y-101450499D01*
X158143497Y-101419737D01*
X158289179Y-101359394D01*
X158420289Y-101271789D01*
X158531789Y-101160289D01*
X158619394Y-101029179D01*
X158679737Y-100883497D01*
X158710500Y-100728842D01*
X158710500Y-100571158D01*
X158710500Y-100571155D01*
X158710499Y-100571153D01*
X158704658Y-100541789D01*
X158679737Y-100416503D01*
X158673953Y-100402539D01*
X158619397Y-100270827D01*
X158619390Y-100270814D01*
X158531789Y-100139711D01*
X158531786Y-100139707D01*
X158420292Y-100028213D01*
X158420288Y-100028210D01*
X158289185Y-99940609D01*
X158289172Y-99940602D01*
X158143501Y-99880264D01*
X158143489Y-99880261D01*
X157988845Y-99849500D01*
X157988842Y-99849500D01*
X157831158Y-99849500D01*
X157831155Y-99849500D01*
X157676510Y-99880261D01*
X157676498Y-99880264D01*
X157530827Y-99940602D01*
X157530814Y-99940609D01*
X157399711Y-100028210D01*
X157399707Y-100028213D01*
X157288213Y-100139707D01*
X157288210Y-100139711D01*
X157200609Y-100270814D01*
X157200602Y-100270827D01*
X157140264Y-100416498D01*
X157140261Y-100416510D01*
X157109500Y-100571153D01*
X154882798Y-100571153D01*
X154861789Y-100539711D01*
X154788000Y-100465922D01*
X154783910Y-100460872D01*
X154772858Y-100434376D01*
X154759104Y-100409187D01*
X154759579Y-100402539D01*
X154757013Y-100396387D01*
X154762040Y-100368124D01*
X154764088Y-100339495D01*
X154768082Y-100334158D01*
X154769250Y-100327597D01*
X154788757Y-100306540D01*
X154805960Y-100283562D01*
X154812923Y-100280456D01*
X154816735Y-100276343D01*
X154829574Y-100273032D01*
X154856085Y-100261211D01*
X154863497Y-100259737D01*
X155009179Y-100199394D01*
X155140289Y-100111789D01*
X155251789Y-100000289D01*
X155339394Y-99869179D01*
X155399737Y-99723497D01*
X155430500Y-99568842D01*
X155430500Y-99411158D01*
X155430500Y-99411155D01*
X155430499Y-99411153D01*
X155420553Y-99361153D01*
X155399737Y-99256503D01*
X155373285Y-99192643D01*
X155371122Y-99172523D01*
X155364128Y-99153535D01*
X155367464Y-99138493D01*
X155365817Y-99123175D01*
X155366829Y-99121153D01*
X172529500Y-99121153D01*
X172529500Y-99278846D01*
X172560261Y-99433489D01*
X172560264Y-99433501D01*
X172620602Y-99579172D01*
X172620609Y-99579185D01*
X172708210Y-99710288D01*
X172708213Y-99710292D01*
X172819707Y-99821786D01*
X172819711Y-99821789D01*
X172950814Y-99909390D01*
X172950827Y-99909397D01*
X173096498Y-99969735D01*
X173096503Y-99969737D01*
X173239661Y-99998213D01*
X173251153Y-100000499D01*
X173251156Y-100000500D01*
X173251158Y-100000500D01*
X173408844Y-100000500D01*
X173408845Y-100000499D01*
X173563497Y-99969737D01*
X173709179Y-99909394D01*
X173840289Y-99821789D01*
X173951789Y-99710289D01*
X174039394Y-99579179D01*
X174099737Y-99433497D01*
X174130500Y-99278842D01*
X174130500Y-99121158D01*
X174130500Y-99121155D01*
X174130499Y-99121153D01*
X174122396Y-99080417D01*
X174099737Y-98966503D01*
X174099735Y-98966498D01*
X174039397Y-98820827D01*
X174039390Y-98820814D01*
X173951789Y-98689711D01*
X173951786Y-98689707D01*
X173840292Y-98578213D01*
X173840288Y-98578210D01*
X173709185Y-98490609D01*
X173709172Y-98490602D01*
X173563501Y-98430264D01*
X173563489Y-98430261D01*
X173408845Y-98399500D01*
X173408842Y-98399500D01*
X173251158Y-98399500D01*
X173251155Y-98399500D01*
X173096510Y-98430261D01*
X173096498Y-98430264D01*
X172950827Y-98490602D01*
X172950814Y-98490609D01*
X172819711Y-98578210D01*
X172819707Y-98578213D01*
X172708213Y-98689707D01*
X172708210Y-98689711D01*
X172620609Y-98820814D01*
X172620602Y-98820827D01*
X172560264Y-98966498D01*
X172560261Y-98966510D01*
X172529500Y-99121153D01*
X155366829Y-99121153D01*
X155374875Y-99105079D01*
X155379257Y-99085323D01*
X155390195Y-99074472D01*
X155397092Y-99060696D01*
X155414495Y-99050370D01*
X155428863Y-99036119D01*
X155453463Y-99027249D01*
X155457181Y-99025044D01*
X155461982Y-99023920D01*
X155462816Y-99023741D01*
X155583497Y-98999737D01*
X155729179Y-98939394D01*
X155860289Y-98851789D01*
X155971789Y-98740289D01*
X156059394Y-98609179D01*
X156119737Y-98463497D01*
X156150500Y-98308842D01*
X156150500Y-98151158D01*
X156150500Y-98151155D01*
X156150499Y-98151153D01*
X156134126Y-98068842D01*
X156119737Y-97996503D01*
X156084384Y-97911153D01*
X162349500Y-97911153D01*
X162349500Y-98068846D01*
X162380261Y-98223489D01*
X162380264Y-98223501D01*
X162440602Y-98369172D01*
X162440609Y-98369185D01*
X162528210Y-98500288D01*
X162528213Y-98500292D01*
X162639707Y-98611786D01*
X162639711Y-98611789D01*
X162770814Y-98699390D01*
X162770827Y-98699397D01*
X162869558Y-98740292D01*
X162916503Y-98759737D01*
X163064482Y-98789172D01*
X163071153Y-98790499D01*
X163071156Y-98790500D01*
X163071158Y-98790500D01*
X163228844Y-98790500D01*
X163228845Y-98790499D01*
X163383497Y-98759737D01*
X163529179Y-98699394D01*
X163551819Y-98684265D01*
X163618493Y-98663387D01*
X163685874Y-98681870D01*
X163699371Y-98691511D01*
X163699706Y-98691786D01*
X163830814Y-98779390D01*
X163830827Y-98779397D01*
X163976498Y-98839735D01*
X163976503Y-98839737D01*
X164119661Y-98868213D01*
X164131153Y-98870499D01*
X164131156Y-98870500D01*
X164131158Y-98870500D01*
X164288844Y-98870500D01*
X164288845Y-98870499D01*
X164443497Y-98839737D01*
X164589179Y-98779394D01*
X164720289Y-98691789D01*
X164831789Y-98580289D01*
X164919394Y-98449179D01*
X164979737Y-98303497D01*
X165010500Y-98148842D01*
X165010500Y-97991158D01*
X165010500Y-97991155D01*
X165010499Y-97991153D01*
X164982585Y-97850821D01*
X164979737Y-97836503D01*
X164979735Y-97836498D01*
X164919397Y-97690827D01*
X164919390Y-97690814D01*
X164831789Y-97559711D01*
X164831786Y-97559707D01*
X164720292Y-97448213D01*
X164720288Y-97448210D01*
X164589185Y-97360609D01*
X164589172Y-97360602D01*
X164443501Y-97300264D01*
X164443489Y-97300261D01*
X164288845Y-97269500D01*
X164288842Y-97269500D01*
X164131158Y-97269500D01*
X164131155Y-97269500D01*
X163976510Y-97300261D01*
X163976498Y-97300264D01*
X163830828Y-97360602D01*
X163830814Y-97360610D01*
X163808176Y-97375736D01*
X163741499Y-97396612D01*
X163674119Y-97378126D01*
X163660620Y-97368482D01*
X163660291Y-97368212D01*
X163529185Y-97280609D01*
X163529172Y-97280602D01*
X163383501Y-97220264D01*
X163383489Y-97220261D01*
X163228845Y-97189500D01*
X163228842Y-97189500D01*
X163071158Y-97189500D01*
X163071155Y-97189500D01*
X162916510Y-97220261D01*
X162916498Y-97220264D01*
X162770827Y-97280602D01*
X162770814Y-97280609D01*
X162639711Y-97368210D01*
X162639707Y-97368213D01*
X162528213Y-97479707D01*
X162528210Y-97479711D01*
X162440609Y-97610814D01*
X162440602Y-97610827D01*
X162380264Y-97756498D01*
X162380261Y-97756510D01*
X162349500Y-97911153D01*
X156084384Y-97911153D01*
X156079643Y-97899707D01*
X156059397Y-97850827D01*
X156059390Y-97850814D01*
X155971789Y-97719711D01*
X155971786Y-97719707D01*
X155860292Y-97608213D01*
X155860288Y-97608210D01*
X155729185Y-97520609D01*
X155729172Y-97520602D01*
X155583501Y-97460264D01*
X155583489Y-97460261D01*
X155428845Y-97429500D01*
X155428842Y-97429500D01*
X155271158Y-97429500D01*
X155271155Y-97429500D01*
X155116510Y-97460261D01*
X155116498Y-97460264D01*
X154970827Y-97520602D01*
X154970814Y-97520609D01*
X154839711Y-97608210D01*
X154839707Y-97608213D01*
X154728213Y-97719707D01*
X154728210Y-97719711D01*
X154640609Y-97850814D01*
X154640602Y-97850827D01*
X154580264Y-97996498D01*
X154580261Y-97996510D01*
X154549500Y-98151153D01*
X154549500Y-98308846D01*
X154580261Y-98463489D01*
X154580264Y-98463501D01*
X154606713Y-98527355D01*
X154614182Y-98596825D01*
X154582906Y-98659304D01*
X154522817Y-98694955D01*
X154516344Y-98696424D01*
X154396508Y-98720261D01*
X154396498Y-98720264D01*
X154250827Y-98780602D01*
X154250814Y-98780609D01*
X154119711Y-98868210D01*
X154119707Y-98868213D01*
X154008213Y-98979707D01*
X154008210Y-98979711D01*
X153936237Y-99087426D01*
X153882624Y-99132231D01*
X153857328Y-99140152D01*
X153806507Y-99150261D01*
X153806500Y-99150263D01*
X153660827Y-99210602D01*
X153660814Y-99210609D01*
X153529711Y-99298210D01*
X153529707Y-99298213D01*
X153418213Y-99409707D01*
X153418210Y-99409711D01*
X153330609Y-99540814D01*
X153330602Y-99540827D01*
X153270264Y-99686498D01*
X153270261Y-99686510D01*
X153239500Y-99841153D01*
X153239500Y-99998846D01*
X153270261Y-100153489D01*
X153270264Y-100153501D01*
X153330602Y-100299172D01*
X153330609Y-100299185D01*
X153418210Y-100430288D01*
X153418213Y-100430292D01*
X153510210Y-100522289D01*
X153543695Y-100583612D01*
X153538711Y-100653304D01*
X153531891Y-100668416D01*
X153530606Y-100670820D01*
X153470264Y-100816498D01*
X153470261Y-100816510D01*
X153439500Y-100971153D01*
X153439500Y-101128846D01*
X153470261Y-101283489D01*
X153470264Y-101283501D01*
X153530602Y-101429172D01*
X153530609Y-101429185D01*
X153618210Y-101560288D01*
X153618213Y-101560292D01*
X153729707Y-101671786D01*
X153729711Y-101671789D01*
X153853706Y-101754641D01*
X153898511Y-101808254D01*
X153907218Y-101877579D01*
X153877063Y-101940606D01*
X153872501Y-101945419D01*
X153868216Y-101949704D01*
X153868210Y-101949711D01*
X153780609Y-102080814D01*
X153780602Y-102080827D01*
X153720264Y-102226498D01*
X153720261Y-102226510D01*
X153689500Y-102381153D01*
X153689500Y-102538846D01*
X153720261Y-102693489D01*
X153720264Y-102693501D01*
X153780602Y-102839172D01*
X153780609Y-102839185D01*
X153868210Y-102970288D01*
X153868213Y-102970292D01*
X153979707Y-103081786D01*
X153979711Y-103081789D01*
X154110814Y-103169390D01*
X154110827Y-103169397D01*
X154252087Y-103227908D01*
X154306491Y-103271748D01*
X154328556Y-103338043D01*
X154326252Y-103366660D01*
X154299500Y-103501153D01*
X154299500Y-103658846D01*
X154330261Y-103813489D01*
X154330264Y-103813501D01*
X154390602Y-103959172D01*
X154390609Y-103959185D01*
X154478210Y-104090288D01*
X154478213Y-104090292D01*
X154589707Y-104201786D01*
X154589711Y-104201789D01*
X154720814Y-104289390D01*
X154720818Y-104289392D01*
X154720821Y-104289394D01*
X154864138Y-104348757D01*
X154918537Y-104392595D01*
X154931243Y-104415864D01*
X154990602Y-104559172D01*
X154990609Y-104559185D01*
X155078210Y-104690288D01*
X155078213Y-104690292D01*
X155189707Y-104801786D01*
X155189711Y-104801789D01*
X155320814Y-104889390D01*
X155320827Y-104889397D01*
X155405326Y-104924397D01*
X155466503Y-104949737D01*
X155483922Y-104953201D01*
X155545833Y-104985586D01*
X155574292Y-105027367D01*
X155620602Y-105139172D01*
X155620609Y-105139185D01*
X155708210Y-105270288D01*
X155708213Y-105270292D01*
X155819707Y-105381786D01*
X155819711Y-105381789D01*
X155950814Y-105469390D01*
X155950827Y-105469397D01*
X156096498Y-105529735D01*
X156096503Y-105529737D01*
X156213745Y-105553058D01*
X156251153Y-105560499D01*
X156251156Y-105560500D01*
X156351315Y-105560500D01*
X156418354Y-105580185D01*
X156464109Y-105632989D01*
X156465876Y-105637048D01*
X156520602Y-105769172D01*
X156520609Y-105769185D01*
X156608210Y-105900288D01*
X156608213Y-105900292D01*
X156719707Y-106011786D01*
X156719711Y-106011789D01*
X156850814Y-106099390D01*
X156850827Y-106099397D01*
X156996498Y-106159735D01*
X156996503Y-106159737D01*
X157151153Y-106190499D01*
X157151156Y-106190500D01*
X157151158Y-106190500D01*
X157308844Y-106190500D01*
X157308845Y-106190499D01*
X157463497Y-106159737D01*
X157609179Y-106099394D01*
X157740289Y-106011789D01*
X157851789Y-105900289D01*
X157939394Y-105769179D01*
X157999737Y-105623497D01*
X158029959Y-105471563D01*
X158062344Y-105409652D01*
X158104124Y-105381193D01*
X158229172Y-105329397D01*
X158229172Y-105329396D01*
X158229179Y-105329394D01*
X158360289Y-105241789D01*
X158471789Y-105130289D01*
X158559394Y-104999179D01*
X158590369Y-104924394D01*
X158634209Y-104869993D01*
X158680736Y-104850231D01*
X158733497Y-104839737D01*
X158879179Y-104779394D01*
X158942945Y-104736786D01*
X159009620Y-104715908D01*
X159059286Y-104725326D01*
X159166503Y-104769737D01*
X159321153Y-104800499D01*
X159321156Y-104800500D01*
X159321158Y-104800500D01*
X159478843Y-104800500D01*
X159499238Y-104796442D01*
X159546938Y-104786954D01*
X159616528Y-104793180D01*
X159658811Y-104820890D01*
X159699707Y-104861786D01*
X159699711Y-104861789D01*
X159830814Y-104949390D01*
X159830827Y-104949397D01*
X159982131Y-105012068D01*
X159981472Y-105013657D01*
X160033054Y-105047460D01*
X160061512Y-105111271D01*
X160062616Y-105126692D01*
X160066748Y-105580185D01*
X160107395Y-110042443D01*
X160088322Y-110109659D01*
X160035937Y-110155892D01*
X159981498Y-110167557D01*
X154535965Y-110084022D01*
X154469235Y-110063312D01*
X154434766Y-110028929D01*
X154361789Y-109919711D01*
X154361787Y-109919708D01*
X154250292Y-109808213D01*
X154250288Y-109808210D01*
X154119185Y-109720609D01*
X154119172Y-109720602D01*
X153973501Y-109660264D01*
X153973489Y-109660261D01*
X153818845Y-109629500D01*
X153818842Y-109629500D01*
X153661158Y-109629500D01*
X153661155Y-109629500D01*
X153506510Y-109660261D01*
X153506507Y-109660262D01*
X153506506Y-109660262D01*
X153506503Y-109660263D01*
X153419389Y-109696346D01*
X153414948Y-109698186D01*
X153345478Y-109705654D01*
X153282999Y-109674378D01*
X153247347Y-109614289D01*
X153243501Y-109584715D01*
X153237209Y-108869700D01*
X153256303Y-108802492D01*
X153308702Y-108756274D01*
X153337009Y-108746994D01*
X153373497Y-108739737D01*
X153519179Y-108679394D01*
X153650289Y-108591789D01*
X153761789Y-108480289D01*
X153849394Y-108349179D01*
X153909737Y-108203497D01*
X153940500Y-108048842D01*
X153940500Y-107891158D01*
X153940500Y-107891155D01*
X153940499Y-107891153D01*
X153909738Y-107736510D01*
X153909737Y-107736503D01*
X153909735Y-107736498D01*
X153849397Y-107590827D01*
X153849390Y-107590814D01*
X153761789Y-107459711D01*
X153761786Y-107459707D01*
X153650292Y-107348213D01*
X153650288Y-107348210D01*
X153519185Y-107260609D01*
X153519172Y-107260602D01*
X153373501Y-107200264D01*
X153373491Y-107200261D01*
X153321167Y-107189853D01*
X153259256Y-107157467D01*
X153224682Y-107096751D01*
X153221364Y-107069331D01*
X153217143Y-106589606D01*
X153236237Y-106522397D01*
X153288636Y-106476179D01*
X153316947Y-106466899D01*
X153366114Y-106457118D01*
X153453497Y-106439737D01*
X153599179Y-106379394D01*
X153730289Y-106291789D01*
X153841789Y-106180289D01*
X153929394Y-106049179D01*
X153989737Y-105903497D01*
X154020500Y-105748842D01*
X154020500Y-105591158D01*
X154020500Y-105591155D01*
X154020499Y-105591153D01*
X154014402Y-105560500D01*
X153989737Y-105436503D01*
X153945373Y-105329397D01*
X153929397Y-105290827D01*
X153929390Y-105290814D01*
X153841789Y-105159711D01*
X153841786Y-105159707D01*
X153730292Y-105048213D01*
X153730288Y-105048210D01*
X153599185Y-104960609D01*
X153599172Y-104960602D01*
X153453501Y-104900264D01*
X153453491Y-104900261D01*
X153300749Y-104869878D01*
X153238838Y-104837493D01*
X153204264Y-104776777D01*
X153200946Y-104749357D01*
X153169616Y-101189235D01*
X153157841Y-101085122D01*
X153146860Y-101035184D01*
X153113867Y-100935720D01*
X153036597Y-100814349D01*
X152991068Y-100761350D01*
X152991065Y-100761347D01*
X152991063Y-100761345D01*
X152882741Y-100666670D01*
X152882738Y-100666668D01*
X152882734Y-100666666D01*
X152748097Y-100604480D01*
X152748308Y-100604022D01*
X152729661Y-100594428D01*
X152619184Y-100520609D01*
X152619172Y-100520602D01*
X152473501Y-100460264D01*
X152473489Y-100460261D01*
X152318845Y-100429500D01*
X152318842Y-100429500D01*
X152161158Y-100429500D01*
X152161155Y-100429500D01*
X152006510Y-100460261D01*
X152006498Y-100460264D01*
X151860828Y-100520602D01*
X151860816Y-100520609D01*
X151830234Y-100541042D01*
X151763556Y-100561917D01*
X151760817Y-100561936D01*
X149597049Y-100552685D01*
X149530094Y-100532714D01*
X149484565Y-100479715D01*
X149483018Y-100476138D01*
X149439397Y-100370827D01*
X149439390Y-100370814D01*
X149351789Y-100239711D01*
X149351786Y-100239707D01*
X149240292Y-100128213D01*
X149240288Y-100128210D01*
X149109185Y-100040609D01*
X149109172Y-100040602D01*
X148963501Y-99980264D01*
X148963489Y-99980261D01*
X148808845Y-99949500D01*
X148808842Y-99949500D01*
X148651158Y-99949500D01*
X148651155Y-99949500D01*
X148496510Y-99980261D01*
X148496498Y-99980264D01*
X148350827Y-100040602D01*
X148350814Y-100040609D01*
X148219711Y-100128210D01*
X148219707Y-100128213D01*
X148108213Y-100239707D01*
X148108210Y-100239711D01*
X148020609Y-100370814D01*
X148020604Y-100370824D01*
X147980049Y-100468733D01*
X147936208Y-100523136D01*
X147869914Y-100545201D01*
X147864958Y-100545279D01*
X146044961Y-100537498D01*
X146044929Y-100537498D01*
X145976391Y-100541873D01*
X145976383Y-100541874D01*
X145943059Y-100546290D01*
X145875726Y-100559922D01*
X145875724Y-100559923D01*
X145743800Y-100617348D01*
X145708140Y-100639376D01*
X145691201Y-100644093D01*
X145676703Y-100653205D01*
X145641719Y-100657874D01*
X145535327Y-100656797D01*
X145474374Y-100638422D01*
X145474258Y-100638675D01*
X145472464Y-100637846D01*
X145469099Y-100636832D01*
X145466209Y-100634957D01*
X145423506Y-100615234D01*
X145370898Y-100569253D01*
X145351500Y-100502661D01*
X145351500Y-100363557D01*
X145371185Y-100296518D01*
X145423989Y-100250763D01*
X145485066Y-100240587D01*
X145485066Y-100240500D01*
X145485594Y-100240500D01*
X145487665Y-100240155D01*
X145491151Y-100240498D01*
X145491158Y-100240500D01*
X145491165Y-100240500D01*
X145648844Y-100240500D01*
X145648845Y-100240499D01*
X145803497Y-100209737D01*
X145939264Y-100153501D01*
X145949172Y-100149397D01*
X145949172Y-100149396D01*
X145949179Y-100149394D01*
X146080289Y-100061789D01*
X146191789Y-99950289D01*
X146279394Y-99819179D01*
X146339737Y-99673497D01*
X146370500Y-99518842D01*
X146370500Y-99361158D01*
X146370500Y-99361155D01*
X146370499Y-99361153D01*
X146339739Y-99206511D01*
X146339738Y-99206509D01*
X146339737Y-99206503D01*
X146326133Y-99173660D01*
X146318665Y-99104197D01*
X146349939Y-99041717D01*
X146356879Y-99035199D01*
X146471786Y-98920292D01*
X146471789Y-98920289D01*
X146559394Y-98789179D01*
X146619737Y-98643497D01*
X146650500Y-98488842D01*
X146650500Y-98331158D01*
X146650500Y-98331155D01*
X146650499Y-98331153D01*
X146644996Y-98303489D01*
X146619737Y-98176503D01*
X146608281Y-98148846D01*
X146559397Y-98030827D01*
X146559390Y-98030814D01*
X146471789Y-97899711D01*
X146471786Y-97899707D01*
X146360292Y-97788213D01*
X146360288Y-97788210D01*
X146229185Y-97700609D01*
X146229172Y-97700602D01*
X146083501Y-97640264D01*
X146083489Y-97640261D01*
X145928845Y-97609500D01*
X145928842Y-97609500D01*
X145771158Y-97609500D01*
X145771155Y-97609500D01*
X145616510Y-97640261D01*
X145616498Y-97640264D01*
X145522952Y-97679012D01*
X145453482Y-97686481D01*
X145391003Y-97655205D01*
X145355352Y-97595116D01*
X145351500Y-97564451D01*
X145351500Y-96951153D01*
X147519500Y-96951153D01*
X147519500Y-97108846D01*
X147550261Y-97263489D01*
X147550264Y-97263501D01*
X147610602Y-97409172D01*
X147610609Y-97409185D01*
X147698210Y-97540288D01*
X147698213Y-97540292D01*
X147809707Y-97651786D01*
X147809711Y-97651789D01*
X147940814Y-97739390D01*
X147940827Y-97739397D01*
X148058681Y-97788213D01*
X148086503Y-97799737D01*
X148241153Y-97830499D01*
X148241156Y-97830500D01*
X148241158Y-97830500D01*
X148398844Y-97830500D01*
X148398845Y-97830499D01*
X148553497Y-97799737D01*
X148699179Y-97739394D01*
X148830289Y-97651789D01*
X148941789Y-97540289D01*
X149029394Y-97409179D01*
X149089737Y-97263497D01*
X149120500Y-97108842D01*
X149120500Y-96951158D01*
X149120500Y-96951155D01*
X149120499Y-96951153D01*
X149089738Y-96796510D01*
X149089737Y-96796503D01*
X149040846Y-96678468D01*
X149029397Y-96650827D01*
X149029390Y-96650814D01*
X148941789Y-96519711D01*
X148941786Y-96519707D01*
X148830292Y-96408213D01*
X148830288Y-96408210D01*
X148699185Y-96320609D01*
X148699172Y-96320602D01*
X148553501Y-96260264D01*
X148553489Y-96260261D01*
X148398845Y-96229500D01*
X148398842Y-96229500D01*
X148241158Y-96229500D01*
X148241155Y-96229500D01*
X148086510Y-96260261D01*
X148086498Y-96260264D01*
X147940827Y-96320602D01*
X147940814Y-96320609D01*
X147809711Y-96408210D01*
X147809707Y-96408213D01*
X147698213Y-96519707D01*
X147698210Y-96519711D01*
X147610609Y-96650814D01*
X147610602Y-96650827D01*
X147550264Y-96796498D01*
X147550261Y-96796510D01*
X147519500Y-96951153D01*
X145351500Y-96951153D01*
X145351500Y-95761153D01*
X151969500Y-95761153D01*
X151969500Y-95918846D01*
X152000261Y-96073489D01*
X152000264Y-96073501D01*
X152060602Y-96219172D01*
X152060609Y-96219185D01*
X152148210Y-96350288D01*
X152148213Y-96350292D01*
X152259707Y-96461786D01*
X152259711Y-96461789D01*
X152390814Y-96549390D01*
X152390827Y-96549397D01*
X152536498Y-96609735D01*
X152536503Y-96609737D01*
X152691153Y-96640499D01*
X152691156Y-96640500D01*
X152691158Y-96640500D01*
X152848844Y-96640500D01*
X152848845Y-96640499D01*
X153003497Y-96609737D01*
X153149179Y-96549394D01*
X153280289Y-96461789D01*
X153391789Y-96350289D01*
X153479394Y-96219179D01*
X153539737Y-96073497D01*
X153570500Y-95918842D01*
X153570500Y-95761158D01*
X153570500Y-95761155D01*
X153570499Y-95761153D01*
X153560679Y-95711786D01*
X153539737Y-95606503D01*
X153537163Y-95600288D01*
X153479397Y-95460827D01*
X153479390Y-95460814D01*
X153391789Y-95329711D01*
X153391786Y-95329707D01*
X153280292Y-95218213D01*
X153280288Y-95218210D01*
X153149185Y-95130609D01*
X153149172Y-95130602D01*
X153003501Y-95070264D01*
X153003489Y-95070261D01*
X152848845Y-95039500D01*
X152848842Y-95039500D01*
X152691158Y-95039500D01*
X152691155Y-95039500D01*
X152536510Y-95070261D01*
X152536498Y-95070264D01*
X152390827Y-95130602D01*
X152390814Y-95130609D01*
X152259711Y-95218210D01*
X152259707Y-95218213D01*
X152148213Y-95329707D01*
X152148210Y-95329711D01*
X152060609Y-95460814D01*
X152060602Y-95460827D01*
X152000264Y-95606498D01*
X152000261Y-95606510D01*
X151969500Y-95761153D01*
X145351500Y-95761153D01*
X145351500Y-94418446D01*
X157650236Y-94418446D01*
X157650236Y-94576139D01*
X157680997Y-94730782D01*
X157681000Y-94730794D01*
X157741338Y-94876465D01*
X157741345Y-94876478D01*
X157828946Y-95007581D01*
X157828949Y-95007585D01*
X157940443Y-95119079D01*
X157940447Y-95119082D01*
X158071550Y-95206683D01*
X158071563Y-95206690D01*
X158099383Y-95218213D01*
X158217239Y-95267030D01*
X158217246Y-95267031D01*
X158217874Y-95267222D01*
X158218168Y-95267414D01*
X158222867Y-95269361D01*
X158222498Y-95270251D01*
X158276316Y-95305514D01*
X158296449Y-95338433D01*
X158350602Y-95469172D01*
X158350609Y-95469185D01*
X158438210Y-95600288D01*
X158438213Y-95600292D01*
X158549707Y-95711786D01*
X158549711Y-95711789D01*
X158680814Y-95799390D01*
X158680827Y-95799397D01*
X158826498Y-95859735D01*
X158826503Y-95859737D01*
X158981158Y-95890500D01*
X158981168Y-95890500D01*
X158982248Y-95890607D01*
X158982787Y-95890824D01*
X158987132Y-95891689D01*
X158986968Y-95892512D01*
X159047038Y-95916760D01*
X159084668Y-95966559D01*
X159110606Y-96029179D01*
X159110607Y-96029182D01*
X159198210Y-96160288D01*
X159198213Y-96160292D01*
X159309707Y-96271786D01*
X159309711Y-96271789D01*
X159440814Y-96359390D01*
X159440827Y-96359397D01*
X159558681Y-96408213D01*
X159586503Y-96419737D01*
X159741153Y-96450499D01*
X159741156Y-96450500D01*
X159741158Y-96450500D01*
X159898844Y-96450500D01*
X159898845Y-96450499D01*
X160053497Y-96419737D01*
X160199179Y-96359394D01*
X160330289Y-96271789D01*
X160441789Y-96160289D01*
X160529394Y-96029179D01*
X160589737Y-95883497D01*
X160603237Y-95815626D01*
X160610357Y-95802013D01*
X160610812Y-95799121D01*
X166525771Y-95799121D01*
X166525771Y-95956814D01*
X166556532Y-96111457D01*
X166556535Y-96111469D01*
X166616873Y-96257140D01*
X166616880Y-96257153D01*
X166704481Y-96388256D01*
X166704484Y-96388260D01*
X166815978Y-96499754D01*
X166815982Y-96499757D01*
X166947085Y-96587358D01*
X166947098Y-96587365D01*
X167075377Y-96640499D01*
X167092774Y-96647705D01*
X167247424Y-96678467D01*
X167247427Y-96678468D01*
X167247429Y-96678468D01*
X167405115Y-96678468D01*
X167405116Y-96678467D01*
X167559768Y-96647705D01*
X167705450Y-96587362D01*
X167836560Y-96499757D01*
X167948060Y-96388257D01*
X168035665Y-96257147D01*
X168096008Y-96111465D01*
X168126771Y-95956810D01*
X168126771Y-95799126D01*
X168126771Y-95799123D01*
X168114232Y-95736087D01*
X168120459Y-95666495D01*
X168163322Y-95611318D01*
X168229212Y-95588073D01*
X168255090Y-95589924D01*
X168255093Y-95589903D01*
X168255898Y-95589982D01*
X168260045Y-95590279D01*
X168261156Y-95590500D01*
X168261158Y-95590500D01*
X168418844Y-95590500D01*
X168418845Y-95590499D01*
X168573497Y-95559737D01*
X168719179Y-95499394D01*
X168850289Y-95411789D01*
X168961789Y-95300289D01*
X169049394Y-95169179D01*
X169109737Y-95023497D01*
X169140500Y-94868842D01*
X169140500Y-94711158D01*
X169140500Y-94711155D01*
X169140499Y-94711153D01*
X169137585Y-94696503D01*
X169109737Y-94556503D01*
X169109735Y-94556498D01*
X169049397Y-94410827D01*
X169049390Y-94410814D01*
X168961789Y-94279711D01*
X168961786Y-94279707D01*
X168850292Y-94168213D01*
X168850288Y-94168210D01*
X168719185Y-94080609D01*
X168719172Y-94080602D01*
X168573501Y-94020264D01*
X168573489Y-94020261D01*
X168418845Y-93989500D01*
X168418842Y-93989500D01*
X168261158Y-93989500D01*
X168261155Y-93989500D01*
X168106510Y-94020261D01*
X168106498Y-94020264D01*
X167960827Y-94080602D01*
X167960814Y-94080609D01*
X167829711Y-94168210D01*
X167829707Y-94168213D01*
X167718213Y-94279707D01*
X167718210Y-94279711D01*
X167630609Y-94410814D01*
X167630602Y-94410827D01*
X167570264Y-94556498D01*
X167570261Y-94556510D01*
X167539500Y-94711153D01*
X167539500Y-94711158D01*
X167539500Y-94868842D01*
X167539501Y-94868846D01*
X167552039Y-94931882D01*
X167545810Y-95001473D01*
X167502947Y-95056650D01*
X167437057Y-95079894D01*
X167411180Y-95078044D01*
X167411178Y-95078065D01*
X167410404Y-95077988D01*
X167406238Y-95077691D01*
X167405117Y-95077468D01*
X167405113Y-95077468D01*
X167247429Y-95077468D01*
X167247426Y-95077468D01*
X167092781Y-95108229D01*
X167092769Y-95108232D01*
X166947098Y-95168570D01*
X166947085Y-95168577D01*
X166815982Y-95256178D01*
X166815978Y-95256181D01*
X166704484Y-95367675D01*
X166704481Y-95367679D01*
X166616880Y-95498782D01*
X166616873Y-95498795D01*
X166556535Y-95644466D01*
X166556532Y-95644478D01*
X166525771Y-95799121D01*
X160610812Y-95799121D01*
X160612744Y-95786833D01*
X160626221Y-95771685D01*
X160635619Y-95753719D01*
X160649659Y-95745343D01*
X160659188Y-95734634D01*
X160684270Y-95724696D01*
X160691482Y-95720395D01*
X160696024Y-95719125D01*
X160793497Y-95699737D01*
X160939179Y-95639394D01*
X161070289Y-95551789D01*
X161181789Y-95440289D01*
X161269394Y-95309179D01*
X161329737Y-95163497D01*
X161360500Y-95008842D01*
X161360500Y-94918017D01*
X161380185Y-94850978D01*
X161415612Y-94814913D01*
X161420289Y-94811789D01*
X161531789Y-94700289D01*
X161619394Y-94569179D01*
X161624418Y-94557050D01*
X161668258Y-94502645D01*
X161734552Y-94480579D01*
X161738980Y-94480500D01*
X161788844Y-94480500D01*
X161788845Y-94480499D01*
X161943497Y-94449737D01*
X162089179Y-94389394D01*
X162220289Y-94301789D01*
X162331789Y-94190289D01*
X162419394Y-94059179D01*
X162479737Y-93913497D01*
X162510500Y-93758842D01*
X162510500Y-93601158D01*
X162510500Y-93601155D01*
X162510499Y-93601153D01*
X162486521Y-93480609D01*
X162479737Y-93446503D01*
X162461925Y-93403501D01*
X162419397Y-93300827D01*
X162419390Y-93300814D01*
X162331789Y-93169711D01*
X162331786Y-93169707D01*
X162220292Y-93058213D01*
X162220288Y-93058210D01*
X162089185Y-92970609D01*
X162089172Y-92970602D01*
X161943501Y-92910264D01*
X161943489Y-92910261D01*
X161788845Y-92879500D01*
X161788842Y-92879500D01*
X161631158Y-92879500D01*
X161631155Y-92879500D01*
X161476510Y-92910261D01*
X161476498Y-92910264D01*
X161330827Y-92970602D01*
X161330814Y-92970609D01*
X161199711Y-93058210D01*
X161199707Y-93058213D01*
X161088213Y-93169707D01*
X161088210Y-93169711D01*
X161000609Y-93300814D01*
X161000604Y-93300824D01*
X160995582Y-93312950D01*
X160951742Y-93367355D01*
X160885448Y-93389421D01*
X160881020Y-93389500D01*
X160831155Y-93389500D01*
X160676510Y-93420261D01*
X160676498Y-93420264D01*
X160530827Y-93480602D01*
X160530814Y-93480609D01*
X160399711Y-93568210D01*
X160399707Y-93568213D01*
X160288213Y-93679707D01*
X160288210Y-93679711D01*
X160200609Y-93810814D01*
X160200602Y-93810827D01*
X160140264Y-93956498D01*
X160140261Y-93956510D01*
X160109500Y-94111153D01*
X160109500Y-94201981D01*
X160089815Y-94269020D01*
X160054395Y-94305080D01*
X160049715Y-94308207D01*
X160049707Y-94308213D01*
X159938213Y-94419707D01*
X159855358Y-94543707D01*
X159801745Y-94588511D01*
X159732420Y-94597218D01*
X159669393Y-94567063D01*
X159664575Y-94562496D01*
X159570292Y-94468213D01*
X159570288Y-94468210D01*
X159439185Y-94380609D01*
X159439172Y-94380602D01*
X159293496Y-94320262D01*
X159292842Y-94320064D01*
X159292541Y-94319866D01*
X159287870Y-94317932D01*
X159288237Y-94317045D01*
X159234406Y-94281762D01*
X159214288Y-94248865D01*
X159160130Y-94118114D01*
X159160128Y-94118111D01*
X159160126Y-94118107D01*
X159072525Y-93987004D01*
X159072522Y-93987000D01*
X158961028Y-93875506D01*
X158961024Y-93875503D01*
X158829921Y-93787902D01*
X158829908Y-93787895D01*
X158684237Y-93727557D01*
X158684225Y-93727554D01*
X158529581Y-93696793D01*
X158529578Y-93696793D01*
X158371894Y-93696793D01*
X158371891Y-93696793D01*
X158217246Y-93727554D01*
X158217234Y-93727557D01*
X158071563Y-93787895D01*
X158071550Y-93787902D01*
X157940447Y-93875503D01*
X157940443Y-93875506D01*
X157828949Y-93987000D01*
X157828946Y-93987004D01*
X157741345Y-94118107D01*
X157741338Y-94118120D01*
X157681000Y-94263791D01*
X157680997Y-94263803D01*
X157650236Y-94418446D01*
X145351500Y-94418446D01*
X145351500Y-93091153D01*
X148914500Y-93091153D01*
X148914500Y-93248846D01*
X148945261Y-93403489D01*
X148945264Y-93403501D01*
X149005602Y-93549172D01*
X149005609Y-93549185D01*
X149093210Y-93680288D01*
X149093213Y-93680292D01*
X149204707Y-93791786D01*
X149204711Y-93791789D01*
X149335814Y-93879390D01*
X149335827Y-93879397D01*
X149418163Y-93913501D01*
X149481503Y-93939737D01*
X149636153Y-93970499D01*
X149636156Y-93970500D01*
X149636158Y-93970500D01*
X149793844Y-93970500D01*
X149793845Y-93970499D01*
X149948497Y-93939737D01*
X150094179Y-93879394D01*
X150225289Y-93791789D01*
X150336789Y-93680289D01*
X150424394Y-93549179D01*
X150484737Y-93403497D01*
X150515500Y-93248842D01*
X150515500Y-93091158D01*
X150515500Y-93091155D01*
X150515499Y-93091153D01*
X150509139Y-93059179D01*
X150484737Y-92936503D01*
X150475208Y-92913497D01*
X150424397Y-92790827D01*
X150424390Y-92790814D01*
X150339626Y-92663957D01*
X150339625Y-92663955D01*
X150339624Y-92663954D01*
X150336788Y-92659709D01*
X150278232Y-92601153D01*
X162869500Y-92601153D01*
X162869500Y-92758846D01*
X162900261Y-92913489D01*
X162900264Y-92913501D01*
X162960602Y-93059172D01*
X162960609Y-93059185D01*
X163048210Y-93190288D01*
X163048213Y-93190292D01*
X163159707Y-93301786D01*
X163159711Y-93301789D01*
X163290814Y-93389390D01*
X163290827Y-93389397D01*
X163365348Y-93420264D01*
X163436503Y-93449737D01*
X163591153Y-93480499D01*
X163591156Y-93480500D01*
X163591158Y-93480500D01*
X163748844Y-93480500D01*
X163748845Y-93480499D01*
X163903497Y-93449737D01*
X164049179Y-93389394D01*
X164180289Y-93301789D01*
X164291789Y-93190289D01*
X164379394Y-93059179D01*
X164439737Y-92913497D01*
X164470500Y-92758842D01*
X164470500Y-92601158D01*
X164470500Y-92601155D01*
X164470499Y-92601153D01*
X164460381Y-92550288D01*
X164439737Y-92446503D01*
X164428416Y-92419172D01*
X164379397Y-92300827D01*
X164379390Y-92300814D01*
X164291789Y-92169711D01*
X164291786Y-92169707D01*
X164180292Y-92058213D01*
X164180288Y-92058210D01*
X164049185Y-91970609D01*
X164049172Y-91970602D01*
X163903501Y-91910264D01*
X163903489Y-91910261D01*
X163748845Y-91879500D01*
X163748842Y-91879500D01*
X163591158Y-91879500D01*
X163591155Y-91879500D01*
X163436510Y-91910261D01*
X163436498Y-91910264D01*
X163290827Y-91970602D01*
X163290814Y-91970609D01*
X163159711Y-92058210D01*
X163159707Y-92058213D01*
X163048213Y-92169707D01*
X163048210Y-92169711D01*
X162960609Y-92300814D01*
X162960602Y-92300827D01*
X162900264Y-92446498D01*
X162900261Y-92446510D01*
X162869500Y-92601153D01*
X150278232Y-92601153D01*
X150225292Y-92548213D01*
X150225288Y-92548210D01*
X150094185Y-92460609D01*
X150094172Y-92460602D01*
X149948501Y-92400264D01*
X149948489Y-92400261D01*
X149793845Y-92369500D01*
X149793842Y-92369500D01*
X149636158Y-92369500D01*
X149636155Y-92369500D01*
X149481510Y-92400261D01*
X149481498Y-92400264D01*
X149335827Y-92460602D01*
X149335814Y-92460609D01*
X149204711Y-92548210D01*
X149204707Y-92548213D01*
X149093213Y-92659707D01*
X149093210Y-92659711D01*
X149005609Y-92790814D01*
X149005602Y-92790827D01*
X148945264Y-92936498D01*
X148945261Y-92936510D01*
X148914500Y-93091153D01*
X145351500Y-93091153D01*
X145351500Y-91001153D01*
X148944500Y-91001153D01*
X148944500Y-91158846D01*
X148975261Y-91313489D01*
X148975264Y-91313501D01*
X149035602Y-91459172D01*
X149035609Y-91459185D01*
X149123210Y-91590288D01*
X149123213Y-91590292D01*
X149234707Y-91701786D01*
X149234711Y-91701789D01*
X149365814Y-91789390D01*
X149365827Y-91789397D01*
X149511498Y-91849735D01*
X149511503Y-91849737D01*
X149661131Y-91879500D01*
X149666153Y-91880499D01*
X149666156Y-91880500D01*
X149666158Y-91880500D01*
X149823844Y-91880500D01*
X149823845Y-91880499D01*
X149978497Y-91849737D01*
X150124179Y-91789394D01*
X150255289Y-91701789D01*
X150366789Y-91590289D01*
X150454394Y-91459179D01*
X150454395Y-91459176D01*
X150454397Y-91459173D01*
X150457719Y-91451153D01*
X165109500Y-91451153D01*
X165109500Y-91608846D01*
X165140261Y-91763489D01*
X165140264Y-91763501D01*
X165200602Y-91909172D01*
X165200609Y-91909185D01*
X165288210Y-92040288D01*
X165288213Y-92040292D01*
X165399707Y-92151786D01*
X165399711Y-92151789D01*
X165530814Y-92239390D01*
X165530827Y-92239397D01*
X165613163Y-92273501D01*
X165676503Y-92299737D01*
X165831153Y-92330499D01*
X165831156Y-92330500D01*
X165831158Y-92330500D01*
X165988844Y-92330500D01*
X165988845Y-92330499D01*
X166143497Y-92299737D01*
X166289179Y-92239394D01*
X166420289Y-92151789D01*
X166531789Y-92040289D01*
X166584666Y-91961153D01*
X167999500Y-91961153D01*
X167999500Y-92118846D01*
X168030261Y-92273489D01*
X168030264Y-92273501D01*
X168090602Y-92419172D01*
X168090609Y-92419185D01*
X168178210Y-92550288D01*
X168178213Y-92550292D01*
X168289707Y-92661786D01*
X168289711Y-92661789D01*
X168420814Y-92749390D01*
X168420827Y-92749397D01*
X168566498Y-92809735D01*
X168566503Y-92809737D01*
X168721153Y-92840499D01*
X168721156Y-92840500D01*
X168878618Y-92840500D01*
X168945657Y-92860185D01*
X168981720Y-92895609D01*
X168998210Y-92920288D01*
X168998213Y-92920292D01*
X169109707Y-93031786D01*
X169109711Y-93031789D01*
X169240814Y-93119390D01*
X169240827Y-93119397D01*
X169362288Y-93169707D01*
X169386503Y-93179737D01*
X169541153Y-93210499D01*
X169541156Y-93210500D01*
X169541158Y-93210500D01*
X169698844Y-93210500D01*
X169698845Y-93210499D01*
X169853497Y-93179737D01*
X169999179Y-93119394D01*
X170130289Y-93031789D01*
X170241789Y-92920289D01*
X170329394Y-92789179D01*
X170389737Y-92643497D01*
X170420500Y-92488842D01*
X170420500Y-92331158D01*
X170420500Y-92331155D01*
X170420499Y-92331153D01*
X170414467Y-92300827D01*
X170389737Y-92176503D01*
X170340740Y-92058213D01*
X170329397Y-92030827D01*
X170329390Y-92030814D01*
X170241789Y-91899711D01*
X170241786Y-91899707D01*
X170130292Y-91788213D01*
X170130288Y-91788210D01*
X169999185Y-91700609D01*
X169999172Y-91700602D01*
X169853501Y-91640264D01*
X169853489Y-91640261D01*
X169698845Y-91609500D01*
X169698842Y-91609500D01*
X169541382Y-91609500D01*
X169474343Y-91589815D01*
X169438280Y-91554391D01*
X169421789Y-91529711D01*
X169421786Y-91529707D01*
X169310292Y-91418213D01*
X169310288Y-91418210D01*
X169179185Y-91330609D01*
X169179172Y-91330602D01*
X169033501Y-91270264D01*
X169033489Y-91270261D01*
X168878845Y-91239500D01*
X168878842Y-91239500D01*
X168721158Y-91239500D01*
X168721155Y-91239500D01*
X168566510Y-91270261D01*
X168566498Y-91270264D01*
X168420827Y-91330602D01*
X168420814Y-91330609D01*
X168289711Y-91418210D01*
X168289707Y-91418213D01*
X168178213Y-91529707D01*
X168178210Y-91529711D01*
X168090609Y-91660814D01*
X168090602Y-91660827D01*
X168030264Y-91806498D01*
X168030261Y-91806510D01*
X167999500Y-91961153D01*
X166584666Y-91961153D01*
X166619394Y-91909179D01*
X166619709Y-91908417D01*
X166620044Y-91907611D01*
X166620044Y-91907610D01*
X166644016Y-91849735D01*
X166679737Y-91763497D01*
X166710500Y-91608842D01*
X166710500Y-91451158D01*
X166710500Y-91451155D01*
X166710499Y-91451153D01*
X166686521Y-91330609D01*
X166679737Y-91296503D01*
X166656126Y-91239500D01*
X166619397Y-91150827D01*
X166619390Y-91150814D01*
X166531789Y-91019711D01*
X166531786Y-91019707D01*
X166420292Y-90908213D01*
X166420288Y-90908210D01*
X166289185Y-90820609D01*
X166289172Y-90820602D01*
X166143501Y-90760264D01*
X166143489Y-90760261D01*
X165988845Y-90729500D01*
X165988842Y-90729500D01*
X165831158Y-90729500D01*
X165831155Y-90729500D01*
X165676510Y-90760261D01*
X165676498Y-90760264D01*
X165530827Y-90820602D01*
X165530814Y-90820609D01*
X165399711Y-90908210D01*
X165399707Y-90908213D01*
X165288213Y-91019707D01*
X165288210Y-91019711D01*
X165200609Y-91150814D01*
X165200602Y-91150827D01*
X165140264Y-91296498D01*
X165140261Y-91296510D01*
X165109500Y-91451153D01*
X150457719Y-91451153D01*
X150479895Y-91397614D01*
X150479895Y-91397613D01*
X150514737Y-91313497D01*
X150545500Y-91158842D01*
X150545500Y-91001158D01*
X150545500Y-91001155D01*
X150545499Y-91001153D01*
X150527012Y-90908213D01*
X150514737Y-90846503D01*
X150514735Y-90846498D01*
X150454397Y-90700827D01*
X150454390Y-90700814D01*
X150366789Y-90569711D01*
X150366786Y-90569707D01*
X150255292Y-90458213D01*
X150255288Y-90458210D01*
X150190330Y-90414806D01*
X150145525Y-90361193D01*
X150136818Y-90291868D01*
X150166973Y-90228841D01*
X150190331Y-90208602D01*
X150254682Y-90165603D01*
X150305289Y-90131789D01*
X150416789Y-90020289D01*
X150504394Y-89889179D01*
X150564737Y-89743497D01*
X150595500Y-89588842D01*
X150595500Y-89531153D01*
X166219500Y-89531153D01*
X166219500Y-89688846D01*
X166250261Y-89843489D01*
X166250264Y-89843501D01*
X166310602Y-89989172D01*
X166310609Y-89989185D01*
X166398210Y-90120288D01*
X166398213Y-90120292D01*
X166509707Y-90231786D01*
X166509711Y-90231789D01*
X166640814Y-90319390D01*
X166640827Y-90319397D01*
X166786498Y-90379735D01*
X166786503Y-90379737D01*
X166941153Y-90410499D01*
X166941156Y-90410500D01*
X166941158Y-90410500D01*
X167098844Y-90410500D01*
X167098845Y-90410499D01*
X167253497Y-90379737D01*
X167399179Y-90319394D01*
X167530289Y-90231789D01*
X167641789Y-90120289D01*
X167729394Y-89989179D01*
X167789737Y-89843497D01*
X167820500Y-89688842D01*
X167820500Y-89531158D01*
X167820500Y-89531155D01*
X167820499Y-89531153D01*
X167810271Y-89479735D01*
X167789737Y-89376503D01*
X167748314Y-89276498D01*
X167729397Y-89230827D01*
X167729390Y-89230814D01*
X167641789Y-89099711D01*
X167641786Y-89099707D01*
X167530292Y-88988213D01*
X167530288Y-88988210D01*
X167399185Y-88900609D01*
X167399172Y-88900602D01*
X167253501Y-88840264D01*
X167253489Y-88840261D01*
X167098845Y-88809500D01*
X167098842Y-88809500D01*
X166941158Y-88809500D01*
X166941155Y-88809500D01*
X166786510Y-88840261D01*
X166786498Y-88840264D01*
X166640827Y-88900602D01*
X166640814Y-88900609D01*
X166509711Y-88988210D01*
X166509707Y-88988213D01*
X166398213Y-89099707D01*
X166398210Y-89099711D01*
X166310609Y-89230814D01*
X166310602Y-89230827D01*
X166250264Y-89376498D01*
X166250261Y-89376510D01*
X166219500Y-89531153D01*
X150595500Y-89531153D01*
X150595500Y-89431158D01*
X150595500Y-89431155D01*
X150595499Y-89431153D01*
X150575734Y-89331789D01*
X150564737Y-89276503D01*
X150541452Y-89220288D01*
X150504397Y-89130827D01*
X150504390Y-89130814D01*
X150416789Y-88999711D01*
X150416786Y-88999707D01*
X150305292Y-88888213D01*
X150305288Y-88888210D01*
X150174185Y-88800609D01*
X150174172Y-88800602D01*
X150028501Y-88740264D01*
X150028489Y-88740261D01*
X149873845Y-88709500D01*
X149873842Y-88709500D01*
X149716158Y-88709500D01*
X149716155Y-88709500D01*
X149561510Y-88740261D01*
X149561498Y-88740264D01*
X149415827Y-88800602D01*
X149415814Y-88800609D01*
X149284711Y-88888210D01*
X149284707Y-88888213D01*
X149173213Y-88999707D01*
X149173210Y-88999711D01*
X149085609Y-89130814D01*
X149085602Y-89130827D01*
X149025264Y-89276498D01*
X149025261Y-89276510D01*
X148994500Y-89431153D01*
X148994500Y-89588846D01*
X149025261Y-89743489D01*
X149025264Y-89743501D01*
X149085602Y-89889172D01*
X149085609Y-89889185D01*
X149173210Y-90020288D01*
X149173213Y-90020292D01*
X149284707Y-90131786D01*
X149284711Y-90131789D01*
X149349669Y-90175193D01*
X149394474Y-90228805D01*
X149403181Y-90298130D01*
X149373027Y-90361158D01*
X149349669Y-90381397D01*
X149234711Y-90458210D01*
X149234707Y-90458213D01*
X149123213Y-90569707D01*
X149123210Y-90569711D01*
X149035609Y-90700814D01*
X149035602Y-90700827D01*
X148975264Y-90846498D01*
X148975261Y-90846510D01*
X148944500Y-91001153D01*
X145351500Y-91001153D01*
X145351500Y-88631153D01*
X162879500Y-88631153D01*
X162879500Y-88788846D01*
X162910261Y-88943489D01*
X162910264Y-88943501D01*
X162970602Y-89089172D01*
X162970609Y-89089185D01*
X163058210Y-89220288D01*
X163058213Y-89220292D01*
X163169707Y-89331786D01*
X163169711Y-89331789D01*
X163300814Y-89419390D01*
X163300827Y-89419397D01*
X163446498Y-89479735D01*
X163446503Y-89479737D01*
X163601153Y-89510499D01*
X163601156Y-89510500D01*
X163601158Y-89510500D01*
X163758844Y-89510500D01*
X163758845Y-89510499D01*
X163913497Y-89479737D01*
X164059179Y-89419394D01*
X164190289Y-89331789D01*
X164301789Y-89220289D01*
X164389394Y-89089179D01*
X164449737Y-88943497D01*
X164480500Y-88788842D01*
X164480500Y-88631158D01*
X164480500Y-88631155D01*
X164480499Y-88631153D01*
X164455010Y-88503012D01*
X164449737Y-88476503D01*
X164449735Y-88476498D01*
X164389397Y-88330827D01*
X164389390Y-88330814D01*
X164301789Y-88199711D01*
X164301786Y-88199707D01*
X164190292Y-88088213D01*
X164190288Y-88088210D01*
X164059185Y-88000609D01*
X164059172Y-88000602D01*
X163913501Y-87940264D01*
X163913489Y-87940261D01*
X163758845Y-87909500D01*
X163758842Y-87909500D01*
X163601158Y-87909500D01*
X163601155Y-87909500D01*
X163446510Y-87940261D01*
X163446498Y-87940264D01*
X163300827Y-88000602D01*
X163300814Y-88000609D01*
X163169711Y-88088210D01*
X163169707Y-88088213D01*
X163058213Y-88199707D01*
X163058210Y-88199711D01*
X162970609Y-88330814D01*
X162970602Y-88330827D01*
X162910264Y-88476498D01*
X162910261Y-88476510D01*
X162879500Y-88631153D01*
X145351500Y-88631153D01*
X145351500Y-87654427D01*
X152532013Y-87654427D01*
X152532013Y-87812120D01*
X152562774Y-87966763D01*
X152562777Y-87966775D01*
X152623115Y-88112446D01*
X152623122Y-88112459D01*
X152710723Y-88243562D01*
X152710726Y-88243566D01*
X152822220Y-88355060D01*
X152822224Y-88355063D01*
X152953327Y-88442664D01*
X152953340Y-88442671D01*
X153035036Y-88476510D01*
X153099016Y-88503011D01*
X153253666Y-88533773D01*
X153253669Y-88533774D01*
X153253671Y-88533774D01*
X153411357Y-88533774D01*
X153411358Y-88533773D01*
X153463311Y-88523439D01*
X153563805Y-88503450D01*
X153563810Y-88503449D01*
X153564902Y-88503231D01*
X153566010Y-88503011D01*
X153711692Y-88442668D01*
X153842802Y-88355063D01*
X153954302Y-88243563D01*
X154041907Y-88112453D01*
X154102250Y-87966771D01*
X154133013Y-87812116D01*
X154133013Y-87654432D01*
X154133013Y-87654429D01*
X154133012Y-87654427D01*
X154128032Y-87629390D01*
X154102250Y-87499777D01*
X154073469Y-87430292D01*
X154041910Y-87354101D01*
X154041903Y-87354088D01*
X153954302Y-87222985D01*
X153954299Y-87222981D01*
X153904379Y-87173061D01*
X153870894Y-87111738D01*
X153875878Y-87042046D01*
X153904377Y-86997700D01*
X153991789Y-86910289D01*
X154079394Y-86779179D01*
X154139737Y-86633497D01*
X154170500Y-86478842D01*
X154170500Y-86321158D01*
X154170500Y-86321155D01*
X154170499Y-86321153D01*
X154165936Y-86298213D01*
X154139737Y-86166503D01*
X154100242Y-86071153D01*
X165809500Y-86071153D01*
X165809500Y-86228846D01*
X165840261Y-86383489D01*
X165840264Y-86383501D01*
X165900602Y-86529172D01*
X165900609Y-86529185D01*
X165988210Y-86660288D01*
X165988213Y-86660292D01*
X166099707Y-86771786D01*
X166099711Y-86771789D01*
X166230814Y-86859390D01*
X166230827Y-86859397D01*
X166376498Y-86919735D01*
X166376503Y-86919737D01*
X166531153Y-86950499D01*
X166531156Y-86950500D01*
X166531158Y-86950500D01*
X166688844Y-86950500D01*
X166688845Y-86950499D01*
X166843497Y-86919737D01*
X166989179Y-86859394D01*
X167120289Y-86771789D01*
X167209491Y-86682586D01*
X167270812Y-86649103D01*
X167340504Y-86654087D01*
X167396438Y-86695958D01*
X167420855Y-86761422D01*
X167418788Y-86794460D01*
X167409500Y-86841153D01*
X167409500Y-86998846D01*
X167440261Y-87153489D01*
X167440264Y-87153501D01*
X167500602Y-87299172D01*
X167500609Y-87299185D01*
X167588210Y-87430288D01*
X167588213Y-87430292D01*
X167699707Y-87541786D01*
X167699711Y-87541789D01*
X167830814Y-87629390D01*
X167830827Y-87629397D01*
X167976498Y-87689735D01*
X167976503Y-87689737D01*
X168131153Y-87720499D01*
X168131156Y-87720500D01*
X168131158Y-87720500D01*
X168288844Y-87720500D01*
X168288845Y-87720499D01*
X168443497Y-87689737D01*
X168589179Y-87629394D01*
X168720289Y-87541789D01*
X168831789Y-87430289D01*
X168919394Y-87299179D01*
X168979737Y-87153497D01*
X169010500Y-86998842D01*
X169010500Y-86841158D01*
X169010500Y-86841155D01*
X169010499Y-86841153D01*
X168998173Y-86779185D01*
X168979737Y-86686503D01*
X168968879Y-86660289D01*
X168919397Y-86540827D01*
X168919390Y-86540814D01*
X168831789Y-86409711D01*
X168831786Y-86409707D01*
X168733232Y-86311153D01*
X169699500Y-86311153D01*
X169699500Y-86468846D01*
X169730261Y-86623489D01*
X169730264Y-86623501D01*
X169790602Y-86769172D01*
X169790609Y-86769185D01*
X169878210Y-86900288D01*
X169878213Y-86900292D01*
X169989707Y-87011786D01*
X169989711Y-87011789D01*
X170120814Y-87099390D01*
X170120827Y-87099397D01*
X170251419Y-87153489D01*
X170266503Y-87159737D01*
X170421153Y-87190499D01*
X170421156Y-87190500D01*
X170421158Y-87190500D01*
X170578844Y-87190500D01*
X170578845Y-87190499D01*
X170733497Y-87159737D01*
X170879179Y-87099394D01*
X171010289Y-87011789D01*
X171121789Y-86900289D01*
X171209394Y-86769179D01*
X171269737Y-86623497D01*
X171300500Y-86468842D01*
X171300500Y-86311158D01*
X171300500Y-86311155D01*
X171300499Y-86311153D01*
X171280498Y-86210602D01*
X171269737Y-86156503D01*
X171267152Y-86150263D01*
X171209397Y-86010827D01*
X171209390Y-86010814D01*
X171121789Y-85879711D01*
X171121786Y-85879707D01*
X171010292Y-85768213D01*
X171010288Y-85768210D01*
X170879185Y-85680609D01*
X170879172Y-85680602D01*
X170733501Y-85620264D01*
X170733489Y-85620261D01*
X170578845Y-85589500D01*
X170578842Y-85589500D01*
X170421158Y-85589500D01*
X170421155Y-85589500D01*
X170266510Y-85620261D01*
X170266498Y-85620264D01*
X170120827Y-85680602D01*
X170120814Y-85680609D01*
X169989711Y-85768210D01*
X169989707Y-85768213D01*
X169878213Y-85879707D01*
X169878210Y-85879711D01*
X169790609Y-86010814D01*
X169790602Y-86010827D01*
X169730264Y-86156498D01*
X169730261Y-86156510D01*
X169699500Y-86311153D01*
X168733232Y-86311153D01*
X168720292Y-86298213D01*
X168720288Y-86298210D01*
X168589185Y-86210609D01*
X168589172Y-86210602D01*
X168443501Y-86150264D01*
X168443489Y-86150261D01*
X168288845Y-86119500D01*
X168288842Y-86119500D01*
X168131158Y-86119500D01*
X168131155Y-86119500D01*
X167976510Y-86150261D01*
X167976498Y-86150264D01*
X167830827Y-86210602D01*
X167830814Y-86210609D01*
X167699711Y-86298210D01*
X167610509Y-86387412D01*
X167549185Y-86420896D01*
X167479494Y-86415912D01*
X167423560Y-86374040D01*
X167399144Y-86308575D01*
X167401210Y-86275542D01*
X167410500Y-86228842D01*
X167410500Y-86071158D01*
X167410500Y-86071155D01*
X167410499Y-86071153D01*
X167379738Y-85916510D01*
X167379737Y-85916503D01*
X167379735Y-85916498D01*
X167319397Y-85770827D01*
X167319390Y-85770814D01*
X167231789Y-85639711D01*
X167231786Y-85639707D01*
X167120292Y-85528213D01*
X167120288Y-85528210D01*
X166989185Y-85440609D01*
X166989172Y-85440602D01*
X166843501Y-85380264D01*
X166843489Y-85380261D01*
X166688845Y-85349500D01*
X166688842Y-85349500D01*
X166531158Y-85349500D01*
X166531155Y-85349500D01*
X166376510Y-85380261D01*
X166376498Y-85380264D01*
X166230827Y-85440602D01*
X166230814Y-85440609D01*
X166099711Y-85528210D01*
X166099707Y-85528213D01*
X165988213Y-85639707D01*
X165988210Y-85639711D01*
X165900609Y-85770814D01*
X165900602Y-85770827D01*
X165840264Y-85916498D01*
X165840261Y-85916510D01*
X165809500Y-86071153D01*
X154100242Y-86071153D01*
X154099933Y-86070408D01*
X154079397Y-86020827D01*
X154079390Y-86020814D01*
X153991789Y-85889711D01*
X153991786Y-85889707D01*
X153880292Y-85778213D01*
X153880288Y-85778210D01*
X153749185Y-85690609D01*
X153749172Y-85690602D01*
X153603501Y-85630264D01*
X153603489Y-85630261D01*
X153448845Y-85599500D01*
X153448842Y-85599500D01*
X153291158Y-85599500D01*
X153291155Y-85599500D01*
X153136510Y-85630261D01*
X153136498Y-85630264D01*
X152990827Y-85690602D01*
X152990814Y-85690609D01*
X152859711Y-85778210D01*
X152859707Y-85778213D01*
X152748213Y-85889707D01*
X152748210Y-85889711D01*
X152660609Y-86020814D01*
X152660602Y-86020827D01*
X152600264Y-86166498D01*
X152600261Y-86166510D01*
X152569500Y-86321153D01*
X152569500Y-86478846D01*
X152600261Y-86633489D01*
X152600264Y-86633501D01*
X152660602Y-86779172D01*
X152660609Y-86779185D01*
X152748210Y-86910288D01*
X152748213Y-86910292D01*
X152798133Y-86960212D01*
X152831618Y-87021535D01*
X152826634Y-87091227D01*
X152798134Y-87135574D01*
X152710723Y-87222985D01*
X152623122Y-87354088D01*
X152623115Y-87354101D01*
X152562777Y-87499772D01*
X152562774Y-87499784D01*
X152532013Y-87654427D01*
X145351500Y-87654427D01*
X145351500Y-83771153D01*
X154269500Y-83771153D01*
X154269500Y-83928846D01*
X154300261Y-84083489D01*
X154300264Y-84083501D01*
X154360602Y-84229172D01*
X154360609Y-84229185D01*
X154448210Y-84360288D01*
X154448213Y-84360292D01*
X154559707Y-84471786D01*
X154559711Y-84471789D01*
X154690814Y-84559390D01*
X154690827Y-84559397D01*
X154825361Y-84615122D01*
X154836503Y-84619737D01*
X154991153Y-84650499D01*
X154991156Y-84650500D01*
X154991158Y-84650500D01*
X155148844Y-84650500D01*
X155148845Y-84650499D01*
X155303497Y-84619737D01*
X155449179Y-84559394D01*
X155580289Y-84471789D01*
X155580299Y-84471778D01*
X155580951Y-84471244D01*
X155581374Y-84471064D01*
X155585354Y-84468405D01*
X155585857Y-84469158D01*
X155645255Y-84443916D01*
X155714125Y-84455692D01*
X155747319Y-84479398D01*
X155819707Y-84551786D01*
X155819711Y-84551789D01*
X155950814Y-84639390D01*
X155950827Y-84639397D01*
X156024078Y-84669738D01*
X156096503Y-84699737D01*
X156251153Y-84730499D01*
X156251156Y-84730500D01*
X156251158Y-84730500D01*
X156408844Y-84730500D01*
X156408845Y-84730499D01*
X156563497Y-84699737D01*
X156709179Y-84639394D01*
X156840289Y-84551789D01*
X156951789Y-84440289D01*
X157039394Y-84309179D01*
X157099737Y-84163497D01*
X157130500Y-84008842D01*
X157130500Y-83851158D01*
X157126453Y-83830814D01*
X157124531Y-83821153D01*
X157559500Y-83821153D01*
X157559500Y-83978846D01*
X157590261Y-84133489D01*
X157590264Y-84133501D01*
X157650602Y-84279172D01*
X157650609Y-84279185D01*
X157738210Y-84410288D01*
X157738213Y-84410292D01*
X157849707Y-84521786D01*
X157849711Y-84521789D01*
X157980814Y-84609390D01*
X157980827Y-84609397D01*
X158121945Y-84667849D01*
X158126503Y-84669737D01*
X158277312Y-84699735D01*
X158281153Y-84700499D01*
X158281156Y-84700500D01*
X158281158Y-84700500D01*
X158438844Y-84700500D01*
X158438845Y-84700499D01*
X158593497Y-84669737D01*
X158739179Y-84609394D01*
X158870289Y-84521789D01*
X158981789Y-84410289D01*
X159069394Y-84279179D01*
X159129737Y-84133497D01*
X159160500Y-83978842D01*
X159160500Y-83821158D01*
X159160500Y-83821155D01*
X159160499Y-83821153D01*
X159148188Y-83759257D01*
X159144587Y-83741153D01*
X160969500Y-83741153D01*
X160969500Y-83898846D01*
X161000261Y-84053489D01*
X161000264Y-84053501D01*
X161060602Y-84199172D01*
X161060609Y-84199185D01*
X161148210Y-84330288D01*
X161148213Y-84330292D01*
X161259707Y-84441786D01*
X161259711Y-84441789D01*
X161390814Y-84529390D01*
X161390827Y-84529397D01*
X161535139Y-84589172D01*
X161536503Y-84589737D01*
X161687312Y-84619735D01*
X161691153Y-84620499D01*
X161691156Y-84620500D01*
X161691158Y-84620500D01*
X161848842Y-84620500D01*
X161875877Y-84615122D01*
X161945466Y-84621348D01*
X162000645Y-84664210D01*
X162003171Y-84667849D01*
X162038207Y-84720284D01*
X162038213Y-84720292D01*
X162149707Y-84831786D01*
X162149711Y-84831789D01*
X162280814Y-84919390D01*
X162280827Y-84919397D01*
X162426498Y-84979735D01*
X162426503Y-84979737D01*
X162581153Y-85010499D01*
X162581156Y-85010500D01*
X162581158Y-85010500D01*
X162738844Y-85010500D01*
X162738845Y-85010499D01*
X162893497Y-84979737D01*
X163039179Y-84919394D01*
X163170289Y-84831789D01*
X163281789Y-84720289D01*
X163369394Y-84589179D01*
X163429737Y-84443497D01*
X163460500Y-84288842D01*
X163460500Y-84131158D01*
X163460500Y-84131155D01*
X163460499Y-84131153D01*
X163429739Y-83976510D01*
X163429735Y-83976498D01*
X163419237Y-83951153D01*
X166389500Y-83951153D01*
X166389500Y-84108846D01*
X166420261Y-84263489D01*
X166420264Y-84263501D01*
X166480602Y-84409172D01*
X166480609Y-84409185D01*
X166568210Y-84540288D01*
X166568213Y-84540292D01*
X166679707Y-84651786D01*
X166679711Y-84651789D01*
X166810814Y-84739390D01*
X166810827Y-84739397D01*
X166956498Y-84799735D01*
X166956503Y-84799737D01*
X167111153Y-84830499D01*
X167111156Y-84830500D01*
X167111158Y-84830500D01*
X167268844Y-84830500D01*
X167268845Y-84830499D01*
X167423497Y-84799737D01*
X167569179Y-84739394D01*
X167700289Y-84651789D01*
X167811789Y-84540289D01*
X167899394Y-84409179D01*
X167959737Y-84263497D01*
X167990500Y-84108842D01*
X167990500Y-83951158D01*
X167990500Y-83951155D01*
X167990499Y-83951153D01*
X167984360Y-83920289D01*
X167959737Y-83796503D01*
X167956703Y-83789179D01*
X167899397Y-83650827D01*
X167899390Y-83650814D01*
X167811789Y-83519711D01*
X167811786Y-83519707D01*
X167700292Y-83408213D01*
X167700288Y-83408210D01*
X167584965Y-83331153D01*
X168419500Y-83331153D01*
X168419500Y-83488846D01*
X168450261Y-83643489D01*
X168450264Y-83643501D01*
X168510602Y-83789172D01*
X168510609Y-83789185D01*
X168598210Y-83920288D01*
X168598213Y-83920292D01*
X168709707Y-84031786D01*
X168709711Y-84031789D01*
X168840814Y-84119390D01*
X168840827Y-84119397D01*
X168986498Y-84179735D01*
X168986503Y-84179737D01*
X169141153Y-84210499D01*
X169141156Y-84210500D01*
X169141158Y-84210500D01*
X169298844Y-84210500D01*
X169298845Y-84210499D01*
X169453497Y-84179737D01*
X169599179Y-84119394D01*
X169730289Y-84031789D01*
X169841789Y-83920289D01*
X169929394Y-83789179D01*
X169936859Y-83771158D01*
X169949287Y-83741153D01*
X169989737Y-83643497D01*
X170020500Y-83488842D01*
X170020500Y-83331158D01*
X170020500Y-83331155D01*
X170020499Y-83331153D01*
X170015936Y-83308213D01*
X169989737Y-83176503D01*
X169983010Y-83160263D01*
X169929397Y-83030827D01*
X169929390Y-83030814D01*
X169841789Y-82899711D01*
X169841786Y-82899707D01*
X169730292Y-82788213D01*
X169730288Y-82788210D01*
X169599185Y-82700609D01*
X169599172Y-82700602D01*
X169453501Y-82640264D01*
X169453489Y-82640261D01*
X169298845Y-82609500D01*
X169298842Y-82609500D01*
X169141158Y-82609500D01*
X169141155Y-82609500D01*
X168986510Y-82640261D01*
X168986498Y-82640264D01*
X168840827Y-82700602D01*
X168840814Y-82700609D01*
X168709711Y-82788210D01*
X168709707Y-82788213D01*
X168598213Y-82899707D01*
X168598210Y-82899711D01*
X168510609Y-83030814D01*
X168510602Y-83030827D01*
X168450264Y-83176498D01*
X168450261Y-83176510D01*
X168419500Y-83331153D01*
X167584965Y-83331153D01*
X167569185Y-83320609D01*
X167569172Y-83320602D01*
X167423501Y-83260264D01*
X167423489Y-83260261D01*
X167268845Y-83229500D01*
X167268842Y-83229500D01*
X167111158Y-83229500D01*
X167111155Y-83229500D01*
X166956510Y-83260261D01*
X166956498Y-83260264D01*
X166810827Y-83320602D01*
X166810814Y-83320609D01*
X166679711Y-83408210D01*
X166679707Y-83408213D01*
X166568213Y-83519707D01*
X166568210Y-83519711D01*
X166480609Y-83650814D01*
X166480602Y-83650827D01*
X166420264Y-83796498D01*
X166420261Y-83796510D01*
X166389500Y-83951153D01*
X163419237Y-83951153D01*
X163369397Y-83830827D01*
X163369390Y-83830814D01*
X163281789Y-83699711D01*
X163281786Y-83699707D01*
X163170292Y-83588213D01*
X163170288Y-83588210D01*
X163039185Y-83500609D01*
X163039172Y-83500602D01*
X162893501Y-83440264D01*
X162893489Y-83440261D01*
X162738845Y-83409500D01*
X162738842Y-83409500D01*
X162581158Y-83409500D01*
X162554119Y-83414878D01*
X162484528Y-83408649D01*
X162429351Y-83365785D01*
X162426842Y-83362171D01*
X162391789Y-83309711D01*
X162391787Y-83309708D01*
X162280292Y-83198213D01*
X162280288Y-83198210D01*
X162149185Y-83110609D01*
X162149172Y-83110602D01*
X162003501Y-83050264D01*
X162003489Y-83050261D01*
X161848845Y-83019500D01*
X161848842Y-83019500D01*
X161691158Y-83019500D01*
X161691155Y-83019500D01*
X161536510Y-83050261D01*
X161536498Y-83050264D01*
X161390827Y-83110602D01*
X161390814Y-83110609D01*
X161259711Y-83198210D01*
X161259707Y-83198213D01*
X161148213Y-83309707D01*
X161148210Y-83309711D01*
X161060609Y-83440814D01*
X161060602Y-83440827D01*
X161000264Y-83586498D01*
X161000261Y-83586510D01*
X160969500Y-83741153D01*
X159144587Y-83741153D01*
X159129738Y-83666508D01*
X159129737Y-83666507D01*
X159129737Y-83666503D01*
X159123241Y-83650821D01*
X159069397Y-83520827D01*
X159069390Y-83520814D01*
X158981789Y-83389711D01*
X158981786Y-83389707D01*
X158870292Y-83278213D01*
X158870288Y-83278210D01*
X158739185Y-83190609D01*
X158739172Y-83190602D01*
X158593501Y-83130264D01*
X158593489Y-83130261D01*
X158438845Y-83099500D01*
X158438842Y-83099500D01*
X158281158Y-83099500D01*
X158281155Y-83099500D01*
X158126510Y-83130261D01*
X158126498Y-83130264D01*
X157980827Y-83190602D01*
X157980814Y-83190609D01*
X157849711Y-83278210D01*
X157849707Y-83278213D01*
X157738213Y-83389707D01*
X157738210Y-83389711D01*
X157650609Y-83520814D01*
X157650602Y-83520827D01*
X157590264Y-83666498D01*
X157590261Y-83666510D01*
X157559500Y-83821153D01*
X157124531Y-83821153D01*
X157099738Y-83696510D01*
X157099737Y-83696503D01*
X157077783Y-83643501D01*
X157039397Y-83550827D01*
X157039390Y-83550814D01*
X156951789Y-83419711D01*
X156951786Y-83419707D01*
X156840292Y-83308213D01*
X156840288Y-83308210D01*
X156709185Y-83220609D01*
X156709172Y-83220602D01*
X156563501Y-83160264D01*
X156563489Y-83160261D01*
X156408845Y-83129500D01*
X156408842Y-83129500D01*
X156251158Y-83129500D01*
X156251155Y-83129500D01*
X156096510Y-83160261D01*
X156096498Y-83160264D01*
X155950827Y-83220602D01*
X155950814Y-83220609D01*
X155819714Y-83308208D01*
X155819029Y-83308771D01*
X155818599Y-83308953D01*
X155814646Y-83311595D01*
X155814145Y-83310845D01*
X155754719Y-83336086D01*
X155685851Y-83324296D01*
X155652680Y-83300601D01*
X155580292Y-83228213D01*
X155580288Y-83228210D01*
X155449185Y-83140609D01*
X155449172Y-83140602D01*
X155303501Y-83080264D01*
X155303489Y-83080261D01*
X155148845Y-83049500D01*
X155148842Y-83049500D01*
X154991158Y-83049500D01*
X154991155Y-83049500D01*
X154836510Y-83080261D01*
X154836498Y-83080264D01*
X154690827Y-83140602D01*
X154690814Y-83140609D01*
X154559711Y-83228210D01*
X154559707Y-83228213D01*
X154448213Y-83339707D01*
X154448210Y-83339711D01*
X154360609Y-83470814D01*
X154360602Y-83470827D01*
X154300264Y-83616498D01*
X154300261Y-83616510D01*
X154269500Y-83771153D01*
X145351500Y-83771153D01*
X145351500Y-81401153D01*
X147729500Y-81401153D01*
X147729500Y-81558846D01*
X147760261Y-81713489D01*
X147760264Y-81713501D01*
X147820602Y-81859172D01*
X147820609Y-81859185D01*
X147908210Y-81990288D01*
X147908213Y-81990292D01*
X148019707Y-82101786D01*
X148019711Y-82101789D01*
X148150814Y-82189390D01*
X148150827Y-82189397D01*
X148296498Y-82249735D01*
X148296503Y-82249737D01*
X148451153Y-82280499D01*
X148451156Y-82280500D01*
X148451158Y-82280500D01*
X148608844Y-82280500D01*
X148608845Y-82280499D01*
X148763497Y-82249737D01*
X148909179Y-82189394D01*
X149040289Y-82101789D01*
X149151789Y-81990289D01*
X149239394Y-81859179D01*
X149299737Y-81713497D01*
X149330500Y-81558842D01*
X149330500Y-81521153D01*
X150429500Y-81521153D01*
X150429500Y-81678846D01*
X150460261Y-81833489D01*
X150460264Y-81833501D01*
X150520602Y-81979172D01*
X150520609Y-81979185D01*
X150608210Y-82110288D01*
X150608213Y-82110292D01*
X150719707Y-82221786D01*
X150719711Y-82221789D01*
X150850814Y-82309390D01*
X150850827Y-82309397D01*
X150975779Y-82361153D01*
X150996503Y-82369737D01*
X151151153Y-82400499D01*
X151151156Y-82400500D01*
X151151158Y-82400500D01*
X151308844Y-82400500D01*
X151308845Y-82400499D01*
X151463497Y-82369737D01*
X151609179Y-82309394D01*
X151740289Y-82221789D01*
X151851789Y-82110289D01*
X151939394Y-81979179D01*
X151999737Y-81833497D01*
X152030500Y-81678842D01*
X152030500Y-81521158D01*
X152030500Y-81521155D01*
X152030499Y-81521153D01*
X152024139Y-81489179D01*
X151999737Y-81366503D01*
X151990208Y-81343497D01*
X151939397Y-81220827D01*
X151939390Y-81220814D01*
X151901399Y-81163957D01*
X151859434Y-81101153D01*
X154319500Y-81101153D01*
X154319500Y-81258846D01*
X154350261Y-81413489D01*
X154350264Y-81413501D01*
X154410602Y-81559172D01*
X154410609Y-81559185D01*
X154498210Y-81690288D01*
X154498213Y-81690292D01*
X154609707Y-81801786D01*
X154609711Y-81801789D01*
X154740814Y-81889390D01*
X154740827Y-81889397D01*
X154886498Y-81949735D01*
X154886503Y-81949737D01*
X155034482Y-81979172D01*
X155041153Y-81980499D01*
X155041156Y-81980500D01*
X155041158Y-81980500D01*
X155198844Y-81980500D01*
X155198845Y-81980499D01*
X155353497Y-81949737D01*
X155499179Y-81889394D01*
X155630289Y-81801789D01*
X155741789Y-81690289D01*
X155829394Y-81559179D01*
X155889737Y-81413497D01*
X155920500Y-81258842D01*
X155920500Y-81146533D01*
X157924880Y-81146533D01*
X157924880Y-81304226D01*
X157955641Y-81458869D01*
X157955644Y-81458881D01*
X158015982Y-81604552D01*
X158015989Y-81604565D01*
X158103590Y-81735668D01*
X158103593Y-81735672D01*
X158215087Y-81847166D01*
X158215091Y-81847169D01*
X158346194Y-81934770D01*
X158346207Y-81934777D01*
X158480227Y-81990289D01*
X158491883Y-81995117D01*
X158646533Y-82025879D01*
X158646536Y-82025880D01*
X158646538Y-82025880D01*
X158804224Y-82025880D01*
X158804225Y-82025879D01*
X158958877Y-81995117D01*
X159087623Y-81941789D01*
X159104552Y-81934777D01*
X159104552Y-81934776D01*
X159104559Y-81934774D01*
X159235669Y-81847169D01*
X159347169Y-81735669D01*
X159434774Y-81604559D01*
X159495117Y-81458877D01*
X159525880Y-81304222D01*
X159525880Y-81146538D01*
X159525880Y-81146535D01*
X159506530Y-81049258D01*
X159506530Y-81049257D01*
X159502928Y-81031153D01*
X161269500Y-81031153D01*
X161269500Y-81188846D01*
X161300261Y-81343489D01*
X161300264Y-81343501D01*
X161360602Y-81489172D01*
X161360609Y-81489185D01*
X161448210Y-81620288D01*
X161448213Y-81620292D01*
X161559707Y-81731786D01*
X161559711Y-81731789D01*
X161690814Y-81819390D01*
X161690827Y-81819397D01*
X161836498Y-81879735D01*
X161836503Y-81879737D01*
X161991153Y-81910499D01*
X161991156Y-81910500D01*
X161991158Y-81910500D01*
X162148844Y-81910500D01*
X162148845Y-81910499D01*
X162303497Y-81879737D01*
X162449179Y-81819394D01*
X162580289Y-81731789D01*
X162691789Y-81620289D01*
X162779394Y-81489179D01*
X162839737Y-81343497D01*
X162870500Y-81188842D01*
X162870500Y-81031158D01*
X162870500Y-81031155D01*
X162870499Y-81031153D01*
X162839737Y-80876503D01*
X162824138Y-80838844D01*
X162779397Y-80730827D01*
X162779390Y-80730814D01*
X162691789Y-80599711D01*
X162691786Y-80599707D01*
X162580292Y-80488213D01*
X162580288Y-80488210D01*
X162539838Y-80461182D01*
X162495033Y-80407570D01*
X162486326Y-80338245D01*
X162516481Y-80275217D01*
X162575924Y-80238498D01*
X162584538Y-80236463D01*
X162604058Y-80232580D01*
X162643497Y-80224735D01*
X162789179Y-80164392D01*
X162920289Y-80076787D01*
X163031789Y-79965287D01*
X163119394Y-79834177D01*
X163179737Y-79688495D01*
X163210500Y-79533840D01*
X163210500Y-79376156D01*
X163210500Y-79376153D01*
X163210499Y-79376151D01*
X163179738Y-79221508D01*
X163179737Y-79221501D01*
X163177665Y-79216498D01*
X163119397Y-79075825D01*
X163119390Y-79075812D01*
X163031789Y-78944709D01*
X163031786Y-78944705D01*
X162920292Y-78833211D01*
X162920288Y-78833208D01*
X162789185Y-78745607D01*
X162789172Y-78745600D01*
X162643501Y-78685262D01*
X162643489Y-78685259D01*
X162488845Y-78654498D01*
X162488842Y-78654498D01*
X162331158Y-78654498D01*
X162331155Y-78654498D01*
X162176510Y-78685259D01*
X162176498Y-78685262D01*
X162030827Y-78745600D01*
X162030814Y-78745607D01*
X161899711Y-78833208D01*
X161899707Y-78833211D01*
X161788213Y-78944705D01*
X161788210Y-78944709D01*
X161700609Y-79075812D01*
X161700602Y-79075825D01*
X161640264Y-79221496D01*
X161640261Y-79221508D01*
X161609500Y-79376151D01*
X161609500Y-79533844D01*
X161640261Y-79688487D01*
X161640264Y-79688499D01*
X161700602Y-79834170D01*
X161700609Y-79834183D01*
X161788210Y-79965286D01*
X161788213Y-79965290D01*
X161899707Y-80076784D01*
X161899715Y-80076790D01*
X161940160Y-80103815D01*
X161984966Y-80157427D01*
X161993673Y-80226752D01*
X161963519Y-80289779D01*
X161904076Y-80326499D01*
X161895463Y-80328534D01*
X161836507Y-80340261D01*
X161836498Y-80340264D01*
X161690827Y-80400602D01*
X161690814Y-80400609D01*
X161559711Y-80488210D01*
X161559707Y-80488213D01*
X161448213Y-80599707D01*
X161448210Y-80599711D01*
X161360609Y-80730814D01*
X161360602Y-80730827D01*
X161300264Y-80876498D01*
X161300261Y-80876510D01*
X161269500Y-81031153D01*
X159502928Y-81031153D01*
X159500000Y-81016434D01*
X159495117Y-80991883D01*
X159485933Y-80969711D01*
X159434777Y-80846207D01*
X159434770Y-80846194D01*
X159347169Y-80715091D01*
X159347166Y-80715087D01*
X159235672Y-80603593D01*
X159235668Y-80603590D01*
X159104565Y-80515989D01*
X159104555Y-80515984D01*
X159045776Y-80491637D01*
X158991373Y-80447796D01*
X158969308Y-80381502D01*
X158986587Y-80313802D01*
X159037725Y-80266192D01*
X159069038Y-80255459D01*
X159093968Y-80250500D01*
X159223497Y-80224735D01*
X159369179Y-80164392D01*
X159500289Y-80076787D01*
X159611789Y-79965287D01*
X159699394Y-79834177D01*
X159759737Y-79688495D01*
X159790500Y-79533840D01*
X159790500Y-79376156D01*
X159790500Y-79376153D01*
X159790499Y-79376151D01*
X159759738Y-79221508D01*
X159759737Y-79221501D01*
X159757665Y-79216498D01*
X159699397Y-79075825D01*
X159699390Y-79075812D01*
X159611789Y-78944709D01*
X159611786Y-78944705D01*
X159500292Y-78833211D01*
X159500288Y-78833208D01*
X159369185Y-78745607D01*
X159369172Y-78745600D01*
X159223501Y-78685262D01*
X159223489Y-78685259D01*
X159068845Y-78654498D01*
X159068842Y-78654498D01*
X158911158Y-78654498D01*
X158911155Y-78654498D01*
X158756510Y-78685259D01*
X158756498Y-78685262D01*
X158610827Y-78745600D01*
X158610814Y-78745607D01*
X158479711Y-78833208D01*
X158479707Y-78833211D01*
X158368213Y-78944705D01*
X158368210Y-78944709D01*
X158280609Y-79075812D01*
X158280602Y-79075825D01*
X158220264Y-79221496D01*
X158220261Y-79221508D01*
X158189500Y-79376151D01*
X158189500Y-79533844D01*
X158220261Y-79688487D01*
X158220264Y-79688499D01*
X158280602Y-79834170D01*
X158280609Y-79834183D01*
X158368210Y-79965286D01*
X158368213Y-79965290D01*
X158479707Y-80076784D01*
X158479711Y-80076787D01*
X158610814Y-80164388D01*
X158610827Y-80164395D01*
X158669602Y-80188740D01*
X158724006Y-80232580D01*
X158746071Y-80298874D01*
X158728792Y-80366574D01*
X158677655Y-80414185D01*
X158646342Y-80424918D01*
X158491888Y-80455641D01*
X158491878Y-80455644D01*
X158346207Y-80515982D01*
X158346194Y-80515989D01*
X158215091Y-80603590D01*
X158215087Y-80603593D01*
X158103593Y-80715087D01*
X158103590Y-80715091D01*
X158015989Y-80846194D01*
X158015982Y-80846207D01*
X157955644Y-80991878D01*
X157955641Y-80991890D01*
X157924880Y-81146533D01*
X155920500Y-81146533D01*
X155920500Y-81101158D01*
X155920500Y-81101155D01*
X155920499Y-81101153D01*
X155906575Y-81031153D01*
X155889737Y-80946503D01*
X155887386Y-80940827D01*
X155829397Y-80800827D01*
X155829390Y-80800814D01*
X155741789Y-80669711D01*
X155741786Y-80669707D01*
X155630292Y-80558213D01*
X155630288Y-80558210D01*
X155517130Y-80482600D01*
X155472325Y-80428988D01*
X155463618Y-80359663D01*
X155493772Y-80296635D01*
X155553216Y-80259916D01*
X155586021Y-80255498D01*
X155608844Y-80255498D01*
X155608845Y-80255497D01*
X155763497Y-80224735D01*
X155909179Y-80164392D01*
X156040289Y-80076787D01*
X156151789Y-79965287D01*
X156239394Y-79834177D01*
X156299737Y-79688495D01*
X156330500Y-79533840D01*
X156330500Y-79376156D01*
X156330500Y-79376153D01*
X156330499Y-79376151D01*
X156299738Y-79221508D01*
X156299737Y-79221501D01*
X156297665Y-79216498D01*
X156239397Y-79075825D01*
X156239390Y-79075812D01*
X156151789Y-78944709D01*
X156151786Y-78944705D01*
X156040292Y-78833211D01*
X156040288Y-78833208D01*
X155909185Y-78745607D01*
X155909172Y-78745600D01*
X155763501Y-78685262D01*
X155763489Y-78685259D01*
X155608845Y-78654498D01*
X155608842Y-78654498D01*
X155451158Y-78654498D01*
X155451155Y-78654498D01*
X155296510Y-78685259D01*
X155296498Y-78685262D01*
X155150827Y-78745600D01*
X155150814Y-78745607D01*
X155019711Y-78833208D01*
X155019707Y-78833211D01*
X154908213Y-78944705D01*
X154908210Y-78944709D01*
X154820609Y-79075812D01*
X154820602Y-79075825D01*
X154760264Y-79221496D01*
X154760261Y-79221508D01*
X154729500Y-79376151D01*
X154729500Y-79533844D01*
X154760261Y-79688487D01*
X154760264Y-79688499D01*
X154820602Y-79834170D01*
X154820609Y-79834183D01*
X154908210Y-79965286D01*
X154908213Y-79965290D01*
X155019707Y-80076784D01*
X155019711Y-80076787D01*
X155132870Y-80152398D01*
X155177675Y-80206010D01*
X155186382Y-80275335D01*
X155156228Y-80338363D01*
X155096784Y-80375082D01*
X155063979Y-80379500D01*
X155041155Y-80379500D01*
X154886510Y-80410261D01*
X154886498Y-80410264D01*
X154740827Y-80470602D01*
X154740814Y-80470609D01*
X154609711Y-80558210D01*
X154609707Y-80558213D01*
X154498213Y-80669707D01*
X154498210Y-80669711D01*
X154410609Y-80800814D01*
X154410602Y-80800827D01*
X154350264Y-80946498D01*
X154350261Y-80946510D01*
X154319500Y-81101153D01*
X151859434Y-81101153D01*
X151851789Y-81089711D01*
X151851786Y-81089707D01*
X151740292Y-80978213D01*
X151740288Y-80978210D01*
X151609185Y-80890609D01*
X151609172Y-80890602D01*
X151463501Y-80830264D01*
X151463489Y-80830261D01*
X151308845Y-80799500D01*
X151308842Y-80799500D01*
X151151158Y-80799500D01*
X151151155Y-80799500D01*
X150996510Y-80830261D01*
X150996498Y-80830264D01*
X150850827Y-80890602D01*
X150850814Y-80890609D01*
X150719711Y-80978210D01*
X150719707Y-80978213D01*
X150608213Y-81089707D01*
X150608210Y-81089711D01*
X150520609Y-81220814D01*
X150520602Y-81220827D01*
X150460264Y-81366498D01*
X150460261Y-81366510D01*
X150429500Y-81521153D01*
X149330500Y-81521153D01*
X149330500Y-81401158D01*
X149330500Y-81401155D01*
X149330499Y-81401153D01*
X149324250Y-81369736D01*
X149299737Y-81246503D01*
X149265546Y-81163957D01*
X149239397Y-81100827D01*
X149239390Y-81100814D01*
X149151789Y-80969711D01*
X149151786Y-80969707D01*
X149040292Y-80858213D01*
X149040288Y-80858210D01*
X148909185Y-80770609D01*
X148909172Y-80770602D01*
X148763501Y-80710264D01*
X148763489Y-80710261D01*
X148608845Y-80679500D01*
X148608842Y-80679500D01*
X148451158Y-80679500D01*
X148451155Y-80679500D01*
X148296510Y-80710261D01*
X148296498Y-80710264D01*
X148150827Y-80770602D01*
X148150814Y-80770609D01*
X148019711Y-80858210D01*
X148019707Y-80858213D01*
X147908213Y-80969707D01*
X147908210Y-80969711D01*
X147820609Y-81100814D01*
X147820602Y-81100827D01*
X147760264Y-81246498D01*
X147760261Y-81246510D01*
X147729500Y-81401153D01*
X145351500Y-81401153D01*
X145351500Y-79376151D01*
X147649500Y-79376151D01*
X147649500Y-79533844D01*
X147680261Y-79688487D01*
X147680264Y-79688499D01*
X147740602Y-79834170D01*
X147740609Y-79834183D01*
X147828210Y-79965286D01*
X147828213Y-79965290D01*
X147939707Y-80076784D01*
X147939711Y-80076787D01*
X148070814Y-80164388D01*
X148070827Y-80164395D01*
X148204439Y-80219738D01*
X148216503Y-80224735D01*
X148346032Y-80250500D01*
X148371153Y-80255497D01*
X148371156Y-80255498D01*
X148371158Y-80255498D01*
X148528844Y-80255498D01*
X148528845Y-80255497D01*
X148683497Y-80224735D01*
X148829179Y-80164392D01*
X148960289Y-80076787D01*
X149071789Y-79965287D01*
X149159394Y-79834177D01*
X149219737Y-79688495D01*
X149250500Y-79533840D01*
X149250500Y-79376156D01*
X149250500Y-79376153D01*
X149250499Y-79376151D01*
X151089500Y-79376151D01*
X151089500Y-79533844D01*
X151120261Y-79688487D01*
X151120264Y-79688499D01*
X151180602Y-79834170D01*
X151180609Y-79834183D01*
X151268210Y-79965286D01*
X151268213Y-79965290D01*
X151379707Y-80076784D01*
X151379711Y-80076787D01*
X151510814Y-80164388D01*
X151510827Y-80164395D01*
X151644439Y-80219738D01*
X151656503Y-80224735D01*
X151786032Y-80250500D01*
X151811153Y-80255497D01*
X151811156Y-80255498D01*
X151811158Y-80255498D01*
X151968844Y-80255498D01*
X151968845Y-80255497D01*
X152123497Y-80224735D01*
X152269179Y-80164392D01*
X152400289Y-80076787D01*
X152511789Y-79965287D01*
X152599394Y-79834177D01*
X152659737Y-79688495D01*
X152690500Y-79533840D01*
X152690500Y-79376156D01*
X152690500Y-79376153D01*
X152690499Y-79376151D01*
X152659738Y-79221508D01*
X152659737Y-79221501D01*
X152657665Y-79216498D01*
X152599397Y-79075825D01*
X152599390Y-79075812D01*
X152511789Y-78944709D01*
X152511786Y-78944705D01*
X152400292Y-78833211D01*
X152400288Y-78833208D01*
X152269185Y-78745607D01*
X152269172Y-78745600D01*
X152123501Y-78685262D01*
X152123489Y-78685259D01*
X151968845Y-78654498D01*
X151968842Y-78654498D01*
X151811158Y-78654498D01*
X151811155Y-78654498D01*
X151656510Y-78685259D01*
X151656498Y-78685262D01*
X151510827Y-78745600D01*
X151510814Y-78745607D01*
X151379711Y-78833208D01*
X151379707Y-78833211D01*
X151268213Y-78944705D01*
X151268210Y-78944709D01*
X151180609Y-79075812D01*
X151180602Y-79075825D01*
X151120264Y-79221496D01*
X151120261Y-79221508D01*
X151089500Y-79376151D01*
X149250499Y-79376151D01*
X149219738Y-79221508D01*
X149219737Y-79221501D01*
X149217665Y-79216498D01*
X149159397Y-79075825D01*
X149159390Y-79075812D01*
X149071789Y-78944709D01*
X149071786Y-78944705D01*
X148960292Y-78833211D01*
X148960288Y-78833208D01*
X148829185Y-78745607D01*
X148829172Y-78745600D01*
X148683501Y-78685262D01*
X148683489Y-78685259D01*
X148528845Y-78654498D01*
X148528842Y-78654498D01*
X148371158Y-78654498D01*
X148371155Y-78654498D01*
X148216510Y-78685259D01*
X148216498Y-78685262D01*
X148070827Y-78745600D01*
X148070814Y-78745607D01*
X147939711Y-78833208D01*
X147939707Y-78833211D01*
X147828213Y-78944705D01*
X147828210Y-78944709D01*
X147740609Y-79075812D01*
X147740602Y-79075825D01*
X147680264Y-79221496D01*
X147680261Y-79221508D01*
X147649500Y-79376151D01*
X145351500Y-79376151D01*
X145351500Y-77031230D01*
X145371185Y-76964191D01*
X145387819Y-76943549D01*
X145704549Y-76626819D01*
X145765872Y-76593334D01*
X145792230Y-76590500D01*
X148325396Y-76590500D01*
X148372844Y-76599937D01*
X148396503Y-76609737D01*
X148396508Y-76609738D01*
X148396511Y-76609739D01*
X148551153Y-76640499D01*
X148551156Y-76640500D01*
X148551158Y-76640500D01*
X148708844Y-76640500D01*
X148708845Y-76640499D01*
X148837295Y-76614949D01*
X148863488Y-76609739D01*
X148863489Y-76609738D01*
X148863497Y-76609737D01*
X148887155Y-76599937D01*
X148934604Y-76590500D01*
X152445396Y-76590500D01*
X152492844Y-76599937D01*
X152516503Y-76609737D01*
X152516508Y-76609738D01*
X152516511Y-76609739D01*
X152671153Y-76640499D01*
X152671156Y-76640500D01*
X152671158Y-76640500D01*
X152828844Y-76640500D01*
X152828845Y-76640499D01*
X152957295Y-76614949D01*
X152983488Y-76609739D01*
X152983489Y-76609738D01*
X152983497Y-76609737D01*
X153007155Y-76599937D01*
X153054604Y-76590500D01*
X156420031Y-76590500D01*
X156487070Y-76610185D01*
X156488876Y-76611367D01*
X156530821Y-76639394D01*
X156530823Y-76639395D01*
X156530827Y-76639397D01*
X156676498Y-76699735D01*
X156676503Y-76699737D01*
X156831153Y-76730499D01*
X156831156Y-76730500D01*
X156831158Y-76730500D01*
X156988844Y-76730500D01*
X156988845Y-76730499D01*
X157143497Y-76699737D01*
X157289179Y-76639394D01*
X157331078Y-76611397D01*
X157397755Y-76590520D01*
X157399969Y-76590500D01*
X160955396Y-76590500D01*
X161002844Y-76599937D01*
X161026503Y-76609737D01*
X161026508Y-76609738D01*
X161026511Y-76609739D01*
X161181153Y-76640499D01*
X161181156Y-76640500D01*
X161181158Y-76640500D01*
X161338844Y-76640500D01*
X161338845Y-76640499D01*
X161467295Y-76614949D01*
X161493488Y-76609739D01*
X161493489Y-76609738D01*
X161493497Y-76609737D01*
X161517155Y-76599937D01*
X161564604Y-76590500D01*
X164006082Y-76590500D01*
X164585396Y-76590500D01*
X164632844Y-76599937D01*
X164656503Y-76609737D01*
X164656508Y-76609738D01*
X164656511Y-76609739D01*
X164811153Y-76640499D01*
X164811156Y-76640500D01*
X164811158Y-76640500D01*
X164968844Y-76640500D01*
X164968845Y-76640499D01*
X165097295Y-76614949D01*
X165123488Y-76609739D01*
X165123489Y-76609738D01*
X165123497Y-76609737D01*
X165147155Y-76599937D01*
X165194604Y-76590500D01*
X166095500Y-76590500D01*
X166162539Y-76610185D01*
X166208294Y-76662989D01*
X166219500Y-76714500D01*
X166219500Y-78540307D01*
X166199815Y-78607346D01*
X166147011Y-78653101D01*
X166077853Y-78663045D01*
X166071310Y-78661925D01*
X166008842Y-78649500D01*
X165851158Y-78649500D01*
X165851155Y-78649500D01*
X165696510Y-78680261D01*
X165696498Y-78680264D01*
X165550827Y-78740602D01*
X165550814Y-78740609D01*
X165419711Y-78828210D01*
X165419707Y-78828213D01*
X165308213Y-78939707D01*
X165308210Y-78939711D01*
X165220609Y-79070814D01*
X165220602Y-79070827D01*
X165160264Y-79216498D01*
X165160261Y-79216510D01*
X165129500Y-79371153D01*
X165129500Y-79528846D01*
X165160261Y-79683489D01*
X165160264Y-79683501D01*
X165220602Y-79829172D01*
X165220609Y-79829185D01*
X165308210Y-79960288D01*
X165308213Y-79960292D01*
X165419707Y-80071786D01*
X165419711Y-80071789D01*
X165550814Y-80159390D01*
X165550827Y-80159397D01*
X165696498Y-80219735D01*
X165696503Y-80219737D01*
X165851153Y-80250499D01*
X165851156Y-80250500D01*
X165851158Y-80250500D01*
X166008842Y-80250500D01*
X166050160Y-80242281D01*
X166082845Y-80245205D01*
X166115604Y-80246961D01*
X166117464Y-80248302D01*
X166119749Y-80248507D01*
X166145665Y-80268638D01*
X166172276Y-80287828D01*
X166173115Y-80289961D01*
X166174927Y-80291369D01*
X166185846Y-80322319D01*
X166197857Y-80352846D01*
X166197693Y-80355898D01*
X166198173Y-80357258D01*
X166195968Y-80388089D01*
X166172618Y-80505477D01*
X166140233Y-80567388D01*
X166079518Y-80601962D01*
X166009748Y-80598223D01*
X166003549Y-80595847D01*
X165893501Y-80550264D01*
X165893489Y-80550261D01*
X165738845Y-80519500D01*
X165738842Y-80519500D01*
X165581158Y-80519500D01*
X165581155Y-80519500D01*
X165426510Y-80550261D01*
X165426498Y-80550264D01*
X165280827Y-80610602D01*
X165280814Y-80610609D01*
X165149711Y-80698210D01*
X165149707Y-80698213D01*
X165038213Y-80809707D01*
X165038210Y-80809711D01*
X164950609Y-80940814D01*
X164950602Y-80940827D01*
X164890264Y-81086498D01*
X164890261Y-81086510D01*
X164859500Y-81241153D01*
X164859500Y-81398846D01*
X164891451Y-81559472D01*
X164889872Y-81559786D01*
X164890424Y-81621847D01*
X164853174Y-81680959D01*
X164818594Y-81702533D01*
X164750824Y-81730604D01*
X164750814Y-81730609D01*
X164619711Y-81818210D01*
X164619707Y-81818213D01*
X164508213Y-81929707D01*
X164508210Y-81929711D01*
X164420609Y-82060814D01*
X164420602Y-82060827D01*
X164360264Y-82206498D01*
X164360261Y-82206510D01*
X164329500Y-82361153D01*
X164329500Y-82518846D01*
X164360261Y-82673489D01*
X164360264Y-82673501D01*
X164420602Y-82819172D01*
X164420609Y-82819185D01*
X164508210Y-82950288D01*
X164508213Y-82950292D01*
X164619707Y-83061786D01*
X164619711Y-83061789D01*
X164750814Y-83149390D01*
X164750827Y-83149397D01*
X164868681Y-83198213D01*
X164896503Y-83209737D01*
X164995858Y-83229500D01*
X165051153Y-83240499D01*
X165051156Y-83240500D01*
X165051158Y-83240500D01*
X165208844Y-83240500D01*
X165208845Y-83240499D01*
X165363497Y-83209737D01*
X165509179Y-83149394D01*
X165640289Y-83061789D01*
X165751789Y-82950289D01*
X165839394Y-82819179D01*
X165899737Y-82673497D01*
X165930500Y-82518842D01*
X165930500Y-82361158D01*
X165930500Y-82361155D01*
X165930499Y-82361153D01*
X165898549Y-82200528D01*
X165900131Y-82200213D01*
X165899570Y-82138170D01*
X165936811Y-82079053D01*
X165971402Y-82057467D01*
X166039179Y-82029394D01*
X166170289Y-81941789D01*
X166281789Y-81830289D01*
X166369394Y-81699179D01*
X166429737Y-81553497D01*
X166457381Y-81414521D01*
X166489766Y-81352611D01*
X166550481Y-81318037D01*
X166620251Y-81321776D01*
X166626440Y-81324148D01*
X166736503Y-81369737D01*
X166882823Y-81398842D01*
X166891153Y-81400499D01*
X166891156Y-81400500D01*
X166891158Y-81400500D01*
X167048844Y-81400500D01*
X167048845Y-81400499D01*
X167203497Y-81369737D01*
X167349179Y-81309394D01*
X167480289Y-81221789D01*
X167591789Y-81110289D01*
X167679394Y-80979179D01*
X167739737Y-80833497D01*
X167770040Y-80681153D01*
X168449500Y-80681153D01*
X168449500Y-80838846D01*
X168480261Y-80993489D01*
X168480264Y-80993501D01*
X168540602Y-81139172D01*
X168540609Y-81139185D01*
X168628210Y-81270288D01*
X168628213Y-81270292D01*
X168739707Y-81381786D01*
X168739711Y-81381789D01*
X168870814Y-81469390D01*
X168870827Y-81469397D01*
X168995779Y-81521153D01*
X169016503Y-81529737D01*
X169135912Y-81553489D01*
X169171153Y-81560499D01*
X169171156Y-81560500D01*
X169171158Y-81560500D01*
X169328844Y-81560500D01*
X169328845Y-81560499D01*
X169483497Y-81529737D01*
X169629179Y-81469394D01*
X169760289Y-81381789D01*
X169871789Y-81270289D01*
X169959394Y-81139179D01*
X170019737Y-80993497D01*
X170050500Y-80838842D01*
X170050500Y-80681158D01*
X170050500Y-80681155D01*
X170050499Y-80681153D01*
X170035071Y-80603591D01*
X170019737Y-80526503D01*
X169996582Y-80470602D01*
X169959397Y-80380827D01*
X169959390Y-80380814D01*
X169871789Y-80249711D01*
X169871786Y-80249707D01*
X169760292Y-80138213D01*
X169760288Y-80138210D01*
X169629185Y-80050609D01*
X169629172Y-80050602D01*
X169483501Y-79990264D01*
X169483489Y-79990261D01*
X169328845Y-79959500D01*
X169328842Y-79959500D01*
X169171158Y-79959500D01*
X169171155Y-79959500D01*
X169016510Y-79990261D01*
X169016498Y-79990264D01*
X168870827Y-80050602D01*
X168870814Y-80050609D01*
X168739711Y-80138210D01*
X168739707Y-80138213D01*
X168628213Y-80249707D01*
X168628210Y-80249711D01*
X168540609Y-80380814D01*
X168540602Y-80380827D01*
X168480264Y-80526498D01*
X168480261Y-80526510D01*
X168449500Y-80681153D01*
X167770040Y-80681153D01*
X167770500Y-80678842D01*
X167770500Y-80521158D01*
X167770500Y-80521155D01*
X167770499Y-80521153D01*
X167739739Y-80366511D01*
X167739738Y-80366508D01*
X167739737Y-80366503D01*
X167729937Y-80342844D01*
X167720500Y-80295396D01*
X167720500Y-77663713D01*
X170469500Y-77663713D01*
X170469500Y-77876286D01*
X170502753Y-78086239D01*
X170568444Y-78288414D01*
X170664951Y-78477820D01*
X170789890Y-78649786D01*
X170940213Y-78800109D01*
X171112179Y-78925048D01*
X171112181Y-78925049D01*
X171112184Y-78925051D01*
X171301588Y-79021557D01*
X171503757Y-79087246D01*
X171713713Y-79120500D01*
X171713714Y-79120500D01*
X171926286Y-79120500D01*
X171926287Y-79120500D01*
X172136243Y-79087246D01*
X172338412Y-79021557D01*
X172527816Y-78925051D01*
X172654227Y-78833209D01*
X172699786Y-78800109D01*
X172699788Y-78800106D01*
X172699792Y-78800104D01*
X172850104Y-78649792D01*
X172850106Y-78649788D01*
X172850109Y-78649786D01*
X172975048Y-78477820D01*
X172975047Y-78477820D01*
X172975051Y-78477816D01*
X173071557Y-78288412D01*
X173137246Y-78086243D01*
X173170500Y-77876287D01*
X173170500Y-77663713D01*
X173137246Y-77453757D01*
X173071557Y-77251588D01*
X172975051Y-77062184D01*
X172975049Y-77062181D01*
X172975048Y-77062179D01*
X172850109Y-76890213D01*
X172699786Y-76739890D01*
X172527820Y-76614951D01*
X172338414Y-76518444D01*
X172338413Y-76518443D01*
X172338412Y-76518443D01*
X172136243Y-76452754D01*
X172136241Y-76452753D01*
X172136240Y-76452753D01*
X171974957Y-76427208D01*
X171926287Y-76419500D01*
X171713713Y-76419500D01*
X171665042Y-76427208D01*
X171503760Y-76452753D01*
X171301585Y-76518444D01*
X171112179Y-76614951D01*
X170940213Y-76739890D01*
X170789890Y-76890213D01*
X170664951Y-77062179D01*
X170568444Y-77251585D01*
X170502753Y-77453760D01*
X170469500Y-77663713D01*
X167720500Y-77663713D01*
X167720500Y-76196079D01*
X167691659Y-76051092D01*
X167691658Y-76051091D01*
X167691658Y-76051087D01*
X167691656Y-76051082D01*
X167635087Y-75914511D01*
X167635085Y-75914507D01*
X167635084Y-75914505D01*
X167592757Y-75851158D01*
X167552952Y-75791584D01*
X167320137Y-75558769D01*
X167018421Y-75257052D01*
X167018414Y-75257046D01*
X166944729Y-75207812D01*
X166944729Y-75207813D01*
X166895491Y-75174913D01*
X166758917Y-75118343D01*
X166758907Y-75118340D01*
X166613920Y-75089500D01*
X166613918Y-75089500D01*
X165194604Y-75089500D01*
X165147155Y-75080062D01*
X165123497Y-75070263D01*
X165123493Y-75070262D01*
X165123488Y-75070260D01*
X164968845Y-75039500D01*
X164968842Y-75039500D01*
X164811158Y-75039500D01*
X164811155Y-75039500D01*
X164656511Y-75070260D01*
X164656506Y-75070262D01*
X164656504Y-75070262D01*
X164656503Y-75070263D01*
X164632844Y-75080062D01*
X164585396Y-75089500D01*
X161564604Y-75089500D01*
X161517155Y-75080062D01*
X161493497Y-75070263D01*
X161493493Y-75070262D01*
X161493488Y-75070260D01*
X161338845Y-75039500D01*
X161338842Y-75039500D01*
X161181158Y-75039500D01*
X161181155Y-75039500D01*
X161026511Y-75070260D01*
X161026506Y-75070262D01*
X161026504Y-75070262D01*
X161026503Y-75070263D01*
X161002844Y-75080062D01*
X160955396Y-75089500D01*
X153054604Y-75089500D01*
X153007155Y-75080062D01*
X152983497Y-75070263D01*
X152983493Y-75070262D01*
X152983488Y-75070260D01*
X152828845Y-75039500D01*
X152828842Y-75039500D01*
X152671158Y-75039500D01*
X152671155Y-75039500D01*
X152516511Y-75070260D01*
X152516506Y-75070262D01*
X152516504Y-75070262D01*
X152516503Y-75070263D01*
X152492844Y-75080062D01*
X152445396Y-75089500D01*
X148934604Y-75089500D01*
X148887155Y-75080062D01*
X148863497Y-75070263D01*
X148863493Y-75070262D01*
X148863488Y-75070260D01*
X148708845Y-75039500D01*
X148708842Y-75039500D01*
X148551158Y-75039500D01*
X148551155Y-75039500D01*
X148396511Y-75070260D01*
X148396506Y-75070262D01*
X148396504Y-75070262D01*
X148396503Y-75070263D01*
X148372844Y-75080062D01*
X148325396Y-75089500D01*
X145356080Y-75089500D01*
X145211092Y-75118340D01*
X145211086Y-75118342D01*
X145074508Y-75174914D01*
X145074496Y-75174921D01*
X145025269Y-75207813D01*
X144951588Y-75257044D01*
X144951580Y-75257050D01*
X144562181Y-75646450D01*
X144500858Y-75679935D01*
X144431166Y-75674951D01*
X144375233Y-75633079D01*
X144350816Y-75567615D01*
X144350500Y-75558769D01*
X144350500Y-74784500D01*
X144370185Y-74717461D01*
X144422989Y-74671706D01*
X144474500Y-74660500D01*
X174820503Y-74660500D01*
X174887542Y-74680185D01*
G37*
%TD.AperFunction*%
%TD*%
%TA.AperFunction,Conductor*%
%TO.N,3.3V*%
G36*
X174886394Y-100802200D02*
G01*
X174932726Y-100854498D01*
X174944503Y-100907244D01*
X174944503Y-144415500D01*
X174924818Y-144482539D01*
X174872014Y-144528294D01*
X174820503Y-144539500D01*
X167572214Y-144539500D01*
X167505175Y-144519815D01*
X167459420Y-144467011D01*
X167448214Y-144415672D01*
X167443047Y-140701153D01*
X170889500Y-140701153D01*
X170889500Y-140858846D01*
X170920261Y-141013489D01*
X170920264Y-141013501D01*
X170980602Y-141159172D01*
X170980609Y-141159185D01*
X171068210Y-141290288D01*
X171068213Y-141290292D01*
X171179707Y-141401786D01*
X171179711Y-141401789D01*
X171310814Y-141489390D01*
X171310827Y-141489397D01*
X171456498Y-141549735D01*
X171456503Y-141549737D01*
X171611153Y-141580499D01*
X171611156Y-141580500D01*
X171611158Y-141580500D01*
X171768844Y-141580500D01*
X171768845Y-141580499D01*
X171923497Y-141549737D01*
X172069179Y-141489394D01*
X172200289Y-141401789D01*
X172311789Y-141290289D01*
X172399394Y-141159179D01*
X172459737Y-141013497D01*
X172490500Y-140858842D01*
X172490500Y-140701158D01*
X172490500Y-140701155D01*
X172490499Y-140701153D01*
X172489322Y-140695238D01*
X172459737Y-140546503D01*
X172436813Y-140491158D01*
X172399397Y-140400827D01*
X172399390Y-140400814D01*
X172311789Y-140269711D01*
X172311786Y-140269707D01*
X172200292Y-140158213D01*
X172200288Y-140158210D01*
X172069185Y-140070609D01*
X172069172Y-140070602D01*
X171923501Y-140010264D01*
X171923489Y-140010261D01*
X171768845Y-139979500D01*
X171768842Y-139979500D01*
X171611158Y-139979500D01*
X171611155Y-139979500D01*
X171456510Y-140010261D01*
X171456498Y-140010264D01*
X171310827Y-140070602D01*
X171310814Y-140070609D01*
X171179711Y-140158210D01*
X171179707Y-140158213D01*
X171068213Y-140269707D01*
X171068210Y-140269711D01*
X170980609Y-140400814D01*
X170980602Y-140400827D01*
X170920264Y-140546498D01*
X170920261Y-140546510D01*
X170889500Y-140701153D01*
X167443047Y-140701153D01*
X167443039Y-140695238D01*
X167442832Y-140546498D01*
X167439546Y-138183703D01*
X167459136Y-138116640D01*
X167511877Y-138070811D01*
X167581021Y-138060772D01*
X167587727Y-138061915D01*
X167626503Y-138069628D01*
X167681156Y-138080500D01*
X167681158Y-138080500D01*
X167838844Y-138080500D01*
X167838845Y-138080499D01*
X167993497Y-138049737D01*
X168139179Y-137989394D01*
X168270289Y-137901789D01*
X168381789Y-137790289D01*
X168469394Y-137659179D01*
X168529737Y-137513497D01*
X168560500Y-137358842D01*
X168560500Y-137201158D01*
X168560500Y-137201155D01*
X168560499Y-137201153D01*
X168529738Y-137046510D01*
X168529737Y-137046503D01*
X168502300Y-136980263D01*
X168469397Y-136900827D01*
X168469390Y-136900814D01*
X168381789Y-136769711D01*
X168381786Y-136769707D01*
X168270292Y-136658213D01*
X168270288Y-136658210D01*
X168139185Y-136570609D01*
X168139172Y-136570602D01*
X167993501Y-136510264D01*
X167993489Y-136510261D01*
X167838845Y-136479500D01*
X167838842Y-136479500D01*
X167681158Y-136479500D01*
X167585223Y-136498582D01*
X167515632Y-136492353D01*
X167460455Y-136449490D01*
X167437211Y-136383600D01*
X167437033Y-136377156D01*
X167436243Y-135809196D01*
X167455834Y-135742133D01*
X167508575Y-135696304D01*
X167512752Y-135694482D01*
X167549179Y-135679394D01*
X167680289Y-135591789D01*
X167791789Y-135480289D01*
X167879394Y-135349179D01*
X167939737Y-135203497D01*
X167970500Y-135048842D01*
X167970500Y-134891158D01*
X167970500Y-134891155D01*
X167970499Y-134891153D01*
X167957979Y-134828210D01*
X167939737Y-134736503D01*
X167916442Y-134680263D01*
X167879397Y-134590827D01*
X167879390Y-134590814D01*
X167804498Y-134478731D01*
X167783620Y-134412054D01*
X167802104Y-134344673D01*
X167819920Y-134322158D01*
X167861786Y-134280292D01*
X167861789Y-134280289D01*
X167949394Y-134149179D01*
X168009737Y-134003497D01*
X168040500Y-133848842D01*
X168040500Y-133691158D01*
X168040500Y-133691155D01*
X168040499Y-133691153D01*
X168009738Y-133536510D01*
X168009737Y-133536503D01*
X168009735Y-133536498D01*
X167949397Y-133390827D01*
X167949390Y-133390814D01*
X167861789Y-133259711D01*
X167861786Y-133259707D01*
X167750292Y-133148213D01*
X167750288Y-133148210D01*
X167619185Y-133060609D01*
X167619172Y-133060602D01*
X167508745Y-133014863D01*
X167454341Y-132971023D01*
X167432276Y-132904729D01*
X167432198Y-132900540D01*
X167430000Y-131320000D01*
X157130000Y-131280000D01*
X157100665Y-136736268D01*
X157080621Y-136803200D01*
X157027571Y-136848671D01*
X156976267Y-136859600D01*
X144474100Y-136819270D01*
X144407124Y-136799370D01*
X144361540Y-136746418D01*
X144350500Y-136695271D01*
X144350500Y-130641153D01*
X171819500Y-130641153D01*
X171819500Y-130798846D01*
X171850261Y-130953489D01*
X171850264Y-130953501D01*
X171910602Y-131099172D01*
X171910609Y-131099185D01*
X171998210Y-131230288D01*
X171998213Y-131230292D01*
X172109707Y-131341786D01*
X172109711Y-131341789D01*
X172240814Y-131429390D01*
X172240827Y-131429397D01*
X172386498Y-131489735D01*
X172386503Y-131489737D01*
X172541153Y-131520499D01*
X172541156Y-131520500D01*
X172541158Y-131520500D01*
X172698844Y-131520500D01*
X172698845Y-131520499D01*
X172853497Y-131489737D01*
X172999179Y-131429394D01*
X173130289Y-131341789D01*
X173241789Y-131230289D01*
X173329394Y-131099179D01*
X173389737Y-130953497D01*
X173420500Y-130798842D01*
X173420500Y-130641158D01*
X173420500Y-130641155D01*
X173420499Y-130641153D01*
X173389738Y-130486510D01*
X173389737Y-130486503D01*
X173389735Y-130486498D01*
X173329397Y-130340827D01*
X173329390Y-130340814D01*
X173241789Y-130209711D01*
X173241786Y-130209707D01*
X173130292Y-130098213D01*
X173130288Y-130098210D01*
X172999185Y-130010609D01*
X172999172Y-130010602D01*
X172853501Y-129950264D01*
X172853489Y-129950261D01*
X172698845Y-129919500D01*
X172698842Y-129919500D01*
X172541158Y-129919500D01*
X172541155Y-129919500D01*
X172386510Y-129950261D01*
X172386498Y-129950264D01*
X172240827Y-130010602D01*
X172240814Y-130010609D01*
X172109711Y-130098210D01*
X172109707Y-130098213D01*
X171998213Y-130209707D01*
X171998210Y-130209711D01*
X171910609Y-130340814D01*
X171910602Y-130340827D01*
X171850264Y-130486498D01*
X171850261Y-130486510D01*
X171819500Y-130641153D01*
X144350500Y-130641153D01*
X144350500Y-117091153D01*
X168979500Y-117091153D01*
X168979500Y-117248846D01*
X169010261Y-117403489D01*
X169010264Y-117403501D01*
X169070602Y-117549172D01*
X169070609Y-117549185D01*
X169158210Y-117680288D01*
X169158213Y-117680292D01*
X169269708Y-117791787D01*
X169269711Y-117791789D01*
X169287355Y-117803578D01*
X169332160Y-117857190D01*
X169340869Y-117926515D01*
X169310714Y-117989543D01*
X169294093Y-118003949D01*
X169294419Y-118004347D01*
X169289707Y-118008213D01*
X169178213Y-118119707D01*
X169178210Y-118119711D01*
X169090609Y-118250814D01*
X169090602Y-118250827D01*
X169030264Y-118396498D01*
X169030261Y-118396510D01*
X168999500Y-118551153D01*
X168999500Y-118708846D01*
X169030261Y-118863489D01*
X169030264Y-118863501D01*
X169090602Y-119009172D01*
X169090609Y-119009185D01*
X169178210Y-119140288D01*
X169178213Y-119140292D01*
X169215240Y-119177319D01*
X169248725Y-119238642D01*
X169243741Y-119308334D01*
X169215244Y-119352677D01*
X169208213Y-119359707D01*
X169208208Y-119359714D01*
X169120609Y-119490814D01*
X169120602Y-119490827D01*
X169060264Y-119636498D01*
X169060261Y-119636510D01*
X169029500Y-119791153D01*
X169029500Y-119948846D01*
X169060261Y-120103489D01*
X169060264Y-120103501D01*
X169120602Y-120249172D01*
X169120609Y-120249185D01*
X169208211Y-120380290D01*
X169208779Y-120380982D01*
X169208962Y-120381414D01*
X169211595Y-120385354D01*
X169210847Y-120385853D01*
X169236086Y-120445294D01*
X169224289Y-120514161D01*
X169200607Y-120547314D01*
X169198210Y-120549711D01*
X169110609Y-120680814D01*
X169110602Y-120680827D01*
X169050264Y-120826498D01*
X169050261Y-120826510D01*
X169019500Y-120981153D01*
X169019500Y-121138846D01*
X169050261Y-121293489D01*
X169050264Y-121293501D01*
X169110602Y-121439172D01*
X169110609Y-121439185D01*
X169198210Y-121570288D01*
X169198213Y-121570292D01*
X169232740Y-121604819D01*
X169266225Y-121666142D01*
X169261241Y-121735834D01*
X169232740Y-121780181D01*
X169198213Y-121814707D01*
X169198210Y-121814711D01*
X169110609Y-121945814D01*
X169110602Y-121945827D01*
X169050264Y-122091498D01*
X169050261Y-122091510D01*
X169019500Y-122246153D01*
X169019500Y-122403846D01*
X169050261Y-122558489D01*
X169050264Y-122558501D01*
X169110602Y-122704172D01*
X169110609Y-122704185D01*
X169198210Y-122835288D01*
X169198213Y-122835292D01*
X169237740Y-122874819D01*
X169271225Y-122936142D01*
X169266241Y-123005834D01*
X169237740Y-123050181D01*
X169188213Y-123099707D01*
X169188210Y-123099711D01*
X169100609Y-123230814D01*
X169100602Y-123230827D01*
X169040264Y-123376498D01*
X169040261Y-123376510D01*
X169009500Y-123531153D01*
X169009500Y-123688846D01*
X169040261Y-123843489D01*
X169040264Y-123843501D01*
X169100602Y-123989172D01*
X169100609Y-123989185D01*
X169188210Y-124120288D01*
X169188213Y-124120292D01*
X169202740Y-124134819D01*
X169236225Y-124196142D01*
X169231241Y-124265834D01*
X169202740Y-124310181D01*
X169158213Y-124354707D01*
X169158210Y-124354711D01*
X169070609Y-124485814D01*
X169070602Y-124485827D01*
X169010264Y-124631498D01*
X169010261Y-124631510D01*
X168979500Y-124786153D01*
X168979500Y-124943846D01*
X169010261Y-125098489D01*
X169010264Y-125098501D01*
X169070602Y-125244172D01*
X169070609Y-125244185D01*
X169158210Y-125375288D01*
X169158213Y-125375292D01*
X169269707Y-125486786D01*
X169269711Y-125486789D01*
X169400814Y-125574390D01*
X169400827Y-125574397D01*
X169546498Y-125634735D01*
X169546503Y-125634737D01*
X169701153Y-125665499D01*
X169701156Y-125665500D01*
X169701158Y-125665500D01*
X169858844Y-125665500D01*
X169858845Y-125665499D01*
X170013497Y-125634737D01*
X170159179Y-125574394D01*
X170290289Y-125486789D01*
X170401789Y-125375289D01*
X170489394Y-125244179D01*
X170549737Y-125098497D01*
X170580500Y-124943842D01*
X170580500Y-124786158D01*
X170580500Y-124786155D01*
X170580499Y-124786153D01*
X170549738Y-124631510D01*
X170549737Y-124631503D01*
X170549735Y-124631498D01*
X170489397Y-124485827D01*
X170489390Y-124485814D01*
X170401789Y-124354711D01*
X170401786Y-124354707D01*
X170387259Y-124340180D01*
X170353774Y-124278857D01*
X170358758Y-124209165D01*
X170387259Y-124164818D01*
X170431789Y-124120289D01*
X170519394Y-123989179D01*
X170579737Y-123843497D01*
X170610500Y-123688842D01*
X170610500Y-123531158D01*
X170610500Y-123531155D01*
X170610499Y-123531153D01*
X170579738Y-123376510D01*
X170579737Y-123376503D01*
X170579735Y-123376498D01*
X170519397Y-123230827D01*
X170519390Y-123230814D01*
X170431789Y-123099711D01*
X170431786Y-123099707D01*
X170392259Y-123060180D01*
X170358774Y-122998857D01*
X170363758Y-122929165D01*
X170392256Y-122884821D01*
X170441789Y-122835289D01*
X170529394Y-122704179D01*
X170589737Y-122558497D01*
X170620500Y-122403842D01*
X170620500Y-122246158D01*
X170620500Y-122246155D01*
X170620499Y-122246153D01*
X170589738Y-122091510D01*
X170589737Y-122091503D01*
X170589735Y-122091498D01*
X170529397Y-121945827D01*
X170529390Y-121945814D01*
X170441789Y-121814711D01*
X170441786Y-121814707D01*
X170407260Y-121780182D01*
X170373774Y-121718860D01*
X170378758Y-121649168D01*
X170407260Y-121604818D01*
X170441786Y-121570292D01*
X170441789Y-121570289D01*
X170529394Y-121439179D01*
X170589737Y-121293497D01*
X170620500Y-121138842D01*
X170620500Y-120981158D01*
X170620500Y-120981155D01*
X170620499Y-120981153D01*
X170589738Y-120826510D01*
X170589737Y-120826503D01*
X170589735Y-120826498D01*
X170529397Y-120680827D01*
X170529390Y-120680814D01*
X170441787Y-120549707D01*
X170441222Y-120549019D01*
X170441039Y-120548588D01*
X170438405Y-120544646D01*
X170439152Y-120544146D01*
X170413913Y-120484707D01*
X170425709Y-120415840D01*
X170449402Y-120382675D01*
X170451789Y-120380289D01*
X170539394Y-120249179D01*
X170599737Y-120103497D01*
X170630500Y-119948842D01*
X170630500Y-119791158D01*
X170630500Y-119791155D01*
X170630499Y-119791153D01*
X170599738Y-119636510D01*
X170599737Y-119636503D01*
X170599735Y-119636498D01*
X170539397Y-119490827D01*
X170539390Y-119490814D01*
X170451789Y-119359711D01*
X170451786Y-119359707D01*
X170414759Y-119322680D01*
X170381274Y-119261357D01*
X170386258Y-119191665D01*
X170414761Y-119147316D01*
X170421789Y-119140289D01*
X170509394Y-119009179D01*
X170569737Y-118863497D01*
X170600500Y-118708842D01*
X170600500Y-118551158D01*
X170600500Y-118551155D01*
X170600499Y-118551153D01*
X170569738Y-118396510D01*
X170569737Y-118396503D01*
X170569735Y-118396498D01*
X170509397Y-118250827D01*
X170509390Y-118250814D01*
X170421789Y-118119711D01*
X170421786Y-118119707D01*
X170310292Y-118008213D01*
X170310288Y-118008210D01*
X170292643Y-117996420D01*
X170247838Y-117942808D01*
X170239131Y-117873483D01*
X170269285Y-117810456D01*
X170285909Y-117796052D01*
X170285581Y-117795653D01*
X170290285Y-117791791D01*
X170290289Y-117791789D01*
X170401789Y-117680289D01*
X170489394Y-117549179D01*
X170549737Y-117403497D01*
X170580500Y-117248842D01*
X170580500Y-117091158D01*
X170580500Y-117091155D01*
X170580499Y-117091153D01*
X170549738Y-116936510D01*
X170549737Y-116936503D01*
X170549735Y-116936498D01*
X170489397Y-116790827D01*
X170489390Y-116790814D01*
X170398476Y-116654753D01*
X170377598Y-116588076D01*
X170396082Y-116520696D01*
X170408276Y-116505288D01*
X170407924Y-116504999D01*
X170411784Y-116500293D01*
X170411789Y-116500289D01*
X170499394Y-116369179D01*
X170559737Y-116223497D01*
X170590500Y-116068842D01*
X170590500Y-115911158D01*
X170590500Y-115911155D01*
X170590499Y-115911153D01*
X170559738Y-115756510D01*
X170559737Y-115756503D01*
X170559735Y-115756498D01*
X170499397Y-115610827D01*
X170499390Y-115610814D01*
X170411789Y-115479711D01*
X170411786Y-115479707D01*
X170384760Y-115452681D01*
X170351275Y-115391358D01*
X170356259Y-115321666D01*
X170384760Y-115277319D01*
X170411786Y-115250292D01*
X170411789Y-115250289D01*
X170499394Y-115119179D01*
X170559737Y-114973497D01*
X170590500Y-114818842D01*
X170590500Y-114661158D01*
X170590500Y-114661155D01*
X170590499Y-114661153D01*
X170559738Y-114506510D01*
X170559737Y-114506503D01*
X170559735Y-114506498D01*
X170499397Y-114360827D01*
X170499390Y-114360814D01*
X170411789Y-114229711D01*
X170411786Y-114229707D01*
X170300292Y-114118213D01*
X170300288Y-114118210D01*
X170169185Y-114030609D01*
X170169172Y-114030602D01*
X170023501Y-113970264D01*
X170023489Y-113970261D01*
X169868845Y-113939500D01*
X169868842Y-113939500D01*
X169711158Y-113939500D01*
X169711155Y-113939500D01*
X169556510Y-113970261D01*
X169556498Y-113970264D01*
X169410827Y-114030602D01*
X169410814Y-114030609D01*
X169279711Y-114118210D01*
X169279707Y-114118213D01*
X169168213Y-114229707D01*
X169168210Y-114229711D01*
X169080609Y-114360814D01*
X169080602Y-114360827D01*
X169020264Y-114506498D01*
X169020261Y-114506510D01*
X168989500Y-114661153D01*
X168989500Y-114818846D01*
X169020261Y-114973489D01*
X169020264Y-114973501D01*
X169080602Y-115119172D01*
X169080609Y-115119185D01*
X169168210Y-115250288D01*
X169168213Y-115250292D01*
X169195240Y-115277319D01*
X169228725Y-115338642D01*
X169223741Y-115408334D01*
X169195240Y-115452681D01*
X169168213Y-115479707D01*
X169168210Y-115479711D01*
X169080609Y-115610814D01*
X169080602Y-115610827D01*
X169020264Y-115756498D01*
X169020261Y-115756510D01*
X168989500Y-115911153D01*
X168989500Y-116068846D01*
X169020261Y-116223489D01*
X169020264Y-116223501D01*
X169080602Y-116369172D01*
X169080609Y-116369185D01*
X169171523Y-116505246D01*
X169192401Y-116571923D01*
X169173917Y-116639304D01*
X169161726Y-116654713D01*
X169162076Y-116655001D01*
X169158210Y-116659711D01*
X169070609Y-116790814D01*
X169070602Y-116790827D01*
X169010264Y-116936498D01*
X169010261Y-116936510D01*
X168979500Y-117091153D01*
X144350500Y-117091153D01*
X144350500Y-101160288D01*
X144370185Y-101093249D01*
X144422989Y-101047494D01*
X144475023Y-101036290D01*
X145124143Y-101039065D01*
X145191092Y-101059035D01*
X145236621Y-101112034D01*
X145246268Y-101181235D01*
X145216972Y-101244666D01*
X145192499Y-101266164D01*
X145069713Y-101348208D01*
X145069707Y-101348213D01*
X144958213Y-101459707D01*
X144958210Y-101459711D01*
X144870609Y-101590814D01*
X144870602Y-101590827D01*
X144810264Y-101736498D01*
X144810261Y-101736510D01*
X144779500Y-101891153D01*
X144779500Y-102048846D01*
X144810261Y-102203489D01*
X144810264Y-102203501D01*
X144870602Y-102349172D01*
X144870609Y-102349185D01*
X144958210Y-102480288D01*
X144958213Y-102480292D01*
X145069707Y-102591786D01*
X145069711Y-102591789D01*
X145200814Y-102679390D01*
X145200827Y-102679397D01*
X145346498Y-102739735D01*
X145346503Y-102739737D01*
X145501153Y-102770499D01*
X145501156Y-102770500D01*
X145501158Y-102770500D01*
X145658844Y-102770500D01*
X145658845Y-102770499D01*
X145813497Y-102739737D01*
X145959179Y-102679394D01*
X146090289Y-102591789D01*
X146201789Y-102480289D01*
X146289394Y-102349179D01*
X146349737Y-102203497D01*
X146380500Y-102048842D01*
X146380500Y-101891158D01*
X146380500Y-101891155D01*
X146380499Y-101891153D01*
X146366293Y-101819737D01*
X146349737Y-101736503D01*
X146322932Y-101671789D01*
X146289397Y-101590827D01*
X146289390Y-101590814D01*
X146201789Y-101459711D01*
X146201786Y-101459707D01*
X146090292Y-101348213D01*
X146090288Y-101348210D01*
X145973379Y-101270094D01*
X145928574Y-101216482D01*
X145919867Y-101147157D01*
X145950021Y-101084130D01*
X146009464Y-101047410D01*
X146042794Y-101042993D01*
X147905883Y-101050959D01*
X147972836Y-101070930D01*
X148018365Y-101123929D01*
X148019910Y-101127500D01*
X148020603Y-101129173D01*
X148020609Y-101129185D01*
X148108210Y-101260288D01*
X148108213Y-101260292D01*
X148219707Y-101371786D01*
X148219711Y-101371789D01*
X148350814Y-101459390D01*
X148350827Y-101459397D01*
X148450060Y-101500500D01*
X148496503Y-101519737D01*
X148651153Y-101550499D01*
X148651156Y-101550500D01*
X148651158Y-101550500D01*
X148808844Y-101550500D01*
X148808845Y-101550499D01*
X148963497Y-101519737D01*
X149108414Y-101459711D01*
X149109172Y-101459397D01*
X149109172Y-101459396D01*
X149109179Y-101459394D01*
X149240289Y-101371789D01*
X149351789Y-101260289D01*
X149439394Y-101129179D01*
X149439398Y-101129167D01*
X149442264Y-101123808D01*
X149444786Y-101125156D01*
X149480838Y-101080262D01*
X149547094Y-101058084D01*
X149552206Y-101057998D01*
X152540673Y-101070776D01*
X152607626Y-101090747D01*
X152653155Y-101143746D01*
X152664136Y-101193684D01*
X152697702Y-105007760D01*
X152678608Y-105074970D01*
X152661390Y-105096531D01*
X152598208Y-105159714D01*
X152510609Y-105290814D01*
X152510602Y-105290827D01*
X152450264Y-105436498D01*
X152450261Y-105436510D01*
X152419500Y-105591153D01*
X152419500Y-105748846D01*
X152450261Y-105903489D01*
X152450264Y-105903501D01*
X152510602Y-106049172D01*
X152510609Y-106049185D01*
X152598209Y-106180287D01*
X152598210Y-106180288D01*
X152598211Y-106180289D01*
X152673130Y-106255208D01*
X152706614Y-106316529D01*
X152709443Y-106341797D01*
X152717193Y-107222383D01*
X152698099Y-107289593D01*
X152662091Y-107326574D01*
X152629713Y-107348208D01*
X152629704Y-107348217D01*
X152518213Y-107459707D01*
X152518210Y-107459711D01*
X152430609Y-107590814D01*
X152430602Y-107590827D01*
X152370264Y-107736498D01*
X152370261Y-107736510D01*
X152339500Y-107891153D01*
X152339500Y-108048846D01*
X152370261Y-108203489D01*
X152370264Y-108203501D01*
X152430602Y-108349172D01*
X152430609Y-108349185D01*
X152518210Y-108480288D01*
X152518213Y-108480292D01*
X152629708Y-108591787D01*
X152629711Y-108591789D01*
X152675307Y-108622255D01*
X152720111Y-108675866D01*
X152730411Y-108724266D01*
X152749999Y-110949999D01*
X152749999Y-110949998D01*
X152750000Y-110950000D01*
X153069223Y-110944726D01*
X153136575Y-110963300D01*
X153158949Y-110981028D01*
X153229707Y-111051786D01*
X153229711Y-111051789D01*
X153360814Y-111139390D01*
X153360827Y-111139397D01*
X153506498Y-111199735D01*
X153506503Y-111199737D01*
X153661153Y-111230499D01*
X153661156Y-111230500D01*
X153661158Y-111230500D01*
X153818844Y-111230500D01*
X153818845Y-111230499D01*
X153973497Y-111199737D01*
X154119179Y-111139394D01*
X154250289Y-111051789D01*
X154343514Y-110958563D01*
X154404835Y-110925080D01*
X154429144Y-110922263D01*
X160620000Y-110820000D01*
X160567270Y-105031441D01*
X160586342Y-104964230D01*
X160622371Y-104927215D01*
X160720289Y-104861789D01*
X160805260Y-104776817D01*
X160866581Y-104743334D01*
X160892940Y-104740500D01*
X161038844Y-104740500D01*
X161038845Y-104740499D01*
X161193497Y-104709737D01*
X161339179Y-104649394D01*
X161470289Y-104561789D01*
X161581789Y-104450289D01*
X161669394Y-104319179D01*
X161729737Y-104173497D01*
X161760500Y-104018842D01*
X161760500Y-103861158D01*
X161760500Y-103861155D01*
X161760499Y-103861153D01*
X161754658Y-103831789D01*
X161729737Y-103706503D01*
X161715227Y-103671473D01*
X161669397Y-103560827D01*
X161669390Y-103560814D01*
X161581789Y-103429711D01*
X161581786Y-103429707D01*
X161470292Y-103318213D01*
X161470288Y-103318210D01*
X161339183Y-103230608D01*
X161339172Y-103230602D01*
X161193501Y-103170264D01*
X161193489Y-103170261D01*
X161038845Y-103139500D01*
X161038842Y-103139500D01*
X160881158Y-103139500D01*
X160881155Y-103139500D01*
X160726510Y-103170261D01*
X160726498Y-103170264D01*
X160720749Y-103172646D01*
X160651279Y-103180113D01*
X160588801Y-103148837D01*
X160578309Y-103131153D01*
X162249500Y-103131153D01*
X162249500Y-103288846D01*
X162280261Y-103443489D01*
X162280264Y-103443501D01*
X162340602Y-103589172D01*
X162340609Y-103589185D01*
X162428210Y-103720288D01*
X162428213Y-103720292D01*
X162539707Y-103831786D01*
X162539711Y-103831789D01*
X162670814Y-103919390D01*
X162670827Y-103919397D01*
X162799386Y-103972647D01*
X162816503Y-103979737D01*
X162933113Y-104002932D01*
X162959087Y-104008099D01*
X163020998Y-104040484D01*
X163049457Y-104082264D01*
X163060602Y-104109172D01*
X163060609Y-104109185D01*
X163148210Y-104240288D01*
X163148213Y-104240292D01*
X163259707Y-104351786D01*
X163259711Y-104351789D01*
X163390814Y-104439390D01*
X163390827Y-104439397D01*
X163536498Y-104499735D01*
X163536503Y-104499737D01*
X163691153Y-104530499D01*
X163691156Y-104530500D01*
X163691158Y-104530500D01*
X163848844Y-104530500D01*
X163848845Y-104530499D01*
X164003497Y-104499737D01*
X164149179Y-104439394D01*
X164280289Y-104351789D01*
X164391789Y-104240289D01*
X164479394Y-104109179D01*
X164539737Y-103963497D01*
X164570500Y-103808842D01*
X164570500Y-103651158D01*
X164570500Y-103651155D01*
X164570499Y-103651153D01*
X164560751Y-103602148D01*
X164539737Y-103496503D01*
X164529010Y-103470606D01*
X164479397Y-103350827D01*
X164479390Y-103350814D01*
X164391789Y-103219711D01*
X164391786Y-103219707D01*
X164280292Y-103108213D01*
X164280288Y-103108210D01*
X164149185Y-103020609D01*
X164149172Y-103020602D01*
X164003501Y-102960264D01*
X164003491Y-102960261D01*
X163860911Y-102931900D01*
X163799000Y-102899515D01*
X163770541Y-102857733D01*
X163763675Y-102841158D01*
X163759394Y-102830821D01*
X163759392Y-102830818D01*
X163759390Y-102830814D01*
X163671789Y-102699711D01*
X163671786Y-102699707D01*
X163560292Y-102588213D01*
X163560288Y-102588210D01*
X163429185Y-102500609D01*
X163429172Y-102500602D01*
X163283501Y-102440264D01*
X163283489Y-102440261D01*
X163128845Y-102409500D01*
X163128842Y-102409500D01*
X162971158Y-102409500D01*
X162971155Y-102409500D01*
X162816510Y-102440261D01*
X162816498Y-102440264D01*
X162670827Y-102500602D01*
X162670814Y-102500609D01*
X162539711Y-102588210D01*
X162539707Y-102588213D01*
X162428213Y-102699707D01*
X162428210Y-102699711D01*
X162340609Y-102830814D01*
X162340602Y-102830827D01*
X162280264Y-102976498D01*
X162280261Y-102976510D01*
X162249500Y-103131153D01*
X160578309Y-103131153D01*
X160553150Y-103088747D01*
X160549304Y-103059217D01*
X160531127Y-101063762D01*
X160550200Y-100996549D01*
X160602585Y-100950315D01*
X160653760Y-100938642D01*
X160950579Y-100935386D01*
X161017829Y-100954334D01*
X161039619Y-100971698D01*
X161109707Y-101041786D01*
X161109711Y-101041789D01*
X161240814Y-101129390D01*
X161240827Y-101129397D01*
X161362363Y-101179738D01*
X161386503Y-101189737D01*
X161541153Y-101220499D01*
X161541156Y-101220500D01*
X161541158Y-101220500D01*
X161698844Y-101220500D01*
X161698845Y-101220499D01*
X161853497Y-101189737D01*
X161999179Y-101129394D01*
X162130289Y-101041789D01*
X162215200Y-100956877D01*
X162276521Y-100923393D01*
X162301511Y-100920566D01*
X162781647Y-100915299D01*
X162848895Y-100934247D01*
X162895227Y-100986546D01*
X162897564Y-100991836D01*
X162900604Y-100999176D01*
X162900609Y-100999185D01*
X162988210Y-101130288D01*
X162988213Y-101130292D01*
X163099707Y-101241786D01*
X163099711Y-101241789D01*
X163230814Y-101329390D01*
X163230827Y-101329397D01*
X163330060Y-101370500D01*
X163376503Y-101389737D01*
X163527322Y-101419737D01*
X163531153Y-101420499D01*
X163531156Y-101420500D01*
X163531158Y-101420500D01*
X163688844Y-101420500D01*
X163688845Y-101420499D01*
X163843497Y-101389737D01*
X163953820Y-101344039D01*
X164023287Y-101336571D01*
X164070159Y-101355497D01*
X164150821Y-101409394D01*
X164150823Y-101409395D01*
X164150827Y-101409397D01*
X164272288Y-101459707D01*
X164296503Y-101469737D01*
X164451153Y-101500499D01*
X164451156Y-101500500D01*
X164451158Y-101500500D01*
X164608844Y-101500500D01*
X164608845Y-101500499D01*
X164763497Y-101469737D01*
X164909179Y-101409394D01*
X165040289Y-101321789D01*
X165043946Y-101318131D01*
X165105263Y-101284645D01*
X165174955Y-101289626D01*
X165179036Y-101291231D01*
X165296141Y-101339737D01*
X165394963Y-101359394D01*
X165450791Y-101370499D01*
X165450794Y-101370500D01*
X165450796Y-101370500D01*
X165608482Y-101370500D01*
X165608483Y-101370499D01*
X165763135Y-101339737D01*
X165896140Y-101284645D01*
X165908810Y-101279397D01*
X165908810Y-101279396D01*
X165908817Y-101279394D01*
X166039927Y-101191789D01*
X166151427Y-101080289D01*
X166239032Y-100949179D01*
X166239036Y-100949167D01*
X166241902Y-100943808D01*
X166243890Y-100944870D01*
X166281373Y-100898315D01*
X166347657Y-100876220D01*
X166350664Y-100876148D01*
X169279607Y-100844018D01*
X169346855Y-100862966D01*
X169384066Y-100899120D01*
X169398210Y-100920288D01*
X169398213Y-100920292D01*
X169509707Y-101031786D01*
X169509711Y-101031789D01*
X169640814Y-101119390D01*
X169640827Y-101119397D01*
X169764992Y-101170827D01*
X169786503Y-101179737D01*
X169941153Y-101210499D01*
X169941156Y-101210500D01*
X169941158Y-101210500D01*
X170098844Y-101210500D01*
X170098845Y-101210499D01*
X170253497Y-101179737D01*
X170372878Y-101130288D01*
X170399172Y-101119397D01*
X170399172Y-101119396D01*
X170399179Y-101119394D01*
X170530289Y-101031789D01*
X170641789Y-100920289D01*
X170666847Y-100882785D01*
X170720456Y-100837982D01*
X170768582Y-100827685D01*
X172579388Y-100807821D01*
X172646636Y-100826768D01*
X172692968Y-100879067D01*
X172703669Y-100948113D01*
X172675343Y-101011983D01*
X172668428Y-101019492D01*
X172648214Y-101039706D01*
X172648210Y-101039711D01*
X172560609Y-101170814D01*
X172560602Y-101170827D01*
X172500264Y-101316498D01*
X172500261Y-101316510D01*
X172469500Y-101471153D01*
X172469500Y-101628846D01*
X172500261Y-101783489D01*
X172500264Y-101783501D01*
X172560602Y-101929172D01*
X172563479Y-101934554D01*
X172561936Y-101935378D01*
X172580339Y-101994137D01*
X172561858Y-102061518D01*
X172509882Y-102108211D01*
X172476952Y-102117406D01*
X172477132Y-102118311D01*
X172316510Y-102150261D01*
X172316498Y-102150264D01*
X172170827Y-102210602D01*
X172170814Y-102210609D01*
X172039711Y-102298210D01*
X172039707Y-102298213D01*
X171928213Y-102409707D01*
X171928210Y-102409711D01*
X171840609Y-102540814D01*
X171840602Y-102540827D01*
X171780264Y-102686498D01*
X171780261Y-102686510D01*
X171749500Y-102841153D01*
X171749500Y-102998846D01*
X171780261Y-103153489D01*
X171780264Y-103153501D01*
X171840602Y-103299172D01*
X171840609Y-103299185D01*
X171928210Y-103430288D01*
X171928213Y-103430292D01*
X172039707Y-103541786D01*
X172039712Y-103541790D01*
X172049808Y-103548536D01*
X172094614Y-103602148D01*
X172103323Y-103671473D01*
X172073169Y-103734500D01*
X172068601Y-103739320D01*
X172008210Y-103799711D01*
X171920609Y-103930814D01*
X171920602Y-103930827D01*
X171860264Y-104076498D01*
X171860261Y-104076510D01*
X171829500Y-104231153D01*
X171829500Y-104388846D01*
X171860261Y-104543489D01*
X171860264Y-104543501D01*
X171920602Y-104689172D01*
X171920609Y-104689185D01*
X172008210Y-104820288D01*
X172008213Y-104820292D01*
X172119707Y-104931786D01*
X172119711Y-104931789D01*
X172250814Y-105019390D01*
X172250827Y-105019397D01*
X172384994Y-105074970D01*
X172396503Y-105079737D01*
X172480932Y-105096531D01*
X172551153Y-105110499D01*
X172551156Y-105110500D01*
X172551158Y-105110500D01*
X172708844Y-105110500D01*
X172708845Y-105110499D01*
X172863497Y-105079737D01*
X173009179Y-105019394D01*
X173140289Y-104931789D01*
X173251789Y-104820289D01*
X173339394Y-104689179D01*
X173399737Y-104543497D01*
X173430500Y-104388842D01*
X173430500Y-104231158D01*
X173430500Y-104231155D01*
X173430499Y-104231153D01*
X173419029Y-104173489D01*
X173399737Y-104076503D01*
X173372398Y-104010500D01*
X173339397Y-103930827D01*
X173339390Y-103930814D01*
X173251789Y-103799711D01*
X173251786Y-103799707D01*
X173140292Y-103688213D01*
X173140288Y-103688210D01*
X173130189Y-103681462D01*
X173085384Y-103627850D01*
X173076677Y-103558525D01*
X173106832Y-103495497D01*
X173111380Y-103490697D01*
X173171789Y-103430289D01*
X173259394Y-103299179D01*
X173319737Y-103153497D01*
X173350500Y-102998842D01*
X173350500Y-102841158D01*
X173350500Y-102841155D01*
X173350499Y-102841153D01*
X173348442Y-102830814D01*
X173319737Y-102686503D01*
X173316791Y-102679390D01*
X173259397Y-102540827D01*
X173256521Y-102535446D01*
X173258063Y-102534621D01*
X173239660Y-102475871D01*
X173258137Y-102408488D01*
X173310110Y-102361792D01*
X173343048Y-102352598D01*
X173342868Y-102351689D01*
X173429334Y-102334488D01*
X173503497Y-102319737D01*
X173649179Y-102259394D01*
X173780289Y-102171789D01*
X173891789Y-102060289D01*
X173979394Y-101929179D01*
X174039737Y-101783497D01*
X174070500Y-101628842D01*
X174070500Y-101471158D01*
X174070500Y-101471155D01*
X174070499Y-101471153D01*
X174050734Y-101371789D01*
X174039737Y-101316503D01*
X174024366Y-101279394D01*
X173979397Y-101170827D01*
X173979390Y-101170814D01*
X173891789Y-101039711D01*
X173891786Y-101039707D01*
X173856615Y-101004536D01*
X173823130Y-100943213D01*
X173828114Y-100873521D01*
X173869986Y-100817588D01*
X173935450Y-100793171D01*
X173942892Y-100792863D01*
X174819144Y-100783251D01*
X174886394Y-100802200D01*
G37*
%TD.AperFunction*%
%TD*%
M02*
